<svg width="284" height="222" viewBox="0 0 284 222" xmlns="http://www.w3.org/2000/svg"><title>Group 2</title><g fill="none" fill-rule="evenodd"><path d="M154.871 174.613c1.307-17.128-11.805-34.996-27.853-38.32 0 0 9.037-3.429 19.336-1.223 10.226 2.19 22.57 8.928 28.614 27.666 0 0 7.371 25.513-14.808 41.57-20.165 14.599-40.533 2.472-40.533 2.472 17.844.963 33.834-13.685 35.244-32.165m-97.18 21.084c3.516-2.868 7.182-4.742 10.48-5.325 19.95-3.529 26.348 6.298 32.492 13.052 12.356 13.58 23.564 16.603 36.04 16.608 24.978.01 45.775-22.134 44.403-47.137-1.285-23.428-18.862-41.392-42.723-43.608-.604-.056-1.112-.035-1.712-.061-7.405-.325-12.21 1.257-18.592 3.326-1.835.595-3.006 1.282-3.872 1.505-1.048.27-1.622-.01-1.99-.294-.334-.258-1.38-1.85-.181-3.047 3.089-3.08 4.17-3.367 7.886-6.242 1.352-1.046 2.586-1.914 2.926-3.194.222-.832.178-1.958-.887-2.964-1.295-1.224-3.158-.64-5.644.626-1.22.622-2.589 1.327-4.087 2.335-8.503 5.713-16.436 14.363-20.617 24.58-.24.586 2.464-9.126 2.817-10.247 1.6-5.084 8.497-19.133 19.579-27.571 10.108-8.731 26.487-15.838 44.002-14.674 37.296 2.477 61.48 32.396 60.844 66.785-.169 9.101-5.032 35.791-27.723 50.63l34.115-15.51c5.915-2.688 10.753-10.218 10.753-16.733V92.161c0-6.515-4.838-14.044-10.753-16.733l-73.494-33.412c-5.914-2.688-15.591-2.688-21.506 0L56.753 75.428C50.839 78.117 46 85.646 46 92.161v86.376c0 6.515 4.839 14.045 10.753 16.733l.939.427z" stroke="#00A8FF" stroke-width="2"/><text font-family="OpenSans, Open Sans" font-size="16" fill="#00A8FF"><tspan x="128.777" y="74">404</tspan></text><path stroke="#00A8FF" d="M34.5 64.25l-4.408 2.318.842-4.91-3.567-3.476 4.929-.716L34.5 53l2.204 4.466 4.929.716-3.567 3.477.842 4.909zM254.5 126.25l-4.408 2.318.842-4.91-3.567-3.476 4.929-.716L254.5 115l2.204 4.466 4.929.716-3.567 3.477.842 4.909z"/><rect stroke="#00A8FF" x="141" width="2" height="22" rx="1"/><rect stroke="#00A8FF" transform="rotate(51 246.765 61.452)" x="245.765" y="50.452" width="2" height="22" rx="1"/><rect stroke="#00A8FF" transform="rotate(103 272.64 174.818)" x="271.64" y="163.818" width="2" height="22" rx="1"/><rect stroke="#00A8FF" transform="rotate(-103 11.36 174.818)" x="10.36" y="163.818" width="2" height="22" rx="1"/></g></svg>