<?xml version="1.0" encoding="UTF-8"?>
<svg width="99px" height="31px" viewBox="0 0 99 31" version="1.1" xmlns="http://www.w3.org/2000/svg" xmlns:xlink="http://www.w3.org/1999/xlink">
    <!-- Generator: Sketch 52 (66869) - http://www.bohemiancoding.com/sketch -->
    <title>Group</title>
    <desc>Created with Sketch.</desc>
    <g id="NGO" stroke="none" stroke-width="1" fill="none" fill-rule="evenodd">
        <g id="login-copy" transform="translate(-17.000000, -11.000000)">
            <g id="Group" transform="translate(17.000000, 11.000000)">
                <path d="M15.6888611,19.2552232 C15.8772338,16.8051995 13.9876661,14.2494534 11.6751388,13.773929 C11.6751388,13.773929 12.9773601,13.2834385 14.4614332,13.5989111 C15.9351859,13.9122377 17.7140095,14.87605 18.5848789,17.5564377 C18.5848789,17.5564377 19.6471831,21.205777 16.4510278,23.502639 C13.5452001,25.5908237 10.6100561,23.8562326 10.6100561,23.8562326 C13.1813833,23.9939765 15.4856318,21.8986759 15.6888611,19.2552232 M1.68486405,22.2711324 C2.19134962,21.8608937 2.71966646,21.5929171 3.19485108,21.5095027 C6.06977476,21.0047239 6.99184841,22.4102882 7.87723418,23.376416 C9.6577022,25.3190632 11.272933,25.7513838 13.0706392,25.7521179 C16.6701911,25.7536428 19.6671431,22.5860402 19.4694141,19.009498 C19.2842169,15.6584063 16.7513921,13.0887672 13.3128813,12.7717697 C13.225783,12.7637502 13.1526341,12.7667999 13.0661028,12.763016 C11.9989788,12.7165931 11.3066155,12.9428908 10.3869802,13.2388228 C10.1224532,13.3239315 9.95381367,13.4221426 9.82889341,13.4540513 C9.67788904,13.4926241 9.59515701,13.4525264 9.54230832,13.4120334 C9.4941094,13.3750984 9.34327514,13.1473324 9.51611079,12.9762114 C9.96124197,12.5355324 10.1170662,12.4945876 10.6524712,12.0833324 C10.8473649,11.9336721 11.0251338,11.8095387 11.0741833,11.6264449 C11.106108,11.5073944 11.0998705,11.346326 10.9463711,11.2024262 C10.7596996,11.0274084 10.49126,11.1108793 10.1330569,11.2919965 C9.95710253,11.3809455 9.75999731,11.4818674 9.54400946,11.6259366 C8.31873626,12.4431383 7.17551464,13.6805748 6.57308487,15.141937 C6.53855177,15.2258033 6.92816914,13.8366169 6.97897647,13.6762262 C7.20953741,12.9489337 8.20345579,10.9394759 9.8004277,9.73236677 C11.2570557,8.48352219 13.617385,7.46696168 16.1413072,7.63339522 C21.5158268,7.98777951 25.0008353,12.2673863 24.9092007,17.1865226 C24.8849311,18.4882848 24.1841188,22.3060908 20.9142476,24.4286126 L25.8304238,22.2100823 C26.682694,21.82554 27.3799339,20.7484377 27.3799339,19.8165906 L27.3799339,7.46120117 C27.3799339,6.52935403 26.682694,5.4522517 25.8304238,5.06770945 L15.2394771,0.288406688 C14.3872635,-0.0961355626 12.9927271,-0.0961355626 12.1404568,0.288406688 L1.54951015,5.06770945 C0.697296578,5.4522517 -1.03028697e-13,6.52935403 -1.03028697e-13,7.46120117 L-1.03028697e-13,19.8165906 C-1.03028697e-13,20.7484377 0.697296578,21.82554 1.54951015,22.2100823" id="Fill-1" fill="#00A8FF"></path>
                <path d="M33.1335742,16.9623484 L35.3439484,10.5646194 L34.4790194,10.4822452 L34.4790194,9.37019355 L37.6229677,9.37019355 L40.4236903,17.2918452 L40.4374194,17.2918452 L41.2199742,17.3330323 L41.2199742,18.5 L37.6778839,18.5 L37.6778839,17.3879484 L38.1995871,17.3467613 C38.3551836,17.3284558 38.4604384,17.2918454 38.5153548,17.236929 C38.5702712,17.1820126 38.5748475,17.0813341 38.5290839,16.9348903 L38.2407742,16.0836903 L35.0281806,16.0836903 L34.6163097,17.2918452 L35.4400516,17.3330323 L35.4400516,18.5 L32.2686452,18.5 L32.2686452,17.3879484 L32.7217032,17.3467613 C32.9139106,17.3284558 33.0511996,17.2003195 33.1335742,16.9623484 Z M36.6344774,10.9078452 L35.3576774,14.8206194 L37.9112774,14.8206194 L36.6756645,10.9078452 L36.6344774,10.9078452 Z M44.2266323,11.5942968 L44.2266323,17.3604903 L45.0091871,17.4016774 L45.0091871,18.5 L41.7416774,18.5 L41.7416774,17.4565935 L42.1947355,17.4154065 C42.4601648,17.3879482 42.5928774,17.2415067 42.5928774,16.9760774 L42.5928774,13.1594065 C42.5928774,13.00381 42.5677078,12.8985551 42.5173677,12.8436387 C42.4670277,12.7887223 42.3777899,12.7612645 42.2496516,12.7612645 L41.7691355,12.7338065 L41.7691355,11.5942968 L44.2266323,11.5942968 Z M42.4967742,10.4136 C42.3045668,10.2213926 42.2084645,9.97884878 42.2084645,9.68596129 C42.2084645,9.3930738 42.3045668,9.14824184 42.4967742,8.95145806 C42.6889816,8.75467428 42.940678,8.65628387 43.251871,8.65628387 C43.5630639,8.65628387 43.8170485,8.75467428 44.0138323,8.95145806 C44.210616,9.14824184 44.3090065,9.3930738 44.3090065,9.68596129 C44.3090065,9.97884878 44.210616,10.2191044 44.0138323,10.4067355 C43.8170485,10.5943665 43.5630639,10.6881806 43.251871,10.6881806 C42.940678,10.6881806 42.6889816,10.5966547 42.4967742,10.4136 Z M49.2514581,11.3883613 C49.6450256,11.3883613 50.0202821,11.4432769 50.3772387,11.5531097 L50.3772387,10.1664774 C50.3772387,9.96511727 50.258255,9.85528611 50.0202839,9.83698065 L49.4299355,9.79579355 L49.4299355,8.7112 L51.9835355,8.7112 L51.9835355,17.0584516 C51.9926882,17.2689645 52.1070957,17.3742194 52.3267613,17.3742194 L52.8072774,17.4016774 L52.8072774,18.5 L50.5831742,18.5 L50.5831742,17.6899871 L50.5419871,17.6762581 C50.1301141,18.3444076 49.5077375,18.6784774 48.6748387,18.6784774 C47.631427,18.6784774 46.8992193,18.3306787 46.4781935,17.635071 C46.0937787,17.0035323 45.9015742,16.2301379 45.9015742,15.3148645 C45.9015742,14.1250091 46.1967454,13.1731391 46.7870968,12.4592258 C47.3774481,11.7453126 48.1988937,11.3883613 49.2514581,11.3883613 Z M50.3772387,16.358271 L50.3772387,12.8024516 C50.0477403,12.6560079 49.6999416,12.5827871 49.3338323,12.5827871 C48.7297518,12.5827871 48.288139,12.8253309 48.0089806,13.3104258 C47.7298223,13.7955207 47.5902452,14.413321 47.5902452,15.1638452 C47.5902452,16.7015045 48.0844854,17.4703226 49.0729806,17.4703226 C49.4482427,17.4703226 49.759431,17.3627796 50.0065548,17.1476903 C50.2536787,16.9326011 50.3772387,16.6694639 50.3772387,16.358271 Z" id="Aid" fill="#020303"></path>
                <path d="M57.2086968,17.2643871 C58.3070248,17.2643871 58.8561806,16.8250625 58.8561806,15.9464 C58.8561806,15.4887633 58.6136368,15.1501172 58.1285419,14.9304516 C57.8722654,14.8023133 57.5404838,14.6833296 57.1331871,14.5734968 C56.7258904,14.463664 56.3872444,14.3515447 56.1172387,14.2371355 C55.8472331,14.1227263 55.5749433,13.964844 55.3003613,13.7634839 C54.76035,13.3607636 54.4903484,12.7406752 54.4903484,11.9032 C54.4903484,11.0657248 54.7809433,10.4067379 55.3621419,9.92621935 C55.9433405,9.44570082 56.7030061,9.20544516 57.6411613,9.20544516 C58.5793165,9.20544516 59.4511013,9.39307339 60.2565419,9.76833548 L60.2565419,11.8276903 L58.8561806,11.9237935 L58.8561806,11.1275097 C58.8561806,10.9902187 58.8378755,10.8895401 58.8012645,10.825471 C58.7005844,10.651569 58.3779554,10.5646194 57.8333677,10.5646194 C57.2887801,10.5646194 56.8860658,10.6607216 56.6252129,10.852929 C56.36436,11.0451364 56.2339355,11.3425958 56.2339355,11.7453161 C56.2339355,12.0382036 56.3437666,12.2944763 56.5634323,12.5141419 C56.709876,12.6605857 56.9272502,12.7818576 57.2155613,12.8779613 C57.5038724,12.974065 57.8104844,13.0724554 58.1354065,13.1731355 C58.4603285,13.2738156 58.7486353,13.3836467 59.0003355,13.5026323 C59.2520357,13.6216178 59.5151728,13.7863645 59.7897548,13.9968774 C60.3480716,14.4087504 60.6272258,15.0448559 60.6272258,15.9052129 C60.6272258,16.7655699 60.3183257,17.442862 59.7005161,17.9371097 C59.0827066,18.4313573 58.2681255,18.6784774 57.2567484,18.6784774 C56.2453713,18.6784774 55.3369761,18.4908492 54.5315355,18.1155871 L54.5315355,15.9464 L55.9318968,15.8502968 L55.9318968,16.6877677 C55.9318968,16.8250588 55.950202,16.9257373 55.9868129,16.9898065 C56.0234238,17.0538756 56.1355431,17.1156556 56.3231742,17.1751484 C56.5108052,17.2346412 56.8059765,17.2643871 57.2086968,17.2643871 Z M62.9062452,10.1390194 L63.7986323,10.1390194 L63.7986323,11.5942968 L65.6245935,11.5942968 L65.4873032,12.7475355 L63.7986323,12.7475355 L63.7986323,16.358271 C63.7986323,16.7609913 63.871853,17.0424336 64.0182968,17.2026065 C64.1647405,17.3627793 64.3912673,17.4428645 64.6978839,17.4428645 C65.0045005,17.4428645 65.3134006,17.3467623 65.6245935,17.1545548 L66.0364645,18.2116903 C65.5788278,18.532036 64.9976379,18.6922065 64.2928774,18.6922065 C63.8810044,18.6922065 63.5332057,18.639579 63.249471,18.5343226 C62.9657362,18.4290661 62.7552265,18.3123705 62.6179355,18.1842323 C62.4806445,18.056094 62.3753896,17.8684658 62.3021677,17.6213419 C62.2289459,17.3742181 62.1877592,17.1797254 62.1786065,17.0378581 C62.1694537,16.8959907 62.1648774,16.6877691 62.1648774,16.4131871 L62.1648774,12.7475355 L61.1901161,12.7475355 L61.3274065,11.7453161 C61.7575849,11.7087052 62.0825021,11.5553992 62.3021677,11.2853935 C62.5218334,11.0153879 62.7231905,10.633267 62.9062452,10.1390194 Z M67.4093677,16.9623484 L67.4093677,13.1594065 C67.4093677,13.0129627 67.3841981,12.909996 67.3338581,12.8505032 C67.283518,12.7910105 67.1942802,12.7566882 67.0661419,12.7475355 L66.4895226,12.7063484 L66.4895226,11.5942968 L68.809729,11.5942968 L68.809729,12.6239742 C68.9744782,12.2670176 69.2307509,11.9718463 69.5785548,11.7384516 C69.9263587,11.5050569 70.3267848,11.3883613 70.7798452,11.3883613 C71.2329055,11.3883613 71.6653657,11.4890399 72.0772387,11.6904 L72.0772387,13.7360258 L70.8004387,13.832129 L70.8004387,13.2005935 C70.8004387,13.0175389 70.7546757,12.9031314 70.6631484,12.8573677 C70.5624683,12.8116041 70.4389083,12.7887226 70.2924645,12.7887226 C69.9263552,12.7887226 69.6266076,12.9191471 69.3932129,13.18 C69.1598182,13.4408529 69.0431226,13.7726345 69.0431226,14.1753548 L69.0431226,17.3604903 L70.2375484,17.4154065 L70.2375484,18.5 L66.5581677,18.5 L66.5581677,17.4565935 L67.0112258,17.4154065 C67.1485168,17.397101 67.2491954,17.3582024 67.3132645,17.2987097 C67.3773337,17.2392169 67.4093677,17.1270976 67.4093677,16.9623484 Z M76.3469677,11.3883613 C77.0334228,11.3883613 77.5780023,11.5553962 77.9807226,11.889471 C78.3834429,12.2235458 78.5848,12.6926163 78.5848,13.2966968 C78.5848,13.6994171 78.4978503,14.0540802 78.3239484,14.3606968 C78.1500464,14.6673134 77.9349604,14.907569 77.6786839,15.081471 C77.4224073,15.2553729 77.111219,15.3972382 76.7451097,15.507071 C76.1318765,15.6901256 75.4408555,15.7816516 74.6720258,15.7816516 C74.699484,16.2667465 74.8505019,16.65802 75.1250839,16.9554839 C75.3996659,17.2529477 75.8206853,17.4016774 76.3881548,17.4016774 C76.9556243,17.4016774 77.5230853,17.2003203 78.0905548,16.7976 L78.6122581,17.9096516 C78.4292034,18.0744008 78.1203032,18.2437239 77.6855484,18.4176258 C77.2507935,18.5915278 76.7542652,18.6784774 76.1959484,18.6784774 C75.0793148,18.6784774 74.2601574,18.3695773 73.7384516,17.7517677 C73.2167458,17.1339582 72.9558968,16.2850549 72.9558968,15.2050323 C72.9558968,14.1250097 73.2533562,13.2189026 73.8482839,12.4866839 C74.4432116,11.7544652 75.2760979,11.3883613 76.3469677,11.3883613 Z M75.7154323,14.5323097 C76.0540834,14.4682405 76.3652717,14.3332397 76.6490065,14.1273032 C76.9327412,13.9213667 77.0746065,13.6765348 77.0746065,13.3928 C77.0746065,12.8344832 76.8000286,12.555329 76.2508645,12.555329 C75.7383114,12.555329 75.3447498,12.7589743 75.0701677,13.166271 C74.7955857,13.5735676 74.6445679,14.0609434 74.6171097,14.6284129 C75.01983,14.6192602 75.3859338,14.5872261 75.7154323,14.5323097 Z M85.7101677,11.8688774 L85.7101677,16.9760774 C85.7101677,17.1225212 85.7353374,17.2231997 85.7856774,17.2781161 C85.8360175,17.3330325 85.9252553,17.3650666 86.0533935,17.3742194 L86.4927226,17.4016774 L86.4927226,18.5 L84.3098065,18.5 L84.3098065,17.7037161 L84.2686194,17.6899871 C83.8109827,18.3489839 83.1840298,18.6784774 82.3877419,18.6784774 C81.4541631,18.6784774 80.763142,18.381018 80.3146581,17.7860903 C79.8661741,17.1911626 79.6419355,16.3765815 79.6419355,15.3423226 C79.6419355,14.0975508 79.9439712,13.1273755 80.5480516,12.4317677 C81.1521321,11.73616 82.0582391,11.3883613 83.2664,11.3883613 C84.0443824,11.3883613 84.8589635,11.5485317 85.7101677,11.8688774 Z M84.1176,16.3170839 L84.1176,12.7612645 C83.8613234,12.642279 83.5089485,12.5827871 83.0604645,12.5827871 C82.4472313,12.5827871 82.0033304,12.8299072 81.7287484,13.3241548 C81.4541664,13.8184025 81.3168774,14.4728131 81.3168774,15.2874065 C81.3168774,16.7701493 81.7928124,17.5115097 82.7446968,17.5115097 C83.1474171,17.5115097 83.4769105,17.3902378 83.7331871,17.1476903 C83.9894636,16.9051429 84.1176,16.6282768 84.1176,16.3170839 Z M87.2478194,12.7063484 L87.2478194,11.5942968 L89.5680258,11.5942968 L89.5680258,12.4866839 C90.0805789,11.7544652 90.7830407,11.3883613 91.6754323,11.3883613 C92.5678238,11.3883613 93.169607,11.7544652 93.4808,12.4866839 C93.9933531,11.7544652 94.6889504,11.3883613 95.5676129,11.3883613 C96.2266097,11.3883613 96.7345789,11.5874303 97.0915355,11.9855742 C97.4484921,12.3837181 97.6269677,12.9809251 97.6269677,13.7772129 L97.6269677,17.3604903 L98.4095226,17.4016774 L98.4095226,18.5 L95.1420129,18.5 L95.1420129,17.4565935 L95.595071,17.4154065 C95.732362,17.397101 95.8307524,17.3582024 95.8902452,17.2987097 C95.9497379,17.2392169 95.9840602,17.1316739 95.9932129,16.9760774 L95.9932129,14.1341677 C95.9932129,13.6307674 95.9360092,13.2577991 95.8216,13.0152516 C95.7071908,12.7727042 95.4394774,12.6514323 95.0184516,12.6514323 C94.5974259,12.6514323 94.2747968,12.7795686 94.0505548,13.0358452 C93.8263129,13.2921217 93.7141935,13.6353441 93.7141935,14.0655226 L93.7141935,17.3604903 L94.4692903,17.4016774 L94.4692903,18.5 L91.2292387,18.5 L91.2292387,17.4565935 L91.6822968,17.4154065 C91.8195878,17.397101 91.9202663,17.3582024 91.9843355,17.2987097 C92.0484046,17.2392169 92.0804387,17.1270976 92.0804387,16.9623484 L92.0804387,14.1341677 C92.0804387,13.6307674 92.023235,13.2577991 91.9088258,13.0152516 C91.7944166,12.7727042 91.524415,12.6514323 91.0988129,12.6514323 C90.6732108,12.6514323 90.3505817,12.7841449 90.1309161,13.0495742 C89.9112505,13.3150035 89.8014194,13.644497 89.8014194,14.0380645 L89.8014194,17.3604903 L90.5427871,17.4016774 L90.5427871,18.5 L87.3027355,18.5 L87.3027355,17.4565935 L87.7557935,17.4154065 C87.8930846,17.397101 87.9937631,17.3582024 88.0578323,17.2987097 C88.1219014,17.2392169 88.1539355,17.1270976 88.1539355,16.9623484 L88.1676645,16.9623484 L88.1676645,13.1731355 C88.1676645,13.017539 88.1424949,12.909996 88.0921548,12.8505032 C88.0418148,12.7910105 87.952577,12.7566882 87.8244387,12.7475355 L87.2478194,12.7063484 Z" id="Stream" fill="#00A8FF"></path>
                <path d="M73.1136,28.5 L73.1136,27.7062 L73.4664,27.6768 C73.6362675,27.6637333 73.7212,27.5722675 73.7212,27.4024 L73.7212,22.8454 L73.1626,22.816 L73.1626,21.983 L74.9266,21.983 L77.7,26.4812 L77.7196,26.4812 L77.7196,22.8454 L77.0728,22.816 L77.0728,21.983 L79.464,21.983 L79.464,22.7768 L79.1112,22.8062 C78.9543992,22.8192667 78.876,22.9205324 78.876,23.11 L78.876,28.5 L77.7294,28.5 L74.8972,23.9332 L74.8776,23.9332 L74.8776,27.6376 L75.5146,27.667 L75.5146,28.5 L73.1136,28.5 Z M82.4922,23.4236 C82.9822024,23.4236 83.3709319,23.5428321 83.6584,23.7813 C83.9458681,24.0197679 84.0896,24.3545978 84.0896,24.7858 C84.0896,25.0732681 84.027534,25.3264322 83.9034,25.5453 C83.779266,25.7641678 83.6257342,25.935666 83.4428,26.0598 C83.2598658,26.183934 83.0377346,26.2851996 82.7764,26.3636 C82.3386645,26.4942673 81.8454027,26.5596 81.2966,26.5596 C81.3162001,26.9058684 81.423999,27.1851656 81.62,27.3975 C81.816001,27.6098344 82.1165313,27.716 82.5216,27.716 C82.9266687,27.716 83.3317313,27.5722681 83.7368,27.2848 L84.1092,28.0786 C83.9785327,28.1962006 83.7580349,28.317066 83.4477,28.4412 C83.1373651,28.565334 82.7829353,28.6274 82.3844,28.6274 C81.5873293,28.6274 81.0026019,28.4069022 80.6302,27.9659 C80.2577981,27.5248978 80.0716,26.9189372 80.0716,26.148 C80.0716,25.3770628 80.2839312,24.7302693 80.7086,24.2076 C81.1332688,23.6849307 81.7277962,23.4236 82.4922,23.4236 Z M82.0414,25.6678 C82.2831345,25.6220664 82.5052657,25.5257007 82.7078,25.3787 C82.9103343,25.2316993 83.0116,25.0569343 83.0116,24.8544 C83.0116,24.4558647 82.815602,24.2566 82.4236,24.2566 C82.0577315,24.2566 81.776801,24.4019652 81.5808,24.6927 C81.384799,24.9834348 81.2770001,25.3313313 81.2574,25.7364 C81.5448681,25.7298666 81.8061988,25.7070002 82.0414,25.6678 Z M85.3244,29.431 L85.3244,24.6878 C85.3244,24.5767328 85.3064335,24.4999669 85.2705,24.4575 C85.2345665,24.4150331 85.1708671,24.3938 85.0794,24.3938 L84.6678,24.3644 L84.6678,23.5706 L86.324,23.5706 L86.324,24.2076 C86.4285339,24.011599 86.6179986,23.8319342 86.8924,23.6686 C87.1668014,23.5052659 87.4934648,23.4236 87.8724,23.4236 C89.0549392,23.4236 89.6462,24.253325 89.6462,25.9128 C89.6462,26.7948044 89.4534686,27.4709976 89.068,27.9414 C88.6825314,28.4118024 88.15987,28.647 87.5,28.647 C87.107998,28.647 86.7584682,28.5522676 86.4514,28.3628 L86.4514,29.7152 L87.2452,29.7544 L87.2452,30.5286 L84.7168,30.5286 L84.7168,29.7838 L85.0402,29.7544 C85.1382005,29.7413333 85.2100664,29.7135669 85.2558,29.6711 C85.3015336,29.6286331 85.3244,29.5486006 85.3244,29.431 Z M88.431,26.0108 C88.431,24.9197279 88.10107,24.3742 87.4412,24.3742 C87.1667986,24.3742 86.9332343,24.4574992 86.7405,24.6241 C86.5477657,24.7907008 86.4514,24.9883322 86.4514,25.217 L86.4514,27.471 C86.6996679,27.6343342 87.0018316,27.716 87.3579,27.716 C87.7139684,27.716 87.9818324,27.5526683 88.1615,27.226 C88.3411676,26.8993317 88.431,26.4942691 88.431,26.0108 Z M94.7422,23.7666 L94.7422,27.4122 C94.7422,27.5167339 94.7601665,27.5885998 94.7961,27.6278 C94.8320335,27.6670002 94.8957329,27.6898666 94.9872,27.6964 L95.3008,27.716 L95.3008,28.5 L93.7426,28.5 L93.7426,27.9316 L93.7132,27.9218 C93.3865317,28.3922024 92.9390028,28.6274 92.3706,28.6274 C91.7041967,28.6274 91.2109349,28.4150688 90.8908,27.9904 C90.5706651,27.5657312 90.4106,26.9842704 90.4106,26.246 C90.4106,25.3574622 90.6261978,24.6649358 91.0574,24.1684 C91.4886022,23.6718642 92.1353957,23.4236 92.9978,23.4236 C93.5531361,23.4236 94.134597,23.5379322 94.7422,23.7666 Z M93.6054,26.9418 L93.6054,24.4036 C93.4224658,24.3186662 93.1709349,24.2762 92.8508,24.2762 C92.4130645,24.2762 92.096201,24.4525982 91.9002,24.8054 C91.704199,25.1582018 91.6062,25.6253304 91.6062,26.2068 C91.6062,27.2652053 91.9459299,27.7944 92.6254,27.7944 C92.9128681,27.7944 93.1480658,27.7078342 93.331,27.5347 C93.5139342,27.3615658 93.6054,27.1639344 93.6054,26.9418 Z M97.6528,21.5126 L97.6528,27.6866 L98.2114,27.716 L98.2114,28.5 L95.879,28.5 L95.879,27.7552 L96.2024,27.7258 C96.3918676,27.7061999 96.4866,27.6016676 96.4866,27.4122 L96.4866,22.5808 C96.4866,22.4370659 96.4049342,22.3586667 96.2416,22.3456 L95.8986,22.326 L95.8986,21.5126 L97.6528,21.5126 Z" id="Nepal" fill="#35383F"></path>
            </g>
        </g>
    </g>
</svg>