<svg xmlns="http://www.w3.org/2000/svg" width="141" height="43" viewBox="0 0 141 43">
    <g fill="none" fill-rule="evenodd">
        <path fill="#00A8FF" d="M22.413 27.507c.269-3.5-2.43-7.15-5.734-7.83 0 0 1.86-.7 3.98-.25 2.106.448 4.647 1.825 5.89 5.654 0 0 1.518 5.213-3.048 8.494-4.15 2.983-8.344.505-8.344.505 3.674.197 6.965-2.796 7.256-6.573M2.407 31.816c.723-.586 1.478-.969 2.157-1.088 4.107-.721 5.424 1.287 6.69 2.667 2.543 2.775 4.85 3.393 7.418 3.394 5.143.002 9.424-4.523 9.141-9.633-.264-4.787-3.882-8.458-8.795-8.91-.124-.012-.229-.008-.352-.013-1.525-.066-2.514.257-3.827.68-.378.121-.62.261-.798.307-.215.055-.334-.002-.41-.06-.068-.053-.283-.378-.037-.623.636-.63.859-.688 1.624-1.275.278-.214.532-.391.602-.653a.586.586 0 0 0-.182-.606c-.267-.25-.65-.13-1.162.128a7.711 7.711 0 0 0-.842.477c-1.75 1.168-3.383 2.936-4.244 5.023-.05.12.507-1.864.58-2.094.33-1.039 1.75-3.91 4.03-5.634 2.082-1.784 5.453-3.236 9.059-2.998 7.678.506 12.656 6.62 12.526 13.647-.035 1.86-1.036 7.314-5.708 10.346l7.024-3.17c1.217-.549 2.213-2.087 2.213-3.419V10.66c0-1.331-.996-2.87-2.213-3.42L21.77.413c-1.218-.55-3.21-.55-4.427 0L2.214 7.24C.996 7.789 0 9.328 0 10.659v17.65c0 1.332.996 2.87 2.214 3.42"/>
        <text fill="#020303" font-family="Open Sans,sans-serif" font-size="19.613">
            <tspan x="46" y="26">Aid</tspan>
        </text>
        <text fill="#00A8FF" font-family="Open Sans,sans-serif" font-size="19.613">
            <tspan x="77" y="26">Stream</tspan>
        </text>
        <text fill="#35383F" font-family="Open Sans,sans-serif" font-size="14">
            <tspan x="104" y="40">Nepal</tspan>
        </text>
    </g>
</svg>
