<svg width="36" height="36" viewBox="0 0 36 36" xmlns="http://www.w3.org/2000/svg"><title>ic_user</title><g fill="none" fill-rule="evenodd"><path d="M18 34c8.837 0 16-7.163 16-16S26.837 2 18 2 2 9.163 2 18s7.163 16 16 16zm0 2C8.059 36 0 27.941 0 18S8.059 0 18 0s18 8.059 18 18-8.059 18-18 18z" fill="#484848"/><path d="M6 29.75c.144-4.981 3.144-9.973 7.37-11.796a7.589 7.589 0 0 1-2.282-5.454c0-4.142 3.257-7.5 7.276-7.5 4.018 0 7.276 3.358 7.276 7.5a7.58 7.58 0 0 1-2.522 5.678c3.967 1.93 6.744 6.784 6.882 11.572" stroke="#484848" stroke-width="2" stroke-linecap="square"/></g></svg>