<svg width="27" height="30" viewBox="0 0 27 30" xmlns="http://www.w3.org/2000/svg"><title>Group 2</title><g fill="none" fill-rule="evenodd"><path d="M9.634 1.25L8.75.366a1.247 1.247 0 0 0-1.768 0L1.616 5.732c-.244.245-.99 1.189-.991 1.509L0 10l2.759-.625s1.265-.747 1.509-.991l5.366-5.366a1.25 1.25 0 0 0 0-1.768zM.829 9.172l.405-1.793a.62.62 0 0 0 .013-.078l.006-.013 1.413 1.414-.141.085-1.696.385zM3.827 7.94c-.07.067-.316.232-.615.423l-1.619-1.62c.166-.227.351-.456.465-.57l4.04-4.04L7.867 3.9l-4.04 4.04zm5.365-5.365l-.884.884L6.54 1.692l.885-.884a.623.623 0 0 1 .884 0l.883.884a.622.622 0 0 1 0 .884z" fill="#546E7A"/><path d="M24.473 5l2.21-2.21a1.041 1.041 0 1 0-1.473-1.473L23 3.527l-2.21-2.21a1.041 1.041 0 1 0-1.473 1.474L21.527 5l-2.21 2.21a1.041 1.041 0 1 0 1.474 1.473L23 6.473l2.21 2.21a1.041 1.041 0 1 0 1.473-1.473L24.473 5z" fill="#8A9CA4"/><path d="M9.634 21.25l-.884-.884a1.247 1.247 0 0 0-1.768 0l-5.366 5.366c-.244.245-.99 1.189-.991 1.509L0 30l2.759-.625s1.265-.747 1.509-.991l5.366-5.366a1.25 1.25 0 0 0 0-1.768zM.829 29.172l.405-1.793a.62.62 0 0 0 .013-.078l.006-.013 1.413 1.414-.141.085-1.696.385zm2.998-1.231c-.07.067-.316.232-.615.423l-1.619-1.62c.166-.227.351-.456.465-.57l4.04-4.04L7.867 23.9l-4.04 4.04zm5.365-5.365l-.884.884-1.768-1.768.885-.884a.623.623 0 0 1 .884 0l.883.884a.622.622 0 0 1 0 .884zM24.473 25l2.21-2.21a1.041 1.041 0 1 0-1.473-1.473L23 23.527l-2.21-2.21a1.041 1.041 0 1 0-1.473 1.474L21.527 25l-2.21 2.21a1.041 1.041 0 1 0 1.474 1.473L23 26.473l2.21 2.21a1.041 1.041 0 1 0 1.473-1.473L24.473 25z" fill="#00A8FF"/></g></svg>