<svg width="66" height="49" viewBox="0 0 66 49" xmlns="http://www.w3.org/2000/svg"><title>ic-action-sprite</title><g fill="none" fill-rule="evenodd"><path d="M9.634 4.25l-.884-.884a1.247 1.247 0 0 0-1.768 0L1.616 8.732c-.244.245-.99 1.189-.991 1.509L0 13l2.759-.625s1.265-.747 1.509-.991l5.366-5.366a1.25 1.25 0 0 0 0-1.768zM.829 12.172l.405-1.793a.62.62 0 0 0 .013-.078l.006-.013 1.413 1.414-.141.085-1.696.385zm2.998-1.231c-.07.067-.316.232-.615.423l-1.619-1.62c.166-.227.351-.456.465-.57l4.04-4.04L7.867 6.9l-4.04 4.04zm5.365-5.365l-.884.884L6.54 4.692l.885-.884a.623.623 0 0 1 .884 0l.883.884a.622.622 0 0 1 0 .884z" fill="#546E7A"/><path d="M24.473 8l2.21-2.21a1.041 1.041 0 1 0-1.473-1.473L23 6.527l-2.21-2.21a1.041 1.041 0 1 0-1.473 1.474L21.527 8l-2.21 2.21a1.041 1.041 0 1 0 1.474 1.473L23 9.473l2.21 2.21a1.041 1.041 0 1 0 1.473-1.473L24.473 8z" fill="#8A9CA4"/><path d="M9.634 24.25l-.884-.884a1.247 1.247 0 0 0-1.768 0l-5.366 5.366c-.244.245-.99 1.189-.991 1.509L0 33l2.759-.625s1.265-.747 1.509-.991l5.366-5.366a1.25 1.25 0 0 0 0-1.768zM.829 32.172l.405-1.793a.62.62 0 0 0 .013-.078l.006-.013 1.413 1.414-.141.085-1.696.385zm2.998-1.231c-.07.067-.316.232-.615.423l-1.619-1.62c.166-.227.351-.456.465-.57l4.04-4.04L7.867 26.9l-4.04 4.04zm5.365-5.365l-.884.884-1.768-1.768.885-.884a.623.623 0 0 1 .884 0l.883.884a.622.622 0 0 1 0 .884zM24.473 28l2.21-2.21a1.041 1.041 0 1 0-1.473-1.473L23 26.527l-2.21-2.21a1.041 1.041 0 1 0-1.473 1.474L21.527 28l-2.21 2.21a1.041 1.041 0 1 0 1.474 1.473L23 29.473l2.21 2.21a1.041 1.041 0 1 0 1.473-1.473L24.473 28z" fill="#00A8FF"/><g><g transform="translate(49)"><circle fill="#80CA9C" cx="8.5" cy="8.5" r="8.5"/><path fill="#FFF" d="M6.531 10.109L4.505 8.32 3.418 9.407l3.103 2.855 6.322-6.282-1.087-1.086z"/></g><g transform="translate(49 32)"><circle fill="#E15454" cx="8.5" cy="8.5" r="8.5"/><path fill="#FFF" d="M5.88 4.722L4.722 5.88l2.62 2.62-2.62 2.62 1.158 1.158 2.62-2.62 2.62 2.62 1.158-1.158-2.62-2.62 2.62-2.62-1.158-1.158-2.62 2.62z"/></g></g></g></svg>