<svg width="51" height="78" viewBox="0 0 51 78" xmlns="http://www.w3.org/2000/svg" xmlns:xlink="http://www.w3.org/1999/xlink"><title>Group 2</title><defs><path d="M7.757 0H4v8h6V2.243L7.757 0z" id="a"/><mask id="c" x="0" y="0" width="6" height="8" fill="#fff"><use xlink:href="#a"/></mask><path d="M7.757 0H4v8h6V2.243L7.757 0z" id="b"/><mask id="d" x="0" y="0" width="6" height="8" fill="#fff"><use xlink:href="#b"/></mask></defs><g fill="none" fill-rule="evenodd"><path d="M8.75.366a1.247 1.247 0 0 0-1.768 0L1.616 5.732c-.244.245-.99 1.189-.991 1.509L0 10l2.759-.625s1.265-.747 1.509-.991l5.366-5.366a1.25 1.25 0 0 0 0-1.768L8.75.366zM1.234 7.38a.62.62 0 0 0 .013-.078l.006-.013 1.413 1.414-.141.085-1.696.385.405-1.793zm1.978.985l-1.619-1.62c.166-.227.351-.456.465-.57l4.04-4.04L7.867 3.9l-4.04 4.04c-.07.067-.315.232-.614.423zM8.308 3.46L6.54 1.692l.885-.884a.623.623 0 0 1 .884 0l.883.884a.622.622 0 0 1 0 .884l-.884.884z" fill="#546E7A"/><path d="M48.75.366a1.247 1.247 0 0 0-1.768 0l-5.366 5.366c-.244.245-.99 1.189-.991 1.509L40 10l2.759-.625s1.265-.747 1.509-.991l5.366-5.366a1.25 1.25 0 0 0 0-1.768L48.75.366zM41.234 7.38a.62.62 0 0 0 .013-.078l.006-.013 1.413 1.414-.141.085-1.696.385.405-1.793zm1.978.985l-1.619-1.62c.166-.227.351-.456.465-.57l4.04-4.04L47.867 3.9l-4.04 4.04c-.07.067-.315.232-.614.423zm5.096-4.904L46.54 1.692l.885-.884a.623.623 0 0 1 .884 0l.883.884a.622.622 0 0 1 0 .884l-.884.884z" fill="#00A8FF"/><g transform="translate(1 34)"><use stroke="#546E7A" mask="url(#c)" stroke-width="2" stroke-dasharray="1" xlink:href="#a"/><path d="M3.757 2H0v8h6V4.243L3.757 2z" fill="#484848"/></g><g transform="translate(41 34)"><use stroke="#546E7A" mask="url(#d)" stroke-width="2" stroke-dasharray="1" xlink:href="#b"/><path d="M3.757 2H0v8h6V4.243L3.757 2z" fill="#00A8FF"/></g><g fill="#00A8FF"><path d="M41.615 68.83l.419.67-2.502 1.563.634 1.014 7.14-4.461-.634-1.014-2.501 1.563-.42-.67-2.136 1.335zm.396.08l1.674-1.046.275.44-1.674 1.046-.275-.44z"/><path d="M41.77 70.504L42.605 78h5.352l.835-7.496H41.77zm5.23.834h.699l-.575 6.085h-.533l.41-6.085zm-2.105.005h.699l-.075 6.084h-.532l-.092-6.084zm-2.105.048h.698l.427 6.073h-.533l-.592-6.073z"/></g><g fill="#484848"><path d="M2.95 68.011v.79H0v1.196h8.42v-1.196H5.47v-.79H2.95zm.293.278h1.974v.52H3.243v-.52zM.77 70.504L1.605 78h5.352l.835-7.496H.77zm5.23.834H6.7l-.575 6.085h-.533l.41-6.085zm-2.105.005h.699l-.075 6.084h-.532l-.092-6.084zm-2.105.048h.698l.427 6.073h-.533L1.79 71.39z"/></g></g></svg>