<svg width="19" height="30" viewBox="0 0 19 30" xmlns="http://www.w3.org/2000/svg"><title>Group 2</title><g fill="none" fill-rule="evenodd"><g fill="#000"><path d="M5.568 6.763c.742 0 1.336-.133 1.79-.415l-.134.037 2.229.008c-.636 1.175-1.896 1.73-3.884 1.73-2.94 0-4.317-1.205-4.317-3.935S2.63.253 5.569.253c2.17 0 3.34.37 3.884 1.775v-.047l-2.228.01.133.037c-.453-.282-1.047-.416-1.79-.415-1.836 0-2.787.83-2.786 2.575 0 1.744.95 2.575 2.786 2.575zM14.137 6.763c-.742 0-1.336-.133-1.79-.415l.134.037-2.229.008c.636 1.175 1.896 1.73 3.884 1.73 2.94 0 4.317-1.205 4.317-3.935S17.075.253 14.137.253c-2.17 0-3.341.37-3.885 1.775v-.047l2.228.01-.133.037c.453-.282 1.048-.416 1.79-.415 1.836 0 2.787.83 2.787 2.575 0 1.744-.95 2.575-2.787 2.575z"/><path d="M13.07 3.28H6.932c-.157.043-.3.1-.425.17-.404.225-.547.538-.547.738 0 .312.304.726.972.908h6.136c.157-.043.3-.1.425-.17.404-.225.547-.538.547-.738 0-.312-.304-.726-.972-.908z"/></g><g fill="#231F20"><path d="M7.8 22.194c-.006.005-.64.447-1.26 1.106-.964 1.027-1.132 1.756-1.104 2.186.019.275.12.527.31.77.236.303.608.587 1.106.844.284.146.393.49.243.768a.582.582 0 0 1-.783.239c-.647-.334-1.148-.724-1.487-1.158a2.498 2.498 0 0 1-.546-1.389c-.063-.949.41-1.969 1.409-3.031a10.091 10.091 0 0 1 1.443-1.264l.67.93z"/><path d="M6.596 25.189h-.875a1.12 1.12 0 0 0 .24.907c.06.078.133.155.216.23h.42c.575 0 1.043.46 1.043 1.025v.448c0 .565-.468 1.025-1.044 1.025H2.22c-.576 0-1.044-.46-1.044-1.025v-.448c0-.565.468-1.024 1.044-1.024h1.95a2.663 2.663 0 0 1-.16-1.138H2.22c-1.216 0-2.204.97-2.204 2.162v.448c0 1.193.988 2.162 2.204 2.162h4.377c1.216 0 2.204-.97 2.204-2.162v-.448c0-1.193-.988-2.162-2.204-2.162zM10.53 22.194c.007.005.641.447 1.26 1.106.965 1.027 1.133 1.756 1.105 2.186-.019.275-.12.527-.31.77-.236.303-.608.587-1.106.844a.564.564 0 0 0-.243.768.582.582 0 0 0 .783.239c.648-.334 1.148-.724 1.487-1.158.33-.422.513-.89.546-1.389.063-.949-.41-1.969-1.409-3.031a10.091 10.091 0 0 0-1.443-1.264l-.67.93z"/><path d="M16.048 25.189H14.32a2.663 2.663 0 0 1-.159 1.138h1.886c.576 0 1.044.459 1.044 1.024v.448c0 .565-.468 1.025-1.044 1.025H11.67c-.575 0-1.044-.46-1.044-1.025v-.448c0-.565.469-1.024 1.044-1.024h.485c.082-.076.154-.154.215-.232a1.12 1.12 0 0 0 .24-.906h-.94c-1.215 0-2.204.97-2.204 2.162v.448c0 1.193.989 2.162 2.204 2.162h4.378c1.215 0 2.204-.97 2.204-2.162v-.448c0-1.193-.989-2.162-2.204-2.162zM9.55 21.276c0 .208-.148.379-.328.379-.181 0-.329-.17-.329-.38V19.38c0-.208.148-.379.329-.379.18 0 .328.17.328.38v1.896zM10.457 21.511c-.143.154-.37.183-.503.063-.134-.12-.126-.343.017-.497l1.302-1.402c.143-.154.37-.183.503-.063.134.12.126.343-.017.497l-1.302 1.402zM8.006 21.549c.143.154.37.183.503.063.134-.12.126-.343-.017-.497L7.19 19.713c-.144-.154-.37-.183-.504-.063-.133.119-.125.343.018.497l1.302 1.402z"/></g></g></svg>