<svg width="41" height="12" viewBox="0 0 41 12" xmlns="http://www.w3.org/2000/svg" xmlns:xlink="http://www.w3.org/1999/xlink"><title>Group</title><defs><path d="M11.56 1.5L10.5.44a1.497 1.497 0 0 0-2.121 0l-6.44 6.439C1.647 7.172.75 8.305.75 8.689L0 12l3.31-.75s1.518-.897 1.811-1.19l6.44-6.439a1.5 1.5 0 0 0 0-2.121zM.995 11.006l.487-2.152a.744.744 0 0 0 .015-.093l.008-.015L3.2 10.442l-.17.103-2.035.461zm3.598-1.477c-.085.08-.378.279-.737.507L1.912 8.093c.199-.273.42-.548.557-.684l4.85-4.848 2.12 2.12L4.592 9.53zM11.03 3.09L9.97 4.15 7.849 2.03 8.909.97a.747.747 0 0 1 1.06 0l1.062 1.06a.746.746 0 0 1 0 1.06z" id="a"/><mask id="b" x="0" y="0" width="12" height="12" fill="#fff"><use xlink:href="#a"/></mask></defs><g fill="#FFF" fill-rule="evenodd"><path d="M37.847 6l2.77-2.77a1.306 1.306 0 1 0-1.847-1.847L36 4.153l-2.77-2.77a1.306 1.306 0 1 0-1.847 1.847L34.153 6l-2.77 2.77a1.306 1.306 0 1 0 1.847 1.847L36 7.847l2.77 2.77a1.306 1.306 0 1 0 1.847-1.847L37.847 6z"/><use stroke="#FFF" mask="url(#b)" stroke-width="6" xlink:href="#a"/></g></svg>