<svg width="67" height="46" viewBox="0 0 67 46" xmlns="http://www.w3.org/2000/svg"><title>Group</title><g fill="none" fill-rule="evenodd"><path d="M9.634 4.25l-.884-.884a1.247 1.247 0 0 0-1.768 0L1.616 8.732c-.244.245-.99 1.189-.991 1.509L0 13l2.759-.625s1.265-.747 1.509-.991l5.366-5.366a1.25 1.25 0 0 0 0-1.768zM.829 12.172l.405-1.793a.62.62 0 0 0 .013-.078l.006-.013 1.413 1.414-.141.085-1.696.385zm2.998-1.231c-.07.067-.316.232-.615.423l-1.619-1.62c.166-.227.351-.456.465-.57l4.04-4.04L7.867 6.9l-4.04 4.04zm5.365-5.365l-.884.884L6.54 4.692l.885-.884a.623.623 0 0 1 .884 0l.883.884a.622.622 0 0 1 0 .884z" fill="#546E7A"/><path d="M24.473 8l2.21-2.21a1.041 1.041 0 1 0-1.473-1.473L23 6.527l-2.21-2.21a1.041 1.041 0 1 0-1.473 1.474L21.527 8l-2.21 2.21a1.041 1.041 0 1 0 1.474 1.473L23 9.473l2.21 2.21a1.041 1.041 0 1 0 1.473-1.473L24.473 8z" fill="#8A9CA4"/><path d="M9.634 24.25l-.884-.884a1.247 1.247 0 0 0-1.768 0l-5.366 5.366c-.244.245-.99 1.189-.991 1.509L0 33l2.759-.625s1.265-.747 1.509-.991l5.366-5.366a1.25 1.25 0 0 0 0-1.768zM.829 32.172l.405-1.793a.62.62 0 0 0 .013-.078l.006-.013 1.413 1.414-.141.085-1.696.385zm2.998-1.231c-.07.067-.316.232-.615.423l-1.619-1.62c.166-.227.351-.456.465-.57l4.04-4.04L7.867 26.9l-4.04 4.04zm5.365-5.365l-.884.884-1.768-1.768.885-.884a.623.623 0 0 1 .884 0l.883.884a.622.622 0 0 1 0 .884zM24.473 28l2.21-2.21a1.041 1.041 0 1 0-1.473-1.473L23 26.527l-2.21-2.21a1.041 1.041 0 1 0-1.473 1.474L21.527 28l-2.21 2.21a1.041 1.041 0 1 0 1.474 1.473L23 29.473l2.21 2.21a1.041 1.041 0 1 0 1.473-1.473L24.473 28z" fill="#00A8FF"/><g transform="translate(49)"><rect fill="#59A334" width="18" height="18" rx="9"/><path stroke="#FFF" stroke-width="2" d="M5 9.154l2.878 2.225L13 6"/></g><rect fill="#E15454" x="49" y="28" width="18" height="18" rx="9"/><path fill="#FFF" d="M54.182 39.917l7.206-7.205 1.427 1.428-7.205 7.205z"/><path fill="#FFF" d="M55.61 32.712l7.206 7.206-1.428 1.427-7.205-7.205z"/></g></svg>