<svg width="13" height="67" viewBox="0 0 13 67" xmlns="http://www.w3.org/2000/svg"><title>Group 3</title><g fill="#FFF" fill-rule="evenodd"><path d="M2.855 8.059l.494.497.536-.452 8.244-6.94L11.15 0 3.486 6.546l.45.44-2.856-2.872L0 5.186zM10 30.078l-.8-.8-3.2 3.2-3.2-3.2-.8.8 3.2 3.2-3.2 3.2.8.8 3.2-3.2 3.2 3.2.8-.8-3.2-3.2zM6.725 63.905H5.318L5.023 58h1.996l-.294 5.905zM5 65.973c0-.339.087-.595.26-.768.173-.173.425-.26.756-.26.319 0 .566.089.741.266.175.178.263.431.263.762 0 .318-.089.569-.266.752-.177.184-.423.275-.738.275-.323 0-.574-.09-.75-.268-.178-.18-.266-.433-.266-.76z"/></g></svg>