<svg width="205" height="101" viewBox="0 0 205 101" xmlns="http://www.w3.org/2000/svg"><title>Group 12</title><g fill="none" fill-rule="evenodd"><g transform="translate(147 20)"><rect fill="#EAEAEA" width="58" height="48" rx="4"/><circle fill="#D8D8D8" cx="12" cy="15" r="6"/><path fill="#D8D8D8" d="M21 11h32v3H21zm0 5h14v3H21zM7 26h46v15H7z"/></g><g transform="translate(0 20)"><rect fill="#EAEAEA" width="58" height="48" rx="4"/><path d="M8 6h20v6H8zm0 9h20v6H8zm0 9h20v6H8zm0 9h20v6H8zM30 6h20v6H30zm0 9h20v6H30zm0 9h20v6H30zm0 9h20v6H30z" fill="#D8D8D8"/></g><g transform="rotate(-46 114.207 9.553)" fill="#D8D8D8"><circle cx="9.5" cy="1.5" r="1.5"/><circle cx="3" cy="10" r="3"/><circle cx="12" cy="17" r="2"/></g><g transform="scale(-1 1) rotate(-46 14.51 244.423)" fill="#D8D8D8"><circle cx="9.5" cy="1.5" r="1.5"/><circle cx="3" cy="10" r="3"/><circle cx="12" cy="17" r="2"/></g><g transform="translate(64)"><rect fill="#EAEAEA" width="76" height="101" rx="4"/><path fill="#D8D8D8" d="M8 29h59v40H8zm0-16h60v4H8zm0 62h60v4H8zm0 13h40v4H8zm0-68h26v3H8zm0 62h26v3H8z"/></g></g></svg>