<svg width="203" height="115" viewBox="0 0 203 115" xmlns="http://www.w3.org/2000/svg" xmlns:xlink="http://www.w3.org/1999/xlink"><title>Group 14@1x</title><defs><path id="a" d="M0 0h61v107H0z"/><path id="c" d="M0 0h61v107H0z"/></defs><g fill="none" fill-rule="evenodd"><g transform="translate(62 1)"><rect fill="#EAEAEA" width="79" height="102" rx="4"/><circle fill="#D8D8D8" cx="39.5" cy="43.5" r="28.5"/><circle fill="#EAEAEA" cx="39" cy="38" r="9"/><circle fill="#EAEAEA" cx="39.5" cy="61.5" r="19.5"/><rect fill="#D8D8D8" x="24" y="77" width="32" height="4" rx="4"/><rect fill="#D8D8D8" x="30" y="84" width="21" height="4" rx="2"/></g><g transform="rotate(-46 139.115 22.484)" fill="#D8D8D8"><circle cx="9.5" cy="1.5" r="1.5"/><circle cx="3" cy="10" r="3"/><circle cx="12" cy="17" r="2"/></g><g transform="rotate(134 83.137 40.048)" fill="#D8D8D8"><circle cx="9.5" cy="1.5" r="1.5"/><circle cx="3" cy="10" r="3"/><circle cx="12" cy="17" r="2"/></g><g transform="translate(-2 3)"><mask id="b" fill="#fff"><use xlink:href="#a"/></mask><use xlink:href="#a"/><g transform="rotate(-11 128.706 1.911)" mask="url(#b)"><rect fill="#EAEAEA" width="66" height="72" rx="4"/><ellipse fill="#D8D8D8" cx="33" cy="36.419" rx="23.81" ry="23.86"/><ellipse fill="#EAEAEA" cx="32.582" cy="31.814" rx="7.519" ry="7.535"/><ellipse fill="#EAEAEA" cx="33" cy="51.488" rx="16.291" ry="16.326"/></g></g><g transform="matrix(-1 0 0 1 205 3)"><mask id="d" fill="#fff"><use xlink:href="#c"/></mask><use xlink:href="#c"/><g transform="rotate(-11 128.706 1.911)" mask="url(#d)"><rect fill="#EAEAEA" width="66" height="72" rx="4"/><ellipse fill="#D8D8D8" cx="33" cy="36.419" rx="23.81" ry="23.86"/><ellipse fill="#EAEAEA" cx="32.582" cy="31.814" rx="7.519" ry="7.535"/><ellipse fill="#EAEAEA" cx="33" cy="51.488" rx="16.291" ry="16.326"/></g></g></g></svg>