<svg width="184" height="85" viewBox="0 0 184 85" xmlns="http://www.w3.org/2000/svg"><title>Group 4</title><g fill="none" fill-rule="evenodd"><g transform="translate(27)"><path d="M16 12.506A3.996 3.996 0 0 1 19.992 8.5h107.016c2.205 0 3.757 1.773 3.467 3.966l-8.95 67.568c-.29 2.19-2.325 3.966-4.529 3.966H20.004A4.004 4.004 0 0 1 16 79.994V12.506z" fill="#CCC"/><path d="M.208 12.005C.093 9.793 1.783 8 3.992 8h107.016c2.205 0 4.085 1.79 4.2 4.005l3.584 68.99c.115 2.212-1.575 4.005-3.784 4.005H7.992c-2.205 0-4.085-1.79-4.2-4.005L.208 12.005z" fill="#EFEFEF"/><path d="M37.5 55.5s6.735 4.756 15.425 4.756c8.69 0 14.592-4.756 14.592-4.756" stroke="#BBB" stroke-linecap="square"/><circle fill="#BBB" cx="37.5" cy="38.5" r="3.5"/><circle fill="#BBB" cx="67.5" cy="38.5" r="3.5"/><path d="M54.379 3.975C54.169 1.78 55.793 0 58.007 0h34.986c2.213 0 4.178 1.79 4.386 3.975l1.242 13.05C98.831 19.22 97.207 21 94.993 21H60.007c-2.213 0-4.178-1.79-4.386-3.975L54.38 3.975z" fill="#EFEFEF"/></g><g transform="translate(0 36)" fill="#D8D8D8"><circle cx="9.5" cy="1.5" r="1.5"/><circle cx="3" cy="10" r="3"/><circle cx="12" cy="17" r="2"/></g><g transform="scale(-1 1) rotate(24 -122.637 -415.326)" fill="#D8D8D8"><circle cx="9.5" cy="1.5" r="1.5"/><circle cx="3" cy="10" r="3"/><circle cx="12" cy="17" r="2"/></g></g></svg>