<svg width="338" height="94" viewBox="0 0 338 94" xmlns="http://www.w3.org/2000/svg"><title>Group 2</title><g fill="#484848" fill-rule="evenodd"><path d="M30.971 23.273H1.034l10.663-10.668L16 15.898l4.306-3.296 10.665 10.67zM32 22.245V3.655L21.472 11.71 32 22.245zM0 22.25V3.654l10.532 8.059L0 22.25zM32 1.824V0H0v1.824L16 14.09 32 1.824zM112.599 14.89c-1.505 1.23-3.48 2.425-6.087 3.447l-.601-1.5c2.334-.915 4.108-1.972 5.464-3.054-1.65-1.658-2.534-3.306-3.002-4.62h1.744c.444 1.038 1.204 2.28 2.476 3.541 2.26-2.25 2.89-4.434 3.066-5.512h-10.263V5.49h6.207V3.563h1.722v1.926h6.207v1.703h-2.224c-.157 1.255-.81 3.913-3.488 6.599.29.23.604.458.933.685.329-.435.849-.72 1.44-.72h7.824c.147-.732.228-1.488.228-2.263C124.245 5.146 119.04 0 112.622 0 106.204 0 101 5.146 101 11.493s5.204 11.493 11.622 11.493c.603 0 1.19-.059 1.768-.146v-6.66a18.975 18.975 0 0 1-1.791-1.29zm22.77-.014h-18.215c-.901 0-1.631.722-1.631 1.613v18.013c0 .89.73 1.613 1.63 1.613h18.216c.9 0 1.631-.722 1.631-1.613V16.49c0-.89-.73-1.613-1.63-1.613zm-4.901 16.847l-1.414-3.86h-5.483l-1.453 3.86h-1.76l5.047-12.815h1.905l5.064 12.815h-1.906zm-4.156-11.272l-2.196 5.977h4.392l-2.16-5.977h-.036zM333.254 19.577v-6.601h-9.864V8.423h4.672V0h-11.198v8.423h4.672v4.553h-9.864v6.601H307V28h11.199v-8.423h-4.673v-4.704h17.948v4.704H326.8V28H338v-8.423zM221.633 0C213.013 0 206 7.012 206 15.633c0 8.62 7.014 15.632 15.633 15.632 8.62 0 15.633-7.011 15.633-15.632 0-8.62-7.013-15.633-15.633-15.633zm14.281 15.633c0 .273-.024.54-.04.81-.1-.253-.253-.584-.29-.727-.052-.216-.376-.97-.376-.97s-.323-.43-.538-.538c-.214-.108-.376-.377-.754-.591-.377-.217-.537-.324-.86-.324-.324 0-.645-.431-1.023-.646-.378-.214-.43-.107-.43-.107s.43.645.43.806c0 .161.483.43.97.322 0 0 .322.593.483.754.16.161-.054.323-.376.539-.324.214-.27.16-.433.322-.161.16-.699.432-.86.538-.162.107-.807.43-1.13.107-.157-.155-.109-.483-.215-.7-.108-.214-1.238-1.883-1.776-2.635-.094-.133-.324-.541-.484-.646-.16-.11.378-.11.378-.11s0-.377-.054-.645c-.055-.269.054-.645.054-.645s-.539.322-.702.43c-.16.108-.322-.214-.536-.484-.215-.268-.432-.593-.485-.862-.054-.268.27-.376.27-.376l.483-.269s.592-.107.97-.054c.376.054.968.109.968.109s.16-.378-.055-.539c-.214-.161-.7-.43-.915-.376-.214.053.107-.27.375-.485l-.596-.108s-.542.27-.704.324a1.362 1.362 0 0 0-.658.43c-.214.27.086.645-.129.754a3.36 3.36 0 0 1-.522.214c-.16.054-.673 0-.673 0-.556 0-.2.507-.055.687l-.43-.525-.32-.753s-.458-.322-.674-.429c-.215-.108-.878-.484-.878-.484l.046.484.624.631.055.015.325.43-.717.054v-.426c-.675-.163-.498-.331-.575-.383-.16-.107-.534-.377-.534-.377s-.633.108-.795.162c-.162.054-.208.215-.529.322-.324.108-.47.27-.577.43-.107.162-.458.646-.67.861-.217.216-.616.161-.778.161-.162 0-.939-.215-.939-.215v-.912s.105-.512.052-.674l.471-.079.787-.162.23-.162.332-.43s-.372-.27-.104-.646c.13-.181.594-.215.809-.377.214-.16.54-.269.54-.269s.377-.322.753-.7c0 0 .27-.162.592-.27 0 0 .916.808 1.078.808.162 0 .753-.376.753-.376s.161-.484.109-.646c-.055-.16-.324-.7-.324-.7s-.16.27-.322.485c-.161.215-.27.484-.27.484s-.753-.051-.806-.212c-.055-.163-.161-.429-.216-.589-.052-.162-.483-.156-.805-.048-.324.108.052-.58.052-.58s.325-.407.539-.407c.214 0 .7-.276.913-.328.217-.055.864-.3 1.131-.3.27 0 .593.115.755.115h.807l1.129-.09s.97.358.645.575c0 0 .379.232.54.394.151.152.542-.14.766-.265 4.026 2.527 6.718 6.997 6.718 12.094zM210.236 7.21c0 .215-.293.267 0 .808.375.7.053 1.023.053 1.023s-.916.645-1.077.753c-.161.108-.591.7-.323.538.27-.161.591-.323.323.108-.27.431-.754 1.13-.86 1.4-.108.27-.646.915-.646 1.238 0 .323-.215.97-.161 1.24.036.187-.083.74-.177.967a14.167 14.167 0 0 1 2.773-8.095c.055.006.095.02.095.02zm1.73-2.063a14.306 14.306 0 0 1 4.56-2.84c-.168.216-.371.436-.371.436s-.376 0-1.077.754c-.698.754-.537.538-.698.752-.162.215-.109.27-.486.54a1.821 1.821 0 0 0-.537.592l-.593.215-.483-.215s-.433.162-.379-.055c.016-.057.039-.117.063-.18zm6.45 1.255l-.214-.322.214-.484.519.207v-.961l.495-.268.412.591.633.701-.42.322-1.121.215v-.57l-.518.57zm6.998 5.06c.126-.1.537.16.537.16s1.346.27 1.56.431c.217.162.593.27.701.433.109.16.484.645.537.806.055.161.324.755.378.97.054.214.215.753.376 1.022.162.27 1.077 1.453 1.4 1.992l.97-.161s-.109.483-.216.645c-.107.161-.43.592-.591.807-.162.215-.376.538-.7.806-.322.268-.324.538-.484.754-.161.215-.377.7-.377.7s.108 1.077.16 1.292c.054.215-.376.806-.376.806l-.485.486-.649.86.053.806s-.49.379-.76.593c-.267.214-.225.376-.44.592-.215.214-1.057.592-1.272.646-.215.054-1.402.215-1.402.215v-.483l-.024-.539s-.164-.645-.326-.86c-.162-.216-.092-.54-.36-.808-.27-.27-.37-.484-.423-.647-.055-.161.058-.644.058-.644s.217-.593.324-.808c.109-.215.002-.537-.107-.754-.108-.216-.16-.755-.16-.915 0-.16-.432-.431-.593-.592-.161-.161-.107-.377-.107-.59 0-.218-.161-.701-.108-1.078.054-.377-.484-.109-.807 0-.323.108-.537-.109-.537-.432s-.592-.053-.97.161c-.378.215-.807.215-1.24.378-.429.16-.643-.162-.643-.162s-.378-.322-.645-.484c-.27-.161-.54-.483-.756-.753-.214-.27-.754-1.078-.806-1.399-.054-.324 0-.54 0-.917 0-.376 0-.591.053-.86.054-.27.215-.593.378-.862.16-.27.753-.592.913-.7.161-.107.539-.429.539-.645 0-.215.216-.322.322-.539.11-.215.485-.752.97-.537 0 0 .43-.053.59-.107.161-.054.592-.214.805-.322.215-.108.751-.16.751-.16s.424.17.585.17c.161 0 .686-.094.686-.094s.243.78.243.942c0 .162.161.322.431.43.266.11 1.506.38 2.044-.051zm6.19 10.55c0 .16-.055.592-.109.807-.056.216-.162.593-.215.806-.054.216-.323.647-.483.755-.161.108-.432.431-.592.484-.16.054-.27-.377-.216-.592.055-.216.323-.807.323-.807s.054-.322.107-.539c.055-.214.701-.483.701-.483l.431-.808c-.002 0 .052.217.052.377zm-23.885-3.207c.07.018.169.068.31.193.202.177.322.267.592.376.268.11.376.269.7.43.323.163.216.056.645.54.431.483.377.483.484.753.107.27.27.537.378.7.108.162.43.269.591.377.161.108.43.215.591.215.163 0 .647.484.916.537.27.056.27.594.27.594l-.27.753-.216.806.216.646s-.324.27-.537.27c-.199 0-.266.126-.483.066a14.269 14.269 0 0 1-4.187-7.256zM117.661 78.765l2.85 2.866 3.278-3.189v.012l2.338-2.275v-.011l.761-.74 8.112-7.89-1.389-1.446-1.388-1.446-8.112 7.865-6.45 6.254zm1.993 3.769l-2.84-2.856-1.521 4.374 4.312-1.47.05-.048zm-.08-13.661v2.769h-12.021v-2.77h12.021zm2.339-2.365h-16.699v7.498h14.046l2.653-2.568v-4.93zm1.084-2.144c.548.05.792.466.792.87v4.377c.18-.175.364-.35.548-.524l1.79-1.746v-2.388c0-.037-.036-.209-.049-.307a3.134 3.134 0 0 0-.78-1.605 3.129 3.129 0 0 0-1.534-.943c-.243-.061-.463-.073-.706-.098h-19c-.11.012-.232.012-.318.025a5.144 5.144 0 0 0-.462.098c-.11.036-.232.085-.317.11-.11.037-.22.11-.329.159-.84.417-1.425 1.384-1.559 2.07l-.073.49v26.095c0 .025.037.331.073.49.037.16.098.307.146.466.037.074.085.172.11.245.39.882 1.461 1.568 2.192 1.678.17.025.341.062.512.074h19.05c.036 0 .316-.037.462-.061a3.178 3.178 0 0 0 1.754-.98c.402-.441.621-.944.73-1.372.037-.184.074-.368.098-.552V79.402l-2.338 2.285v9.066c.012.49-.414.883-.768.883h-18.927c-.536-.074-.755-.49-.755-.87v-25.52c.012-.06.012-.146.012-.195.048-.393.475-.711.767-.687h18.879zm-1.103 22.824h-16.662v2.353h16.662v-2.353zm-8.33-4.95h-8.332v2.353h8.331V82.24zm0-5.39h-8.332v2.353h8.331v-2.353zM335.641 65.033a12.87 12.87 0 0 1-3.715 1.018 6.48 6.48 0 0 0 2.844-3.579 12.948 12.948 0 0 1-4.108 1.57 6.468 6.468 0 0 0-11.021 5.9 18.366 18.366 0 0 1-13.333-6.758 6.435 6.435 0 0 0-.876 3.252 6.465 6.465 0 0 0 2.878 5.384 6.45 6.45 0 0 1-2.93-.81v.082a6.473 6.473 0 0 0 5.188 6.343 6.503 6.503 0 0 1-2.921.11 6.475 6.475 0 0 0 6.042 4.492 12.976 12.976 0 0 1-8.033 2.77c-.522 0-1.037-.031-1.543-.091a18.304 18.304 0 0 0 9.915 2.906c11.898 0 18.404-9.856 18.404-18.404 0-.28-.006-.56-.018-.838a13.1 13.1 0 0 0 3.227-3.347zM209.025 64.46c-.94 1.178-3.023 6.797 5.981 16.026 9.486 9.722 15.588 7.66 16.636 6.569l-6.343-6.343c-.88.88-2.022.094-4.212-1.693-1.449-1.183-3.116-2.772-4.563-4.564-1.016-1.256-1.914-2.576-.991-3.498l-6.508-6.497zM233.925 84.794a.993.993 0 0 0-.007-1.41v-.005l-4.95-4.944a.99.99 0 0 0-1.402 0l-1.789 1.788 6.36 6.36s1.787-1.782 1.787-1.785l.001-.004zM217.81 68.679a.993.993 0 0 0-.007-1.41v-.005l-5.092-5.087a.99.99 0 0 0-1.403 0l-1.789 1.789 6.503 6.502s1.787-1.782 1.787-1.785l.001-.004z"/><g transform="translate(0 62)"><path d="M30.533 0H1.467C.667 0 0 .667 0 1.467v29.066C0 31.333.667 32 1.467 32h29.066c.8 0 1.467-.667 1.467-1.467V1.467C32 .667 31.333 0 30.533 0zm-1.2 29.333H2.667v-20h26.666v20zm0-21.333H2.667V2.667h26.666V8z"/><circle cx="5.333" cy="5.333" r="1.333"/><circle cx="9.333" cy="5.333" r="1.333"/><circle cx="13.333" cy="5.333" r="1.333"/></g></g></svg>