<svg width="14" height="53" viewBox="0 0 14 53" xmlns="http://www.w3.org/2000/svg"><title>Group</title><g fill="none" fill-rule="evenodd"><path d="M13.136 3.15H11.58V.875A.87.87 0 0 0 10.716 0H3.284a.87.87 0 0 0-.864.875V3.15H.864A.87.87 0 0 0 0 4.025V9.1a.87.87 0 0 0 .864.875H2.42v3.15a.87.87 0 0 0 .864.875h7.432a.87.87 0 0 0 .864-.875v-3.15h1.556A.87.87 0 0 0 14 9.1V4.025a.87.87 0 0 0-.864-.875zm-9.68-2.1h7.087v2.1H3.457v-2.1zm7.087 11.9H3.457V8.4h7.086v4.55zm2.42-4.025H11.58V7.35H2.42v1.575H1.037V4.2h11.926v4.725zm-2.737-3.267a.319.319 0 0 0 .317-.32.319.319 0 0 0-.317-.321.319.319 0 0 0-.317.32c0 .178.142.321.317.321zm1.354.248a.478.478 0 0 0 .476-.481.478.478 0 0 0-.476-.481.478.478 0 0 0-.475.48c0 .267.213.482.475.482zm-6.568 6.169H7.26a.522.522 0 0 0 .519-.525.522.522 0 0 0-.519-.525H5.012a.522.522 0 0 0-.518.525c0 .29.232.525.518.525zm0-1.75h3.976a.522.522 0 0 0 .518-.525.522.522 0 0 0-.518-.525H5.012a.522.522 0 0 0-.518.525c0 .29.232.525.518.525z" fill="#777"/><path d="M13.136 42.15H11.58v-2.275a.87.87 0 0 0-.864-.875H3.284a.87.87 0 0 0-.864.875v2.275H.864a.87.87 0 0 0-.864.875V48.1a.87.87 0 0 0 .864.875H2.42v3.15a.87.87 0 0 0 .864.875h7.432a.87.87 0 0 0 .864-.875v-3.15h1.556A.87.87 0 0 0 14 48.1v-5.075a.87.87 0 0 0-.864-.875zm-9.68-2.1h7.087v2.1H3.457v-2.1zm7.087 11.9H3.457V47.4h7.086v4.55zm2.42-4.025H11.58V46.35H2.42v1.575H1.037V43.2h11.926v4.725zm-2.737-3.267a.319.319 0 0 0 .317-.32.319.319 0 0 0-.317-.321.319.319 0 0 0-.317.32c0 .178.142.321.317.321zm1.354.248a.478.478 0 0 0 .476-.481.478.478 0 0 0-.476-.481.478.478 0 0 0-.475.48c0 .267.213.482.475.482zm-6.568 6.169H7.26a.522.522 0 0 0 .519-.525.522.522 0 0 0-.519-.525H5.012a.522.522 0 0 0-.518.525c0 .29.232.525.518.525zm0-1.75h3.976a.522.522 0 0 0 .518-.525.522.522 0 0 0-.518-.525H5.012a.522.522 0 0 0-.518.525c0 .29.232.525.518.525z" fill="#000"/></g></svg>