<svg width="33" height="36" viewBox="0 0 33 36" xmlns="http://www.w3.org/2000/svg"><title>Group</title><g fill="none" fill-rule="evenodd"><path d="M7.578.003L5.69 0C3.568 0 2.196 1.352 2.196 3.445v1.589H.297A.291.291 0 0 0 0 5.32V7.62c0 .158.133.286.297.286h1.9v5.808c0 .157.132.285.296.285h2.478a.291.291 0 0 0 .297-.285V7.907h2.22a.291.291 0 0 0 .298-.286V5.32a.28.28 0 0 0-.086-.202.303.303 0 0 0-.21-.084H5.267V3.687c0-.647.16-.975 1.038-.975h1.272a.291.291 0 0 0 .297-.286V.288a.291.291 0 0 0-.297-.285zM32.5 1.656a7.255 7.255 0 0 1-2.061.557A3.56 3.56 0 0 0 32.017.258a7.305 7.305 0 0 1-2.282.859A3.606 3.606 0 0 0 27.115 0c-1.982 0-3.59 1.583-3.59 3.535 0 .277.032.547.093.805A10.245 10.245 0 0 1 16.22.646a3.468 3.468 0 0 0-.485 1.777 3.52 3.52 0 0 0 1.596 2.943 3.632 3.632 0 0 1-1.626-.444v.044c0 1.712 1.238 3.142 2.88 3.467-.301.08-.618.124-.946.124-.232 0-.456-.023-.676-.066a3.585 3.585 0 0 0 3.353 2.456 7.273 7.273 0 0 1-4.459 1.51c-.29 0-.575-.017-.856-.048A10.261 10.261 0 0 0 20.503 14c6.604 0 10.213-5.387 10.213-10.06l-.012-.457A7.11 7.11 0 0 0 32.5 1.656z" fill="#A3BFCC"/><path d="M7.578 22.003L5.69 22c-2.122 0-3.494 1.352-3.494 3.445v1.589H.297A.291.291 0 0 0 0 27.32v2.301c0 .158.133.286.297.286h1.9v5.808c0 .157.132.285.296.285h2.478a.291.291 0 0 0 .297-.285v-5.808h2.22a.291.291 0 0 0 .298-.286V27.32a.28.28 0 0 0-.086-.202.303.303 0 0 0-.21-.084H5.267v-1.347c0-.647.16-.975 1.038-.975h1.272a.291.291 0 0 0 .297-.286v-2.138a.291.291 0 0 0-.297-.285z" fill="#3853A1"/><path d="M32.5 23.656a7.255 7.255 0 0 1-2.061.557 3.56 3.56 0 0 0 1.578-1.955 7.305 7.305 0 0 1-2.282.859A3.606 3.606 0 0 0 27.115 22c-1.982 0-3.59 1.583-3.59 3.535 0 .277.032.547.093.805a10.245 10.245 0 0 1-7.399-3.694 3.468 3.468 0 0 0-.485 1.777 3.52 3.52 0 0 0 1.596 2.943 3.632 3.632 0 0 1-1.626-.444v.044c0 1.712 1.238 3.142 2.88 3.467-.301.08-.618.124-.946.124-.232 0-.456-.023-.676-.066a3.585 3.585 0 0 0 3.353 2.456 7.273 7.273 0 0 1-4.459 1.51c-.29 0-.575-.017-.856-.048A10.261 10.261 0 0 0 20.503 36c6.604 0 10.213-5.387 10.213-10.06l-.012-.457a7.11 7.11 0 0 0 1.796-1.827z" fill="#50ABF1"/></g></svg>