<svg width="38" height="278" viewBox="0 0 38 278" xmlns="http://www.w3.org/2000/svg"><title>ic-status-sprite</title><g fill="#FFF" fill-rule="evenodd"><path d="M19 34c9.389 0 17-7.611 17-17S28.389 0 19 0 2 7.611 2 17s7.611 17 17 17zm0-2c-8.284 0-15-6.716-15-15C4 8.716 10.716 2 19 2c8.284 0 15 6.716 15 15 0 8.284-6.716 15-15 15z"/><path d="M10.459 18.798l3.753 3.775.65.653.704-.593 10.838-9.124-1.288-1.53-10.838 9.124 1.353.06-3.754-3.776-1.418 1.41zM19 112c9.389 0 17-7.611 17-17s-7.611-17-17-17S2 85.611 2 95s7.611 17 17 17zm0-2c-8.284 0-15-6.716-15-15 0-8.284 6.716-15 15-15 8.284 0 15 6.716 15 15 0 8.284-6.716 15-15 15z"/><path d="M20.081 97.737h-2.144l-.449-8.587h3.041l-.448 8.587zm-2.628 3.006c0-.492.132-.864.396-1.116.263-.252.647-.378 1.151-.378.486 0 .863.129 1.13.387.266.258.4.627.4 1.107 0 .463-.135.828-.405 1.094-.27.267-.645.4-1.125.4-.492 0-.873-.13-1.143-.39-.27-.262-.404-.63-.404-1.104zM19 278c9.389 0 17-7.611 17-17s-7.611-17-17-17-17 7.611-17 17 7.611 17 17 17zm0-2c-8.284 0-15-6.716-15-15 0-8.284 6.716-15 15-15 8.284 0 15 6.716 15 15 0 8.284-6.716 15-15 15z"/><path d="M17.545 255.634c0-.873.487-1.31 1.46-1.31.972 0 1.458.437 1.458 1.31 0 .416-.121.74-.364.971-.244.231-.608.347-1.095.347-.972 0-1.459-.44-1.459-1.318zM20.34 268h-2.68v-9.826h2.68V268zM18.948 160.236c.094-.177.124-.2.052-.2-.072 0-.042.022.052.2L35.18 190.7c.166.313.174.3-.18.3H3c-.352 0-.345.011-.18-.3l16.128-30.464zm-1.768-.936L1.052 189.764C.182 191.407 1.142 193 3 193h32c1.863 0 2.818-1.593 1.948-3.236L20.82 159.3c-.893-1.687-2.747-1.686-3.64 0z"/><path d="M20.081 180.737h-2.144l-.449-8.587h3.041l-.448 8.587zm-2.628 3.006c0-.492.132-.864.396-1.116.263-.252.647-.378 1.151-.378.486 0 .863.129 1.13.387.266.258.4.627.4 1.107 0 .463-.135.828-.405 1.094-.27.267-.645.4-1.125.4-.492 0-.873-.13-1.143-.39-.27-.262-.404-.63-.404-1.104z"/></g></svg>