<svg width="88" height="94" viewBox="0 0 88 94" xmlns="http://www.w3.org/2000/svg"><title>envelop</title><g fill="none" fill-rule="evenodd"><path d="M72.506 24.71L88 38.14v55.235H0V38.141L44 0l14.115 12.235L44.41 24.782l-9.38-9.437-13.342 13.342L44 51l28.506-26.29z" fill="#86BCE9"/><path fill="#DBEEFD" d="M29.622 63.45L5.5 84.215V44.414z"/><path fill="#FFF" d="M54.12 59.787L44 51.076l-10.12 8.706L7.778 39.187 44 6.904l36.223 32.283z"/><path fill="#80CA9C" d="M44.79 32.153l-8.506-8.562L30 29.875l14.732 14.732L81.286 8.282 75.004 2z"/><path fill="#DBEEFD" d="M82.5 84.216L58.378 63.45 82.5 44.414zM44 58.347l34.273 29.505H9.727z"/></g></svg>