<svg width="681" height="695" viewBox="0 0 681 695" xmlns="http://www.w3.org/2000/svg" xmlns:xlink="http://www.w3.org/1999/xlink"><title>ic-sprite</title><defs><circle id="a" cx="20" cy="13" r="11"/><mask id="G" x="0" y="0" width="22" height="22" fill="#fff"><use xlink:href="#a"/></mask><path d="M.007 216.003c.198-6.642 4.32-12.298 10.129-14.728A9.972 9.972 0 0 1 7 194.003c0-5.523 4.477-10 10-10s10 4.477 10 10a9.977 9.977 0 0 1-3.466 7.57c5.453 2.574 9.269 8.047 9.459 14.43" id="b"/><mask id="H" x="0" y="0" width="32.985" height="32" fill="#fff"><use xlink:href="#b"/></mask><path id="c" d="M0 0h22v24H0z"/><mask id="I" x="0" y="0" width="22" height="24" fill="#fff"><use xlink:href="#c"/></mask><circle id="d" cx="16" cy="16" r="9"/><mask id="J" x="0" y="0" width="18" height="18" fill="#fff"><use xlink:href="#d"/></mask><circle id="e" cx="16" cy="16" r="4"/><mask id="K" x="0" y="0" width="8" height="8" fill="#fff"><use xlink:href="#e"/></mask><circle id="f" cx="20" cy="13" r="11"/><mask id="L" x="0" y="0" width="22" height="22" fill="#fff"><use xlink:href="#f"/></mask><path d="M.007 216.003c.198-6.642 4.32-12.298 10.129-14.728A9.972 9.972 0 0 1 7 194.003c0-5.523 4.477-10 10-10s10 4.477 10 10a9.977 9.977 0 0 1-3.466 7.57c5.453 2.574 9.269 8.047 9.459 14.43" id="g"/><mask id="M" x="0" y="0" width="32.985" height="32" fill="#fff"><use xlink:href="#g"/></mask><path id="h" d="M0 0h22v24H0z"/><mask id="N" x="0" y="0" width="22" height="24" fill="#fff"><use xlink:href="#h"/></mask><circle id="i" cx="16" cy="16" r="9"/><mask id="O" x="0" y="0" width="18" height="18" fill="#fff"><use xlink:href="#i"/></mask><circle id="j" cx="16" cy="16" r="4"/><mask id="P" x="0" y="0" width="8" height="8" fill="#fff"><use xlink:href="#j"/></mask><circle id="k" cx="6.909" cy="6.909" r="6.909"/><mask id="Q" x="0" y="0" width="13.818" height="13.818" fill="#fff"><use xlink:href="#k"/></mask><path id="R" d="M0 .006h17.988V12H0z"/><path id="T" d="M0 .006h17.988V12H0z"/><circle id="l" cx="16" cy="16" r="16"/><filter x="-50%" y="-50%" width="200%" height="200%" filterUnits="objectBoundingBox" id="V"><feOffset dy="2" in="SourceAlpha" result="shadowOffsetOuter1"/><feMorphology radius="1" in="SourceAlpha" result="shadowInner"/><feOffset dy="2" in="shadowInner" result="shadowInner"/><feComposite in="shadowOffsetOuter1" in2="shadowInner" operator="out" result="shadowOffsetOuter1"/><feGaussianBlur stdDeviation="2" in="shadowOffsetOuter1" result="shadowBlurOuter1"/><feColorMatrix values="0 0 0 0 0 0 0 0 0 0 0 0 0 0 0 0 0 0 0.100000001 0" in="shadowBlurOuter1"/></filter><mask id="W" x="0" y="0" width="32" height="32" fill="#fff"><use xlink:href="#l"/></mask><circle id="m" cx="16" cy="16" r="16"/><filter x="-50%" y="-50%" width="200%" height="200%" filterUnits="objectBoundingBox" id="X"><feOffset dy="2" in="SourceAlpha" result="shadowOffsetOuter1"/><feMorphology radius="1" in="SourceAlpha" result="shadowInner"/><feOffset dy="2" in="shadowInner" result="shadowInner"/><feComposite in="shadowOffsetOuter1" in2="shadowInner" operator="out" result="shadowOffsetOuter1"/><feGaussianBlur stdDeviation="2" in="shadowOffsetOuter1" result="shadowBlurOuter1"/><feColorMatrix values="0 0 0 0 0 0 0 0 0 0 0 0 0 0 0 0 0 0 0.100000001 0" in="shadowBlurOuter1"/></filter><mask id="Y" x="0" y="0" width="32" height="32" fill="#fff"><use xlink:href="#m"/></mask><circle id="n" cx="13" cy="13" r="13"/><filter x="-50%" y="-50%" width="200%" height="200%" filterUnits="objectBoundingBox" id="Z"><feOffset dy="2" in="SourceAlpha" result="shadowOffsetOuter1"/><feMorphology radius="1" in="SourceAlpha" result="shadowInner"/><feOffset dy="2" in="shadowInner" result="shadowInner"/><feComposite in="shadowOffsetOuter1" in2="shadowInner" operator="out" result="shadowOffsetOuter1"/><feGaussianBlur stdDeviation="2" in="shadowOffsetOuter1" result="shadowBlurOuter1"/><feColorMatrix values="0 0 0 0 0 0 0 0 0 0 0 0 0 0 0 0 0 0 0.100000001 0" in="shadowBlurOuter1"/></filter><mask id="aa" x="0" y="0" width="26" height="26" fill="#fff"><use xlink:href="#n"/></mask><circle id="o" cx="13" cy="13" r="13"/><filter x="-50%" y="-50%" width="200%" height="200%" filterUnits="objectBoundingBox" id="ab"><feOffset dy="2" in="SourceAlpha" result="shadowOffsetOuter1"/><feMorphology radius="1" in="SourceAlpha" result="shadowInner"/><feOffset dy="2" in="shadowInner" result="shadowInner"/><feComposite in="shadowOffsetOuter1" in2="shadowInner" operator="out" result="shadowOffsetOuter1"/><feGaussianBlur stdDeviation="2" in="shadowOffsetOuter1" result="shadowBlurOuter1"/><feColorMatrix values="0 0 0 0 0 0 0 0 0 0 0 0 0 0 0 0 0 0 0.100000001 0" in="shadowBlurOuter1"/></filter><mask id="ac" x="0" y="0" width="26" height="26" fill="#fff"><use xlink:href="#o"/></mask><circle id="p" cx="13" cy="13" r="13"/><filter x="-50%" y="-50%" width="200%" height="200%" filterUnits="objectBoundingBox" id="ad"><feOffset dy="2" in="SourceAlpha" result="shadowOffsetOuter1"/><feGaussianBlur stdDeviation="2" in="shadowOffsetOuter1" result="shadowBlurOuter1"/><feComposite in="shadowBlurOuter1" in2="SourceAlpha" operator="out" result="shadowBlurOuter1"/><feColorMatrix values="0 0 0 0 0 0 0 0 0 0 0 0 0 0 0 0 0 0 0.100000001 0" in="shadowBlurOuter1"/></filter><mask id="ae" x="0" y="0" width="26" height="26" fill="#fff"><use xlink:href="#p"/></mask><circle id="q" cx="13" cy="13" r="13"/><filter x="-50%" y="-50%" width="200%" height="200%" filterUnits="objectBoundingBox" id="af"><feOffset dy="2" in="SourceAlpha" result="shadowOffsetOuter1"/><feMorphology radius="1" in="SourceAlpha" result="shadowInner"/><feOffset dy="2" in="shadowInner" result="shadowInner"/><feComposite in="shadowOffsetOuter1" in2="shadowInner" operator="out" result="shadowOffsetOuter1"/><feGaussianBlur stdDeviation="2" in="shadowOffsetOuter1" result="shadowBlurOuter1"/><feColorMatrix values="0 0 0 0 0 0 0 0 0 0 0 0 0 0 0 0 0 0 0.100000001 0" in="shadowBlurOuter1"/></filter><mask id="ag" x="0" y="0" width="26" height="26" fill="#fff"><use xlink:href="#q"/></mask><path id="r" d="M.305.131h4v8h-4z"/><mask id="ah" x="0" y="0" width="4" height="8" fill="#fff"><use xlink:href="#r"/></mask><path id="s" d="M4.26 8.105l-1.964 3.008L.333 8.105"/><mask id="ai" x="0" y="0" width="3.926" height="3.008" fill="#fff"><use xlink:href="#s"/></mask><path id="t" d="M.305.131h4v8h-4z"/><mask id="aj" x="0" y="0" width="4" height="8" fill="#fff"><use xlink:href="#t"/></mask><path id="u" d="M4.26 8.105l-1.964 3.008L.333 8.105"/><mask id="ak" x="0" y="0" width="3.926" height="3.008" fill="#fff"><use xlink:href="#u"/></mask><circle id="v" cx="9" cy="9" r="9"/><mask id="al" x="0" y="0" width="18" height="18" fill="#fff"><use xlink:href="#v"/></mask><path id="w" d="M.305.131h4v8h-4z"/><mask id="am" x="0" y="0" width="4" height="8" fill="#fff"><use xlink:href="#w"/></mask><path id="x" d="M4.26 8.105l-1.964 3.008L.333 8.105"/><mask id="an" x="0" y="0" width="3.926" height="3.008" fill="#fff"><use xlink:href="#x"/></mask><path id="y" d="M.472.197h6.182v12H.472z"/><mask id="ao" x="0" y="0" width="6.182" height="12" fill="#fff"><use xlink:href="#y"/></mask><path id="z" d="M6.582 12.158L3.55 16.67.515 12.158"/><mask id="ap" x="0" y="0" width="6.067" height="4.512" fill="#fff"><use xlink:href="#z"/></mask><path id="A" d="M.472.197h6.182v12H.472z"/><mask id="aq" x="0" y="0" width="6.182" height="12" fill="#fff"><use xlink:href="#A"/></mask><path id="B" d="M6.582 12.158L3.55 16.67.515 12.158"/><mask id="ar" x="0" y="0" width="6.067" height="4.512" fill="#fff"><use xlink:href="#B"/></mask><path id="C" d="M0 11L16.078 0 32 11v21H0z"/><mask id="as" x="0" y="0" width="32" height="32" fill="#fff"><use xlink:href="#C"/></mask><path id="D" d="M11.899 19.088L.152 11.17.198 31.94"/><mask id="at" x="0" y="0" width="11.747" height="20.768" fill="#fff"><use xlink:href="#D"/></mask><path id="E" d="M31.899 19.088L20.152 11.17l.046 20.768"/><mask id="au" x="0" y="0" width="11.747" height="20.768" fill="#fff"><use xlink:href="#E"/></mask><path id="F" d="M.022 32.025l16.096-14.11 15.886 14z"/><mask id="av" x="0" y="0" width="31.982" height="14.11" fill="#fff"><use xlink:href="#F"/></mask><path id="aw" d="M23.954 10.646V0H0v10.646h23.954z"/><path id="ay" d="M23.954 10.646V0H0v10.646h23.954z"/></defs><g fill="none" fill-rule="evenodd"><g transform="translate(1 2)"><path stroke="#484848" stroke-width="2" stroke-linecap="round" d="M2.904 7.878h9.051l3.061 8.128L18.152 0l2.816 7.942H33"/><g fill="#484848"><path d="M1 56.003h2v32H1zM31 70.003h2v18h-2zM15 55.003h2v33h-2z"/><path d="M15 72.003v-2h18v2zM6 64.003h2v2H6zM10 64.003h2v2h-2zM6 68.003h2v2H6zM10 68.003h2v2h-2zM6 72.003h2v2H6zM10 72.003h2v2h-2zM6 76.003h2v2H6zM10 76.003h2v2h-2zM22 76.003h2v2h-2zM26 76.003h2v2h-2zM6 80.003h2v2H6zM10 80.003h2v2h-2zM22 80.003h2v2h-2zM26 80.003h2v2h-2zM6 84.003h2v2H6zM10 84.003h2v2h-2zM22 84.003h2v2h-2zM26 84.003h2v2h-2zM1 57.003v-2h15v2z"/></g><g transform="translate(0 122.003)"><path fill="#484848" d="M10.096 24.182l-7.778-7.778-1.414 1.414 7.778 7.778z"/><path fill="#484848" d="M10.457 21.12l1.414 1.414-2.922 2.922-1.414-1.415zM30.995.995l1.414 1.415-16.162 16.162-1.415-1.414z"/><use stroke="#484848" mask="url(#G)" stroke-width="4" stroke-linecap="square" xlink:href="#a"/></g><use stroke="#484848" mask="url(#H)" stroke-width="4" stroke-linecap="square" xlink:href="#b"/><g transform="translate(1 248.003)"><use stroke="#484848" mask="url(#I)" stroke-width="4" stroke-linecap="square" xlink:href="#c"/><path fill="#484848" d="M24 8h8v2h-8z"/><path fill="#484848" d="M30 8h2v24h-2z"/><path fill="#484848" d="M10 30h22v2H10z"/><path fill="#484848" d="M10 26h2v6h-2zM4 5h13v2H4zM4 10h7v2H4z"/></g><g fill="#484848"><path d="M1 342.003h32v2H1zM16 312.003h2v22h-2zM17.065 337.024l9.324-9.324 1.414 1.414-10.777 10.777zM16.99 337.078L7.61 327.7l-1.413 1.414 10.822 10.822z"/></g><g transform="translate(1 376.003)"><use stroke="#484848" mask="url(#J)" stroke-width="4" stroke-linecap="square" xlink:href="#d"/><use stroke="#484848" mask="url(#K)" stroke-width="4" stroke-linecap="square" xlink:href="#e"/><path d="M15 0h2v4h-2V0zm11.607 3.98l1.414 1.413-2.829 2.829-1.414-1.414 2.829-2.829zM32 15v2h-4v-2h4zm-3.98 11.607l-1.413 1.414-2.829-2.829 1.414-1.414 2.829 2.829zM17 32h-2v-4h2v4zM5.393 28.02L3.98 26.608l2.829-2.829 1.414 1.414-2.829 2.829zM0 17v-2h4v2H0zM3.98 5.393L5.392 3.98l2.829 2.829-1.414 1.414-2.829-2.829z" fill="#484848"/></g></g><g transform="translate(74 4)"><path stroke="#FFF" stroke-width="2" stroke-linecap="round" d="M2.904 7.878h9.051l3.061 8.128L18.152 0l2.816 7.942H33"/><g fill="#FFF"><path d="M1 56.003h2v32H1zM31 70.003h2v18h-2zM15 55.003h2v33h-2z"/><path d="M15 72.003v-2h18v2zM6 64.003h2v2H6zM10 64.003h2v2h-2zM6 68.003h2v2H6zM10 68.003h2v2h-2zM6 72.003h2v2H6zM10 72.003h2v2h-2zM6 76.003h2v2H6zM10 76.003h2v2h-2zM22 76.003h2v2h-2zM26 76.003h2v2h-2zM6 80.003h2v2H6zM10 80.003h2v2h-2zM22 80.003h2v2h-2zM26 80.003h2v2h-2zM6 84.003h2v2H6zM10 84.003h2v2h-2zM22 84.003h2v2h-2zM26 84.003h2v2h-2zM1 57.003v-2h15v2z"/></g><g transform="translate(0 122.003)"><path fill="#FFF" d="M10.096 24.182l-7.778-7.778-1.414 1.414 7.778 7.778z"/><path fill="#FFF" d="M10.457 21.12l1.414 1.414-2.922 2.922-1.414-1.415zM30.995.995l1.414 1.415-16.162 16.162-1.415-1.414z"/><use stroke="#FFF" mask="url(#L)" stroke-width="4" stroke-linecap="square" xlink:href="#f"/></g><use stroke="#FFF" mask="url(#M)" stroke-width="4" stroke-linecap="square" xlink:href="#g"/><g transform="translate(1 248.003)"><use stroke="#FFF" mask="url(#N)" stroke-width="4" stroke-linecap="square" xlink:href="#h"/><path fill="#FFF" d="M24 8h8v2h-8z"/><path fill="#FFF" d="M30 8h2v24h-2z"/><path fill="#FFF" d="M10 30h22v2H10z"/><path fill="#FFF" d="M10 26h2v6h-2zM4 5h13v2H4zM4 10h7v2H4z"/></g><g fill="#FFF"><path d="M1 342.003h32v2H1zM16 312.003h2v22h-2zM17.065 337.024l9.324-9.324 1.414 1.414-10.777 10.777zM16.99 337.078L7.61 327.7l-1.413 1.414 10.822 10.822z"/></g><g transform="translate(1 376.003)"><use stroke="#FFF" mask="url(#O)" stroke-width="4" stroke-linecap="square" xlink:href="#i"/><use stroke="#FFF" mask="url(#P)" stroke-width="4" stroke-linecap="square" xlink:href="#j"/><path d="M15 0h2v4h-2V0zm11.607 3.98l1.414 1.413-2.829 2.829-1.414-1.414 2.829-2.829zM32 15v2h-4v-2h4zm-3.98 11.607l-1.413 1.414-2.829-2.829 1.414-1.414 2.829 2.829zM17 32h-2v-4h2v4zM5.393 28.02L3.98 26.608l2.829-2.829 1.414 1.414-2.829 2.829zM0 17v-2h4v2H0zM3.98 5.393L5.392 3.98l2.829 2.829-1.414 1.414-2.829-2.829z" fill="#FFF"/></g></g><g fill="#484848"><path d="M158 2h2v16h-2z"/><path d="M151 11V9h16v2z"/></g><g transform="translate(148 132)"><use stroke="#484848" mask="url(#Q)" stroke-width="6" stroke-linecap="square" xlink:href="#k"/><path fill="#484848" d="M8.764 10.82l2.057-2.056 5.142 5.142-2.057 2.057z"/></g><g fill="#FFF"><path d="M158 69h2v16h-2z"/><path d="M151 78v-2h16v2z"/></g><g fill="#FFF"><path d="M317 217a8 8 0 1 0 0-16 8 8 0 0 0 0 16zm0 1a9 9 0 1 1 0-18 9 9 0 0 1 0 18z"/><path d="M316.693 211.639v-.317c0-.457.07-.833.211-1.128.14-.295.403-.606.785-.934.532-.45.867-.787 1.005-1.014.139-.226.208-.5.208-.82 0-.399-.128-.706-.383-.923-.256-.217-.624-.325-1.105-.325-.309 0-.61.036-.902.108a4.893 4.893 0 0 0-1.008.396l-.346-.791a4.923 4.923 0 0 1 2.315-.58c.746 0 1.326.183 1.74.55.414.368.621.885.621 1.553 0 .285-.038.536-.114.753a2.21 2.21 0 0 1-.337.615c-.149.194-.469.505-.961.935-.395.336-.655.615-.782.838-.127.222-.19.52-.19.89v.194h-.757zm-.287 1.74c0-.531.235-.797.703-.797.227 0 .402.068.525.205.123.137.184.334.184.592 0 .25-.062.444-.187.583-.125.139-.299.208-.522.208a.713.713 0 0 1-.504-.185c-.132-.123-.199-.325-.199-.606z"/></g><g fill="#484848"><path d="M170 292c8.284 0 15-6.716 15-15 0-8.284-6.716-15-15-15-8.284 0-15 6.716-15 15 0 8.284 6.716 15 15 15zm0 1c-8.837 0-16-7.163-16-16s7.163-16 16-16 16 7.163 16 16-7.163 16-16 16z"/><path d="M169.942 281.19l3.151-1.734-5.053-8.835-3.117 1.8 5.019 8.769zm-6.396-9.129l4.824-2.785 6.052 10.482-4.824 2.785-6.052-10.482z"/><path d="M174.411 279.764l-.037 5.051-4.758-2.282.823-.475 3.154 1.59.053-3.442z"/></g><g fill="#00A8FF"><path d="M237 292c8.284 0 15-6.716 15-15 0-8.284-6.716-15-15-15-8.284 0-15 6.716-15 15 0 8.284 6.716 15 15 15zm0 1c-8.837 0-16-7.163-16-16s7.163-16 16-16 16 7.163 16 16-7.163 16-16 16z"/><path d="M236.942 281.19l3.151-1.734-5.053-8.835-3.117 1.8 5.019 8.769zm-6.396-9.129l4.824-2.785 6.052 10.482-4.824 2.785-6.052-10.482z"/><path d="M241.411 279.764l-.037 5.051-4.758-2.282.823-.475 3.154 1.59.053-3.442z"/></g><g transform="translate(160 401)"><mask id="S" fill="#fff"><use xlink:href="#R"/></mask><path d="M17.92 5.74C15.04 1.935 12.012.006 8.921.006c-2.186 0-4.416 1-6.448 2.893C.954 4.313.086 5.709.05 5.768L0 5.85v.307l.05.082c.037.059.904 1.454 2.424 2.869C4.506 11 6.735 12 8.922 12c3.092 0 6.118-1.93 8.997-5.734l.07-.092v-.342l-.07-.092z" fill="#FFF" mask="url(#S)"/></g><path d="M168.922 412.31c-4.45 0-7.656-4.507-8.19-5.307.534-.8 3.735-5.308 8.19-5.308 2.816 0 5.615 1.786 8.318 5.308-2.704 3.522-5.502 5.308-8.318 5.308" fill="#00A8FF"/><path d="M168.85 403.007c-2.243 0-4.067 1.782-4.067 3.974s1.824 3.974 4.068 3.974c2.243 0 4.068-1.782 4.068-3.974 0-2.191-1.825-3.974-4.068-3.974" fill="#FFF"/><path d="M168.85 410.267c-1.853 0-3.362-1.474-3.362-3.286 0-1.811 1.509-3.285 3.363-3.285s3.363 1.473 3.363 3.285-1.51 3.286-3.363 3.286" fill="#00A8FF"/><path d="M168.862 404.235c-1.556 0-2.822 1.237-2.822 2.757 0 1.521 1.266 2.758 2.822 2.758s2.822-1.237 2.822-2.758c0-1.52-1.266-2.757-2.822-2.757" fill="#FFF"/><path d="M168.862 409.405c-1.361 0-2.47-1.082-2.47-2.413 0-1.33 1.108-2.412 2.47-2.412 1.361 0 2.47 1.082 2.47 2.412 0 1.33-1.109 2.413-2.47 2.413" fill="#00A8FF"/><g><g transform="translate(159 344)"><mask id="U" fill="#fff"><use xlink:href="#T"/></mask><path d="M17.92 5.74C15.04 1.935 12.012.006 8.921.006c-2.186 0-4.416 1-6.448 2.893C.954 4.313.086 5.709.05 5.768L0 5.85v.307l.05.082c.037.059.904 1.454 2.424 2.869C4.506 11 6.735 12 8.922 12c3.092 0 6.118-1.93 8.997-5.734l.07-.092v-.342l-.07-.092z" fill="#FFF" mask="url(#U)"/></g><path d="M167.922 355.31c-4.45 0-7.656-4.507-8.19-5.307.534-.8 3.735-5.308 8.19-5.308 2.816 0 5.615 1.786 8.318 5.308-2.704 3.522-5.502 5.308-8.318 5.308" fill="#9B9B9B"/><path d="M167.85 346.007c-2.243 0-4.067 1.782-4.067 3.974s1.824 3.974 4.068 3.974c2.243 0 4.068-1.782 4.068-3.974 0-2.191-1.825-3.974-4.068-3.974" fill="#FFF"/><path d="M167.85 353.267c-1.853 0-3.362-1.474-3.362-3.286 0-1.811 1.509-3.285 3.363-3.285s3.363 1.473 3.363 3.285-1.51 3.286-3.363 3.286" fill="#9B9B9B"/><path d="M167.862 347.235c-1.556 0-2.822 1.237-2.822 2.757 0 1.521 1.266 2.758 2.822 2.758s2.822-1.237 2.822-2.758c0-1.52-1.266-2.757-2.822-2.757" fill="#FFF"/><path d="M167.862 352.405c-1.361 0-2.47-1.082-2.47-2.413 0-1.33 1.108-2.412 2.47-2.412 1.361 0 2.47 1.082 2.47 2.412 0 1.33-1.109 2.413-2.47 2.413" fill="#9B9B9B"/></g><g><g transform="translate(4.5 448)"><use fill="#000" filter="url(#V)" xlink:href="#l"/><use stroke="#4A4A4A" mask="url(#W)" stroke-width="2" stroke-linecap="square" xlink:href="#l"/></g><path fill="#4A4A4A" d="M19.5 455h2v18h-2z"/><path fill="#4A4A4A" d="M11.5 465v-2h18v2z"/></g><g><g transform="translate(4.5 508)"><use fill="#000" filter="url(#X)" xlink:href="#m"/><use stroke="#00A8FF" mask="url(#Y)" stroke-width="2" stroke-linecap="square" xlink:href="#m"/></g><path fill="#00A8FF" d="M19.5 515h2v18h-2z"/><path fill="#00A8FF" d="M11.5 525v-2h18v2z"/></g><g transform="translate(393 2)"><circle fill="#4A4A4A" cx="10" cy="10" r="10"/><path d="M9.224 4.444c-.578 0-1.058.476-1.058 1.054v.164h-1.88c-.403 0-.73.32-.73.718v.765H15V6.38a.723.723 0 0 0-.73-.718h-1.88v-.164c0-.578-.48-1.054-1.059-1.054H9.224zm0 .703h2.107c.201 0 .352.15.352.351v.164h-2.81v-.164c0-.2.15-.351.351-.351zm-3.266 2.49l1.112 7.895a.176.176 0 0 0 .172.152h6.072a.176.176 0 0 0 .172-.152l1.112-7.895h-8.64zm4.32 1.28a.35.35 0 0 1 .351.351v4.785a.35.35 0 1 1-.702 0V9.268a.35.35 0 0 1 .35-.351zm-2.19.008a.353.353 0 0 1 .348.32l.413 4.769a.346.346 0 0 1-.316.378.353.353 0 0 1-.382-.32l-.418-4.765a.35.35 0 0 1 .32-.378c.012-.001.023-.004.035-.004zm4.38 0c.011 0 .022.003.034.004a.35.35 0 0 1 .32.378l-.417 4.765a.353.353 0 0 1-.383.32.346.346 0 0 1-.316-.378l.414-4.77a.353.353 0 0 1 .347-.32z" fill="#FFF"/></g><g><circle cx="10" cy="10" r="10" fill="#00A8FF" transform="translate(393 199)"/><g fill="#FFF"><path d="M399.53 204.837l.441.708-2.64 1.65.669 1.07 7.536-4.71-.668-1.07-2.64 1.65-.443-.707-2.256 1.41zm.417.085l1.768-1.105.29.465-1.767 1.105-.29-.465z"/><path d="M399.368 207.2l.881 7.911h5.65l.881-7.912h-7.412zm5.521.879h.738l-.607 6.423h-.562l.431-6.423zm-2.222.005h.737l-.078 6.422h-.562l-.097-6.422zm-2.222.051h.737l.45 6.41h-.562l-.625-6.41z"/></g></g><g><circle cx="10" cy="10" r="10" fill="#1AAB3C" transform="translate(393 269)"/><g fill="#FFF"><path d="M399.53 274.837l.441.708-2.64 1.65.669 1.07 7.536-4.71-.668-1.07-2.64 1.65-.443-.707-2.256 1.41zm.417.085l1.768-1.105.29.465-1.767 1.105-.29-.465z"/><path d="M399.368 277.2l.881 7.911h5.65l.881-7.912h-7.412zm5.521.879h.738l-.607 6.423h-.562l.431-6.423zm-2.222.005h.737l-.078 6.422h-.562l-.097-6.422zm-2.222.051h.737l.45 6.41h-.562l-.625-6.41z"/></g></g><g fill="#9B9B9B"><path d="M321.581 339.014a.252.252 0 0 0-.335.115l-7.746 15.75s.075 1.231.116 2.018c.4.163 1.05.373 1.65.504l1.413-.984 3.766-7.555.44-.896 1.873-3.81 1.025-2.183-1.008 2.16.433.241-1.763 3.585-.225-.108c-.124-.06-.257-.033-.318.091s-.026.297.098.357l.224.108-.22.448-.225-.108a.251.251 0 0 0-.334.115.247.247 0 0 0 .114.333l.45.217c.124.06.274.009.335-.115l2.424-4.93a.248.248 0 0 0-.115-.332l-.674-.326 1.024-2.185.422-.857a.248.248 0 0 0-.114-.333l-2.73-1.32z"/><path d="M323.099 342.084l-2.162-1.045-6.736 13.697 2.161 1.046 6.528-13.273.209-.425zM314.015 355.128l.062 1.207 1.09.528.998-.695zM323.41 340.557l-1.709-.827.986-2.033 1.71.827z"/></g><g fill="#00A8FF"><path d="M317.545 397.623l-2.729-1.32a.252.252 0 0 0-.335.115l-7.746 15.75.187 3.621 2.992-2.083 3.765-7.555.441-.896.017-.024 1.856-3.785 1.025-2.184-1.008 2.16.433.241-1.763 3.585-.225-.108c-.124-.06-.258-.032-.318.091-.061.124-.027.297.097.357l.225.109-.22.448-.225-.11a.251.251 0 0 0-.335.116.247.247 0 0 0 .115.333l.45.217c.123.06.273.009.334-.115l2.424-4.93a.248.248 0 0 0-.114-.332l-.675-.326 1.025-2.184.422-.858a.248.248 0 0 0-.115-.333"/><path d="M316.333 399.374l-2.162-1.046-6.736 13.697 2.162 1.046 6.527-13.272.21-.425zM307.25 412.418l.062 1.206 1.09.528.998-.695zM316.646 397.846l-1.71-.827.494-1.004 1.71.827z"/></g><path fill="#00A8FF" d="M309 415h9v1h-9zM399 489l5 4.667h-10z"/><path d="M529.619 107.713h-29.937l10.662-10.668 4.303 3.293 4.307-3.296 10.665 10.67zm1.028-1.029v-18.59l-10.528 8.057 10.528 10.533zm-32 .006V88.094l10.532 8.059-10.532 10.537zm32-20.426V84.44h-32v1.824l16 12.267 16-12.267z" fill="#484848"/><path d="M597.784 82.47c-8.619 0-15.632 7.013-15.632 15.633s7.013 15.633 15.632 15.633c8.62 0 15.634-7.011 15.634-15.633 0-8.62-7.014-15.632-15.634-15.632zm14.282 15.633c0 .274-.024.541-.04.811-.101-.253-.253-.584-.29-.727-.053-.216-.376-.97-.376-.97s-.323-.43-.538-.538c-.215-.108-.377-.378-.754-.592-.377-.216-.537-.323-.86-.323-.324 0-.645-.431-1.024-.647-.377-.214-.43-.107-.43-.107s.43.646.43.807c0 .161.484.43.97.322 0 0 .322.593.484.754.16.161-.055.323-.377.538-.323.214-.269.162-.432.323-.161.16-.699.432-.861.538-.161.107-.807.43-1.129.107-.158-.155-.109-.483-.215-.7-.108-.215-1.238-1.883-1.777-2.636-.093-.132-.323-.54-.483-.645-.16-.11.378-.11.378-.11s0-.377-.055-.645c-.055-.27.055-.645.055-.645s-.539.322-.702.43c-.16.108-.322-.214-.537-.484-.215-.269-.431-.593-.484-.862-.054-.268.27-.377.27-.377l.483-.268s.592-.107.97-.054c.376.054.967.108.967.108s.161-.377-.054-.538c-.214-.161-.7-.43-.916-.376-.214.053.107-.27.376-.485l-.596-.108s-.542.27-.704.323a1.362 1.362 0 0 0-.658.43c-.214.27.086.646-.13.754a3.36 3.36 0 0 1-.521.214c-.161.055-.673 0-.673 0-.556 0-.2.508-.055.688l-.43-.525-.32-.753s-.459-.322-.674-.43c-.215-.107-.878-.484-.878-.484l.046.485.624.631.055.014.324.43-.716.055v-.426c-.675-.163-.499-.331-.575-.383-.16-.107-.534-.377-.534-.377s-.633.108-.795.162c-.163.054-.208.215-.529.322-.324.108-.47.27-.577.43-.107.161-.458.646-.671.861-.216.216-.616.161-.777.161-.162 0-.939-.215-.939-.215v-.913s.105-.512.052-.673l.471-.08.787-.161.23-.163.332-.43s-.372-.27-.104-.645c.129-.181.594-.216.809-.377.214-.16.54-.269.54-.269s.377-.322.753-.7c0 0 .27-.162.591-.27 0 0 .916.808 1.078.808.163 0 .754-.376.754-.376s.161-.484.108-.646c-.054-.161-.323-.7-.323-.7s-.161.27-.322.485c-.161.215-.27.484-.27.484s-.753-.052-.806-.213c-.055-.162-.161-.428-.216-.588-.052-.162-.484-.156-.805-.048-.324.108.052-.58.052-.58s.324-.407.539-.407c.214 0 .7-.276.913-.329.216-.054.864-.3 1.131-.3.27 0 .593.116.755.116h.807l1.128-.09s.97.358.646.575c0 0 .378.232.54.393.15.153.541-.14.765-.264 4.027 2.527 6.72 6.997 6.72 12.093zm-25.678-8.421c0 .215-.294.267 0 .808.375.7.053 1.023.053 1.023s-.916.645-1.077.753c-.161.108-.592.7-.323.538.269-.162.591-.323.323.108-.27.431-.754 1.13-.86 1.4-.108.27-.646.915-.646 1.238 0 .323-.215.97-.161 1.24.036.187-.083.74-.177.967a14.167 14.167 0 0 1 2.773-8.095c.055.006.095.02.095.02zm1.729-2.064a14.306 14.306 0 0 1 4.56-2.839c-.167.215-.37.436-.37.436s-.376-.001-1.077.754c-.699.753-.538.538-.699.752-.16.214-.108.27-.485.54a1.821 1.821 0 0 0-.538.591l-.592.216-.483-.216s-.433.163-.379-.054c.016-.057.039-.117.063-.18zm6.45 1.256l-.213-.322.214-.484.518.207v-.961l.496-.268.411.591.634.7-.42.323-1.122.215v-.57l-.517.57zm6.999 5.06c.126-.1.537.16.537.16s1.345.27 1.56.43c.217.163.593.271.701.433.108.162.483.646.536.807.056.161.325.755.379.969.054.215.215.754.376 1.023.161.27 1.077 1.453 1.4 1.992l.97-.162s-.109.484-.216.646c-.107.161-.43.591-.591.807-.163.215-.377.538-.7.806-.322.268-.324.538-.484.754-.161.215-.378.7-.378.7s.108 1.076.161 1.292c.053.215-.376.806-.376.806l-.485.486-.65.86.054.806s-.49.378-.76.592c-.268.215-.226.377-.44.593-.215.214-1.057.591-1.272.646-.215.054-1.402.215-1.402.215v-.484l-.025-.538s-.163-.646-.325-.86c-.162-.216-.092-.54-.361-.808-.27-.27-.369-.484-.423-.647-.054-.161.059-.645.059-.645s.217-.592.324-.807c.108-.215.001-.538-.107-.754-.108-.216-.16-.755-.16-.915 0-.16-.432-.431-.593-.592-.162-.161-.108-.378-.108-.59 0-.218-.16-.701-.108-1.079.054-.376-.483-.108-.806 0-.324.109-.538-.108-.538-.431s-.591-.053-.968.161c-.379.215-.808.215-1.24.377-.43.162-.644-.16-.644-.16s-.379-.323-.646-.485c-.27-.161-.54-.483-.755-.753-.215-.27-.754-1.078-.806-1.399-.054-.324 0-.54 0-.917 0-.376 0-.591.053-.86.054-.27.215-.593.377-.862.161-.27.754-.592.914-.7.161-.107.539-.43.539-.645 0-.216.216-.323.322-.539.109-.215.485-.752.97-.537 0 0 .429-.053.59-.107.161-.054.591-.214.804-.322.216-.109.752-.16.752-.16s.424.17.585.17c.16 0 .686-.094.686-.094s.243.78.243.942c0 .162.16.322.431.43.266.11 1.505.38 2.044-.052zm6.19 10.55c0 .16-.055.592-.11.807-.055.215-.161.593-.214.806-.054.216-.324.646-.484.755-.16.108-.431.431-.591.484-.161.054-.27-.377-.216-.593.055-.215.323-.806.323-.806s.054-.322.107-.539c.055-.214.7-.483.7-.483l.432-.808c-.002 0 .052.217.052.377zm-23.885-3.207c.07.018.169.068.309.193.203.177.323.267.592.376.269.11.377.268.7.43.323.163.216.056.646.54.431.482.377.482.484.753.107.27.27.537.377.7.108.162.43.269.592.377.16.108.43.215.591.215.162 0 .647.484.916.537.27.055.27.594.27.594l-.27.753-.216.806.216.646s-.324.27-.537.27c-.199 0-.266.126-.484.066a14.269 14.269 0 0 1-4.186-7.256z" fill="#515151"/><g fill="#484848"><path d="M503.025 4.46c-.94 1.178-3.023 6.797 5.981 16.026 9.486 9.722 15.588 7.66 16.636 6.569l-6.343-6.343c-.88.88-2.022.094-4.212-1.693-1.449-1.183-3.116-2.772-4.563-4.564-1.016-1.256-1.914-2.576-.991-3.498l-6.508-6.497zM527.925 24.794a.993.993 0 0 0-.007-1.41v-.005l-4.95-4.944a.99.99 0 0 0-1.402 0l-1.789 1.788 6.36 6.36s1.787-1.782 1.787-1.785l.001-.004zM511.81 8.679a.993.993 0 0 0-.007-1.41v-.005l-5.092-5.087a.99.99 0 0 0-1.403 0l-1.789 1.789 6.503 6.502s1.787-1.782 1.787-1.785l.001-.004z"/></g><path d="M614.543 4.682a12.87 12.87 0 0 1-3.715 1.018 6.48 6.48 0 0 0 2.844-3.58 12.948 12.948 0 0 1-4.107 1.571 6.468 6.468 0 0 0-11.021 5.9 18.366 18.366 0 0 1-13.334-6.758 6.435 6.435 0 0 0-.875 3.252 6.465 6.465 0 0 0 2.877 5.384 6.45 6.45 0 0 1-2.93-.81v.082a6.473 6.473 0 0 0 5.189 6.342 6.503 6.503 0 0 1-2.922.11 6.475 6.475 0 0 0 6.042 4.493 12.976 12.976 0 0 1-8.033 2.769c-.522 0-1.037-.03-1.543-.09a18.304 18.304 0 0 0 9.915 2.905c11.899 0 18.404-9.856 18.404-18.403 0-.28-.006-.56-.018-.838a13.1 13.1 0 0 0 3.227-3.347z" fill="#484848"/><g fill="#484848"><g transform="translate(649)"><path d="M30.533 0H1.467C.667 0 0 .667 0 1.467v29.066C0 31.333.667 32 1.467 32h29.066c.8 0 1.467-.667 1.467-1.467V1.467C32 .667 31.333 0 30.533 0zm-1.2 29.333H2.667v-20h26.666v20zm0-21.333H2.667V2.667h26.666V8z"/><circle cx="5.333" cy="5.333" r="1.333"/><circle cx="9.333" cy="5.333" r="1.333"/><circle cx="13.333" cy="5.333" r="1.333"/></g></g><g><g transform="translate(500 157)"><use fill="#000" filter="url(#Z)" xlink:href="#n"/><use stroke="#FFF" mask="url(#aa)" stroke-width="2" stroke-linecap="square" xlink:href="#n"/></g><path fill="#FFF" d="M512.188 162.688h1.625v14.625h-1.625z"/><path fill="#FFF" d="M505.688 170.813v-1.625h14.625v1.625z"/></g><g><g transform="translate(285 580)"><use fill="#000" filter="url(#ab)" xlink:href="#o"/><use stroke="#00A8FF" mask="url(#ac)" stroke-width="2" stroke-linecap="square" xlink:href="#o"/></g><path fill="#00A8FF" d="M299.26 590.62l2.073.006-3.313-4.938-3.353 4.92 2.088.006v4.17h2.505v-4.163z"/><path d="M303.03 595.838h-10.06v-.445-3.15h-3.065v7.19h16.19v-7.19h-3.065v3.595z" fill="#00A8FF"/></g><g><g transform="translate(285 500)"><use fill="#000" filter="url(#ad)" xlink:href="#p"/><use stroke="#484848" mask="url(#ae)" stroke-width="2" stroke-linecap="square" fill="#FFF" xlink:href="#p"/></g><path fill="#484848" d="M301.333 510.626l-3.313-4.938-3.353 4.92 2.088.006v4.17h2.505v-4.163z"/><path d="M303.03 515.838h-10.06v-.445-3.15h-3.065v7.19h16.19v-7.19h-3.065v3.595z" fill="#484848"/></g><g><path fill="#9A9A9A" d="M391 340v17.077h11.32v-14.212L399.493 340z"/><path stroke="#979797" stroke-dasharray="2" d="M394 337v17.077h11.32v-14.212L402.493 337z"/></g><g><path fill="#00A8FF" d="M407.207 411.69h-10.345v-15.605h7.76l2.585 2.617z"/><path stroke="#00A8FF" d="M407.207 411.69h-10.345v-15.605h7.76l2.585 2.617z"/><path fill="#FFF" d="M391.173 400.223v15.605h10.344V402.84l-2.585-2.617z"/><path stroke="#00A8FF" d="M401.517 415.828h-10.345v-15.605h7.76l2.585 2.617z"/></g><g fill="#00A8FF"><path d="M232.753 394.507l.795 1.273-4.752 2.97 1.204 1.927 13.566-8.477-1.204-1.927-4.753 2.97-.796-1.273-4.06 2.537zm.752.152l3.181-1.988.523.837-3.18 1.988-.524-.837z"/><path d="M232.463 398.758L234.05 413h10.17l1.585-14.242h-13.34zm9.937 1.583h1.328l-1.092 11.563h-1.012l.776-11.563zm-4 .01h1.328l-.141 11.56h-1.012l-.175-11.56zm-4 .092h1.328l.81 11.538h-1.012l-1.126-11.538z"/></g><g fill="#9B9B9B"><path d="M235.604 336.021v1.502H230v2.272h15.997v-2.272h-5.605v-1.502h-4.788zm.558.528h3.75v.987h-3.75v-.987zM231.463 340.758L233.05 355h10.17l1.585-14.242h-13.34zm9.937 1.583h1.328l-1.092 11.563h-1.012l.776-11.563zm-4 .01h1.328l-.141 11.56h-1.012l-.175-11.56zm-4 .092h1.328l.81 11.538h-1.012l-1.126-11.538z"/></g><g><g transform="translate(505 309)"><use fill="#000" filter="url(#af)" xlink:href="#q"/><use stroke="#FFFDFD" mask="url(#ag)" stroke-width="2" stroke-linecap="square" xlink:href="#q"/></g><path fill="#FFF" d="M521.333 319.626l-3.313-4.938-3.353 4.92 2.088.006v4.17h2.505v-4.163z"/><path d="M523.03 324.838h-10.06v-.445-3.15h-3.065v7.19h16.19v-7.19h-3.065v3.595z" fill="#FFF"/></g><path stroke="#FFF" d="M635 393.077l6.751 5.89L656.718 384"/><path stroke="#52CC88" stroke-width="2" d="M638 277.74l3.257 2.64 5.798-6.38"/><g opacity=".4"><path d="M13 604a8 8 0 1 0 0-16 8 8 0 0 0 0 16zm0 1a9 9 0 1 1 0-18 9 9 0 0 1 0 18z" fill="#484848"/><g transform="rotate(-30 1110.423 281.478)" stroke-linecap="square" stroke="#484848" stroke-width="2"><use mask="url(#ah)" xlink:href="#r"/><use mask="url(#ai)" xlink:href="#s"/></g></g><g><path d="M93 604a8 8 0 1 0 0-16 8 8 0 0 0 0 16zm0 1a9 9 0 1 1 0-18 9 9 0 0 1 0 18z" fill="#00A8FF"/><g transform="rotate(-30 1150.423 132.196)" stroke-linecap="square" stroke="#00A8FF" stroke-width="2"><use mask="url(#aj)" xlink:href="#t"/><use mask="url(#ak)" xlink:href="#u"/></g></g><g transform="translate(164 636)" stroke="#484848" stroke-width="2" stroke-linecap="square"><use mask="url(#al)" xlink:href="#v"/><g transform="rotate(-30 13.066 -4.558)"><use mask="url(#am)" xlink:href="#w"/><use mask="url(#an)" xlink:href="#x"/></g></g><g stroke-linecap="square" stroke="#484848" stroke-width="2"><g transform="rotate(-30 1315.734 -495.815)"><use mask="url(#ao)" xlink:href="#y"/><use mask="url(#ap)" xlink:href="#z"/></g></g><g stroke-linecap="square" stroke="#00A8FF" stroke-width="2"><g transform="rotate(-30 1378.234 -729.068)"><use mask="url(#aq)" xlink:href="#A"/><use mask="url(#ar)" xlink:href="#B"/></g></g><g fill="#4A4A4A"><path d="M14 654a8 8 0 1 0 0-16 8 8 0 0 0 0 16zm0 1a9 9 0 1 1 0-18 9 9 0 0 1 0 18z"/><path d="M13.438 640.938h1.125v10.125h-1.125z"/><path d="M8.938 646.563v-1.125h10.124v1.125z"/></g><g fill="#00A8FF"><path d="M14 694a8 8 0 1 0 0-16 8 8 0 0 0 0 16zm0 1a9 9 0 1 1 0-18 9 9 0 0 1 0 18z"/><path d="M13.438 680.938h1.125v10.125h-1.125z"/><path d="M8.938 686.563v-1.125h10.124v1.125z"/></g><g fill="#FFF"><path d="M642 504v-4h-2v4h-4v2h4v4h2v-4h4v-2h-4z"/></g><g opacity=".3" transform="translate(634 643)" stroke="#FFF" stroke-width="4"><use mask="url(#as)" xlink:href="#C"/><use mask="url(#at)" xlink:href="#D"/><use mask="url(#au)" transform="matrix(-1 0 0 1 52.051 0)" xlink:href="#E"/><use mask="url(#av)" xlink:href="#F"/></g><g transform="translate(289 671)"><mask id="ax" fill="#fff"><use xlink:href="#aw"/></mask><path d="M9.801 6.479c-.374.304-1.175.882-2.216.821-.962-.06-1.87-.669-2.75-1.764.8-.395 3.017-1.217 4.966.943m8.893-.943c-.882 1.095-1.816 1.703-2.75 1.764-1.042.061-1.87-.517-2.217-.821 1.922-2.16 4.166-1.338 4.967-.943m5.154-1.034c-.08-.091-.214-.122-.32-.03-.668.456-1.416.912-1.977 1.155.614-1.064 1.522-3.163 1.041-5.384a.344.344 0 0 0-.24-.243.29.29 0 0 0-.267.182c-.027.092-.908 2.251-2.884 1.582-2.403-.79-4.112-1.095-7.317 1.49-.748-.881-3.925-4.075-7.557-1.216-.32.06-2.03.365-2.724-1.825C1.55.09 1.443 0 1.309 0c-.133 0-.213.122-.24.274-.027.152-.374 3.102.881 5.019C1.416 5.08.882 4.745.668 4.35c-.16-.304-.347-.274-.427-.244-.267.092-.24.457-.24.578.08 1.187 1.068 3.59 3.364 4.958l.535.274c.48.243 1.041.426 1.628.517 4.994.943 5.929-2.281 6.036-2.646.026-.061.106-.213.213-.243.08-.03.187 0 .294.09.053.062.187.244.32.427.561.882 1.656 2.585 4.353 2.585.267 0 .534-.03.828-.06 1.682-.214 3.311-1.278 4.727-3.073 1.068-1.369 1.629-2.646 1.655-2.677a.552.552 0 0 0-.106-.334" fill="#9B9B9B" mask="url(#ax)"/></g><g transform="translate(332 671)"><mask id="az" fill="#fff"><use xlink:href="#ay"/></mask><path d="M9.801 6.479c-.374.304-1.175.882-2.216.821-.962-.06-1.87-.669-2.75-1.764.8-.395 3.017-1.217 4.966.943m8.893-.943c-.882 1.095-1.816 1.703-2.75 1.764-1.042.061-1.87-.517-2.217-.821 1.922-2.16 4.166-1.338 4.967-.943m5.154-1.034c-.08-.091-.214-.122-.32-.03-.668.456-1.416.912-1.977 1.155.614-1.064 1.522-3.163 1.041-5.384a.344.344 0 0 0-.24-.243.29.29 0 0 0-.267.182c-.027.092-.908 2.251-2.884 1.582-2.403-.79-4.112-1.095-7.317 1.49-.748-.881-3.925-4.075-7.557-1.216-.32.06-2.03.365-2.724-1.825C1.55.09 1.443 0 1.309 0c-.133 0-.213.122-.24.274-.027.152-.374 3.102.881 5.019C1.416 5.08.882 4.745.668 4.35c-.16-.304-.347-.274-.427-.244-.267.092-.24.457-.24.578.08 1.187 1.068 3.59 3.364 4.958l.535.274c.48.243 1.041.426 1.628.517 4.994.943 5.929-2.281 6.036-2.646.026-.061.106-.213.213-.243.08-.03.187 0 .294.09.053.062.187.244.32.427.561.882 1.656 2.585 4.353 2.585.267 0 .534-.03.828-.06 1.682-.214 3.311-1.278 4.727-3.073 1.068-1.369 1.629-2.646 1.655-2.677a.552.552 0 0 0-.106-.334" fill="#00A8FF" mask="url(#az)"/></g><g transform="translate(393 666)"><circle fill="#979797" cx="9" cy="9" r="9"/><path fill="#FFF" d="M4.329 12.272l7.914-7.914 1.428 1.427L5.757 13.7z"/><path fill="#FFF" d="M5.757 4.358l7.914 7.914-1.428 1.427L4.33 5.785z"/></g><g transform="translate(450 666)"><circle fill="#00A8FF" cx="9" cy="9" r="9"/><path fill="#FFF" d="M7.231 11.154L4.564 8.49 4.3 8.226l-.265.265-.889.887-.265.266.265.265 3.556 3.55.265.265.265-.265 7.62-7.607.265-.266-.266-.265-.889-.888-.265-.264-.264.264-6.731 6.72z"/></g><g transform="translate(502 668)"><rect fill="#00A8FF" width="26.858" height="15.02" rx="7.51"/><ellipse fill="#FFF" cx="18.785" cy="7.5" rx="4.785" ry="4.5"/></g><g transform="translate(551 668)"><rect fill="#979797" width="26.858" height="15.02" rx="7.51"/><ellipse fill="#FFF" cx="7.785" cy="7.5" rx="4.785" ry="4.5"/></g><g stroke="#FFF"><g transform="translate(70 448)"><g fill="#FFF"><path d="M12.665 21.97l4.783-5.501c.107-.123-.083-.464-.423-.76l-.276-.24c-.34-.296-.703-.436-.81-.312l-4.782 5.501c-.108.123-.243.837.098 1.133l.275.24c.34.295 1.029.062 1.135-.061z"/><path d="M15.478 16.331c0 .226.468.41.89.41h.344c.423 0 .766-.183.766-.41V6.253c0-.225-.343-1.093-.767-1.093h-.343c-.422 0-.766.868-.765 1.093l-.125 10.078z"/></g><circle stroke-width="2" cx="16" cy="16" r="16"/></g></g><path fill="#FFF" d="M646 592.827v1.146h8.722l-3.058 3.025.807.802 4.529-4.4-4.529-4.4-.807.802 3.046 3.025z"/><path fill="#4A4A4A" d="M667.136 171.83l-3.102-3.103-1.034 1.034 4.136 4.137 8.864-8.864-1.034-1.034z"/><g transform="translate(224 202)"><circle fill="#777" cx="7" cy="7" r="7"/><path d="M6.171 8.287v-.392c0-.339.06-.634.178-.884.119-.251.336-.518.651-.8.304-.265.504-.48.6-.647.098-.166.146-.351.146-.556 0-.23-.07-.404-.208-.525-.139-.12-.333-.18-.581-.18-.434 0-.929.173-1.484.52L5 3.663C5.645 3.22 6.329 3 7.052 3c.596 0 1.07.175 1.42.525.352.35.528.815.528 1.398 0 .389-.072.724-.217 1.007-.145.282-.42.6-.824.953-.278.251-.454.442-.527.573-.074.13-.111.302-.111.514v.317h-1.15zM6.033 10.1c0-.296.065-.52.195-.673.13-.151.32-.227.568-.227.24 0 .426.077.558.233.131.155.197.378.197.667 0 .28-.067.5-.2.66-.133.16-.318.241-.555.241-.243 0-.43-.079-.564-.236-.133-.157-.2-.379-.2-.665z" fill="#FFF"/></g><g fill="#777"><path d="M168.5 209a7.5 7.5 0 1 0-15 0 7.5 7.5 0 0 0 15 0zm-14 0a6.5 6.5 0 1 1 13 0 6.5 6.5 0 0 1-13 0z"/><path d="M160.171 210.287v-.392c0-.339.06-.634.178-.884.119-.251.336-.518.651-.8.304-.265.504-.48.6-.647.098-.166.146-.351.146-.556 0-.23-.07-.404-.208-.525-.139-.12-.333-.18-.581-.18-.434 0-.929.173-1.484.52l-.473-1.16c.645-.442 1.329-.663 2.052-.663.596 0 1.07.175 1.42.525.352.35.528.815.528 1.398 0 .389-.072.724-.217 1.007-.145.282-.42.6-.824.953-.278.251-.454.442-.527.573-.074.13-.111.302-.111.514v.317h-1.15zm-.138 1.812c0-.296.065-.52.195-.673.13-.151.32-.227.568-.227.24 0 .426.077.558.233.131.155.197.378.197.667 0 .28-.067.5-.2.66-.133.16-.318.241-.555.241-.243 0-.43-.079-.564-.236-.133-.157-.2-.379-.2-.665z"/></g><g fill="#484848"><path d="M663 485h16v1h-16zM670.5 470h1v11h-1zM671.033 482.51l4.662-4.662.707.707-5.39 5.39zM670.995 482.538l-4.69-4.69-.707.707 5.411 5.411z"/></g></g></svg>