<svg width="13" height="13" viewBox="0 0 13 13" xmlns="http://www.w3.org/2000/svg"><title>Combined Shape</title><path d="M8.597 10.228A4.585 4.585 0 0 1 1.761 6.25v-.4l-.97-.971A5.636 5.636 0 0 0 .618 6.25c0 3.143 2.571 5.714 5.714 5.714 1.141 0 2.195-.348 3.079-.921l1.207 1.207.286-3.714-3.715.285 1.407 1.407zM4.07 2.272a4.638 4.638 0 0 1 2.263-.593 4.585 4.585 0 0 1 4.572 4.571v.4l.971.971c.114-.457.172-.914.172-1.371 0-3.143-2.572-5.714-5.715-5.714a5.633 5.633 0 0 0-3.094.906L2.048.25l-.286 3.714 3.714-.285L4.07 2.272z" fill="#00A8FF" fill-rule="evenodd"/></svg>