<svg width="28" height="82" viewBox="0 0 28 82" xmlns="http://www.w3.org/2000/svg"><title>Group 2</title><g fill="none" fill-rule="evenodd"><path d="M9.042 2.995H26.2c.812 0 1.47-.67 1.47-1.498C27.67.67 27.013 0 26.2 0H9.042c-.812 0-1.47.67-1.47 1.497 0 .827.658 1.498 1.47 1.498zM1.69 12.478H26.2c.812 0 1.47-.67 1.47-1.498 0-.827-.658-1.497-1.47-1.497H1.69c-.812 0-1.47.67-1.47 1.497 0 .827.658 1.498 1.47 1.498zm7.352 9.483H26.2c.812 0 1.47-.67 1.47-1.498 0-.826-.658-1.497-1.47-1.497H9.042c-.812 0-1.47.67-1.47 1.497 0 .827.658 1.498 1.47 1.498z" fill="#484848"/><path d="M9.042 62.995H26.2c.812 0 1.47-.67 1.47-1.498 0-.827-.658-1.497-1.47-1.497H9.042c-.812 0-1.47.67-1.47 1.497 0 .827.658 1.498 1.47 1.498zM1.69 72.478H26.2c.812 0 1.47-.67 1.47-1.498 0-.827-.658-1.497-1.47-1.497H1.69c-.812 0-1.47.67-1.47 1.497 0 .827.658 1.498 1.47 1.498zm7.352 9.483H26.2c.812 0 1.47-.67 1.47-1.498 0-.826-.658-1.497-1.47-1.497H9.042c-.812 0-1.47.67-1.47 1.497 0 .827.658 1.498 1.47 1.498z" fill="#00A8FF"/></g></svg>