<svg width="81" height="66" viewBox="0 0 81 66" xmlns="http://www.w3.org/2000/svg"><title>Group</title><g fill="none" fill-rule="evenodd"><path d="M35.068 3.615c2.915-4.688 7.646-4.682 10.557 0l33.474 53.837c2.915 4.689.805 8.49-4.717 8.49H6.311c-5.52 0-7.628-3.808-4.717-8.49L35.068 3.615z" fill="#FF645B"/><path d="M42.432 44.947h-4.168L37.018 20.5h6.636l-1.222 24.447zm-5.702 7.66c0-1.185.312-2.085.935-2.701.623-.617 1.509-.925 2.66-.925 1.133 0 2.004.32 2.61.96.608.641.911 1.53.911 2.666 0 1.137-.307 2.037-.922 2.702-.615.664-1.482.996-2.6.996-1.134 0-2.016-.32-2.647-.96-.631-.64-.947-1.553-.947-2.738z" fill="#FFF"/></g></svg>