<svg width="141" height="38" viewBox="0 0 141 38" xmlns="http://www.w3.org/2000/svg"><title>ic_logo-aidastream</title><g fill="none" fill-rule="evenodd"><path d="M22.413 27.507c.269-3.5-2.43-7.15-5.734-7.83 0 0 1.86-.7 3.98-.25 2.106.448 4.647 1.825 5.89 5.654 0 0 1.518 5.213-3.048 8.494-4.15 2.983-8.344.505-8.344.505 3.674.197 6.965-2.796 7.256-6.573M2.407 31.816c.723-.586 1.478-.969 2.157-1.088 4.107-.721 5.424 1.287 6.69 2.667 2.543 2.775 4.85 3.393 7.418 3.394 5.143.002 9.424-4.523 9.141-9.633-.264-4.787-3.882-8.458-8.795-8.91-.124-.012-.229-.008-.352-.013-1.525-.066-2.514.257-3.827.68-.378.121-.62.261-.798.307-.215.055-.334-.002-.41-.06-.068-.053-.283-.378-.037-.623.636-.63.859-.688 1.624-1.275.278-.214.532-.391.602-.653a.586.586 0 0 0-.182-.606c-.267-.25-.65-.13-1.162.128a7.711 7.711 0 0 0-.842.477c-1.75 1.168-3.383 2.936-4.244 5.023-.05.12.507-1.864.58-2.094.33-1.039 1.75-3.91 4.03-5.634 2.082-1.784 5.453-3.236 9.059-2.998 7.678.506 12.656 6.62 12.526 13.647-.035 1.86-1.036 7.314-5.708 10.346l7.024-3.17c1.217-.549 2.213-2.087 2.213-3.419V10.66c0-1.331-.996-2.87-2.213-3.42L21.77.413c-1.218-.55-3.21-.55-4.427 0L2.214 7.24C.996 7.789 0 9.328 0 10.659v17.65c0 1.332.996 2.87 2.214 3.42" fill="#1AAB3C"/><path d="M47.02 26.158l3.158-9.14-1.235-.117v-1.589h4.491l4.001 11.317h.02l1.118.059v1.667h-5.06v-1.589l.745-.059c.222-.026.372-.078.45-.157.08-.078.086-.222.02-.431l-.411-1.216h-4.59l-.588 1.726 1.177.059v1.667h-4.531v-1.589l.647-.059c.275-.026.471-.209.589-.549zm5.002-8.65l-1.824 5.59h3.648l-1.765-5.59h-.06zm10.846.982v8.237l1.118.059v1.569h-4.668v-1.49l.647-.06c.38-.039.569-.248.569-.627v-5.453c0-.222-.036-.372-.108-.45-.072-.08-.2-.118-.382-.118l-.687-.04V18.49h3.51zm-2.883-2.727c0-.418.137-.768.412-1.049.274-.281.634-.422 1.078-.422.445 0 .808.14 1.089.422.281.281.422.63.422 1.05 0 .418-.141.761-.422 1.029-.281.268-.644.402-1.089.402-.444 0-.804-.134-1.078-.402-.275-.268-.412-.611-.412-1.03zm10.061 2.432c.562 0 1.099.079 1.608.236V16.45c0-.288-.17-.445-.51-.47l-.843-.06v-1.55h3.648v11.925c.013.301.177.452.49.452l.687.039v1.569h-3.177v-1.157l-.06-.02c-.588.955-1.477 1.432-2.667 1.432-1.49 0-2.536-.497-3.138-1.49-.549-.903-.823-2.008-.823-3.315 0-1.7.421-3.06 1.265-4.08.843-1.02 2.017-1.53 3.52-1.53zm1.608 7.1v-5.08a3.63 3.63 0 0 0-1.49-.313c-.863 0-1.494.346-1.893 1.04-.399.692-.598 1.575-.598 2.647 0 2.197.706 3.295 2.118 3.295.536 0 .98-.154 1.334-.461.353-.307.53-.683.53-1.128z" fill="#000"/><path d="M81.283 26.59c1.57 0 2.354-.628 2.354-1.883 0-.654-.347-1.138-1.04-1.452-.366-.183-.84-.353-1.422-.51a11.402 11.402 0 0 1-1.451-.48 5.834 5.834 0 0 1-1.167-.677c-.771-.575-1.157-1.46-1.157-2.657s.415-2.138 1.245-2.824c.83-.687 1.916-1.03 3.256-1.03 1.34 0 2.586.268 3.736.804v2.942l-2 .137v-1.137c0-.196-.026-.34-.079-.432-.144-.248-.604-.372-1.382-.372-.778 0-1.354.137-1.726.411-.373.275-.56.7-.56 1.275 0 .419.158.785.471 1.099.21.209.52.382.932.52.412.137.85.277 1.314.421.464.144.876.3 1.236.47.36.17.735.406 1.127.707.798.588 1.197 1.497 1.197 2.726 0 1.23-.441 2.197-1.324 2.903s-2.046 1.059-3.491 1.059c-1.445 0-2.743-.268-3.893-.804v-3.1l2-.136v1.196c0 .196.026.34.079.431.052.092.212.18.48.265.268.085.69.128 1.265.128zm8.14-10.18h1.274v2.08h2.609l-.196 1.647h-2.413v5.158c0 .576.105.978.314 1.206.21.23.533.344.971.344.438 0 .88-.138 1.324-.412l.588 1.51c-.653.458-1.484.686-2.49.686-.589 0-1.086-.075-1.491-.225-.405-.15-.706-.317-.902-.5-.196-.183-.347-.451-.451-.804-.105-.353-.164-.631-.177-.834-.013-.203-.02-.5-.02-.892v-5.237h-1.392l.196-1.432c.615-.052 1.079-.271 1.393-.657.313-.385.601-.931.863-1.637zm6.433 9.748v-5.433c0-.209-.036-.356-.108-.44-.072-.086-.2-.135-.383-.148l-.823-.059V18.49h3.314v1.47c.235-.51.602-.931 1.098-1.265.497-.333 1.07-.5 1.717-.5s1.265.144 1.853.432v2.922l-1.824.137v-.902c0-.261-.065-.425-.196-.49a1.277 1.277 0 0 0-.53-.098c-.523 0-.95.186-1.284.559-.334.372-.5.846-.5 1.422v4.55l1.706.078v1.55H94.64v-1.49l.647-.06c.196-.026.34-.081.431-.166.092-.085.138-.245.138-.48zm12.768-7.963c.98 0 1.758.239 2.334.716.575.477.863 1.148.863 2.01 0 .576-.125 1.083-.373 1.52a3.01 3.01 0 0 1-.922 1.03 4.84 4.84 0 0 1-1.334.608c-.876.262-1.863.392-2.961.392.04.693.255 1.252.647 1.677.392.425.994.638 1.804.638.811 0 1.622-.288 2.432-.863l.746 1.588c-.262.236-.703.478-1.324.726-.621.249-1.33.373-2.128.373-1.595 0-2.766-.441-3.51-1.324-.746-.883-1.119-2.095-1.119-3.638 0-1.543.425-2.838 1.275-3.884.85-1.046 2.04-1.569 3.57-1.569zm.431 3.913c.405-.294.608-.644.608-1.05 0-.797-.392-1.196-1.177-1.196-.732 0-1.294.291-1.686.873-.393.582-.608 1.278-.648 2.089a10.381 10.381 0 0 0 1.58-.147 3.178 3.178 0 0 0 1.323-.569zM122 18.882v7.296c0 .209.036.353.107.431.072.079.2.125.383.138l.628.039v1.569h-3.119v-1.138l-.059-.02c-.654.942-1.55 1.413-2.687 1.413-1.333 0-2.32-.425-2.961-1.275-.64-.85-.961-2.014-.961-3.491 0-1.778.431-3.164 1.294-4.158.863-.994 2.158-1.49 3.884-1.49 1.11 0 2.275.228 3.49.686zm-2.275 6.354v-5.08c-.367-.17-.87-.254-1.51-.254-.877 0-1.51.353-1.903 1.059-.392.706-.589 1.64-.589 2.804 0 2.119.68 3.178 2.04 3.178.576 0 1.046-.174 1.412-.52.366-.347.55-.742.55-1.187zm4.471-5.158V18.49h3.315v1.274c.732-1.046 1.736-1.569 3.01-1.569 1.275 0 2.135.523 2.58 1.57.732-1.047 1.725-1.57 2.98-1.57.942 0 1.668.285 2.178.854.51.568.765 1.421.765 2.559v5.119l1.118.059v1.569h-4.668v-1.49l.647-.06c.196-.026.337-.081.422-.166.085-.085.134-.239.147-.461v-4.06c0-.72-.082-1.252-.245-1.599-.164-.346-.546-.52-1.148-.52-.601 0-1.062.184-1.383.55-.32.366-.48.856-.48 1.47v4.708l1.079.059v1.569h-4.629v-1.49l.647-.06c.196-.026.34-.081.432-.166.091-.085.137-.245.137-.48v-4.041c0-.72-.082-1.252-.245-1.599-.164-.346-.55-.52-1.157-.52-.608 0-1.07.19-1.383.57-.314.379-.47.85-.47 1.412v4.746l1.058.059v1.569h-4.628v-1.49l.647-.06c.196-.026.34-.081.431-.166.092-.085.138-.245.138-.48h.02v-5.414c0-.222-.037-.376-.109-.46-.071-.086-.199-.135-.382-.148l-.824-.059z" fill="#1AAB3C"/><path d="M99.85 35.88v-4.54h-.78c-.153 0-.23.103-.23.31v.47l-1.02-.07v-1.7h5.23v1.7l-1.02.07v-.47c0-.113-.017-.193-.05-.24-.033-.047-.113-.07-.24-.07h-.68v4.78l.79.03V37h-2.82v-.81l.53-.03c.193-.02.29-.113.29-.28zm8.17-3.71v3.72c0 .107.018.18.055.22.037.04.102.063.195.07l.32.02v.8H107v-.58l-.03-.01c-.333.48-.79.72-1.37.72-.68 0-1.183-.217-1.51-.65-.327-.433-.49-1.027-.49-1.78 0-.907.22-1.613.66-2.12.44-.507 1.1-.76 1.98-.76.567 0 1.16.117 1.78.35zm-1.16 3.24v-2.59c-.187-.087-.443-.13-.77-.13-.447 0-.77.18-.97.54-.2.36-.3.837-.3 1.43 0 1.08.347 1.62 1.04 1.62.293 0 .533-.088.72-.265.187-.177.28-.378.28-.605zm2.28-2.64v-.8h1.69v.65c.173-.247.403-.442.69-.585a2.05 2.05 0 0 1 .93-.215c.507 0 .898.145 1.175.435.277.29.415.725.415 1.305v2.61l.57.03v.8h-2.38v-.76l.33-.03a.396.396 0 0 0 .22-.085c.047-.043.07-.125.07-.245v-2.06c0-.367-.057-.638-.17-.815-.113-.177-.328-.265-.645-.265s-.568.1-.755.3c-.187.2-.28.437-.28.71v2.42l.57.03v.8h-2.38v-.76l.33-.03a.396.396 0 0 0 .22-.085c.047-.043.07-.125.07-.245v-2.77c0-.2-.083-.303-.25-.31l-.42-.03zM119.35 37h-4.08v-.76l2.57-3.38h-1.26c-.14 0-.228.027-.265.08-.037.053-.055.14-.055.26v.35l-.94-.07v-1.51h3.98v.68l-2.6 3.45h1.42c.193 0 .29-.113.29-.34v-.42l.94.07V37zm5.17-4.83v3.72c0 .107.018.18.055.22.037.04.102.063.195.07l.32.02v.8h-1.59v-.58l-.03-.01c-.333.48-.79.72-1.37.72-.68 0-1.183-.217-1.51-.65-.327-.433-.49-1.027-.49-1.78 0-.907.22-1.613.66-2.12.44-.507 1.1-.76 1.98-.76.567 0 1.16.117 1.78.35zm-1.16 3.24v-2.59c-.187-.087-.443-.13-.77-.13-.447 0-.77.18-.97.54-.2.36-.3.837-.3 1.43 0 1.08.347 1.62 1.04 1.62.293 0 .533-.088.72-.265.187-.177.28-.378.28-.605zm2.28-2.64v-.8h1.69v.65c.173-.247.403-.442.69-.585a2.05 2.05 0 0 1 .93-.215c.507 0 .898.145 1.175.435.277.29.415.725.415 1.305v2.61l.57.03v.8h-2.38v-.76l.33-.03a.396.396 0 0 0 .22-.085c.047-.043.07-.125.07-.245v-2.06c0-.367-.057-.638-.17-.815-.113-.177-.328-.265-.645-.265s-.568.1-.755.3c-.187.2-.28.437-.28.71v2.42l.57.03v.8h-2.38v-.76l.33-.03a.396.396 0 0 0 .22-.085c.047-.043.07-.125.07-.245v-2.77c0-.2-.083-.303-.25-.31l-.42-.03zm7.87-.8v4.2l.57.03v.8h-2.38v-.76l.33-.03c.193-.02.29-.127.29-.32v-2.78c0-.113-.018-.19-.055-.23-.037-.04-.102-.06-.195-.06l-.35-.02v-.83h1.79zm-1.47-1.39c0-.213.07-.392.21-.535a.734.734 0 0 1 .55-.215c.227 0 .412.072.555.215a.726.726 0 0 1 .215.535.694.694 0 0 1-.215.525.771.771 0 0 1-.555.205.754.754 0 0 1-.55-.205.702.702 0 0 1-.21-.525zm7.11 1.59v3.72c0 .107.018.18.055.22.037.04.102.063.195.07l.32.02v.8h-1.59v-.58l-.03-.01c-.333.48-.79.72-1.37.72-.68 0-1.183-.217-1.51-.65-.327-.433-.49-1.027-.49-1.78 0-.907.22-1.613.66-2.12.44-.507 1.1-.76 1.98-.76.567 0 1.16.117 1.78.35zm-1.16 3.24v-2.59c-.187-.087-.443-.13-.77-.13-.447 0-.77.18-.97.54-.2.36-.3.837-.3 1.43 0 1.08.347 1.62 1.04 1.62.293 0 .533-.088.72-.265.187-.177.28-.378.28-.605z" fill="#000" opacity=".7"/></g></svg>