<svg width="16" height="14" viewBox="0 0 16 14" xmlns="http://www.w3.org/2000/svg"><title>email 2 copy 2</title><path d="M14.4 4.062c-.123 5.661-3.692 9.6-9.108 9.846-2.215.123-3.815-.616-5.292-1.477 1.6.246 3.692-.37 4.8-1.354-1.6-.123-2.585-.985-3.077-2.339.492.124.985 0 1.354 0C1.6 8.246.615 7.385.492 5.415c.37.247.862.37 1.354.37C.738 5.169 0 2.83.862 1.354c1.6 1.723 3.569 3.2 6.769 3.446-.862-3.446 3.815-5.292 5.661-2.954.862-.123 1.477-.492 2.093-.738-.247.861-.739 1.354-1.354 1.846.615-.123 1.23-.246 1.723-.492-.123.615-.739 1.107-1.354 1.6z" fill="#00A8FF" fill-rule="evenodd"/></svg>