<svg width="32" height="31" viewBox="0 0 32 31" xmlns="http://www.w3.org/2000/svg"><title>Fill 1</title><path d="M18.338 22.506c.22-2.863-1.989-5.85-4.692-6.407 0 0 1.522-.573 3.257-.204 1.723.366 3.802 1.493 4.82 4.626 0 0 1.241 4.265-2.494 6.95-3.397 2.44-6.828.413-6.828.413 3.006.161 5.7-2.288 5.937-5.378M1.969 26.031c.592-.48 1.21-.792 1.765-.89 3.36-.59 4.438 1.053 5.473 2.182 2.081 2.27 3.97 2.776 6.07 2.777 4.208.002 7.71-3.7 7.48-7.881-.217-3.917-3.177-6.92-7.196-7.29-.102-.01-.188-.007-.289-.011-1.247-.054-2.056.21-3.131.556-.31.1-.507.214-.653.252-.176.045-.273-.002-.335-.05-.056-.043-.232-.309-.03-.509.52-.515.702-.563 1.328-1.044.228-.174.436-.32.493-.534a.48.48 0 0 0-.15-.495c-.218-.205-.531-.107-.95.104a6.31 6.31 0 0 0-.689.39c-1.432.956-2.768 2.402-3.472 4.11-.04.098.415-1.525.474-1.713.27-.85 1.431-3.199 3.298-4.61 1.703-1.46 4.461-2.647 7.412-2.453 6.281.414 10.355 5.417 10.248 11.166-.029 1.522-.848 5.984-4.67 8.465l5.747-2.593c.996-.45 1.81-1.708 1.81-2.798V8.721c0-1.09-.814-2.348-1.81-2.798L17.812.337c-.996-.45-2.626-.45-3.622 0L1.811 5.923C.815 6.373 0 7.632 0 8.721v14.441c0 1.09.815 2.348 1.811 2.798" fill="#1AAB3C" fill-rule="evenodd"/></svg>