<svg width="115" height="31" viewBox="0 0 115 31" xmlns="http://www.w3.org/2000/svg" xmlns:xlink="http://www.w3.org/1999/xlink"><title>Logo</title><defs><path id="a" d="M0 0h106.954v30.013H0"/></defs><g fill="none" fill-rule="evenodd"><mask id="b" fill="#fff"><use xlink:href="#a"/></mask><path d="M18.151 22.44c.218-2.855-1.968-5.833-4.644-6.388 0 0 1.507-.571 3.224-.204 1.705.366 3.763 1.489 4.77 4.613 0 0 1.23 4.252-2.468 6.93-3.362 2.433-6.758.411-6.758.411 2.975.16 5.641-2.281 5.876-5.362M1.95 25.955c.586-.478 1.197-.79 1.747-.888 3.326-.588 4.393 1.05 5.418 2.176 2.06 2.264 3.928 2.768 6.008 2.769 4.164.002 7.632-3.69 7.403-7.858-.214-3.905-3.145-6.9-7.123-7.27-.1-.009-.185-.005-.285-.01-1.235-.054-2.036.21-3.1.555-.306.099-.501.213-.646.25-.174.045-.27-.001-.331-.048-.056-.043-.23-.309-.03-.508.515-.514.695-.562 1.314-1.04.226-.175.431-.32.488-.533a.48.48 0 0 0-.148-.495c-.216-.204-.526-.106-.94.105a6.233 6.233 0 0 0-.682.389c-1.418.952-2.74 2.395-3.437 4.098-.04.097.41-1.522.47-1.709.266-.847 1.416-3.189 3.264-4.596 1.685-1.455 4.416-2.64 7.336-2.446 6.218.413 10.25 5.4 10.143 11.133-.028 1.517-.838 5.967-4.621 8.44l5.687-2.585c.986-.448 1.793-1.703 1.793-2.79V8.696c0-1.086-.807-2.34-1.793-2.789L17.631.336c-.986-.448-2.6-.448-3.585 0L1.793 5.906C.807 6.354 0 7.609 0 8.696v14.399c0 1.086.807 2.34 1.793 2.789" fill="#00A8FF" mask="url(#b)"/><path d="M38.088 21.208l2.576-7.456-1.008-.096V12.36h3.664l3.264 9.232h.016l.912.048V23h-4.128v-1.296l.608-.048c.181-.021.304-.064.368-.128s.07-.181.016-.352l-.336-.992h-3.744l-.48 1.408.96.048V23H37.08v-1.296l.528-.048c.224-.021.384-.17.48-.448zm4.08-7.056l-1.488 4.56h2.976l-1.44-4.56h-.048zm8.848.8v6.72l.912.048V23H48.12v-1.216l.528-.048c.31-.032.464-.203.464-.512v-4.448c0-.181-.03-.304-.088-.368-.059-.064-.163-.096-.312-.096l-.56-.032v-1.328h2.864zm-2.352-2.224c0-.341.112-.627.336-.856.224-.23.517-.344.88-.344s.659.115.888.344c.23.23.344.515.344.856 0 .341-.115.621-.344.84-.23.219-.525.328-.888.328s-.656-.11-.88-.328c-.224-.219-.336-.499-.336-.84zm8.208 1.984c.459 0 .896.064 1.312.192v-1.616c0-.235-.139-.363-.416-.384l-.688-.048v-1.264h2.976v9.728c.01.245.144.368.4.368l.56.032V23h-2.592v-.944l-.048-.016c-.48.779-1.205 1.168-2.176 1.168-1.216 0-2.07-.405-2.56-1.216-.448-.736-.672-1.637-.672-2.704 0-1.387.344-2.496 1.032-3.328.688-.832 1.645-1.248 2.872-1.248zm1.312 5.792V16.36a2.96 2.96 0 0 0-1.216-.256c-.704 0-1.219.283-1.544.848-.325.565-.488 1.285-.488 2.16 0 1.792.576 2.688 1.728 2.688.437 0 .8-.125 1.088-.376.288-.25.432-.557.432-.92z" fill="#030404"/><path d="M65.856 21.56c1.28 0 1.92-.512 1.92-1.536 0-.533-.283-.928-.848-1.184a6.324 6.324 0 0 0-1.16-.416 9.302 9.302 0 0 1-1.184-.392 4.759 4.759 0 0 1-.952-.552c-.63-.47-.944-1.192-.944-2.168 0-.976.339-1.744 1.016-2.304.677-.56 1.563-.84 2.656-.84 1.093 0 2.11.219 3.048.656v2.4l-1.632.112v-.928c0-.16-.021-.277-.064-.352-.117-.203-.493-.304-1.128-.304-.635 0-1.104.112-1.408.336-.304.224-.456.57-.456 1.04 0 .341.128.64.384.896.17.17.424.312.76.424.336.112.693.227 1.072.344.379.117.715.245 1.008.384.293.139.6.33.92.576.65.48.976 1.221.976 2.224 0 1.003-.36 1.792-1.08 2.368-.72.576-1.67.864-2.848.864-1.179 0-2.237-.219-3.176-.656v-2.528l1.632-.112v.976c0 .16.021.277.064.352.043.075.173.147.392.216.219.07.563.104 1.032.104zm6.64-8.304h1.04v1.696h2.128l-.16 1.344h-1.968v4.208c0 .47.085.797.256.984.17.187.435.28.792.28.357 0 .717-.112 1.08-.336l.48 1.232c-.533.373-1.21.56-2.032.56-.48 0-.885-.061-1.216-.184-.33-.123-.576-.259-.736-.408-.16-.15-.283-.368-.368-.656a3.318 3.318 0 0 1-.144-.68c-.01-.165-.016-.408-.016-.728v-4.272h-1.136l.16-1.168c.501-.043.88-.221 1.136-.536.256-.315.49-.76.704-1.336zm5.248 7.952v-4.432c0-.17-.03-.29-.088-.36-.059-.07-.163-.11-.312-.12l-.672-.048v-1.296h2.704v1.2c.192-.416.49-.76.896-1.032a2.453 2.453 0 0 1 1.4-.408 3.4 3.4 0 0 1 1.512.352v2.384l-1.488.112v-.736c0-.213-.053-.347-.16-.4a1.041 1.041 0 0 0-.432-.08c-.427 0-.776.152-1.048.456-.272.304-.408.69-.408 1.16v3.712l1.392.064V23h-4.288v-1.216l.528-.048c.16-.021.277-.067.352-.136.075-.07.112-.2.112-.392zm10.416-6.496c.8 0 1.435.195 1.904.584.47.39.704.936.704 1.64 0 .47-.101.883-.304 1.24a2.455 2.455 0 0 1-.752.84 3.95 3.95 0 0 1-1.088.496c-.715.213-1.52.32-2.416.32.032.565.208 1.021.528 1.368.32.347.81.52 1.472.52.661 0 1.323-.235 1.984-.704l.608 1.296c-.213.192-.573.39-1.08.592-.507.203-1.085.304-1.736.304-1.301 0-2.256-.36-2.864-1.08-.608-.72-.912-1.71-.912-2.968 0-1.259.347-2.315 1.04-3.168.693-.853 1.664-1.28 2.912-1.28zm.352 3.192c.33-.24.496-.525.496-.856 0-.65-.32-.976-.96-.976-.597 0-1.056.237-1.376.712-.32.475-.496 1.043-.528 1.704.47-.01.899-.05 1.288-.12.39-.07.75-.224 1.08-.464zm10.56-2.632v5.952c0 .17.03.288.088.352.059.064.163.101.312.112l.512.032V23H97.44v-.928l-.048-.016c-.533.768-1.264 1.152-2.192 1.152-1.088 0-1.893-.347-2.416-1.04-.523-.693-.784-1.643-.784-2.848 0-1.45.352-2.581 1.056-3.392.704-.81 1.76-1.216 3.168-1.216.907 0 1.856.187 2.848.56zm-1.856 5.184v-4.144c-.299-.139-.71-.208-1.232-.208-.715 0-1.232.288-1.552.864-.32.576-.48 1.339-.48 2.288 0 1.728.555 2.592 1.664 2.592.47 0 .853-.141 1.152-.424.299-.283.448-.605.448-.968zm3.648-4.208v-1.296h2.704v1.04c.597-.853 1.416-1.28 2.456-1.28s1.741.427 2.104 1.28c.597-.853 1.408-1.28 2.432-1.28.768 0 1.36.232 1.776.696.416.464.624 1.16.624 2.088v4.176l.912.048V23h-3.808v-1.216l.528-.048c.16-.021.275-.067.344-.136.07-.07.11-.195.12-.376v-3.312c0-.587-.067-1.021-.2-1.304-.133-.283-.445-.424-.936-.424-.49 0-.867.15-1.128.448-.261.299-.392.699-.392 1.2v3.84l.88.048V23h-3.776v-1.216l.528-.048c.16-.021.277-.067.352-.136.075-.07.112-.2.112-.392v-3.296c0-.587-.067-1.021-.2-1.304-.133-.283-.448-.424-.944-.424-.496 0-.872.155-1.128.464-.256.31-.384.693-.384 1.152v3.872l.864.048V23h-3.776v-1.216l.528-.048c.16-.021.277-.067.352-.136.075-.07.112-.2.112-.392h.016v-4.416c0-.181-.03-.307-.088-.376-.059-.07-.163-.11-.312-.12l-.672-.048z" fill="#00A8FF"/></g></svg>