<svg width="131" height="123" viewBox="0 0 131 123" xmlns="http://www.w3.org/2000/svg"><title>Fill 1</title><path d="M74.556 91.969c.895-11.702-8.084-23.91-19.074-26.18 0 0 6.188-2.343 13.241-.836 7.004 1.496 15.457 6.1 19.595 18.902 0 0 5.049 17.43-10.14 28.4-13.81 9.975-27.757 1.69-27.757 1.69 12.219.658 23.17-9.35 24.135-21.976m-66.55 14.405c2.408-1.96 4.918-3.24 7.176-3.638 13.663-2.411 18.044 4.302 22.252 8.917 8.46 9.279 16.137 11.343 24.68 11.347 17.105.007 31.347-15.122 30.408-32.205-.88-16.006-12.917-28.279-29.257-29.793-.414-.038-.762-.024-1.173-.042-5.071-.222-8.361.86-12.731 2.273-1.258.406-2.059.875-2.653 1.028-.717.184-1.11-.008-1.361-.201-.23-.176-.946-1.264-.125-2.082 2.115-2.104 2.856-2.3 5.4-4.264.926-.715 1.771-1.308 2.004-2.183.152-.568.122-1.337-.607-2.025-.887-.836-2.163-.437-3.865.428-.836.425-1.773.907-2.8 1.595-5.822 3.903-11.255 9.814-14.118 16.794-.164.4 1.688-6.235 1.93-7.001 1.095-3.474 5.818-13.072 13.407-18.837 6.922-5.965 18.139-10.82 30.133-10.026 25.54 1.693 42.102 22.134 41.666 45.63-.115 6.217-3.445 24.452-18.984 34.59l23.362-10.597c4.05-1.837 7.364-6.981 7.364-11.432V35.637c0-4.45-3.314-9.595-7.364-11.432L72.42 1.378c-4.05-1.837-10.677-1.837-14.727 0L7.363 24.205C3.314 26.042 0 31.186 0 35.637V94.65c0 4.45 3.314 9.595 7.364 11.432" fill="#00A8FF" fill-rule="evenodd"/></svg>