<svg width="114" height="30" viewBox="0 0 114 30" xmlns="http://www.w3.org/2000/svg" xmlns:xlink="http://www.w3.org/1999/xlink"><title>Group 3 + AidS + tream</title><defs><path id="a" d="M0 0h106.954v30.013H0"/></defs><g fill="none" fill-rule="evenodd"><g><mask id="b" fill="#fff"><use xlink:href="#a"/></mask><path d="M18.151 22.44c.218-2.855-1.968-5.833-4.644-6.388 0 0 1.507-.571 3.224-.204 1.705.366 3.763 1.489 4.77 4.613 0 0 1.23 4.252-2.468 6.93-3.362 2.433-6.758.411-6.758.411 2.975.16 5.641-2.281 5.876-5.362M1.95 25.955c.586-.478 1.197-.79 1.747-.888 3.326-.588 4.393 1.05 5.418 2.176 2.06 2.264 3.928 2.768 6.008 2.769 4.164.002 7.632-3.69 7.403-7.858-.214-3.905-3.145-6.9-7.123-7.27-.1-.009-.185-.005-.285-.01-1.235-.054-2.036.21-3.1.555-.306.099-.501.213-.646.25-.174.045-.27-.001-.331-.048-.056-.043-.23-.309-.03-.508.515-.514.695-.562 1.314-1.04.226-.175.431-.32.488-.533a.48.48 0 0 0-.148-.495c-.216-.204-.526-.106-.94.105a6.233 6.233 0 0 0-.682.389c-1.418.952-2.74 2.395-3.437 4.098-.04.097.41-1.522.47-1.709.266-.847 1.416-3.189 3.264-4.596 1.685-1.455 4.416-2.64 7.336-2.446 6.218.413 10.25 5.4 10.143 11.133-.028 1.517-.838 5.967-4.621 8.44l5.687-2.585c.986-.448 1.793-1.703 1.793-2.79V8.696c0-1.086-.807-2.34-1.793-2.789L17.631.336c-.986-.448-2.6-.448-3.585 0L1.793 5.906C.807 6.354 0 7.609 0 8.696v14.399c0 1.086.807 2.34 1.793 2.789" fill="#00A8FF" mask="url(#b)"/></g><text font-family="BreeSerif-Regular, Bree Serif" font-size="16" fill="#030404"><tspan x="37" y="23">Aid</tspan></text><text font-family="BreeSerif-Regular, Bree Serif" font-size="16" fill="#00A8FF"><tspan x="62" y="23">Stream</tspan></text></g></svg>