<svg width="134" height="127" viewBox="0 0 134 127" xmlns="http://www.w3.org/2000/svg"><title>Fill 1</title><path d="M76.783 94.927c.922-12.078-8.326-24.678-19.644-27.022 0 0 6.373-2.419 13.637-.863 7.212 1.544 15.918 6.296 20.18 19.51 0 0 5.2 17.991-10.443 29.314-14.222 10.295-28.586 1.744-28.586 1.744 12.584.679 23.861-9.651 24.856-22.683M8.246 109.795c2.479-2.022 5.064-3.343 7.39-3.755 14.07-2.488 18.583 4.441 22.916 9.204 8.714 9.577 16.619 11.709 25.417 11.712 17.617.008 32.284-15.608 31.316-33.24-.906-16.521-13.302-29.19-30.13-30.752-.427-.04-.785-.025-1.208-.043-5.223-.23-8.611.887-13.112 2.346-1.295.42-2.12.903-2.731 1.06-.74.19-1.144-.007-1.403-.207-.236-.182-.974-1.305-.128-2.148 2.178-2.173 2.94-2.375 5.561-4.402.954-.738 1.824-1.35 2.064-2.252.156-.587.126-1.381-.625-2.09-.914-.864-2.228-.452-3.98.44-.862.44-1.827.937-2.884 1.647-5.996 4.029-11.591 10.13-14.54 17.334-.169.413 1.738-6.435 1.987-7.226 1.128-3.586 5.992-13.492 13.808-19.443 7.13-6.157 18.68-11.168 31.033-10.348 26.304 1.747 43.36 22.845 42.911 47.096-.119 6.418-3.549 25.24-19.552 35.703l24.06-10.937c4.172-1.896 7.584-7.206 7.584-11.8v-60.91c0-4.595-3.412-9.905-7.583-11.8L74.583 1.421c-4.17-1.896-10.995-1.896-15.166 0L7.583 24.983C3.413 26.88 0 32.19 0 36.783v60.911c0 4.594 3.413 9.904 7.583 11.8" fill="#00A8FF" fill-rule="evenodd"/></svg>