<svg width="83" height="78" viewBox="0 0 83 78" xmlns="http://www.w3.org/2000/svg"><title>Fill 1</title><path d="M47.174 58.322C47.741 50.9 42.06 43.16 35.105 41.72c0 0 3.916-1.486 8.378-.53 4.432.948 9.78 3.868 12.4 11.986 0 0 3.193 11.054-6.417 18.01-8.737 6.325-17.563 1.072-17.563 1.072 7.732.417 14.66-5.93 15.271-13.936M5.066 67.457c1.523-1.243 3.112-2.055 4.54-2.307 8.645-1.53 11.418 2.728 14.08 5.654 5.353 5.884 10.21 7.194 15.616 7.196 10.823.005 19.834-9.59 19.24-20.423-.557-10.15-8.173-17.933-18.512-18.893-.262-.024-.482-.015-.742-.026-3.209-.141-5.29.544-8.056 1.44-.795.259-1.302.556-1.678.653-.454.116-.703-.005-.862-.128-.145-.111-.598-.801-.078-1.32 1.338-1.334 1.807-1.458 3.416-2.704.586-.453 1.121-.83 1.269-1.384.095-.36.077-.848-.385-1.284-.561-.53-1.368-.278-2.445.271-.53.27-1.122.575-1.772 1.012-3.684 2.475-7.121 6.223-8.933 10.65-.103.253 1.068-3.955 1.22-4.44.694-2.203 3.683-8.29 8.485-11.946 4.38-3.782 11.477-6.861 19.066-6.357 16.16 1.073 26.639 14.035 26.363 28.935-.073 3.943-2.18 15.506-12.012 21.935l14.782-6.72c2.563-1.164 4.66-4.427 4.66-7.249V22.599c0-2.822-2.097-6.085-4.66-7.25L45.823.874c-2.563-1.165-6.756-1.165-9.318 0L4.659 15.349C2.097 16.514 0 19.777 0 22.6v37.423c0 2.822 2.097 6.085 4.66 7.25" fill="#00A8FF" fill-rule="evenodd"/></svg>