<svg width="158" height="42" viewBox="0 0 158 42" xmlns="http://www.w3.org/2000/svg" xmlns:xlink="http://www.w3.org/1999/xlink"><title>Group 3 + AidS + tream Copy 2</title><defs><path id="a" d="M0 .001h148.806v41.452H0"/></defs><g fill="none" fill-rule="evenodd"><g><mask id="b" fill="#fff"><use xlink:href="#a"/></mask><path d="M25.254 30.994c.303-3.943-2.739-8.057-6.461-8.823 0 0 2.096-.79 4.485-.281 2.372.504 5.235 2.055 6.637 6.37 0 0 1.71 5.874-3.434 9.571-4.678 3.361-9.402.57-9.402.57 4.139.221 7.848-3.152 8.175-7.407M2.712 35.85c.815-.66 1.666-1.092 2.43-1.226 4.628-.813 6.112 1.45 7.538 3.005 2.866 3.127 5.466 3.823 8.36 3.824 5.793.003 10.617-5.096 10.3-10.853-.299-5.394-4.376-9.53-9.91-10.04-.141-.014-.259-.009-.398-.015-1.718-.075-2.832.29-4.313.766-.425.137-.697.295-.898.346-.243.063-.376-.002-.461-.067-.078-.06-.32-.426-.042-.702.716-.71.967-.775 1.829-1.437.314-.24.6-.44.679-.735a.66.66 0 0 0-.206-.683c-.3-.282-.733-.147-1.31.144-.282.143-.6.306-.947.538-1.973 1.315-3.813 3.307-4.783 5.66-.055.134.572-2.102.654-2.36.37-1.17 1.97-4.405 4.541-6.348 2.345-2.01 6.144-3.647 10.207-3.379 8.651.57 14.26 7.46 14.113 15.377-.039 2.096-1.167 8.241-6.43 11.658l7.913-3.571c1.372-.62 2.494-2.353 2.494-3.853V12.01c0-1.5-1.122-3.234-2.494-3.853L24.53.464c-1.371-.619-3.616-.619-4.988 0L2.494 8.157C1.122 8.777 0 10.51 0 12.01v19.888c0 1.5 1.122 3.234 2.494 3.853" fill="#00A8FF" mask="url(#b)"/></g><path d="M52.981 29.812l3.558-10.298-1.392-.133v-1.79h5.06l4.509 12.751h.022l1.26.067v1.878h-5.702v-1.79l.84-.066c.25-.03.42-.089.508-.177.088-.088.096-.25.022-.486l-.464-1.37H56.03l-.663 1.944 1.326.067v1.878h-5.105v-1.79l.729-.066c.31-.03.53-.236.663-.619zm5.635-9.746l-2.055 6.299h4.11l-1.988-6.299h-.067zm12.221 1.105v9.282l1.26.066v1.768h-5.26v-1.68l.73-.066c.427-.044.64-.28.64-.707v-6.143c0-.25-.04-.42-.121-.509-.081-.088-.225-.132-.431-.132l-.774-.044V21.17h3.956zM67.588 18.1c0-.472.155-.866.465-1.183.309-.316.714-.475 1.215-.475.5 0 .91.159 1.226.475.317.317.476.711.476 1.183 0 .471-.159.858-.476 1.16-.316.302-.725.453-1.226.453-.5 0-.906-.151-1.215-.453-.31-.302-.465-.689-.465-1.16zm11.337 2.74c.634 0 1.238.088 1.812.265v-2.232c0-.324-.191-.5-.574-.53l-.95-.067v-1.745h4.11v13.436c.015.339.199.508.552.508l.774.044v1.768h-3.58v-1.304l-.066-.022c-.663 1.076-1.665 1.613-3.006 1.613-1.68 0-2.858-.56-3.536-1.68-.619-1.016-.928-2.26-.928-3.734 0-1.915.475-3.447 1.425-4.596.95-1.15 2.273-1.724 3.967-1.724zm1.812 8v-5.724a4.09 4.09 0 0 0-1.68-.354c-.971 0-1.682.39-2.132 1.172-.449.78-.674 1.775-.674 2.983 0 2.475.796 3.713 2.387 3.713.604 0 1.105-.173 1.503-.52.398-.346.596-.77.596-1.27z" fill="#030404"/><path d="M91.587 30.298c1.768 0 2.652-.707 2.652-2.121 0-.737-.39-1.282-1.172-1.636-.412-.206-.946-.397-1.602-.574-.655-.177-1.2-.357-1.635-.542a6.573 6.573 0 0 1-1.315-.762c-.87-.648-1.304-1.646-1.304-2.994 0-1.348.468-2.41 1.403-3.183.936-.773 2.159-1.16 3.669-1.16 1.51 0 2.913.302 4.21.906v3.315l-2.254.155V20.42c0-.221-.03-.383-.089-.486-.162-.28-.681-.42-1.558-.42-.876 0-1.525.155-1.944.464-.42.31-.63.788-.63 1.436 0 .472.176.884.53 1.238.236.236.586.43 1.05.586.464.154.957.313 1.48.475.523.162.988.339 1.393.53.405.192.828.457 1.27.796.9.663 1.348 1.687 1.348 3.071 0 1.385-.497 2.476-1.491 3.271-.995.796-2.306 1.193-3.934 1.193-1.628 0-3.09-.302-4.387-.906v-3.491l2.255-.155v1.348c0 .221.029.383.088.486.059.103.24.203.541.299.302.095.777.143 1.426.143zm9.17-11.47h1.437v2.343h2.94l-.222 1.857h-2.718v5.812c0 .648.118 1.101.354 1.359s.6.387 1.094.387c.493 0 .99-.155 1.491-.465l.663 1.702c-.736.516-1.672.774-2.806.774-.663 0-1.223-.085-1.68-.255-.456-.169-.795-.357-1.016-.563-.221-.206-.39-.508-.509-.906-.117-.398-.184-.711-.198-.94a16.924 16.924 0 0 1-.023-1.005v-5.9h-1.569l.221-1.614c.693-.059 1.216-.305 1.57-.74.353-.435.677-1.05.972-1.845zm7.25 10.984v-6.121c0-.236-.041-.402-.122-.498-.081-.095-.225-.15-.431-.165l-.928-.067v-1.79h3.734v1.658a3.431 3.431 0 0 1 1.238-1.426c.56-.375 1.204-.563 1.934-.563.729 0 1.425.162 2.088.486v3.293l-2.055.154v-1.016c0-.295-.074-.479-.221-.553a1.438 1.438 0 0 0-.597-.11c-.59 0-1.072.21-1.447.63-.376.42-.564.954-.564 1.602v5.127l1.923.088v1.746h-5.923v-1.68l.73-.066c.22-.03.383-.092.486-.188.103-.095.154-.276.154-.541zm14.386-8.972c1.105 0 1.981.269 2.63.806.648.538.972 1.293.972 2.266 0 .648-.14 1.219-.42 1.712-.28.494-.626.88-1.039 1.16-.412.28-.913.509-1.502.686-.987.294-2.1.442-3.337.442.044.78.287 1.41.729 1.889.442.479 1.12.718 2.033.718.914 0 1.827-.324 2.74-.972l.84 1.79c-.295.265-.792.538-1.492.818-.7.28-1.499.42-2.397.42-1.798 0-3.116-.498-3.956-1.492-.84-.995-1.26-2.361-1.26-4.1 0-1.738.48-3.197 1.437-4.375.957-1.179 2.298-1.768 4.022-1.768zm.486 4.409c.457-.332.685-.726.685-1.183 0-.898-.442-1.348-1.326-1.348-.825 0-1.458.328-1.9.984-.442.655-.685 1.44-.73 2.353.649-.015 1.242-.07 1.78-.166a3.581 3.581 0 0 0 1.491-.64zm14.585-3.636v8.221c0 .236.04.398.122.486.08.089.225.14.43.155l.708.044v1.768h-3.514v-1.282l-.066-.022c-.737 1.061-1.746 1.591-3.028 1.591-1.502 0-2.615-.478-3.337-1.436-.721-.958-1.082-2.269-1.082-3.934 0-2.003.486-3.565 1.458-4.685.972-1.12 2.431-1.68 4.376-1.68 1.252 0 2.563.259 3.933.774zm-2.563 7.16V23.05c-.413-.192-.98-.288-1.702-.288-.987 0-1.701.398-2.143 1.194-.442.795-.663 1.849-.663 3.16 0 2.387.766 3.58 2.298 3.58.648 0 1.179-.195 1.591-.586.413-.39.619-.836.619-1.337zm5.038-5.812v-1.79h3.735v1.437c.825-1.179 1.956-1.768 3.392-1.768 1.437 0 2.406.59 2.906 1.768.825-1.179 1.945-1.768 3.36-1.768 1.06 0 1.878.32 2.452.961.575.641.862 1.602.862 2.884v5.768l1.26.066v1.768h-5.26v-1.68l.73-.066c.22-.03.379-.092.475-.188.096-.095.15-.268.166-.519V25.26c0-.81-.093-1.411-.277-1.801-.184-.39-.615-.586-1.292-.586-.678 0-1.198.206-1.558.619-.361.412-.542.965-.542 1.657v5.304l1.216.066v1.768h-5.216v-1.68l.73-.066c.22-.03.382-.092.486-.188.103-.095.154-.276.154-.541V25.26c0-.81-.092-1.411-.276-1.801-.184-.39-.619-.586-1.304-.586s-1.204.214-1.558.64c-.353.428-.53.958-.53 1.592v5.348l1.193.066v1.768h-5.215v-1.68l.73-.066c.22-.03.382-.092.485-.188.103-.095.155-.276.155-.541h.022v-6.1c0-.25-.04-.423-.121-.519-.081-.095-.225-.15-.431-.165l-.929-.067z" fill="#00A8FF"/></g></svg>