<svg width="107" height="30" viewBox="0 0 107 30" xmlns="http://www.w3.org/2000/svg" xmlns:xlink="http://www.w3.org/1999/xlink"><title>Group 3 + AidS + tream</title><defs><path id="a" d="M0 0h106.954v30.013H0"/></defs><g fill="none" fill-rule="evenodd"><mask id="b" fill="#fff"><use xlink:href="#a"/></mask><path d="M18.151 22.44c.218-2.855-1.968-5.833-4.644-6.388 0 0 1.507-.571 3.224-.204 1.705.366 3.763 1.489 4.77 4.613 0 0 1.23 4.252-2.468 6.93-3.362 2.433-6.758.411-6.758.411 2.975.16 5.641-2.281 5.876-5.362M1.95 25.955c.586-.478 1.197-.79 1.747-.888 3.326-.588 4.393 1.05 5.418 2.176 2.06 2.264 3.928 2.768 6.008 2.769 4.164.002 7.632-3.69 7.403-7.858-.214-3.905-3.145-6.9-7.123-7.27-.1-.009-.185-.005-.285-.01-1.235-.054-2.036.21-3.1.555-.306.099-.501.213-.646.25-.174.045-.27-.001-.331-.048-.056-.043-.23-.309-.03-.508.515-.514.695-.562 1.314-1.04.226-.175.431-.32.488-.533a.48.48 0 0 0-.148-.495c-.216-.204-.526-.106-.94.105a6.233 6.233 0 0 0-.682.389c-1.418.952-2.74 2.395-3.437 4.098-.04.097.41-1.522.47-1.709.266-.847 1.416-3.189 3.264-4.596 1.685-1.455 4.416-2.64 7.336-2.446 6.218.413 10.25 5.4 10.143 11.133-.028 1.517-.838 5.967-4.621 8.44l5.687-2.585c.986-.448 1.793-1.703 1.793-2.79V8.696c0-1.086-.807-2.34-1.793-2.789L17.631.336c-.986-.448-2.6-.448-3.585 0L1.793 5.906C.807 6.354 0 7.609 0 8.696v14.399c0 1.086.807 2.34 1.793 2.789" fill="#00A8FF" mask="url(#b)"/><path d="M37.994 20.363l2.353-6.81-.92-.088V12.28h3.346l2.981 8.433h.015l.833.044V22h-3.77v-1.184l.555-.044c.165-.02.277-.058.336-.117.058-.058.063-.165.015-.321l-.307-.906h-3.42l-.439 1.286.877.044V22h-3.376v-1.184l.482-.044c.205-.02.351-.156.439-.409zm3.727-6.445l-1.36 4.165h2.719l-1.315-4.165h-.044zm8.082.73v6.139l.833.044V22h-3.478v-1.11l.482-.045c.282-.029.424-.185.424-.467v-4.063c0-.166-.027-.278-.08-.336-.054-.059-.15-.088-.286-.088l-.511-.03V14.65h2.616zm-2.149-2.03c0-.313.103-.573.307-.783.205-.21.473-.314.804-.314.331 0 .602.105.811.314.21.21.315.47.315.782 0 .312-.105.568-.315.767-.21.2-.48.3-.81.3-.332 0-.6-.1-.805-.3a1.026 1.026 0 0 1-.307-.767zm7.498 1.811c.419 0 .818.059 1.198.176v-1.476c0-.215-.126-.332-.38-.351l-.628-.044v-1.155h2.718v8.886c.01.225.132.337.366.337l.511.029V22H56.57v-.862l-.044-.015c-.439.711-1.101 1.067-1.988 1.067-1.11 0-1.89-.37-2.338-1.11-.41-.673-.614-1.496-.614-2.47 0-1.267.314-2.28.943-3.04.628-.76 1.502-1.14 2.623-1.14zm1.198 5.291v-3.785a2.705 2.705 0 0 0-1.11-.234c-.643 0-1.114.258-1.41.774-.298.517-.446 1.175-.446 1.974 0 1.636.526 2.455 1.578 2.455.4 0 .73-.115.994-.344.263-.229.394-.509.394-.84zm6.475.965c1.17 0 1.754-.468 1.754-1.403 0-.488-.258-.848-.775-1.082a5.777 5.777 0 0 0-1.06-.38 8.496 8.496 0 0 1-1.081-.358 4.347 4.347 0 0 1-.87-.504c-.574-.429-.862-1.089-.862-1.98 0-.892.31-1.594.928-2.105.619-.512 1.428-.767 2.426-.767.999 0 1.927.2 2.784.599v2.192l-1.49.102v-.847a.674.674 0 0 0-.059-.322c-.107-.185-.45-.278-1.03-.278-.58 0-1.009.103-1.286.307-.278.205-.417.522-.417.95 0 .312.117.585.351.819.156.156.387.285.694.387.307.102.634.207.98.314.345.108.652.224.92.351.268.127.548.302.84.526.595.439.892 1.116.892 2.032 0 .916-.329 1.637-.986 2.163-.658.526-1.525.789-2.602.789s-2.044-.2-2.901-.6v-2.308l1.49-.103v.892c0 .146.02.253.06.321.038.069.158.134.357.198.2.063.514.095.943.095z" fill="#030404"/><path d="M69.105 13.1h.95v1.549h1.943l-.146 1.227h-1.797v3.844c0 .429.078.728.233.899.156.17.397.256.724.256.326 0 .655-.103.986-.307l.439 1.125c-.487.341-1.106.512-1.856.512-.439 0-.809-.056-1.111-.168-.302-.113-.526-.237-.672-.373-.146-.137-.259-.336-.336-.6a3.03 3.03 0 0 1-.132-.62c-.01-.152-.015-.373-.015-.665v-3.903h-1.037l.146-1.067c.458-.039.804-.202 1.038-.49.233-.287.448-.693.643-1.22zm4.793 7.263v-4.048c0-.156-.026-.266-.08-.33-.054-.062-.149-.099-.285-.109l-.614-.044V14.65h2.47v1.096a2.27 2.27 0 0 1 .819-.943c.37-.248.796-.373 1.278-.373.483 0 .943.108 1.381.322v2.178l-1.359.102v-.672c0-.195-.048-.317-.146-.366a.951.951 0 0 0-.394-.073c-.39 0-.71.139-.958.417-.248.277-.372.63-.372 1.06v3.39l1.271.058V22h-3.917v-1.11l.483-.045c.146-.02.253-.06.321-.124.068-.063.102-.183.102-.358zm9.515-5.934c.73 0 1.31.178 1.739.534.429.355.643.855.643 1.498 0 .429-.093.806-.278 1.133a2.243 2.243 0 0 1-.687.767 3.607 3.607 0 0 1-.993.453c-.653.195-1.389.292-2.207.292.029.517.19.933.482 1.25.292.316.74.475 1.345.475.604 0 1.208-.215 1.812-.643l.555 1.184c-.195.175-.523.355-.986.54-.463.185-.992.278-1.586.278-1.189 0-2.06-.329-2.616-.987-.555-.657-.833-1.56-.833-2.71s.317-2.115.95-2.894c.633-.78 1.52-1.17 2.66-1.17zm.321 2.916c.302-.22.453-.48.453-.782 0-.594-.292-.891-.877-.891-.545 0-.964.216-1.256.65-.293.434-.453.952-.483 1.557.429-.01.821-.047 1.177-.11.355-.063.684-.205.986-.424zm9.646-2.404v5.437c0 .156.027.263.08.321.054.059.15.093.286.103l.467.029V22H91.89v-.848l-.044-.014c-.487.701-1.155 1.052-2.003 1.052-.993 0-1.729-.317-2.206-.95-.478-.633-.717-1.5-.717-2.601 0-1.326.322-2.358.965-3.099.643-.74 1.608-1.11 2.894-1.11.828 0 1.695.17 2.601.51zm-1.695 4.735v-3.785c-.273-.127-.648-.19-1.125-.19-.653 0-1.126.263-1.418.79-.292.525-.439 1.222-.439 2.09 0 1.578.507 2.367 1.52 2.367.43 0 .78-.13 1.053-.388.273-.258.409-.553.409-.884zm3.332-3.844V14.65h2.47v.95c.546-.78 1.294-1.17 2.244-1.17.95 0 1.59.39 1.921 1.17.546-.78 1.287-1.17 2.222-1.17.702 0 1.242.212 1.622.636.38.424.57 1.06.57 1.907v3.815l.833.044V22h-3.478v-1.11l.482-.045c.146-.02.251-.06.314-.124.064-.063.1-.178.11-.343v-3.026c0-.536-.06-.933-.183-1.19-.121-.259-.406-.388-.855-.388-.448 0-.791.136-1.03.41-.239.272-.358.637-.358 1.095v3.508l.804.044V22h-3.45v-1.11l.483-.045c.146-.02.253-.06.321-.124.069-.063.103-.183.103-.358v-3.01c0-.537-.061-.934-.183-1.192-.122-.258-.41-.387-.862-.387-.453 0-.797.141-1.03.424-.234.282-.351.633-.351 1.052v3.537l.789.044V22h-3.45v-1.11l.483-.045c.146-.02.253-.06.321-.124.069-.063.103-.183.103-.358h.014V16.33c0-.165-.026-.28-.08-.343-.054-.063-.149-.1-.285-.11l-.614-.044z" fill="#00A8FF"/></g></svg>