<svg width="94" height="81" viewBox="0 0 94 81" xmlns="http://www.w3.org/2000/svg"><title>Group 8</title><g fill="none" fill-rule="evenodd"><path d="M80.508 71.136c3.118-.368 6.434-1.502 6.434-6.887 0-1.53-.539-2.778-1.417-3.742.142-.368.595-1.757-.17-3.684 0 0-1.134-.369-3.798 1.417-1.134-.312-2.38-.51-3.543-.51-1.19 0-2.438.198-3.543.51-2.693-1.786-3.826-1.417-3.826-1.417-.766 1.927-.312 3.316-.17 3.684-.88.964-1.418 2.211-1.418 3.742 0 5.385 3.316 6.519 6.434 6.887-.396.34-.765.992-.906 1.9-.794.339-2.863.991-4.11-1.163 0 0-.738-1.332-2.126-1.417 0 0-1.39-.028-.113.85 0 0 .935.426 1.559 2.04 0 0 .85 2.694 4.76 1.843v2.409c0 .37-.282.794-.99.68-5.556-1.842-9.553-7.114-9.553-13.292 0-7.738 6.264-14.002 14.002-14.002 7.71 0 14.002 6.264 13.973 14.002 0 6.178-3.996 11.422-9.551 13.293-.71.141-.992-.283-.992-.681v-3.882c0-1.305-.426-2.154-.936-2.58zM94 65.014C94 56.171 86.829 49 78.014 49 69.171 49 62 56.17 62 65.014 62 73.83 69.17 81 78.014 81 86.83 81 94 73.829 94 65.014z" fill="#0D2636"/><path d="M80.508 22.136c3.118-.368 6.434-1.502 6.434-6.887 0-1.53-.539-2.778-1.417-3.742.142-.368.595-1.757-.17-3.684 0 0-1.134-.369-3.798 1.417-1.134-.312-2.38-.51-3.543-.51-1.19 0-2.438.198-3.543.51-2.693-1.786-3.826-1.417-3.826-1.417-.766 1.927-.312 3.316-.17 3.684-.88.964-1.418 2.211-1.418 3.742 0 5.385 3.316 6.519 6.434 6.887-.396.34-.765.992-.906 1.9-.794.339-2.863.991-4.11-1.163 0 0-.738-1.332-2.126-1.417 0 0-1.39-.028-.113.85 0 0 .935.425 1.559 2.04 0 0 .85 2.694 4.76 1.843v2.409c0 .37-.282.794-.99.68-5.556-1.842-9.553-7.114-9.553-13.292 0-7.738 6.264-14.002 14.002-14.002 7.71 0 14.002 6.264 13.973 14.002 0 6.178-3.996 11.422-9.551 13.293-.71.141-.992-.284-.992-.681v-3.882c0-1.305-.426-2.154-.936-2.58zM94 16.014C94 7.171 86.829 0 78.014 0 69.171 0 62 7.17 62 16.014 62 24.83 69.17 32 78.014 32 86.83 32 94 24.829 94 16.014z" fill="#BEBEBE"/><g fill="#1EBEF0"><path d="M16.014 79C23.696 79 30 72.696 30 65.014 30 57.308 23.7 51 16.014 51 8.304 51 2 57.304 2 65.014 2 72.7 8.308 79 16.014 79zm0 2C7.2 81 0 73.8 0 65.014 0 56.2 7.199 49 16.014 49 24.801 49 32 56.199 32 65.014 32 73.801 24.8 81 16.014 81z"/><path d="M17.29 57.588c-.568.397-.992.964-1.304 1.587l-.142.369c-.085.255-.142.51-.17.765-.029.141-.029.255-.057.369v.226l.028.369.057.482h-.312a10.138 10.138 0 0 1-3.94-.88l-.708-.34c-.142-.056-.255-.141-.397-.226-.793-.454-1.502-1.049-2.126-1.7a9.918 9.918 0 0 1-1.077-1.361 4.813 4.813 0 0 0-.538 2.21c0 .284.028.568.085.85 0 .143.028.256.057.37.255.85.708 1.615 1.332 2.182l.312.284-.397-.086c-.51-.141-1.02-.311-1.502-.51a4.559 4.559 0 0 0 1.077 2.693 4.666 4.666 0 0 0 2.295 1.502l-1.048.056-.879-.028c.652 1.588 2.154 2.75 3.94 2.891-1.644 1.219-3.685 1.9-5.867 1.9a11.635 11.635 0 0 0 5.47 1.728h1.304c6.207-.34 11.11-5.47 11.11-11.762v-.596c.227-.198.454-.396.681-.623a8.702 8.702 0 0 0 1.417-1.644c-.652.425-1.417.652-2.267.652h-.057.028a4.354 4.354 0 0 0 1.672-2.154c-.595.312-1.275.538-1.956.737l-.085.028-.51.114a4.025 4.025 0 0 0-2.947-1.304h-.085c-.312 0-.624.028-.936.085a4.659 4.659 0 0 0-1.275.538l-.283.227z"/></g><g fill="#BEBEBE"><path d="M16.014 30C23.696 30 30 23.696 30 16.014 30 8.308 23.7 2 16.014 2 8.304 2 2 8.304 2 16.014 2 23.7 8.308 30 16.014 30zm0 2C7.2 32 0 24.8 0 16.014 0 7.2 7.199 0 16.014 0 24.801 0 32 7.199 32 16.014 32 24.801 24.8 32 16.014 32z"/><path d="M17.29 8.588c-.568.397-.992.964-1.304 1.587l-.142.369c-.085.255-.142.51-.17.765-.029.141-.029.255-.057.369v.226l.028.369.057.482h-.312a10.138 10.138 0 0 1-3.94-.88l-.708-.34c-.142-.056-.255-.141-.397-.226-.793-.454-1.502-1.049-2.126-1.7a9.918 9.918 0 0 1-1.077-1.361 4.813 4.813 0 0 0-.538 2.21c0 .284.028.568.085.85 0 .143.028.256.057.37.255.85.708 1.615 1.332 2.182l.312.284-.397-.086c-.51-.141-1.02-.311-1.502-.51a4.559 4.559 0 0 0 1.077 2.693 4.666 4.666 0 0 0 2.295 1.502l-1.048.056-.879-.028c.652 1.588 2.154 2.75 3.94 2.891-1.644 1.219-3.685 1.9-5.867 1.9a11.635 11.635 0 0 0 5.47 1.728h1.304c6.207-.34 11.11-5.47 11.11-11.762v-.596c.227-.198.454-.396.681-.623a8.702 8.702 0 0 0 1.417-1.644c-.652.425-1.417.652-2.267.652h-.057.028a4.354 4.354 0 0 0 1.672-2.154c-.595.312-1.275.538-1.956.737l-.085.028-.51.114a4.025 4.025 0 0 0-2.947-1.304h-.085c-.312 0-.624.028-.936.085a4.659 4.659 0 0 0-1.275.538l-.283.227z"/></g></g></svg>