<?xml version="1.0" encoding="UTF-8"?>
<svg width="186px" height="45px" viewBox="0 0 186 45" version="1.1" xmlns="http://www.w3.org/2000/svg" xmlns:xlink="http://www.w3.org/1999/xlink">
    <!-- Generator: Sketch 52 (66869) - http://www.bohemiancoding.com/sketch -->
    <title>Group 18</title>
    <desc>Created with Sketch.</desc>
    <g id="Landing-page" stroke="none" stroke-width="1" fill="none" fill-rule="evenodd">
        <g id="landing-page_UI" transform="translate(-745.000000, -3202.000000)" fill="#FFFFFF">
            <g id="Group-18" transform="translate(745.000000, 3202.000000)">
                <g id="Group-8">
                    <path d="M27.2266453,33.6604467 C27.5535497,29.3775104 24.2743703,24.9097588 20.2611815,24.0784849 C20.2611815,24.0784849 22.5210727,23.2210486 25.0965515,23.7725326 C27.6541205,24.3202651 30.7411131,26.005125 32.2524307,30.6907651 C32.2524307,30.6907651 34.0959666,37.0702492 28.5493188,41.0854403 C23.5065092,44.7358384 18.4128237,41.7035645 18.4128237,41.7035645 C22.875137,41.9443575 26.8739586,38.2815199 27.2266453,33.6604467 M2.92393409,38.9326186 C3.80289546,38.2154721 4.7197431,37.7470167 5.54438443,37.6011982 C10.5335628,36.7187842 12.133741,39.1758798 13.6702505,40.8647874 C16.7600969,44.2607683 19.5631885,45.0165167 22.6829503,45.0178002 C28.9296576,45.0204658 34.1306055,39.4831154 33.7874641,33.2308893 C33.4660705,27.3727779 29.0705748,22.8807396 23.1033403,22.32659 C22.9521888,22.3125709 22.8252452,22.3179021 22.6750779,22.3112874 C20.8231775,22.2301346 19.6216416,22.6257301 18.025695,23.1430549 C17.5666315,23.2918352 17.2739724,23.4635199 17.0571842,23.5193002 C16.7951294,23.5867301 16.6515552,23.5166346 16.5598409,23.4458479 C16.4761959,23.3812811 16.2144362,22.9831186 16.5143774,22.6839785 C17.2868636,21.9136186 17.557283,21.8420422 18.4864313,21.1231186 C18.8246524,20.8614944 19.1331548,20.6444944 19.2182759,20.3244244 C19.2736784,20.1163097 19.2628538,19.8347428 18.996469,19.5831887 C18.6725169,19.2772365 18.2066634,19.4231537 17.5850334,19.7397683 C17.27968,19.8952619 16.9376211,20.0716855 16.5627931,20.3235358 C14.4364387,21.7521027 12.4524776,23.9152906 11.4070135,26.4699275 C11.3470843,26.6165358 12.0232311,24.1880709 12.1114028,23.9076887 C12.5115212,22.6362938 14.2363795,19.1235199 17.0077845,17.0133479 C19.5356349,14.8302174 23.6317799,13.0531473 28.0118259,13.3440932 C37.3388342,13.9635995 43.3867615,21.444867 43.2277376,30.0441091 C43.1856199,32.319746 41.9694215,38.9937301 36.2948461,42.7041537 L44.8264396,38.8258957 C46.3054801,38.1536696 47.5154788,36.2707651 47.5154788,34.6417842 L47.5154788,13.0430772 C47.5154788,11.4140963 46.3054801,9.53119188 44.8264396,8.85896576 L26.4467787,0.504169586 C24.9678366,-0.168056529 22.5477406,-0.168056529 21.0687002,0.504169586 L2.68903924,8.85896576 C1.21009718,9.53119188 3.90798505e-14,11.4140963 3.90798505e-14,13.0430772 L3.90798505e-14,34.6417842 C3.90798505e-14,36.2707651 1.21009718,38.1536696 2.68903924,38.8258957" id="Fill-1"></path>
                </g>
                <g id="Group-3" transform="translate(60.000000, 4.500000)">
                    <path d="M1.76045419,25.1004284 L5.92858839,13.0361394 L4.29757935,12.8808052 L4.29757935,10.7837935 L10.2261677,10.7837935 L15.5075303,25.7217652 L15.5334194,25.7217652 L17.0090942,25.7994323 L17.0090942,28 L10.3297239,28 L10.3297239,25.9029884 L11.3135071,25.8253213 C11.6069176,25.7908024 11.8053982,25.7217657 11.9089548,25.618209 C12.0125115,25.5146524 12.0211411,25.3248014 11.9348439,25.0486503 L11.3911742,23.4435303 L5.33314065,23.4435303 L4.55646968,25.7217652 L6.10981161,25.7994323 L6.10981161,28 L0.129445161,28 L0.129445161,25.9029884 L0.983783226,25.8253213 C1.34623149,25.7908024 1.60511922,25.5491739 1.76045419,25.1004284 Z M8.36215742,13.6833652 L5.95447742,21.0617394 L10.7698374,21.0617394 L8.43982452,13.6833652 L8.36215742,13.6833652 Z M22.6787923,14.9778168 L22.6787923,25.8512103 L24.1544671,25.9288774 L24.1544671,28 L17.9928774,28 L17.9928774,26.0324335 L18.8472155,25.9547665 C19.3477393,25.9029881 19.5979974,25.6268412 19.5979974,25.1263174 L19.5979974,17.9291665 C19.5979974,17.635756 19.5505347,17.4372754 19.4556077,17.3337187 C19.3606808,17.2301621 19.1924038,17.1783845 18.9507716,17.1783845 L18.0446555,17.1266065 L18.0446555,14.9778168 L22.6787923,14.9778168 Z M19.4167742,12.75136 C19.0543259,12.3889117 18.8731045,11.9315434 18.8731045,11.3792413 C18.8731045,10.8269392 19.0543259,10.365256 19.4167742,9.99417806 C19.7792225,9.62310008 20.25385,9.43756387 20.840671,9.43756387 C21.427492,9.43756387 21.9064343,9.62310008 22.2775123,9.99417806 C22.6485902,10.365256 22.8341265,10.8269392 22.8341265,11.3792413 C22.8341265,11.9315434 22.6485902,12.3845969 22.2775123,12.7384155 C21.9064343,13.092234 21.427492,13.2691406 20.840671,13.2691406 C20.25385,13.2691406 19.7792225,13.0965488 19.4167742,12.75136 Z M32.1541781,14.5894813 C32.896334,14.5894813 33.6039605,14.6930364 34.2770787,14.9001497 L34.2770787,12.2853574 C34.2770787,11.9056497 34.0527093,11.6985395 33.6039639,11.6640206 L32.4907355,11.5863535 L32.4907355,9.54112 L37.3060955,9.54112 L37.3060955,25.2816516 C37.3233549,25.6786188 37.5390947,25.8770994 37.9533213,25.8770994 L38.8594374,25.9288774 L38.8594374,28 L34.6654142,28 L34.6654142,26.4725471 L34.5877471,26.4466581 C33.8110722,27.7065973 32.6374479,28.3365574 31.0668387,28.3365574 C29.0992624,28.3365574 27.7185278,27.6807085 26.9245935,26.368991 C26.199697,25.1780895 25.8372542,23.7196886 25.8372542,21.9937445 C25.8372542,19.7500172 26.3938628,17.9550622 27.5070968,16.6088258 C28.6203307,15.2625894 30.1693423,14.5894813 32.1541781,14.5894813 Z M34.2770787,23.961311 L34.2770787,17.2560516 C33.6557388,16.9799006 32.9998899,16.8418271 32.3095123,16.8418271 C31.1703891,16.8418271 30.3376336,17.2991954 29.8112206,18.2139458 C29.2848077,19.1286962 29.0216052,20.293691 29.0216052,21.7089652 C29.0216052,24.6085513 29.953601,26.0583226 31.8176206,26.0583226 C32.5252577,26.0583226 33.1120699,25.8555272 33.5780748,25.4499303 C34.0440797,25.0443335 34.2770787,24.548132 34.2770787,23.961311 Z" id="Aid"></path>
                    <path d="M47.4892568,25.6699871 C49.5603897,25.6699871 50.5959406,24.8415463 50.5959406,23.18464 C50.5959406,22.3216679 50.1385723,21.6830782 49.2238219,21.2688516 C48.7405576,21.0272194 48.1149122,20.8028501 47.3468671,20.5957368 C46.578822,20.3886235 45.9402322,20.1771985 45.4310787,19.9614555 C44.9219252,19.7457125 44.4084645,19.4479916 43.8906813,19.0682839 C42.8723743,18.3088685 42.3632284,17.1395589 42.3632284,15.56032 C42.3632284,13.9810811 42.9112074,12.73842 44.0071819,11.8322994 C45.1031564,10.9261787 46.5356686,10.4731252 48.3047613,10.4731252 C50.073854,10.4731252 51.7177911,10.8269384 53.2366219,11.5345755 L53.2366219,15.4179303 L50.5959406,15.5991535 L50.5959406,14.0975897 C50.5959406,13.8386981 50.5614223,13.6488471 50.4923845,13.528031 C50.3025307,13.2001016 49.6941445,13.0361394 48.6672077,13.0361394 C47.640271,13.0361394 46.880867,13.2173608 46.3889729,13.579809 C45.8970788,13.9422573 45.6511355,14.5031807 45.6511355,15.2625961 C45.6511355,15.8148982 45.8582457,16.2981553 46.2724723,16.7123819 C46.5486233,16.988533 46.9585289,17.2172172 47.5022013,17.3984413 C48.0458737,17.5796654 48.6240563,17.7652016 49.2367665,17.9550555 C49.8494766,18.1449093 50.3931409,18.3520195 50.8677755,18.5763923 C51.3424101,18.800765 51.8386116,19.1114303 52.3563948,19.5083974 C53.4092207,20.2850723 53.9356258,21.4845854 53.9356258,23.1069729 C53.9356258,24.7293604 53.3531284,26.0065399 52.1881161,26.9385497 C51.0231039,27.8705595 49.4870366,28.3365574 47.5798684,28.3365574 C45.6727001,28.3365574 43.9597263,27.9827442 42.4408955,27.2751071 L42.4408955,23.18464 L45.0815768,23.0034168 L45.0815768,24.5826477 C45.0815768,24.8415394 45.1160951,25.0313904 45.1851329,25.1522065 C45.2541707,25.2730225 45.4655957,25.389522 45.8194142,25.5017084 C46.1732327,25.6138948 46.7298414,25.6699871 47.4892568,25.6699871 Z M58.2332052,12.2335794 L59.9159923,12.2335794 L59.9159923,14.9778168 L63.3592335,14.9778168 L63.1003432,17.1524955 L59.9159923,17.1524955 L59.9159923,23.961311 C59.9159923,24.7207264 60.0540657,25.2514462 60.3302168,25.5534865 C60.6063678,25.8555267 61.0335326,26.0065445 61.6117239,26.0065445 C62.1899151,26.0065445 62.7724125,25.8253231 63.3592335,25.4628748 L64.1359045,27.4563303 C63.2729325,28.0604108 62.1769744,28.3624465 60.8479974,28.3624465 C60.0713226,28.3624465 59.4154736,28.2632062 58.880431,28.0647226 C58.3453883,27.866239 57.9484271,27.6461844 57.6895355,27.4045523 C57.4306439,27.1629201 57.2321633,26.8091068 57.0940877,26.3431019 C56.9560122,25.877097 56.8783459,25.5103394 56.8610865,25.2428181 C56.843827,24.9752967 56.8351974,24.5826503 56.8351974,24.0648671 L56.8351974,17.1524955 L54.9970761,17.1524955 L55.2559665,15.2625961 C56.0671602,15.1935584 56.6798612,14.9044671 57.0940877,14.3953135 C57.5083143,13.88616 57.8880163,13.1655892 58.2332052,12.2335794 Z M66.7248077,25.1004284 L66.7248077,17.9291665 C66.7248077,17.6530154 66.677345,17.4588496 66.5824181,17.3466632 C66.4874911,17.2344769 66.3192141,17.1697549 66.0775819,17.1524955 L64.9902426,17.0748284 L64.9902426,14.9778168 L69.365489,14.9778168 L69.365489,16.9194942 C69.676159,16.246376 70.1594161,15.6897674 70.8152748,15.2496516 C71.4711336,14.8095359 72.2262228,14.5894813 73.0805652,14.5894813 C73.9349075,14.5894813 74.7504039,14.7793323 75.5270787,15.15904 L75.5270787,19.0165058 L73.1193987,19.197729 L73.1193987,18.0068335 C73.1193987,17.6616447 73.0331028,17.4459049 72.8605084,17.3596077 C72.6706545,17.2733105 72.4376556,17.2301626 72.1615045,17.2301626 C71.4711269,17.2301626 70.9058887,17.4761059 70.4657729,17.968 C70.0256572,18.4598941 69.8056026,19.0855394 69.8056026,19.8449548 L69.8056026,25.8512103 L72.0579484,25.9547665 L72.0579484,28 L65.1196877,28 L65.1196877,26.0324335 L65.9740258,25.9547665 C66.2329174,25.9202476 66.4227684,25.846896 66.5435845,25.7347097 C66.6644006,25.6225233 66.7248077,25.4110983 66.7248077,25.1004284 Z M83.5785677,14.5894813 C84.8730258,14.5894813 85.8999472,14.9044614 86.6593626,15.534431 C87.418778,16.1644006 87.79848,17.0489337 87.79848,18.1880568 C87.79848,18.9474722 87.6345178,19.6162655 87.3065884,20.1944568 C86.978659,20.7726481 86.5730682,21.2257016 86.0898039,21.553631 C85.6065395,21.8815603 85.0197273,22.1490777 84.3293497,22.356191 C83.1729671,22.7013798 81.8698989,22.8739716 80.4201058,22.8739716 C80.4718841,23.788722 80.7566606,24.526552 81.2744439,25.0874839 C81.7922271,25.6484157 82.5861495,25.9288774 83.6562348,25.9288774 C84.7263202,25.9288774 85.7963895,25.5491754 86.8664748,24.78976 L87.8502581,26.8867716 C87.5050692,27.1974416 86.9225718,27.5167364 86.1027484,27.8446658 C85.2829249,28.1725952 84.3466143,28.3365574 83.2937884,28.3365574 C81.1881366,28.3365574 79.6434398,27.75406 78.6596516,26.5890477 C77.6758635,25.4240355 77.1839768,23.8232463 77.1839768,21.7866323 C77.1839768,19.7500182 77.7449002,18.0413592 78.8667639,16.6606039 C79.9886275,15.2798486 81.5592131,14.5894813 83.5785677,14.5894813 Z M82.3876723,20.5180697 C83.0262716,20.3972536 83.6130838,20.1426807 84.1481265,19.7543432 C84.6831691,19.3660058 84.9506865,18.9043227 84.9506865,18.36928 C84.9506865,17.3164541 84.432911,16.790049 83.3973445,16.790049 C82.4308158,16.790049 81.688671,17.1740658 81.1708877,17.942111 C80.6531045,18.7101561 80.368328,19.6292076 80.3165497,20.6992929 C81.0759651,20.6820335 81.7663324,20.6216263 82.3876723,20.5180697 Z M101.234888,15.4955974 L101.234888,25.1263174 C101.234888,25.4024685 101.28235,25.5923195 101.377277,25.6958761 C101.472204,25.7994328 101.640481,25.8598399 101.882114,25.8770994 L102.710563,25.9288774 L102.710563,28 L98.5942065,28 L98.5942065,26.4984361 L98.5165394,26.4725471 C97.6535673,27.7152269 96.4713133,28.3365574 94.9697419,28.3365574 C93.2092789,28.3365574 91.9062107,27.775634 91.0604981,26.6537703 C90.2147854,25.5319066 89.7919355,23.9958394 89.7919355,22.0455226 C89.7919355,19.6982386 90.3614885,17.8687653 91.5006116,16.5570477 C92.6397347,15.2453302 94.3483938,14.5894813 96.62664,14.5894813 C98.0936925,14.5894813 99.6297597,14.891517 101.234888,15.4955974 Z M98.23176,23.8836439 L98.23176,17.1783845 C97.7484956,16.9540118 97.0840171,16.8418271 96.2383045,16.8418271 C95.081922,16.8418271 94.2448516,17.307825 93.7270684,18.2398348 C93.2092852,19.1718447 92.9503974,20.4058762 92.9503974,21.9419665 C92.9503974,24.7379959 93.8478749,26.1359897 95.6428568,26.1359897 C96.4022722,26.1359897 97.0236027,25.9073055 97.5068671,25.4499303 C97.9901314,24.9925551 98.23176,24.4704649 98.23176,23.8836439 Z M104.134459,17.0748284 L104.134459,14.9778168 L108.509706,14.9778168 L108.509706,16.6606039 C109.476235,15.2798486 110.800877,14.5894813 112.483672,14.5894813 C114.166468,14.5894813 115.301259,15.2798486 115.88808,16.6606039 C116.854609,15.2798486 118.166307,14.5894813 119.823213,14.5894813 C121.065893,14.5894813 122.023777,14.9648685 122.696895,15.7156542 C123.370014,16.4664399 123.706568,17.5926015 123.706568,19.0941729 L123.706568,25.8512103 L125.182243,25.9288774 L125.182243,28 L119.020653,28 L119.020653,26.0324335 L119.874991,25.9547665 C120.133883,25.9202476 120.319419,25.846896 120.431605,25.7347097 C120.543792,25.6225233 120.608513,25.4197279 120.625773,25.1263174 L120.625773,19.7672877 C120.625773,18.8180185 120.517903,18.1147068 120.30216,17.6573316 C120.086417,17.1999564 119.581586,16.9712723 118.787652,16.9712723 C117.993717,16.9712723 117.385331,17.2129008 116.962475,17.6961652 C116.539619,18.1794295 116.328194,18.8266488 116.328194,19.6378426 L116.328194,25.8512103 L117.75209,25.9288774 L117.75209,28 L111.642279,28 L111.642279,26.0324335 L112.496617,25.9547665 C112.755508,25.9202476 112.945359,25.846896 113.066175,25.7347097 C113.186992,25.6225233 113.247399,25.4110983 113.247399,25.1004284 L113.247399,19.7672877 C113.247399,18.8180185 113.139529,18.1147068 112.923786,17.6573316 C112.708043,17.1999564 112.198897,16.9712723 111.396333,16.9712723 C110.593769,16.9712723 109.985383,17.2215304 109.571156,17.7220542 C109.15693,18.222578 108.949819,18.8439085 108.949819,19.5860645 L108.949819,25.8512103 L110.347827,25.9288774 L110.347827,28 L104.238015,28 L104.238015,26.0324335 L105.092354,25.9547665 C105.351245,25.9202476 105.541096,25.846896 105.661912,25.7347097 C105.782728,25.6225233 105.843135,25.4110983 105.843135,25.1004284 L105.869025,25.1004284 L105.869025,17.9550555 C105.869025,17.661645 105.821562,17.4588496 105.726635,17.3466632 C105.631708,17.2344769 105.463431,17.1697549 105.221799,17.1524955 L104.134459,17.0748284 Z" id="Stream"></path>
                </g>
            </g>
        </g>
    </g>
</svg>