<?xml version="1.0" encoding="UTF-8"?>
<svg width="357px" height="232px" viewBox="0 0 357 232" version="1.1" xmlns="http://www.w3.org/2000/svg" xmlns:xlink="http://www.w3.org/1999/xlink">
    <!-- Generator: Sketch 52 (66869) - http://www.bohemiancoding.com/sketch -->
    <title>Group 21</title>
    <desc>Created with Sketch.</desc>
    <g id="Landing-page" stroke="none" stroke-width="1" fill="none" fill-rule="evenodd">
        <g id="landing-page_UI" transform="translate(-132.000000, -2535.000000)">
            <g id="Group-21" transform="translate(132.000000, 2535.000000)">
                <path d="M78.0326167,1.01507143 C66.5804767,0.591927727 54.6176688,0.294404811 44.2626412,5.22006198 C33.9076136,10.1457191 25.9016584,22.0796939 29.3742003,33.0516779 C30.5075536,36.6285645 32.7149569,39.7459435 34.5764238,43.0021665 C43.8837585,59.2865875 44.3153553,80.3346809 35.6867147,96.9926584 C29.0447371,109.815896 17.7869804,119.574648 9.68218624,131.521846 C1.57739211,143.469044 -3.02850309,160.027847 4.94450577,172.064302 C10.4037106,180.305687 20.5347033,184.315634 30.3494113,185.287542 C40.1641193,186.259451 50.034836,184.728861 59.8923743,184.335469 C79.0743745,183.595889 98.1745795,187.220267 115.76274,194.937202 C139.974988,205.588523 160.833302,223.810148 186.327163,230.841607 C189.387876,231.684588 192.586963,232.365585 195.716863,231.79368 C201.268318,230.778796 205.304242,226.173803 209.649861,222.537412 C223.523555,211.010051 242.731258,208.857969 260.739716,208.322428 C278.748173,207.786887 297.504511,208.200113 313.783287,200.441376 C327.996328,193.667771 338.937801,181.066023 345.741215,166.831204 C352.54463,152.596386 355.499914,136.778084 356.6135,121.025898 C357.272426,111.650621 357.249364,101.971209 353.905313,93.1942825 C350.146138,83.3264391 342.52236,75.4685283 334.526289,68.5990547 C326.171102,61.418835 317.06474,54.9130006 306.749248,51.0385911 C294.427325,46.4104568 281.05112,45.7492948 267.931897,44.6517658 C241.029451,42.3973162 214.336473,38.096212 188.083201,31.7855526 C163.165901,25.8086478 135.807279,19.2796727 113.113856,7.10437378 C101.724314,0.991930759 90.8717967,1.47788486 78.0326167,1.01507143 Z" id="Path-Copy-3" fill="#6C63FF" opacity="0.1" transform="translate(178.875610, 116.402439) scale(-1, -1) translate(-178.875610, -116.402439) "></path>
                <g id="Group-2-Copy-2" transform="translate(307.853659, 159.756098) scale(-1, 1) translate(-307.853659, -159.756098) translate(267.390244, 88.560976)">
                    <path d="M45.2972456,145.261776 C45.2972456,145.261776 33.8156502,106.507181 47.3489943,78.0161718 C53.1019003,66.1016525 54.8233085,52.6348295 52.2547655,39.6376205 C50.9859549,33.4774713 49.1549223,27.4447694 46.7846191,21.6151336" id="Path-Copy-122" stroke="#535461" stroke-width="1.11132" stroke-linecap="round" transform="translate(47.083569, 83.438455) rotate(-26.000000) translate(-47.083569, -83.438455) "></path>
                    <path d="M22.5650419,11.4827468 C22.5715571,16.2311883 13.9827463,29.984832 13.9827463,29.984832 C13.9827463,29.984832 5.35616102,16.207618 5.3496458,11.4591765 C5.34313113,6.71114116 9.19306343,2.86737631 13.9487103,2.87388746 C18.7043571,2.88039861 22.5648518,6.73472012 22.5713664,11.4827555 L22.5650419,11.4827468 Z" id="Path-Copy-123" fill="#6C63FF" transform="translate(13.960502, 16.429356) rotate(-26.000000) translate(-13.960502, -16.429356) "></path>
                    <path d="M43.8540282,29.1509698 C41.2727585,33.1318253 26.564999,39.9943897 26.564999,39.9943897 C26.564999,39.9943897 26.8083636,23.7667021 29.3896419,19.792161 C31.9689557,15.8113957 37.2978676,14.6808019 41.2921,17.2669093 C45.2863323,19.8530166 46.4333505,25.1765188 43.8540368,29.1572842 L43.8540282,29.1509698 Z" id="Path-Copy-124" fill="#6C63FF" transform="translate(35.898468, 27.936409) rotate(-26.000000) translate(-35.898468, -27.936409) "></path>
                    <path d="M60.0844904,70.1411325 C55.8436615,72.2759095 39.6507701,70.7445964 39.6507701,70.7445964 C39.6507701,70.7445964 48.0686451,56.8644306 52.3095,54.7485969 C55.0597226,53.3694834 58.3419857,53.5620305 60.9198923,55.2537074 C63.4977989,56.9453843 64.9797037,59.8791851 64.8073876,62.9499754 C64.6350714,66.0207657 62.8347132,68.7620193 60.0844904,70.1411325 Z" id="Path-Copy-125" fill="#6C63FF" transform="translate(52.235850, 62.555536) rotate(-26.000000) translate(-52.235850, -62.555536) "></path>
                    <path d="M68.9330094,104.627939 C65.1421585,107.445288 48.9088161,108.698572 48.9088161,108.698572 C48.9088161,108.698572 54.8521415,93.6089671 58.674615,90.7916616 C61.1451762,88.9688771 64.4056884,88.6031446 67.2279482,89.832232 C70.050208,91.0613194 72.005447,93.6984991 72.3571455,96.750371 C72.708844,99.8022429 71.4035707,102.805155 68.9330094,104.627939 Z" id="Path-Copy-126" fill="#6C63FF" transform="translate(60.661275, 98.906149) rotate(-26.000000) translate(-60.661275, -98.906149) "></path>
                    <path d="M14.6970039,47.957351 C18.1104705,51.2707727 34.0087423,54.7212616 34.0087423,54.7212616 C34.0087423,54.7212616 30.097491,38.929894 26.6777345,35.6417213 C24.4683529,33.4955727 21.2832348,32.68612 18.3221832,33.5182762 C15.3611317,34.3504324 13.074001,36.6977732 12.3223311,39.6760781 C11.5706612,42.6543829 12.4686487,45.8111764 14.6780303,47.957325 L14.6970039,47.957351 Z" id="Path-Copy-127" fill="#6C63FF" transform="translate(23.035026, 43.959007) rotate(-26.000000) translate(-23.035026, -43.959007) "></path>
                    <path d="M22.1529345,87.9413558 C26.3996375,90.0877534 42.5883875,88.6007753 42.5883875,88.6007753 C42.5883875,88.6007753 34.1323915,74.6975068 29.8857146,72.5700524 C25.6371048,70.4264902 20.4618746,72.1227055 18.3265144,76.3586553 C16.1911541,80.5946051 17.9042814,85.7662214 22.1528912,87.9097837 L22.1529345,87.9413558 Z" id="Path-Copy-128" fill="#6C63FF" transform="translate(29.998024, 80.372236) rotate(-26.000000) translate(-29.998024, -80.372236) "></path>
                    <path d="M36.930731,124.74051 C40.7293274,127.56825 56.96617,128.86599 56.96617,128.86599 C56.96617,128.86599 50.9814141,113.760054 47.151195,110.932271 C43.3242915,108.104022 37.9340445,108.902352 35.1117413,112.715392 C32.2894381,116.528432 33.1038275,121.912261 36.930731,124.74051 Z" id="Path-Copy-129" fill="#6C63FF" transform="translate(45.198388, 119.052912) rotate(-26.000000) translate(-45.198388, -119.052912) "></path>
                </g>
                <g id="Group-Copy-16" opacity="0.2" transform="translate(67.312195, 89.585366) scale(-1, 1) translate(-67.312195, -89.585366) translate(25.824390, 18.902439)">
                    <path d="M14.9103355,140.989835 C14.9103355,140.989835 17.9493848,100.657331 40.7675798,78.742304 C50.3972203,69.6122322 56.8022002,57.6080558 59.0208695,44.5320934 C60.01677,38.3160985 60.4406308,32.022046 60.2871401,25.7288107" id="Path" stroke="#535461" stroke-width="1.11132"></path>
                    <path d="M74.6086598,11.833482 C72.92452,16.2607601 59.9832351,26.1335904 59.9832351,26.1335904 C59.9832351,26.1335904 56.8175588,10.1890644 58.4890359,5.74281221 C60.1727015,1.2944436 65.1475002,-0.948228783 69.6005598,0.733663234 C74.0536194,2.41555525 76.2986568,7.38511338 74.6149911,11.833482 L74.6086598,11.833482 Z" id="Path" fill="#6C63FF"></path>
                    <path d="M78.6100747,41.5025702 C74.7796063,44.3233788 58.5523494,45.5630167 58.5523494,45.5630167 C58.5523494,45.5630167 64.5608031,30.4533489 68.3912715,27.6325402 C70.8703955,25.8090497 74.135047,25.4452786 76.9554634,26.6782561 C79.7758798,27.9112335 81.7235728,30.5536409 82.0648651,33.6101088 C82.4061574,36.6665768 81.0891988,39.6727551 78.6100747,41.4962455 L78.6100747,41.5025702 Z" id="Path" fill="#6C63FF"></path>
                    <path d="M62.0915756,83.3846213 C57.3557238,83.8842713 42.7239678,76.7753276 42.7239678,76.7753276 C42.7239678,76.7753276 55.5449569,66.7633543 60.2744774,66.2573796 C65.009022,65.7561304 69.2539001,69.1838513 69.755678,73.9134085 C70.2574558,78.6429657 66.8261203,82.8833721 62.0915756,83.3846213 Z" id="Path" fill="#6C63FF"></path>
                    <path d="M42.4517196,112.263124 C37.8678203,113.528061 22.2420419,109.018562 22.2420419,109.018562 C22.2420419,109.018562 33.1826193,97.001664 37.7665186,95.6924546 C40.7297052,94.8564055 43.9142997,95.6630403 46.1206961,97.8085074 C48.3270926,99.9539745 49.2200869,103.112326 48.4632967,106.093842 C47.7065065,109.075358 45.4149062,111.427075 42.4517196,112.263124 Z" id="Path" fill="#6C63FF"></path>
                    <path d="M41.2994134,40.0352437 C43.3191149,44.3423529 56.982174,53.1716104 56.982174,53.1716104 C56.982174,53.1716104 58.9258992,37.0310193 56.9061977,32.7239101 C55.5987765,29.9389634 52.9033513,28.0623327 49.8352628,27.8009266 C46.7671742,27.5395206 43.7925379,28.9330529 42.0318706,31.4565935 C40.2712033,33.980134 39.9919922,37.250297 41.2994134,40.0352437 Z" id="Path" fill="#6C63FF"></path>
                    <path d="M18.7534666,74.0999866 C21.9697937,77.603861 37.6525543,81.9489183 37.6525543,81.9489183 C37.6525543,81.9489183 34.6704872,65.9664442 31.45416,62.4625698 C28.2371873,58.9573182 22.7847512,58.7208749 19.2758032,61.9344588 C15.7668552,65.1480427 15.5301625,70.594735 18.7471352,74.0999866 L18.7534666,74.0999866 Z" id="Path" fill="#6C63FF"></path>
                    <path d="M1.39289759,110.207602 C3.96975812,114.204802 18.6964844,121.13033 18.6964844,121.13033 C18.6964844,121.13033 18.4622244,104.875894 15.8853638,100.891344 C13.3065404,96.8935761 7.97174226,95.7410918 3.96975836,98.3171984 C-0.0322255406,100.893305 -1.18592539,106.222483 1.39289759,110.220252 L1.39289759,110.207602 Z" id="Path" fill="#6C63FF"></path>
                </g>
                <g id="Group-20" transform="translate(94.000000, 17.000000)">
                    <rect id="Rectangle-Copy-2" fill="#FFFFFF" transform="translate(82.487805, 100.243902) scale(-1, 1) translate(-82.487805, -100.243902) " x="0.0243902439" y="0.87804878" width="164.926829" height="198.731707"></rect>
                    <g id="Group-Copy-2" opacity="0.2" transform="translate(83.000000, 21.878049) scale(-1, 1) translate(-83.000000, -21.878049) translate(13.341463, 17.268293)"></g>
                    <g id="Group-Copy-3" opacity="0.2" transform="translate(121.926829, 170.414634) scale(-1, 1) translate(-121.926829, -170.414634) translate(118.853659, 168.878049)" fill="#6C63FF">
                        <rect id="Rectangle" x="0.189734889" y="0.181596452" width="5.86574761" height="2.79379157"></rect>
                    </g>
                    <g id="Group-Copy-4" opacity="0.2" transform="translate(110.658537, 170.414634) scale(-1, 1) translate(-110.658537, -170.414634) translate(107.585366, 168.878049)" fill="#6C63FF">
                        <rect id="Rectangle" x="0.10154825" y="0.181596452" width="5.86574761" height="2.79379157"></rect>
                    </g>
                    <g id="Group-Copy-5" opacity="0.2" transform="translate(100.414634, 170.414634) scale(-1, 1) translate(-100.414634, -170.414634) translate(97.341463, 168.878049)" fill="#6C63FF">
                        <rect id="Rectangle" x="0.0139689579" y="0.181596452" width="6.13237251" height="2.79379157"></rect>
                    </g>
                    <g id="Group-Copy-6" opacity="0.2" transform="translate(89.146341, 170.414634) scale(-1, 1) translate(-89.146341, -170.414634) translate(86.073171, 168.878049)" fill="#6C63FF">
                        <rect id="Rectangle" x="0.189734889" y="0.181596452" width="5.86574761" height="2.79379157"></rect>
                    </g>
                    <g id="Group-Copy-7" opacity="0.2" transform="translate(77.878049, 170.414634) scale(-1, 1) translate(-77.878049, -170.414634) translate(74.804878, 168.878049)" fill="#6C63FF">
                        <rect id="Rectangle" x="0.10154825" y="0.181596452" width="5.86574761" height="2.79379157"></rect>
                    </g>
                    <g id="Group-Copy-8" opacity="0.2" transform="translate(66.609756, 170.414634) scale(-1, 1) translate(-66.609756, -170.414634) translate(63.536585, 168.878049)" fill="#6C63FF">
                        <rect id="Rectangle" x="0.0139689579" y="0.181596452" width="6.13237251" height="2.79379157"></rect>
                    </g>
                    <g id="Group-Copy-9" opacity="0.2" transform="translate(55.341463, 170.414634) scale(-1, 1) translate(-55.341463, -170.414634) translate(52.268293, 168.878049)" fill="#6C63FF">
                        <rect id="Rectangle" x="0.189734889" y="0.181596452" width="5.86574761" height="2.79379157"></rect>
                    </g>
                    <g id="Group-Copy-10" opacity="0.2" transform="translate(44.073171, 170.414634) scale(-1, 1) translate(-44.073171, -170.414634) translate(41.000000, 168.878049)" fill="#6C63FF">
                        <rect id="Rectangle" x="0.10154825" y="0.181596452" width="5.86574761" height="2.79379157"></rect>
                    </g>
                    <g id="Group-Copy-11" opacity="0.2" transform="translate(32.804878, 170.414634) scale(-1, 1) translate(-32.804878, -170.414634) translate(29.731707, 168.878049)" fill="#6C63FF">
                        <rect id="Rectangle" x="0.0133616119" y="0.181596452" width="5.86574761" height="2.79379157"></rect>
                    </g>
                    <rect id="Rectangle-Copy-3" fill="#6C63FF" transform="translate(121.926829, 157.609756) scale(-1, 1) translate(-121.926829, -157.609756) " x="118.853659" y="148.390244" width="6.14634146" height="18.4390244"></rect>
                    <rect id="Rectangle-Copy-4" fill="#6C63FF" transform="translate(110.658537, 153.512195) scale(-1, 1) translate(-110.658537, -153.512195) " x="107.585366" y="140.195122" width="6.14634146" height="26.6341463"></rect>
                    <rect id="Rectangle-Copy-5" fill="#6C63FF" transform="translate(99.390244, 149.414634) scale(-1, 1) translate(-99.390244, -149.414634) " x="96.3170732" y="133.02439" width="6.14634146" height="32.7804878"></rect>
                    <rect id="Rectangle-Copy-6" fill="#6C63FF" transform="translate(89.146341, 150.951220) scale(-1, 1) translate(-89.146341, -150.951220) " x="86.0731707" y="136.097561" width="6.14634146" height="29.7073171"></rect>
                    <rect id="Rectangle-Copy-7" fill="#6C63FF" transform="translate(77.878049, 147.878049) scale(-1, 1) translate(-77.878049, -147.878049) " x="74.804878" y="129.95122" width="6.14634146" height="35.8536585"></rect>
                    <g id="Group-Copy-12" opacity="0.2" transform="translate(66.609756, 154.536585) scale(-1, 1) translate(-66.609756, -154.536585) translate(63.536585, 143.268293)" fill="#6C63FF">
                        <rect id="Rectangle" x="0.0139689579" y="0.0924577861" width="6.13237251" height="22.3430019"></rect>
                    </g>
                    <g id="Group-Copy-13" opacity="0.2" transform="translate(55.341463, 154.536585) scale(-1, 1) translate(-55.341463, -154.536585) translate(52.268293, 143.268293)" fill="#6C63FF">
                        <rect id="Rectangle" x="0.189734889" y="0.0924577861" width="5.86574761" height="22.3430019"></rect>
                    </g>
                    <g id="Group-Copy-14" opacity="0.2" transform="translate(44.073171, 154.536585) scale(-1, 1) translate(-44.073171, -154.536585) translate(41.000000, 143.268293)" fill="#6C63FF">
                        <rect id="Rectangle" x="0.10154825" y="0.0924577861" width="5.86574761" height="22.3430019"></rect>
                    </g>
                    <g id="Group-Copy-15" opacity="0.2" transform="translate(32.804878, 154.536585) scale(-1, 1) translate(-32.804878, -154.536585) translate(29.731707, 143.268293)" fill="#6C63FF">
                        <rect id="Rectangle" x="0.0133616119" y="0.0924577861" width="5.86574761" height="22.3430019"></rect>
                    </g>
                    <rect id="Rectangle-Copy-8" fill="#DAD9FA" x="0.0243902439" y="0.87804878" width="164.926829" height="8.19512195"></rect>
                    <g id="Group-Copy-17" opacity="0.2" transform="translate(84.024390, 74.634146) scale(-1, 1) translate(-84.024390, -74.634146) translate(19.487805, 57.219512)"></g>
                    <polygon id="Path-Copy-27" fill="#DAD9FA" transform="translate(84.024390, 74.121951) scale(-1, 1) translate(-84.024390, -74.121951) " points="148.560976 91.0243902 19.4878049 91.0243902 19.4878049 71.6596625 31.3253501 77.4040606 43.5763337 79.0408748 54.325732 75.8492284 67.2944907 65.946361 73.8176298 62.2373796 78.5865269 61.33275 83.1487047 61.5730422 90.650889 65.2226573 100.851907 71.6200849 108.856534 72.6321393 115.201665 70.47799 128.655639 59.6309155 135.523311 57.2195122 142.709674 58.3135486 148.560976 61.6408895"></polygon>
                </g>
            </g>
        </g>
    </g>
</svg>