<?xml version="1.0" encoding="UTF-8"?>
<svg width="122px" height="140px" viewBox="0 0 122 140" version="1.1" xmlns="http://www.w3.org/2000/svg" xmlns:xlink="http://www.w3.org/1999/xlink">
    <!-- Generator: Sketch 52 (66869) - http://www.bohemiancoding.com/sketch -->
    <title>Group 31</title>
    <desc>Created with Sketch.</desc>
    <g id="Landing-page" stroke="none" stroke-width="1" fill="none" fill-rule="evenodd">
        <g id="landing-page_UI" transform="translate(-451.000000, -875.000000)">
            <g id="Group-31" transform="translate(442.000000, 875.000000)">
                <polygon id="Polygon-Copy-2" fill="#DAD9FA" fill-rule="nonzero" opacity="0.5" transform="translate(70.000000, 70.000000) rotate(-360.000000) translate(-70.000000, -70.000000) " points="70 0 130.621778 35 130.621778 105 70 140 9.37822174 105 9.37822174 35"></polygon>
                <g id="Group-11" transform="translate(33.000000, 26.000000)">
                    <g id="Group-28" fill="#797FF8">
                        <path d="M72.8946897,48.0068673 C71.4957499,43.0284103 66.8774911,39.551258 61.6639938,39.551258 L46.1205585,39.551258 L46.1205585,29.6938009 C46.1205585,24.4030392 41.7868599,20.0980392 36.4608283,20.0980392 L32.3334964,20.0980392 C30.8784506,20.0980392 29.6990978,21.2695822 29.6990978,22.7149923 L29.6990978,32.0490587 C29.6990978,36.3295548 28.0104386,40.6878869 24.9394457,44.3308009 L19.3043478,50.0149064 L23.0576403,53.6884103 L28.7656114,47.9309533 C28.8130112,47.8829064 28.8586376,47.8340587 28.9016844,47.7826486 C32.8139436,43.1802384 34.9680562,37.5928673 34.9680562,32.0490587 L34.9680562,25.3321056 L36.4609895,25.3321056 C38.8820889,25.3321056 40.8517613,27.2887345 40.8517613,29.6938009 L40.8517613,42.1682111 C40.8517613,43.6136212 42.0311142,44.7851642 43.4861599,44.7851642 L61.6639938,44.7851642 C64.5223324,44.7851642 67.0532252,46.689422 67.8391917,49.4809455 C68.0358849,50.1151642 68.0499114,50.872383 67.8620855,51.686297 L64.0718728,70.5158673 C63.9567589,71.1858009 63.6064194,73.2236291 59.3799347,73.2236291 L20.8288811,73.2236291 L20.8288811,73.9742259 L20.8288811,78.4576955 L59.3799347,78.4576955 C64.8912127,78.4576955 68.4942444,75.8833439 69.252158,71.4684767 L73.0123831,52.7873712 C73.3943225,51.1411252 73.3478901,49.4644494 72.8946897,48.0068673 Z" id="Path"></path>
                        <path d="M20.7396817,41.3489805 L2.73742066,41.3489805 C1.28237493,41.3489805 0.103022074,42.5205234 0.103022074,43.9659336 L0.103022074,79.3828867 C0.103022074,80.8282969 1.28237493,81.9998398 2.73742066,81.9998398 L20.7396817,81.9998398 C22.1939213,81.9998398 23.3740803,80.8282969 23.3740803,79.3828867 L23.3740803,43.9659336 C23.3740803,42.5205234 22.1947274,41.3489805 20.7396817,41.3489805 Z" id="Shape" fill-rule="nonzero"></path>
                        <path d="M37.863595,0 C36.4085492,0 35.2291964,1.17154297 35.2291964,2.61695313 L35.2291964,13.5211914 C35.2291964,14.9666016 36.4085492,16.1381445 37.863595,16.1381445 C39.3186407,16.1381445 40.4979935,14.9666016 40.4979935,13.5211914 L40.4979935,2.61695313 C40.4981548,1.17154297 39.3188019,0 37.863595,0 Z" id="Path"></path>
                        <path d="M23.0711406,13.0572188 L13.5869832,6.25298047 C12.4076304,5.40767578 10.7610507,5.67113281 9.90930478,6.84267578 C9.0575589,8.01421875 9.32357834,9.64989453 10.5029312,10.496 L19.9870885,17.3002383 C20.4533481,17.6343242 20.992642,17.7957617 21.5274217,17.7957617 C22.3449881,17.7957617 23.1503015,17.4189141 23.6649282,16.710543 C24.5165129,15.539 24.2504934,13.9033242 23.0711406,13.0572188 Z" id="Path"></path>
                        <path d="M64.9309924,6.83306641 C64.0756996,5.66584766 62.4273464,5.40767578 61.2505732,6.25986719 L51.8544441,13.0641055 C50.6786381,13.9154961 50.4203575,15.5519727 51.2783911,16.7201523 C51.7938239,17.4232383 52.5955904,17.7957617 53.4096098,17.7957617 C53.9469691,17.7957617 54.4906161,17.6325625 54.9586491,17.2933516 L64.3549394,10.4891133 C65.5307454,9.6375625 65.789026,8.00108594 64.9309924,6.83306641 Z" id="Path"></path>
                    </g>
                    <polygon id="Path" fill="#FFFFFF" points="18.1051219 76.7659336 5.37181924 76.7659336 5.37181924 46.5830469 18.1051219 46.5830469"></polygon>
                </g>
            </g>
        </g>
    </g>
</svg>