<?xml version="1.0" encoding="UTF-8"?>
<svg width="51px" height="51px" viewBox="0 0 51 51" version="1.1" xmlns="http://www.w3.org/2000/svg" xmlns:xlink="http://www.w3.org/1999/xlink">
    <!-- Generator: Sketch 52 (66869) - http://www.bohemiancoding.com/sketch -->
    <title>government</title>
    <desc>Created with Sketch.</desc>
    <g id="Landing-page" stroke="none" stroke-width="1" fill="none" fill-rule="evenodd">
        <g id="landing-page_UI" transform="translate(-171.000000, -1625.000000)">
            <g id="Group-38" transform="translate(171.000000, 1625.000000)">
                <g id="government">
                    <rect id="Rectangle" fill="#FFFFFF" x="1.14508103" y="26.5213945" width="48.7100395" height="23.3586973"></rect>
                    <rect id="Rectangle" fill="#FFFFFF" x="25.4642194" y="1.11960938" width="8.00125494" height="5.31794531"></rect>
                    <path d="M38.5661798,21.1487637 C37.6577549,14.8202813 32.1543913,9.95306836 25.5,9.95306836 C18.8456087,9.95306836 13.3423458,14.8202813 12.4338202,21.1487637 L38.5661798,21.1487637 Z" id="Path" fill="#FFFFFF"></path>
                    <rect id="Rectangle" fill="#FFFFFF" x="21.8062292" y="39.2486836" width="7.38723913" height="10.6314082"></rect>
                    <rect id="Rectangle" fill="#FFFFFF" x="6.28398617" y="30.4959082" width="6.40060079" height="4.81412109"></rect>
                    <path d="M12.6852925,36.4298379 L6.28438933,36.4298379 C5.65868182,36.4298379 5.15150395,35.9286035 5.15150395,35.3102285 L5.15150395,30.4961074 C5.15150395,29.8777324 5.65868182,29.376498 6.28438933,29.376498 L12.6852925,29.376498 C13.311,29.376498 13.8181779,29.8777324 13.8181779,30.4961074 L13.8181779,35.3102285 C13.8180771,35.9286035 13.3108992,36.4298379 12.6852925,36.4298379 Z M7.41717391,34.1907188 L11.5524071,34.1907188 L11.5524071,31.6157168 L7.41717391,31.6157168 L7.41717391,34.1907188 Z" id="Shape" fill="#4A4A4A" fill-rule="nonzero"></path>
                    <rect id="Rectangle" fill="#FFFFFF" x="6.28398617" y="40.4824453" width="6.40060079" height="4.81412109"></rect>
                    <path d="M12.6852925,46.4162754 L6.28438933,46.4162754 C5.65868182,46.4162754 5.15150395,45.915041 5.15150395,45.296666 L5.15150395,40.4825449 C5.15150395,39.8641699 5.65868182,39.3629355 6.28438933,39.3629355 L12.6852925,39.3629355 C13.311,39.3629355 13.8181779,39.8641699 13.8181779,40.4825449 L13.8181779,45.296666 C13.8180771,45.915041 13.3108992,46.4162754 12.6852925,46.4162754 Z M7.41717391,44.1771563 L11.5524071,44.1771563 L11.5524071,41.6021543 L7.41717391,41.6021543 L7.41717391,44.1771563 Z" id="Shape" fill="#4A4A4A" fill-rule="nonzero"></path>
                    <rect id="Rectangle" fill="#FFFFFF" x="22.2989941" y="30.4959082" width="6.40060079" height="4.81412109"></rect>
                    <path d="M28.7006028,36.4298379 L22.2995988,36.4298379 C21.6738913,36.4298379 21.1667134,35.9286035 21.1667134,35.3102285 L21.1667134,30.4961074 C21.1667134,29.8777324 21.6738913,29.376498 22.2995988,29.376498 L28.7006028,29.376498 C29.3263103,29.376498 29.8334881,29.8777324 29.8334881,30.4961074 L29.8334881,35.3102285 C29.8334881,35.9286035 29.3263103,36.4298379 28.7006028,36.4298379 Z M23.4324842,34.1907188 L27.5678182,34.1907188 L27.5678182,31.6157168 L23.4324842,31.6157168 L23.4324842,34.1907188 Z" id="Shape" fill="#4A4A4A" fill-rule="nonzero"></path>
                    <rect id="Rectangle" fill="#FFFFFF" x="38.3152115" y="30.4959082" width="6.40060079" height="4.81412109"></rect>
                    <path d="M44.7157115,36.4298379 L38.3148083,36.4298379 C37.6891008,36.4298379 37.1819229,35.9286035 37.1819229,35.3102285 L37.1819229,30.4961074 C37.1819229,29.8777324 37.6891008,29.376498 38.3148083,29.376498 L44.7157115,29.376498 C45.341419,29.376498 45.8485968,29.8777324 45.8485968,30.4961074 L45.8485968,35.3102285 C45.8485968,35.9286035 45.341419,36.4298379 44.7157115,36.4298379 Z M39.4476937,34.1907188 L43.5829269,34.1907188 L43.5829269,31.6157168 L39.4476937,31.6157168 L39.4476937,34.1907188 Z" id="Shape" fill="#4A4A4A" fill-rule="nonzero"></path>
                    <rect id="Rectangle" fill="#FFFFFF" x="38.3152115" y="40.4824453" width="6.40060079" height="4.81412109"></rect>
                    <path d="M44.7157115,46.4162754 L38.3148083,46.4162754 C37.6891008,46.4162754 37.1819229,45.915041 37.1819229,45.296666 L37.1819229,40.4825449 C37.1819229,39.8641699 37.6891008,39.3629355 38.3148083,39.3629355 L44.7157115,39.3629355 C45.341419,39.3629355 45.8485968,39.8641699 45.8485968,40.4825449 L45.8485968,45.296666 C45.8485968,45.915041 45.341419,46.4162754 44.7157115,46.4162754 Z M39.4476937,44.1771563 L43.5829269,44.1771563 L43.5829269,41.6021543 L39.4476937,41.6021543 L39.4476937,44.1771563 Z" id="Shape" fill="#4A4A4A" fill-rule="nonzero"></path>
                    <rect id="Rectangle" fill="#FFFFFF" x="4.76860079" y="21.1486641" width="41.4632016" height="5.3730293"></rect>
                    <path d="M49.8551206,25.4021836 L47.3643854,25.4021836 L47.3643854,21.1487637 C47.3643854,20.5303887 46.8572075,20.0291543 46.2315,20.0291543 L39.5146186,20.0291543 C38.8723814,17.0592012 37.2692075,14.3553047 34.9339921,12.3352266 C32.5996838,10.3159453 29.6735336,9.1087793 26.5973063,8.87579297 L26.5973063,7.55706445 L33.4654743,7.55706445 C34.0911818,7.55706445 34.5983597,7.05583008 34.5983597,6.43745508 L34.5983597,1.11960938 C34.5983597,0.501234375 34.0911818,0 33.4654743,0 L25.4644209,0 C24.8387134,0 24.3315356,0.501234375 24.3315356,1.11960938 L24.3315356,3.8812793 L24.3315356,6.43755469 L24.3315356,8.8814707 C21.2813123,9.12750586 18.3822747,10.3316836 16.0660079,12.3353262 C13.7307925,14.3554043 12.1275178,17.0592012 11.4853814,20.0292539 L4.76860079,20.0292539 C4.14289328,20.0292539 3.63571542,20.5304883 3.63571542,21.1488633 L3.63571542,25.4022832 L1.14498024,25.4022832 C0.519272727,25.4022832 0.0120948617,25.9035176 0.0120948617,26.5218926 L0.0120948617,49.8803906 C0.0120948617,50.4987656 0.519272727,51 1.14498024,51 L21.8062292,51 L29.1937708,51 L49.8550198,51 C50.4807273,51 50.9879051,50.4987656 50.9879051,49.8803906 L50.9879051,26.521793 C50.9879051,25.903418 50.4808281,25.4021836 49.8551206,25.4021836 Z M26.5974071,2.23911914 L32.3327905,2.23911914 L32.3327905,5.31794531 L26.5974071,5.31794531 L26.5974071,3.88117969 L26.5974071,2.23911914 Z M25.5001008,11.0726777 C31.0278557,11.0726777 35.838587,14.8419961 37.1878696,20.0292539 L13.8122312,20.0292539 C15.1617154,14.8419961 19.9724466,11.0726777 25.5001008,11.0726777 Z M5.90148617,22.2682734 L12.4339209,22.2682734 L38.5663814,22.2682734 L45.0988162,22.2682734 L45.0988162,25.4021836 L5.90148617,25.4021836 L5.90148617,22.2682734 Z M22.9392154,48.7608809 L22.9392154,40.3685918 L28.0609862,40.3685918 L28.0609862,48.7608809 L22.9392154,48.7608809 Z M48.7222352,48.7608809 L35.1293241,48.7608809 L35.1293241,34.469127 C35.1293241,33.850752 34.6221462,33.3495176 33.9964387,33.3495176 C33.3707312,33.3495176 32.8635534,33.850752 32.8635534,34.469127 L32.8635534,48.7608809 L30.3266561,48.7608809 L30.3266561,39.249082 C30.3266561,38.630707 29.8194783,38.1294727 29.1937708,38.1294727 L21.8062292,38.1294727 C21.1805217,38.1294727 20.6733439,38.630707 20.6733439,39.249082 L20.6733439,48.7608809 L18.1364466,48.7608809 L18.1364466,34.469127 C18.1364466,33.850752 17.6292688,33.3495176 17.0035613,33.3495176 C16.3778538,33.3495176 15.8706759,33.850752 15.8706759,34.469127 L15.8706759,48.7608809 L2.27786561,48.7608809 L2.27786561,27.6413027 L4.76860079,27.6413027 L46.2313992,27.6413027 L48.7222352,27.6413027 L48.7222352,48.7608809 Z" id="Shape" fill="#4A4A4A" fill-rule="nonzero"></path>
                </g>
            </g>
        </g>
    </g>
</svg>