<?xml version="1.0" encoding="UTF-8"?>
<svg width="122px" height="140px" viewBox="0 0 122 140" version="1.1" xmlns="http://www.w3.org/2000/svg" xmlns:xlink="http://www.w3.org/1999/xlink">
    <!-- Generator: Sketch 52 (66869) - http://www.bohemiancoding.com/sketch -->
    <title>Group 30</title>
    <desc>Created with Sketch.</desc>
    <g id="Landing-page" stroke="none" stroke-width="1" fill="none" fill-rule="evenodd">
        <g id="landing-page_UI" transform="translate(-125.000000, -875.000000)">
            <g id="Group-30" transform="translate(116.000000, 875.000000)">
                <polygon id="Polygon-Copy-3" fill="#DAD9FA" fill-rule="nonzero" opacity="0.5" transform="translate(70.000000, 70.000000) rotate(-360.000000) translate(-70.000000, -70.000000) " points="70 0 130.621778 35 130.621778 105 70 140 9.37822174 105 9.37822174 35"></polygon>
                <g id="Group-17" transform="translate(43.000000, 35.000000)">
                    <g id="Group-26">
                        <path d="M38.2834884,0 L1.83725581,0 C0.82255814,0 0,0.81875 0,2.4075 L0,68.75 C0,69.18125 0.82255814,70 1.83725581,70 L52.1627442,70 C53.1774419,70 54,69.18125 54,68.75 L54,16.2225 C54,15.3525 53.8832093,15.0725 53.6772558,14.86625 L39.0646047,0.32125 C38.8573953,0.11625 38.576093,0 38.2834884,0 Z" id="Path-Copy-4" fill="#D3D5F3"></path>
                        <polygon id="Path" stroke="#797FF8" stroke-width="3.6" fill="#FFFFFF" stroke-linecap="round" stroke-linejoin="round" points="38.9302326 0.18875 38.9302326 15 53.8103721 15"></polygon>
                        <g id="Group" transform="translate(9.418605, 17.500000)">
                            <ellipse id="Oval" fill="#FFFFFF" cx="14.4418605" cy="13.75" rx="12.5581395" ry="12.5"></ellipse>
                            <path d="M14.4418605,27.5 C6.82534884,27.5 0.627906977,21.33125 0.627906977,13.75 C0.627906977,6.16875 6.82534884,0 14.4418605,0 C22.0583721,0 28.255814,6.16875 28.255814,13.75 C28.255814,21.33125 22.0583721,27.5 14.4418605,27.5 Z M14.4418605,2.5 C8.20925581,2.5 3.13953488,7.54625 3.13953488,13.75 C3.13953488,19.95375 8.20925581,25 14.4418605,25 C20.6744651,25 25.744186,19.95375 25.744186,13.75 C25.744186,7.54625 20.6744651,2.5 14.4418605,2.5 Z" id="Shape" stroke="#797FF8" stroke-width="1.8" fill="#797FF8" fill-rule="nonzero"></path>
                        </g>
                        <path d="M45.2093023,56.25 C44.887814,56.25 44.5663256,56.1275 44.3214419,55.88375 L30.5074884,42.13375 C30.0164651,41.645 30.0164651,40.855 30.5074884,40.36625 C30.9985116,39.8775 31.792186,39.8775 32.2832093,40.36625 L46.0971628,54.11625 C46.588186,54.605 46.588186,55.395 46.0971628,55.88375 C45.8522791,56.1275 45.5307907,56.25 45.2093023,56.25 Z" id="Path" stroke="#797FF8" stroke-width="1.8" fill="#797FF8"></path>
                        <path d="M23.8604651,27.5 L16.3255814,27.5 C15.6311163,27.5 15.0697674,26.94125 15.0697674,26.25 C15.0697674,25.55875 15.6311163,25 16.3255814,25 L23.8604651,25 C24.5549302,25 25.1162791,25.55875 25.1162791,26.25 C25.1162791,26.94125 24.5549302,27.5 23.8604651,27.5 Z" id="Path" fill="#797FF8"></path>
                        <path d="M30.1395349,27.5 L27.627907,27.5 C26.9334419,27.5 26.372093,26.94125 26.372093,26.25 C26.372093,25.55875 26.9334419,25 27.627907,25 L30.1395349,25 C30.834,25 31.3953488,25.55875 31.3953488,26.25 C31.3953488,26.94125 30.834,27.5 30.1395349,27.5 Z" id="Path" fill="#797FF8"></path>
                        <path d="M22.6046512,37.5 L20.0930233,37.5 C19.3985581,37.5 18.8372093,36.94125 18.8372093,36.25 C18.8372093,35.55875 19.3985581,35 20.0930233,35 L22.6046512,35 C23.2991163,35 23.8604651,35.55875 23.8604651,36.25 C23.8604651,36.94125 23.2991163,37.5 22.6046512,37.5 Z" id="Path" fill="#797FF8"></path>
                        <path d="M30.1395349,37.5 L27.627907,37.5 C26.9334419,37.5 26.372093,36.94125 26.372093,36.25 C26.372093,35.55875 26.9334419,35 27.627907,35 L30.1395349,35 C30.834,35 31.3953488,35.55875 31.3953488,36.25 C31.3953488,36.94125 30.834,37.5 30.1395349,37.5 Z" id="Path" fill="#797FF8"></path>
                        <path d="M21.3488372,32.5 L16.3255814,32.5 C15.6311163,32.5 15.0697674,31.94125 15.0697674,31.25 C15.0697674,30.55875 15.6311163,30 16.3255814,30 L21.3488372,30 C22.0433023,30 22.6046512,30.55875 22.6046512,31.25 C22.6046512,31.94125 22.0433023,32.5 21.3488372,32.5 Z" id="Path" fill="#797FF8"></path>
                        <path d="M32.6511628,32.5 L26.372093,32.5 C25.6776279,32.5 25.1162791,31.94125 25.1162791,31.25 C25.1162791,30.55875 25.6776279,30 26.372093,30 L32.6511628,30 C33.3456279,30 33.9069767,30.55875 33.9069767,31.25 C33.9069767,31.94125 33.3456279,32.5 32.6511628,32.5 Z" id="Path" fill="#797FF8"></path>
                    </g>
                    <path d="M38.2834884,0 L1.83725581,0 C0.82255814,0 0,0.81875 0,2.4075 L0,68.75 C0,69.18125 0.82255814,70 1.83725581,70 L52.1627442,70 C53.1774419,70 54,69.18125 54,68.75 L54,16.2225 C54,15.3525 53.8832093,15.0725 53.6772558,14.86625 L39.0646047,0.32125 C38.8573953,0.11625 38.576093,0 38.2834884,0 Z" id="Path" stroke="#797FF8" stroke-width="4.5"></path>
                </g>
            </g>
        </g>
    </g>
</svg>