<?xml version="1.0" encoding="UTF-8"?>
<svg width="356px" height="263px" viewBox="0 0 356 263" version="1.1" xmlns="http://www.w3.org/2000/svg" xmlns:xlink="http://www.w3.org/1999/xlink">
    <!-- Generator: Sketch 52 (66869) - http://www.bohemiancoding.com/sketch -->
    <title>Group 14</title>
    <desc>Created with Sketch.</desc>
    <g id="Landing-page" stroke="none" stroke-width="1" fill="none" fill-rule="evenodd">
        <g id="landing-page_UI" transform="translate(-545.000000, -2068.000000)">
            <g id="Group-14" transform="translate(542.000000, 2065.000000)">
                <rect id="Rectangle" fill-rule="nonzero" x="0" y="0" width="360.099751" height="270"></rect>
                <g id="Group-13" transform="translate(0.000000, 2.700000)">
                    <path d="" id="Path-3" stroke="#979797" stroke-width="1.0395" fill-rule="nonzero"></path>
                    <path d="M79.9488463,16.4152235 C68.4942734,15.9916741 56.5289251,15.693838 46.1717355,20.6231941 C35.8145459,25.5525502 27.8069771,37.4956085 31.280334,48.476021 C32.4139533,52.0556553 34.6218471,55.1754378 36.4837322,58.4341681 C45.7931578,74.7311281 46.2249962,95.7953459 37.5946435,112.466021 C30.951348,125.299033 19.6912722,135.065179 11.5848436,147.02147 C3.47841498,158.977761 -1.12833947,175.549214 6.84644685,187.594945 C12.3068687,195.842681 22.4400395,199.855772 32.2568369,200.828495 C42.0736343,201.801217 51.9464344,200.269525 61.8060614,199.875902 C80.9921263,199.135893 100.09641,202.763182 117.688357,210.486154 C141.905819,221.145805 162.768688,239.381536 188.268008,246.418561 C191.329376,247.26221 194.529147,247.943752 197.659707,247.371431 C203.212332,246.355809 207.24908,241.747317 211.595595,238.108172 C225.472151,226.572082 244.683914,224.418488 262.696189,223.882665 C280.708463,223.346841 299.468784,223.760518 315.750958,215.995955 C329.966967,209.217263 340.910671,196.60594 347.715428,182.360267 C354.520184,168.114594 357.475983,152.284198 358.589693,136.519955 C359.248692,127.137501 359.225556,117.450675 355.880732,108.667003 C352.12069,98.7915748 344.495238,90.927591 336.497421,84.052799 C328.140411,76.8670202 319.032071,70.3561378 308.714362,66.4786873 C296.389792,61.8469204 283.010744,61.1851567 269.888729,60.0866936 C242.98056,57.8303255 216.281887,53.5257368 190.023,47.2100568 C165.100371,41.2283966 137.735897,34.6942258 115.037572,22.5094398 C103.64557,16.3922339 92.7907537,16.8784829 79.9488463,16.4152235 Z" id="Path-Copy-2" fill="#6C63FF" opacity="0.1" transform="translate(180.814190, 131.891348) scale(-1, 1) rotate(179.000000) translate(-180.814190, -131.891348) "></path>
                    <g id="Group-5" transform="translate(74.763766, 17.909274)" fill-rule="nonzero">
                        <rect id="Rectangle" fill="#FFFFFF" x="0" y="0" width="166.62821" height="228.694877"></rect>
                        <rect id="Rectangle" fill="#F8F8F8" x="24.742936" y="56.596207" width="117.142338" height="61.6013137"></rect>
                        <rect id="Rectangle-Copy-11" fill="#F8F8F8" x="24.742936" y="127.437718" width="117.142338" height="61.6013137"></rect>
                        <rect id="Rectangle-Copy-12" fill="#FFFFFF" x="24.742936" y="198.279228" width="117.142338" height="8.85518884"></rect>
                        <path d="M25.9027611,19.4429146 L140.676442,19.4429146" id="Path-2" stroke="#E0E0E0" stroke-width="1.5367968" stroke-linecap="round"></path>
                        <path d="M25.9027611,31.7631774 L140.676442,31.7631774" id="Path-2-Copy" stroke="#797FF8" stroke-width="1.5367968" stroke-linecap="round"></path>
                    </g>
                    <g id="Group" opacity="0.2" transform="translate(266.876983, 19.799274)">
                        <path d="M16.2417639,154.175654 C16.2417639,154.175654 19.5521871,110.071125 44.4079481,86.1065354 C54.8974739,76.1225902 61.8743907,62.9957449 64.2911776,48.6968768 C65.3760077,41.8995423 65.8377174,35.0168499 65.6705206,28.1350511" id="Path" stroke="#535461" stroke-width="1.37214"></path>
                        <path d="M81.27089,12.940187 C79.4363638,17.7815183 65.3394783,28.5776871 65.3394783,28.5776871 C65.3394783,28.5776871 61.8911208,11.1419782 63.7118535,6.27989832 C65.5458632,1.4155041 70.9648899,-1.03691016 75.8155884,0.802277759 C80.6662869,2.64146568 83.1117964,8.07579274 81.2777867,12.940187 L81.27089,12.940187 Z" id="Path" fill="#6C63FF"></path>
                        <path d="M85.6296139,45.3840229 C81.4571013,48.4686426 63.7808207,49.8242153 63.7808207,49.8242153 C63.7808207,49.8242153 70.3258032,33.3014432 74.4983158,30.2168235 C77.1988149,28.2227943 80.7549857,27.8250022 83.827253,29.1732917 C86.8995204,30.5215811 89.0211339,33.4111148 89.3929022,36.7534334 C89.7646704,40.095752 88.3301131,43.3830777 85.6296139,45.3771067 L85.6296139,45.3840229 Z" id="Path" fill="#6C63FF"></path>
                        <path d="M67.6360844,91.1830171 C62.4773415,91.7293959 46.5390331,83.955601 46.5390331,83.955601 C46.5390331,83.955601 60.504881,73.0072761 65.6567272,72.4539811 C70.8140462,71.9058534 75.4379735,75.6541457 75.9845579,80.8260262 C76.5311423,85.9979066 72.7934034,90.6348894 67.6360844,91.1830171 Z" id="Path" fill="#6C63FF"></path>
                        <path d="M46.2424743,122.76233 C41.2492526,124.145567 24.2281599,119.214325 24.2281599,119.214325 C24.2281599,119.214325 36.1456835,106.073569 41.1389052,104.641918 C44.3666915,103.727679 47.8356565,104.609753 50.2390746,106.955871 C52.6424927,109.301989 53.6152275,112.75572 52.7908592,116.016077 C51.9664909,119.276434 49.4702607,121.848091 46.2424743,122.76233 Z" id="Path" fill="#6C63FF"></path>
                        <path d="M44.9872722,43.7794674 C47.1873243,48.4893911 62.0704353,58.144389 62.0704353,58.144389 C62.0704353,58.144389 64.1877269,40.4942783 61.9876748,35.7843545 C60.5635065,32.7389508 57.6273915,30.6868116 54.2853359,30.400958 C50.9432804,30.1151043 47.7030219,31.6389642 45.7851346,34.3985144 C43.8672474,37.1580645 43.5631039,40.7340636 44.9872722,43.7794674 Z" id="Path" fill="#6C63FF"></path>
                        <path d="M20.4280699,81.0300537 C23.9316012,84.8616216 41.0147643,89.6130425 41.0147643,89.6130425 C41.0147643,89.6130425 37.7664115,72.1358365 34.2628803,68.3042685 C30.7586458,64.4711946 24.8193308,64.2126383 20.9970489,67.7267669 C17.1747671,71.2408954 16.9169387,77.1969798 20.4211732,81.0300537 L20.4280699,81.0300537 Z" id="Path" fill="#6C63FF"></path>
                        <path d="M1.51727731,120.514569 C4.32424033,124.885599 20.3659995,132.458825 20.3659995,132.458825 C20.3659995,132.458825 20.1108211,114.684222 17.303858,110.327024 C14.4947569,105.955372 8.68358432,104.695104 4.32424059,107.512136 C-0.0351031419,110.329169 -1.29182339,116.156749 1.51727731,120.528401 L1.51727731,120.514569 Z" id="Path" fill="#6C63FF"></path>
                    </g>
                    <g id="Group-2" transform="translate(38.843816, 119.024274)">
                        <path d="M46.1094337,147.778052 C46.1094337,147.778052 34.4191355,108.348445 48.18634,79.3647864 C54.0386902,67.2442639 55.7882342,53.5438158 53.1722942,40.3204364 C51.8801131,34.0530832 50.0158216,27.9152991 47.6027883,21.9840197" id="Path-Copy-122" stroke="#535461" stroke-width="1.2835746" stroke-linecap="round" transform="translate(47.916801, 84.881036) rotate(-26.000000) translate(-47.916801, -84.881036) "></path>
                        <path d="M22.9631335,11.6826449 C22.9705406,16.5135637 14.2326042,30.5046905 14.2326042,30.5046905 C14.2326042,30.5046905 5.45172245,16.4867669 5.44431536,11.6558481 C5.4369089,6.82534249 9.35406655,2.91544485 14.1935319,2.92284731 C19.0329972,2.93024977 22.962163,6.85214917 22.9695695,11.6826548 L22.9631335,11.6826449 Z" id="Path-Copy-123" fill="#6C63FF" transform="translate(14.206937, 16.713764) rotate(-26.000000) translate(-14.206937, -16.713764) "></path>
                        <path d="M44.6296304,29.6561305 C42.0035177,33.7057075 27.0376597,40.6850618 27.0376597,40.6850618 C27.0376597,40.6850618 27.282658,24.1755534 29.9087805,20.1324005 C32.5329028,16.0829148 37.9555508,14.9335557 42.0206039,17.5652351 C46.085657,20.1969144 47.2537624,25.6130688 44.6296402,29.6625546 L44.6296304,29.6561305 Z" id="Path-Copy-124" fill="#6C63FF" transform="translate(36.534362, 28.418466) rotate(-26.000000) translate(-36.534362, -28.418466) "></path>
                        <path d="M61.1489002,71.3554026 C56.8336769,73.5265648 40.3551382,71.9660043 40.3551382,71.9660043 C40.3551382,71.9660043 48.9191053,57.8461298 53.2343582,55.6942399 C56.0328273,54.2916225 59.3729712,54.488051 61.9965897,56.2095327 C64.6202083,57.9310144 66.1287115,60.9160153 65.9538608,64.0401143 C65.7790101,67.1642132 63.9473695,69.9527854 61.1489002,71.3554026 Z" id="Path-Copy-125" fill="#6C63FF" transform="translate(53.161351, 63.636968) rotate(-26.000000) translate(-53.161351, -63.636968) "></path>
                        <path d="M70.1533378,106.438456 C66.2961349,109.304119 49.7768879,110.576515 49.7768879,110.576515 C49.7768879,110.576515 55.822494,95.2257897 59.7118769,92.3601756 C62.225683,90.5061352 65.5436013,90.1345838 68.415804,91.3854813 C71.2880067,92.6363787 73.278138,95.3196838 73.6365345,98.4246215 C73.9949311,101.529559 72.667144,104.584416 70.1533378,106.438456 Z" id="Path-Copy-126" fill="#6C63FF" transform="translate(61.735585, 100.615223) rotate(-26.000000) translate(-61.735585, -100.615223) "></path>
                        <path d="M14.9587658,48.785076 C18.4329363,52.1566075 34.6119769,55.6696299 34.6119769,55.6696299 C34.6119769,55.6696299 30.6292064,39.6033402 27.1486392,36.2574952 C24.8999665,34.0737084 21.6585787,33.249675 18.6454754,34.0958005 C15.6323721,34.941926 13.3053152,37.3296638 12.5408847,40.3595761 C11.7764541,43.3894884 12.690785,46.6012596 14.9394578,48.7850464 L14.9587658,48.785076 Z" id="Path-Copy-127" fill="#6C63FF" transform="translate(23.443791, 44.719352) rotate(-26.000000) translate(-23.443791, -44.719352) "></path>
                        <path d="M22.5468605,89.4608503 C26.868762,91.6452239 43.3425925,90.1350675 43.3425925,90.1350675 C43.3425925,90.1350675 34.735286,75.9889278 30.413414,73.8238265 C26.0895725,71.6423372 20.8234074,73.3671673 18.651105,77.6763424 C16.4788026,81.9855175 18.2229697,87.2472406 22.5468112,89.4287299 L22.5468605,89.4608503 Z" id="Path-Copy-128" fill="#6C63FF" transform="translate(30.529640, 81.761360) rotate(-26.000000) translate(-30.529640, -81.761360) "></path>
                        <path d="M37.5864037,126.895909 C41.4524123,129.773386 57.9756387,131.096324 57.9756387,131.096324 C57.9756387,131.096324 51.8829306,115.727031 47.9847419,112.849505 C44.0899271,109.971506 38.6048086,110.782821 35.7333868,114.661628 C32.861965,118.540435 33.6915889,124.01791 37.5864037,126.895909 Z" id="Path-Copy-129" fill="#6C63FF" transform="translate(45.999547, 121.111578) rotate(-26.000000) translate(-45.999547, -121.111578) "></path>
                    </g>
                    <g id="Group-7" transform="translate(208.111416, 132.435737) rotate(14.000000) translate(-208.111416, -132.435737) translate(124.630226, 17.680898)" fill-rule="nonzero">
                        <rect id="Rectangle" fill="#FFFFFF" x="0" y="0" width="166.62821" height="228.694877"></rect>
                        <rect id="Rectangle" fill="#F8F8F8" x="25.9027611" y="94.3270116" width="114.822687" height="67.3764369"></rect>
                        <g id="Group-6" transform="translate(46.393005, 112.422398)">
                            <rect id="Rectangle" fill="#797FF8" x="0" y="0" width="13.5949515" height="34.650739"></rect>
                            <rect id="Rectangle-Copy-13" fill="#6C63FF" x="21.0103796" y="23.5130014" width="13.5949515" height="11.1377375"></rect>
                            <rect id="Rectangle-Copy-14" fill="#797FF8" x="42.3297354" y="4.95010557" width="13.5949515" height="29.7006334"></rect>
                            <rect id="Rectangle-Copy-15" fill="#797FF8" x="63.3401151" y="7.73453995" width="13.5949515" height="26.916199"></rect>
                        </g>
                        <path d="M25.9027611,19.4429146 L140.676442,19.4429146" id="Path-2" stroke="#E0E0E0" stroke-width="1.5367968" stroke-linecap="round"></path>
                        <path d="M25.9027611,31.7631774 L81.6296004,31.7631774" id="Path-2-Copy" stroke="#797FF8" stroke-width="1.5367968" stroke-linecap="round"></path>
                        <path d="M25.9027611,44.0834401 L140.676442,44.0834401" id="Path-2-Copy-3" stroke="#E0E0E0" stroke-width="1.5367968" stroke-linecap="round"></path>
                        <path d="M25.9027611,68.7239656 L140.676442,68.7239656" id="Path-2-Copy-4" stroke="#E0E0E0" stroke-width="1.5367968" stroke-linecap="round"></path>
                        <path d="M25.9027611,81.0442283 L140.676442,81.0442283" id="Path-2-Copy-5" stroke="#E0E0E0" stroke-width="1.5367968" stroke-linecap="round"></path>
                        <path d="M25.9027611,177.296281 L140.676442,177.296281" id="Path-2-Copy-7" stroke="#E0E0E0" stroke-width="1.5367968" stroke-linecap="round"></path>
                        <path d="M25.9027611,189.616544 L140.676442,189.616544" id="Path-2-Copy-6" stroke="#E0E0E0" stroke-width="1.5367968" stroke-linecap="round"></path>
                        <path d="M25.9027611,56.4037029 L64.7694586,56.4037029" id="Path-2-Copy-2" stroke="#3AD29F" stroke-width="1.5367968" stroke-linecap="round"></path>
                        <path d="M25.9027611,201.936806 L64.7694586,201.936806" id="Path-2-Copy-8" stroke="#3AD29F" stroke-width="1.5367968" stroke-linecap="round"></path>
                    </g>
                </g>
            </g>
        </g>
    </g>
</svg>