<?xml version="1.0" encoding="UTF-8"?>
<svg width="51px" height="43px" viewBox="0 0 51 43" version="1.1" xmlns="http://www.w3.org/2000/svg" xmlns:xlink="http://www.w3.org/1999/xlink">
    <!-- Generator: Sketch 52 (66869) - http://www.bohemiancoding.com/sketch -->
    <title>respect 2</title>
    <desc>Created with Sketch.</desc>
    <g id="Landing-page" stroke="none" stroke-width="1" fill="none" fill-rule="evenodd">
        <g id="landing-page_UI" transform="translate(-580.000000, -1633.000000)" fill="#FFFFFF" stroke="#4A4A4A" stroke-width="2">
            <g id="Group-37" transform="translate(522.000000, 1575.000000)">
                <g id="Group-39" transform="translate(58.000000, 59.000000)">
                    <g id="respect-2">
                        <g id="respect">
                            <g id="Group" transform="translate(0.996094, 0.009390)">
                                <path d="M4.57784766,25.2268685 L4.20251953,24.8465305 C-1.40060742,19.1686127 -1.40060742,9.96287793 4.20251953,4.28496009 C9.80564648,-1.39295775 18.8901211,-1.39295775 24.493248,4.28496009 L24.5115762,4.30353286 L24.5304023,4.32261033 L30.5672285,12.9135258 L41.7956953,24.29177 C42.8726719,25.3831221 42.8726719,27.1525822 41.7956953,28.2439343 C40.7187188,29.3352864 38.9725664,29.3352864 37.8955898,28.2439343 L33.7491504,24.0421479 L37.8955898,28.2439343 C38.9725664,29.3352864 38.9725664,31.1047465 37.8955898,32.1961995 C36.8186133,33.2875516 35.0724609,33.2875516 33.9954844,32.1961995 L29.8490449,27.9944131 L33.9954844,32.1961995 C35.0724609,33.2875516 35.0724609,35.0570117 33.9954844,36.1483638 C32.9185078,37.239716 31.1723555,37.239716 30.0953789,36.1483638 L25.9489395,31.9465775 L25.9136777,31.9823099 L30.0601172,36.1840962 C31.1370938,37.2754484 31.1370938,39.0449085 30.0601172,40.1362606 C28.9831406,41.2276127 27.2369883,41.2276127 26.1599121,40.1362606 L23.8057441,37.750669 L4.57784766,25.2268685 Z" id="Path"></path>
                                <path d="M34.2044648,10.3385728 L33.3909551,11.1629413 C32.2884785,12.2801338 30.7931426,12.9078732 29.233957,12.9078732 L25.3097461,12.9078732 L22.3055273,15.9521925 C21.022957,17.2518826 18.9434121,17.2518826 17.6608418,15.9521925 C16.3782715,14.6525023 16.3782715,12.5451995 17.6608418,11.2455094 L24.5193457,4.29545775 C30.1224727,-1.38246009 39.2069473,-1.38246009 44.8100742,4.29545775 C50.4132012,9.97337559 50.4132012,19.1791103 44.8100742,24.8570282 L42.87825,26.8146385 L42.4053047,25.2269695 L30.6633516,13.328385" id="Path"></path>
                                <path d="M19.294834,33.9497113 L17.5780664,35.6893944 C16.5010898,36.7807465 16.5010898,38.5502066 17.5780664,39.6415587 C18.655043,40.7329108 20.4011953,40.7329108 21.4781719,39.6415587 L23.1949395,37.9018756 C24.271916,36.8105235 24.271916,35.0410634 23.1949395,33.9497113 C22.1180625,32.8583592 20.3719102,32.8583592 19.294834,33.9497113 Z" id="Path"></path>
                                <path d="M15.3947285,29.9976479 L13.6779609,31.737331 C12.6009844,32.8286831 12.6009844,34.5981432 13.6779609,35.6895962 C14.7549375,36.7809484 16.5010898,36.7809484 17.5780664,35.6895962 L19.294834,33.9499131 C20.3718105,32.858561 20.3718105,31.0891009 19.294834,29.9977488 C18.2178574,28.9062958 16.4717051,28.9062958 15.3947285,29.9976479 Z" id="Path"></path>
                                <path d="M11.494623,26.0453826 L9.77785547,27.7850657 C8.70087891,28.8764178 8.70087891,30.6458779 9.77785547,31.73723 C10.854832,32.8285822 12.6009844,32.8285822 13.6779609,31.73723 L15.3947285,29.9975469 C16.4717051,28.9061948 16.4717051,27.1367347 15.3947285,26.0453826 C14.317752,24.9540305 12.5715996,24.9540305 11.494623,26.0453826 Z" id="Path"></path>
                                <path d="M7.59451758,22.0932183 L5.87775,23.8329014 C4.80077344,24.9242535 4.80077344,26.6937136 5.87775,27.7850657 C6.95472656,28.8764178 8.70087891,28.8764178 9.77785547,27.7850657 L11.494623,26.0453826 C12.5715996,24.9540305 12.5715996,23.1845704 11.494623,22.0931174 C10.4176465,21.0017653 8.67149414,21.0017653 7.59451758,22.0932183 Z" id="Path"></path>
                            </g>
                        </g>
                    </g>
                </g>
            </g>
        </g>
    </g>
</svg>