<?xml version="1.0" encoding="UTF-8"?>
<svg width="122px" height="140px" viewBox="0 0 122 140" version="1.1" xmlns="http://www.w3.org/2000/svg" xmlns:xlink="http://www.w3.org/1999/xlink">
    <!-- Generator: Sketch 52 (66869) - http://www.bohemiancoding.com/sketch -->
    <title>Group 32</title>
    <desc>Created with Sketch.</desc>
    <g id="Landing-page" stroke="none" stroke-width="1" fill="none" fill-rule="evenodd">
        <g id="landing-page_UI" transform="translate(-777.000000, -875.000000)">
            <g id="Group-32" transform="translate(768.000000, 875.000000)">
                <polygon id="Polygon-Copy" fill="#DAD9FA" fill-rule="nonzero" opacity="0.5" transform="translate(70.000000, 70.000000) rotate(-360.000000) translate(-70.000000, -70.000000) " points="70 0 130.621778 35 130.621778 105 70 140 9.37822174 105 9.37822174 35"></polygon>
                <path d="" id="Path-11" stroke="#979797" fill-rule="nonzero"></path>
                <g id="Group-29" transform="translate(20.000000, 20.000000)">
                    <g id="Group-27">
                        <path d="M67.6609235,24.9448276 C69.9248298,22.6990421 73.5901836,22.698659 75.8544761,24.9448276 C78.1183824,27.1904215 78.1187686,30.8266284 75.8544761,33.0726054 C73.5963633,35.3128352 69.9205813,35.3128352 67.6613098,33.0729885 C65.4028107,30.8312261 65.4026176,27.1848659 67.6609235,24.9448276 Z" id="Shape" fill="#D3D5F3" fill-rule="nonzero"></path>
                        <path d="M78.5855315,35.7819923 C82.3586444,32.0390805 82.3594168,25.9791188 78.5855315,22.2356322 C74.8120325,18.4925287 68.7033671,18.4923372 64.929675,22.2356322 C61.1660249,25.9691571 61.1658317,32.0457854 64.9302543,35.7823755 C68.6952562,39.5149425 74.8209159,39.5164751 78.5855315,35.7819923 Z M67.6609235,24.9448276 C69.9248298,22.6990421 73.5901836,22.698659 75.8544761,24.9448276 C78.1183824,27.1904215 78.1187686,30.8266284 75.8544761,33.0726054 C73.5963633,35.3128352 69.9205813,35.3128352 67.6613098,33.0729885 C65.4028107,30.8312261 65.4026176,27.1848659 67.6609235,24.9448276 Z" id="Shape-Copy" fill="#797FF8" fill-rule="nonzero"></path>
                        <path d="M21.8596444,47.0323755 C22.0985296,47.1306513 22.3495813,47.1783525 22.5983155,47.1783525 C23.1009981,47.1783525 23.5947973,46.9835249 23.9642294,46.6172414 C27.8425908,42.7699234 32.626283,43.0105364 34.1889828,43.2143678 L34.8652772,43.885249 C33.5343174,47.0270115 32.4621338,50.1511494 31.6757629,53.1896552 C31.3918815,54.289272 31.4876673,55.4528736 31.9096272,56.5172414 C30.0503002,57.3672414 28.2564398,58.6153257 26.6945124,60.164751 C21.7234971,65.0961686 20.7140765,77.1141762 20.673522,77.6233716 C20.6291052,78.1821839 20.8334226,78.7323755 21.2329809,79.1287356 C21.5966195,79.489272 22.0884876,79.6898467 22.5983155,79.6898467 C22.648912,79.6898467 22.6997017,79.687931 22.7504914,79.683908 C23.2637954,79.6438697 35.3791606,78.6425287 40.3501759,73.7113027 C41.9115239,72.1624521 43.1694857,70.3831418 44.0263442,68.5390805 C45.1622562,68.9821839 46.3313843,69.0367816 47.3827113,68.7695402 C50.4443824,67.9896552 53.5933423,66.9264368 56.7608413,65.6059387 L57.4371358,66.2768199 C57.6424187,67.8272031 57.8849732,72.5726054 54.006805,76.4195402 C53.4546845,76.967433 53.2893767,77.7913793 53.5883212,78.5070881 C53.8870727,79.2229885 54.5911759,79.6896552 55.3723327,79.6896552 C63.0158891,79.6896552 73.7019981,75.1741379 77.6377151,67.8789272 C79.3469904,64.7109195 80.5107113,59.6990421 76.7993958,53.4444444 C78.372717,52.1252874 79.8881033,50.745977 81.3175526,49.3279693 C87.6942639,43.0022989 92.7002333,34.8139847 96.1968031,24.9909962 C100.565101,12.7308429 100.982813,2.41743295 100.998455,1.98448276 C101.017767,1.45287356 100.813256,0.937356322 100.434168,0.561111111 C100.054887,0.185057471 99.5373346,-0.0187739464 98.9993117,0.00134099617 C98.562675,0.0168582375 88.1662409,0.431417625 75.8077419,4.76455939 C65.9047208,8.23314176 57.6503365,13.1992337 51.2738184,19.5249042 C49.8449484,20.9423372 48.4545086,22.4454023 47.1241281,24.0068966 C40.8192562,20.3252874 35.7669388,21.4796935 32.5729828,23.1752874 C25.2189082,27.0795019 20.666956,37.6802682 20.666956,45.2626437 C20.6675354,46.0373563 21.1381606,46.7360153 21.8596444,47.0323755 Z M46.4233078,65.058046 C45.8644283,65.2 45.2171013,64.9915709 44.7358547,64.5149425 C35.3617801,55.216092 47.3950707,67.1530651 35.9660421,55.8153257 C35.4844092,55.33659 35.2742983,54.694636 35.4170115,54.1411877 C36.0355641,51.7515326 36.8445296,49.2998084 37.8282658,46.8245211 L53.7980459,62.6664751 C51.3023996,63.6425287 48.8312792,64.4448276 46.4233078,65.058046 Z M74.2328757,66.0710728 C71.7026616,70.7605364 65.33213,74.2172414 59.5266577,75.4070881 C61.3776807,71.9517241 61.7857361,67.5530651 61.1094417,64.8858238 C60.9524379,64.2662835 60.5449618,63.9547893 60.522174,63.9181992 C65.2019694,61.6697318 69.6338031,58.9722222 73.7479598,55.8693487 C75.7577247,59.5118774 75.9232256,62.9377395 74.2328757,66.0710728 Z M93.5285105,20.8021073 L80.0304302,7.41206897 C87.3845048,5.14616858 93.7822658,4.29770115 96.9756424,3.99272031 C96.6680076,7.16111111 95.812501,13.5076628 93.5285105,20.8021073 Z M54.0056463,22.2340996 C59.7267266,16.5586207 67.110348,12.0417625 75.9574073,8.79042146 L92.1390363,24.8425287 C88.861847,33.6185824 84.308543,40.9431034 78.5868834,46.6187739 C76.8467094,48.3448276 74.9728987,50.0124521 73.0173996,51.5750958 C68.3165545,55.3298851 63.1425736,58.5103448 57.6225277,61.0421456 L39.4657017,43.0310345 C42.0179312,37.5547893 45.2240535,32.4222222 49.0087533,27.7595785 C50.5853576,25.8183908 52.2662447,23.959387 54.0056463,22.2340996 Z M34.3961969,26.5532567 C37.555392,24.8762452 41.0085105,25.040613 44.680044,27.0342912 C41.5521338,31.1151341 38.8328585,35.5116858 36.5662486,40.1544061 C36.5374742,40.1367816 36.1898642,39.7032567 35.5440822,39.5588123 C35.2785468,39.4992337 30.1688738,38.4090038 24.9846577,41.1421456 C26.1842983,35.3829502 29.6687017,29.0632184 34.3961969,26.5532567 Z" id="Shape" stroke="#797FF8" stroke-width="0.8" fill="#797FF8" fill-rule="nonzero"></path>
                        <path d="M30.0336922,83.5630268 L16.9519713,96.5381226 C16.1976577,97.2862069 16.1976577,98.4992337 16.9517782,99.247318 C17.7055124,99.9954023 18.9285201,99.9957854 19.6828337,99.2475096 L32.7645545,86.2724138 C33.5188681,85.5243295 33.5188681,84.3113027 32.7647476,83.5632184 C32.0110134,82.8151341 30.7880057,82.8151341 30.0336922,83.5630268 Z" id="Path" stroke="#797FF8" stroke-width="0.8" fill="#797FF8"></path>
                        <path d="M14.5843614,83.5630268 L1.50264054,96.5381226 C0.74832696,97.2862069 0.74832696,98.4992337 1.50244742,99.247318 C2.25618164,99.9954023 3.47918929,99.9957854 4.23350287,99.2475096 L17.3152237,86.2724138 C18.0695373,85.5243295 18.0695373,84.3113027 17.3154168,83.5632184 C16.5614895,82.8151341 15.3384818,82.8151341 14.5843614,83.5630268 Z" id="Path" stroke="#797FF8" stroke-width="0.8" fill="#797FF8"></path>
                        <path d="M3.29708031,82.9925287 L16.37687,70.0155172 C17.1309904,69.2672414 17.1309904,68.0544061 16.3766769,67.3061303 C15.6227495,66.5582375 14.3997419,66.5582375 13.6456214,67.3063218 L0.56583174,80.2833333 C-0.188288719,81.0316092 -0.188288719,82.2444444 0.566024857,82.9927203 C1.32014532,83.7408046 2.54295985,83.7408046 3.29708031,82.9925287 Z" id="Path" stroke="#797FF8" stroke-width="0.8" fill="#797FF8"></path>
                    </g>
                    <path d="M37.6191205,71.0019157 C34.9637667,73.6360153 28.7347897,75.0252874 24.7977208,75.5925287 C25.3697323,71.6867816 26.7704073,65.5078544 29.4255679,62.8739464 C30.912566,61.3988506 32.6367113,60.2804598 34.36974,59.6505747 L40.868501,66.097318 C40.2335335,67.8164751 39.1063117,69.5268199 37.6191205,71.0019157 Z" id="Path" fill="#FFFFFF"></path>
                </g>
            </g>
        </g>
    </g>
</svg>