<?xml version="1.0" encoding="UTF-8"?>
<svg width="359px" height="234px" viewBox="0 0 359 234" version="1.1" xmlns="http://www.w3.org/2000/svg" xmlns:xlink="http://www.w3.org/1999/xlink">
    <!-- Generator: Sketch 52 (66869) - http://www.bohemiancoding.com/sketch -->
    <title>Group 15</title>
    <desc>Created with Sketch.</desc>
    <g id="Landing-page" stroke="none" stroke-width="1" fill="none" fill-rule="evenodd">
        <g id="landing-page_UI" transform="translate(-107.000000, -1631.000000)">
            <g id="Group-15" transform="translate(106.000000, 1613.000000)">
                <rect id="Rectangle-Copy-21" fill-rule="nonzero" x="0" y="0" width="360" height="270"></rect>
                <path d="M79.2817337,19.1159971 C67.7926544,18.6910322 55.7912599,18.3922287 45.4028317,23.3390862 C35.0144036,28.2859438 26.9826248,40.2712832 30.4663675,51.2904914 C31.6033765,54.8827731 33.8178999,58.0135696 35.6853711,61.2838076 C45.022727,77.6383178 45.4557159,98.7770037 36.7992433,115.506678 C30.1358417,128.385108 18.8417726,138.185862 10.7108361,150.184482 C2.57989962,162.183101 -2.04085209,178.813175 5.95787404,190.901435 C11.4346878,199.178292 21.5983584,203.205498 31.4447241,204.18159 C41.2910899,205.157681 51.193645,203.620503 61.0829792,203.225419 C80.3268517,202.482656 99.4886653,206.122632 117.133557,213.872782 C141.423903,224.569947 162.349496,242.87 187.925588,249.931722 C190.996174,250.778332 194.20558,251.46226 197.345576,250.887893 C202.914937,249.868641 206.963879,245.243827 211.323515,241.591785 C225.241959,230.01481 244.511618,227.853465 262.578162,227.315619 C280.644706,226.777773 299.461544,227.192777 315.792828,219.400647 C330.051714,212.597888 341.028478,199.9419 347.853837,185.645814 C354.679197,171.349728 357.644014,155.463343 358.761191,139.643359 C359.422243,130.22773 359.399106,120.506656 356.044268,111.691954 C352.272968,101.781639 344.624599,93.8899069 336.602737,86.9908666 C328.2206,79.7797427 319.084865,73.2459067 308.7361,69.3548215 C296.374433,64.7067674 282.955082,64.0427597 269.793542,62.9405069 C242.804322,60.676354 216.025243,56.3567375 189.687291,50.0189166 C164.689619,44.0162867 137.242751,37.4592105 114.476129,25.2315082 C103.049849,19.0927568 92.162327,19.5808025 79.2817337,19.1159971 Z" id="Path-Copy" fill="#6C63FF" opacity="0.1" transform="translate(180.450000, 135.000000) scale(-1, 1) translate(-180.450000, -135.000000) "></path>
                <g id="Group-2" transform="translate(53.100000, 115.200000)">
                    <path d="M39.7968657,127.622846 C39.7968657,127.622846 29.7094641,93.5741665 41.5994735,68.5427795 C46.6538124,58.0750233 48.1661924,46.2434573 45.909544,34.8244808 C44.7948033,29.4123497 43.1861103,24.1121903 41.1036296,18.9904388" id="Path-Copy-122" stroke="#535461" stroke-width="1.11132" stroke-linecap="round" transform="translate(41.366279, 73.306642) rotate(-26.000000) translate(-41.366279, -73.306642) "></path>
                    <path d="M19.8250011,10.0884133 C19.8307252,14.2602583 12.2848414,26.3438166 12.2848414,26.3438166 C12.2848414,26.3438166 4.70577004,14.2395501 4.70004595,10.0677051 C4.69432235,5.89621687 8.07676287,2.5191949 12.2549383,2.52491541 C16.4331137,2.53063592 19.8248341,5.91693268 19.8305577,10.0884209 L19.8250011,10.0884133 Z" id="Path-Copy-123" fill="#6C63FF" transform="translate(12.265298, 14.434362) rotate(-26.000000) translate(-12.265298, -14.434362) "></path>
                    <path d="M38.5288962,25.6112092 C36.2610664,29.108675 23.3392491,35.1379281 23.3392491,35.1379281 C23.3392491,35.1379281 23.5530623,20.8807454 25.8208997,17.3888272 C28.0870111,13.8914405 32.7688408,12.8981331 36.2780592,15.1702131 C39.7872776,17.4422932 40.7950151,22.1193701 38.5289038,25.6167569 L38.5288962,25.6112092 Z" id="Path-Copy-124" fill="#6C63FF" transform="translate(31.539368, 24.544130) rotate(-26.000000) translate(-31.539368, -24.544130) "></path>
                    <path d="M52.7885166,61.623995 C49.0626455,63.4995491 34.8360338,62.1541811 34.8360338,62.1541811 C34.8360338,62.1541811 42.2317382,49.959464 45.9576321,48.100553 C48.3738992,46.8889033 51.2576017,47.0580696 53.5224768,48.5443286 C55.7873519,50.0305877 57.0893111,52.6081412 56.9379191,55.3060498 C56.786527,58.0039584 55.2047837,60.4123455 52.7885166,61.623995 Z" id="Path-Copy-125" fill="#6C63FF" transform="translate(45.892925, 54.959506) rotate(-26.000000) translate(-45.892925, -54.959506) "></path>
                    <path d="M60.5625726,91.9231181 C57.2320393,94.3983603 42.9698885,95.4994599 42.9698885,95.4994599 C42.9698885,95.4994599 48.1915243,82.242164 51.5498403,79.7669598 C53.7204048,78.1655134 56.5849977,77.8441913 59.0645545,78.9240324 C61.5441113,80.0038735 63.2619284,82.3208242 63.5709207,85.0021117 C63.879913,87.6833991 62.7331371,90.3216719 60.5625726,91.9231181 Z" id="Path-Copy-126" fill="#6C63FF" transform="translate(53.295263, 86.896117) rotate(-26.000000) translate(-53.295263, -86.896117) "></path>
                    <path d="M12.9123677,42.1339583 C15.9113419,45.045036 29.8791093,48.076537 29.8791093,48.076537 C29.8791093,48.076537 26.4427957,34.2026926 23.4382953,31.313798 C21.4971958,29.4282532 18.698842,28.7170912 16.0973467,29.4481998 C13.4958514,30.1793085 11.4864437,32.2416151 10.8260481,34.8582686 C10.1656524,37.4749221 10.9545985,40.2483907 12.895698,42.1339355 L12.9123677,42.1339583 Z" id="Path-Copy-127" fill="#6C63FF" transform="translate(20.237915, 38.621128) rotate(-26.000000) translate(-20.237915, -38.621128) "></path>
                    <path d="M19.4629353,77.2627626 C23.1939672,79.1485262 37.4169405,77.8421097 37.4169405,77.8421097 C37.4169405,77.8421097 29.987744,65.6270953 26.256735,63.7579746 C22.5240278,61.8747021 17.9772184,63.3649484 16.1011519,67.0865329 C14.2250854,70.8081173 15.7301901,75.3517517 19.4628973,77.2350242 L19.4629353,77.2627626 Z" id="Path-Copy-128" fill="#6C63FF" transform="translate(26.355407, 70.612750) rotate(-26.000000) translate(-26.355407, -70.612750) "></path>
                    <path d="M32.4462851,109.593448 C35.7836233,112.07782 50.0488493,113.217977 50.0488493,113.217977 C50.0488493,113.217977 44.7908138,99.946333 41.4256928,97.4619235 C38.0634847,94.9771047 33.3277677,95.6784953 30.8481727,99.0285233 C28.3685777,102.378551 29.084077,107.108629 32.4462851,109.593448 Z" id="Path-Copy-129" fill="#6C63FF" transform="translate(39.710012, 104.596487) rotate(-26.000000) translate(-39.710012, -104.596487) "></path>
                </g>
                <g id="Group" opacity="0.2" transform="translate(227.700000, 36.900000)">
                    <path d="M13.0430769,124.155444 C13.0430769,124.155444 15.7015385,88.6386996 35.6621538,69.3403587 C44.0858504,61.3004308 49.6887186,50.7295704 51.6295385,39.2148969 C52.5007199,33.7411008 52.8714995,28.1985673 52.7372308,22.6567534" id="Path" stroke="#535461" stroke-width="1.11132"></path>
                    <path d="M65.2652308,10.4205471 C63.792,14.3192018 52.4713846,23.0132018 52.4713846,23.0132018 C52.4713846,23.0132018 49.7021538,8.97247534 51.1643077,5.05711211 C52.6371237,1.13988516 56.9889159,-0.835008892 60.8843077,0.64606278 C64.7796995,2.12713445 66.7435852,6.50332014 65.2707692,10.4205471 L65.2652308,10.4205471 Z" id="Path" fill="#6C63FF"></path>
                    <path d="M68.7655385,36.5471031 C65.4147692,39.0311031 51.2196923,40.1227265 51.2196923,40.1227265 C51.2196923,40.1227265 56.4756923,26.8171749 59.8264615,24.3331749 C61.9951186,22.7274118 64.8509297,22.4070755 67.3181383,23.4928336 C69.7853469,24.5785918 71.4891254,26.9054919 71.7876769,29.5970131 C72.0862283,32.2885343 70.9341956,34.9357706 68.7655385,36.5415336 L68.7655385,36.5471031 Z" id="Path" fill="#6C63FF"></path>
                    <path d="M54.3156923,73.4283767 C50.1729231,73.8683677 37.3735385,67.6082422 37.3735385,67.6082422 C37.3735385,67.6082422 48.5889231,58.791713 52.7261538,58.3461525 C56.8677797,57.9047531 60.5810611,60.9231991 61.02,65.0880404 C61.4589389,69.2528816 58.4573181,72.9869773 54.3156923,73.4283767 Z" id="Path" fill="#6C63FF"></path>
                    <path d="M37.1353846,98.8587444 C33.1255385,99.9726457 19.4566154,96.0015874 19.4566154,96.0015874 C19.4566154,96.0015874 29.0270769,85.4195247 33.0369231,84.2666368 C35.6290224,83.5304132 38.4148021,84.2407346 40.3448861,86.1300298 C42.27497,88.019325 43.0561323,90.8005651 42.3941169,93.4260838 C41.7321014,96.0516025 39.727484,98.122521 37.1353846,98.8587444 Z" id="Path" fill="#6C63FF"></path>
                    <path d="M36.1273846,35.2549776 C37.8941538,39.0478117 49.8461538,46.822843 49.8461538,46.822843 C49.8461538,46.822843 51.5464615,32.6094619 49.7796923,28.8166278 C48.6360027,26.3642078 46.2781324,24.7116495 43.5942682,24.4814557 C40.9104041,24.2512619 38.3082889,25.4784044 36.7681144,27.7006306 C35.2279398,29.9228568 34.983695,32.8025576 36.1273846,35.2549776 Z" id="Path" fill="#6C63FF"></path>
                    <path d="M16.4049231,65.2523408 C19.2184615,68.3378475 32.9372308,72.1640987 32.9372308,72.1640987 C32.9372308,72.1640987 30.3286154,58.0899552 27.5150769,55.0044484 C24.7009737,51.917729 19.9313598,51.7095173 16.8618462,54.5393946 C13.7923325,57.369272 13.5852814,62.1656213 16.3993846,65.2523408 L16.4049231,65.2523408 Z" id="Path" fill="#6C63FF"></path>
                    <path d="M1.21846154,97.0486547 C3.47261538,100.568583 16.3550769,106.667193 16.3550769,106.667193 C16.3550769,106.667193 16.1501538,92.3535605 13.896,88.8447713 C11.6401291,85.3243426 6.97342105,84.3094667 3.4726156,86.5779824 C-0.0281898556,88.8464981 -1.03740898,93.5393648 1.21846154,97.0597937 L1.21846154,97.0486547 Z" id="Path" fill="#6C63FF"></path>
                </g>
                <rect id="Rectangle" fill="#FFFFFF" fill-rule="nonzero" x="81" y="24.3" width="184.5" height="190.8"></rect>
                <rect id="Rectangle" fill="#DAD9FA" fill-rule="nonzero" x="81" y="24.3" width="184.5" height="13.5"></rect>
                <rect id="Rectangle-Copy-30" fill="#DAD9FA" fill-rule="nonzero" x="114.3" y="51.3" width="118.8" height="13.5"></rect>
                <rect id="Rectangle" fill="#DAD9FA" fill-rule="nonzero" x="114.3" y="77.4" width="118.8" height="82.8"></rect>
                <rect id="Rectangle-Copy-31" fill="#6C63FF" fill-rule="nonzero" x="184.5" y="88.2" width="66.6" height="82.8"></rect>
                <path d="M190.8,127.35 L243.9,127.35" id="Path-2" stroke="#FFFFFF" stroke-width="1.2446784" stroke-linecap="round" fill-rule="nonzero"></path>
                <path d="M190.8,133.65 L243.9,133.65" id="Path-2-Copy" stroke="#FFFFFF" stroke-width="1.2446784" stroke-linecap="round" fill-rule="nonzero"></path>
                <path d="M190.8,140.85 L243.9,140.85" id="Path-2-Copy-10" stroke="#FFFFFF" stroke-width="1.2446784" stroke-linecap="round" fill-rule="nonzero"></path>
                <path d="M190.8,147.15 L243.9,147.15" id="Path-2-Copy-9" stroke="#FFFFFF" stroke-width="1.2446784" stroke-linecap="round" fill-rule="nonzero"></path>
                <path d="M190.8,154.35 L243.9,154.35" id="Path-2-Copy-14" stroke="#FFFFFF" stroke-width="1.2446784" stroke-linecap="round" fill-rule="nonzero"></path>
                <path d="M190.8,160.65 L243.9,160.65" id="Path-2-Copy-13" stroke="#FFFFFF" stroke-width="1.2446784" stroke-linecap="round" fill-rule="nonzero"></path>
                <rect id="Rectangle" fill="#FFFFFF" fill-rule="nonzero" x="190.8" y="99" width="51.3" height="16.2"></rect>
            </g>
        </g>
    </g>
</svg>