<?xml version="1.0" encoding="UTF-8" standalone="no"?>
<svg width="284px" height="222px" viewBox="0 0 284 222" version="1.1" xmlns="http://www.w3.org/2000/svg" xmlns:xlink="http://www.w3.org/1999/xlink">
    <!-- Generator: Sketch 3.6.1 (26313) - http://www.bohemiancoding.com/sketch -->
    <title>Group 2</title>
    <desc>Created with Sketch.</desc>
    <defs></defs>
    <g id="404" stroke="none" stroke-width="1" fill="none" fill-rule="evenodd">
        <g transform="translate(-371.000000, -248.000000)" id="Group-2">
            <g transform="translate(371.000000, 248.000000)">
                <path d="M154.871103,174.612594 C156.178295,157.484563 143.06585,139.617431 127.018324,136.293057 C127.018324,136.293057 136.054944,132.864055 146.353504,135.069513 C156.580447,137.259968 168.924395,143.997946 174.967696,162.736443 C174.967696,162.736443 182.339437,188.248847 160.160074,204.306129 C139.995406,218.904555 119.627302,206.778089 119.627302,206.778089 C137.470741,207.741052 153.460816,193.092879 154.871103,174.612594 M57.6919263,195.696709 C61.2066265,192.828745 64.8728223,190.95533 68.1703131,190.372182 C88.1205255,186.843291 94.5191529,196.669543 100.663189,203.423708 C113.018548,217.004687 124.227262,220.027025 136.702244,220.032158 C161.680933,220.042818 182.477948,197.898219 181.10583,172.894737 C179.820674,149.467372 162.244419,131.503115 138.383256,129.286996 C137.778847,129.230932 137.271238,129.252252 136.670765,129.2258 C129.265576,128.901258 124.460998,130.483298 118.079291,132.552148 C116.243636,133.14714 115.073381,133.83373 114.20651,134.056803 C113.158632,134.326464 112.584523,134.046143 112.217785,133.763058 C111.883314,133.504846 110.836617,131.912542 112.03599,130.716241 C115.124929,127.635469 116.206254,127.349226 119.921636,124.474155 C121.27408,123.427885 122.507688,122.560073 122.848061,121.28007 C123.069599,120.447792 123.026314,119.321769 121.961123,118.315771 C120.665736,117.092227 118.802929,117.675769 116.317219,118.941953 C115.096203,119.563793 113.728414,120.269334 112.22959,121.276517 C103.726943,126.989546 95.7936842,135.640421 91.61319,145.856753 C91.3735513,146.443059 94.0772576,136.731306 94.4298294,135.61002 C96.0297814,130.525543 102.926967,116.477494 114.008976,108.038636 C124.117083,99.3080075 140.496326,92.2012684 158.010802,93.3647996 C195.306682,95.8422877 219.490511,125.760869 218.854622,160.15038 C218.686206,169.250954 213.822998,195.941102 191.13209,210.779578 L225.247347,195.26991 C231.161582,192.581588 236,185.051604 236,178.537093 L236,92.1609969 C236,85.6464861 231.161582,78.1165013 225.247347,75.4281799 L151.752653,42.0162411 C145.838812,39.3279196 136.161582,39.3279196 130.247347,42.0162411 L56.752653,75.4281799 C50.8388119,78.1165013 46,85.6464861 46,92.1609969 L46,178.537093 C46,185.051604 50.8388119,192.581588 56.752653,195.26991 L57.6919263,195.696709 Z" id="Fill-1" stroke="#00A8FF" stroke-width="2"></path>
                <text id="404" font-family="OpenSans, Open Sans" font-size="16" font-weight="normal" fill="#00A8FF">
                    <tspan x="128.777344" y="74">404</tspan>
                </text>
                <polygon id="Star-1" stroke="#00A8FF" points="34.5 64.25 30.0916106 66.5676275 30.9335381 61.6588137 27.3670761 58.1823725 32.2958053 57.4661863 34.5 53 36.7041947 57.4661863 41.6329239 58.1823725 38.0664619 61.6588137 38.9083894 66.5676275 "></polygon>
                <polygon id="Star-1-Copy" stroke="#00A8FF" points="254.5 126.25 250.091611 128.567627 250.933538 123.658814 247.367076 120.182373 252.295805 119.466186 254.5 115 256.704195 119.466186 261.632924 120.182373 258.066462 123.658814 258.908389 128.567627 "></polygon>
                <rect id="Path" stroke="#00A8FF" x="141" y="0" width="2" height="22" rx="1"></rect>
                <rect id="Path" stroke="#00A8FF" transform="translate(246.765419, 61.452367) rotate(51.000000) translate(-246.765419, -61.452367) " x="245.765419" y="50.4523666" width="2" height="22" rx="1"></rect>
                <rect id="Path" stroke="#00A8FF" transform="translate(272.640340, 174.817805) rotate(103.000000) translate(-272.640340, -174.817805) " x="271.64034" y="163.817805" width="2" height="22" rx="1"></rect>
                <rect id="Path" stroke="#00A8FF" transform="translate(11.359660, 174.817805) rotate(257.000000) translate(-11.359660, -174.817805) " x="10.3596598" y="163.817805" width="2" height="22" rx="1"></rect>
            </g>
        </g>
    </g>
</svg>