<?xml version="1.0" encoding="UTF-8" standalone="no"?>
<svg width="67px" height="46px" viewBox="0 0 67 46" version="1.1" xmlns="http://www.w3.org/2000/svg" xmlns:xlink="http://www.w3.org/1999/xlink">
    <!-- Generator: Sketch 40.3 (33839) - http://www.bohemiancoding.com/sketch -->
    <title>Group</title>
    <desc>Created with Sketch.</desc>
    <defs></defs>
    <g id="Page-1" stroke="none" stroke-width="1" fill="none" fill-rule="evenodd">
        <g id="Group">
            <g id="ic-action-sprite" transform="translate(0.000000, 3.000000)">
                <g id="Activity-detail">
                    <g id="AidStream---activity-detail">
                        <g id="Group-2">
                            <g id="1461161079_Pen" fill="#546E7A">
                                <g id="Layer_1">
                                    <path d="M9.63398438,1.25 L8.75023437,0.36609375 C8.50609375,0.122109375 8.1859375,0 7.86617188,0 C7.54640625,0 7.22648437,0.122109375 6.98234375,0.36609375 L1.6159375,5.73242188 C1.37210937,5.9765625 0.6253125,6.92078125 0.625,7.240625 L0,10 L2.75882812,9.375 C2.75882812,9.375 4.02351563,8.62789062 4.26765625,8.38375 L9.6340625,3.01757812 C10.1220313,2.52929688 10.1220313,1.73773437 9.63398438,1.25 L9.63398438,1.25 L9.63398438,1.25 Z M0.828515625,9.17171875 L1.234375,7.37851562 C1.24015625,7.35289062 1.24445312,7.32664062 1.246875,7.30101562 C1.248125,7.29734375 1.25148437,7.291875 1.25296875,7.28820312 L2.66625,8.70179687 C2.61898438,8.73046875 2.57132812,8.75914062 2.52460937,8.78726562 L0.828515625,9.17171875 L0.828515625,9.17171875 L0.828515625,9.17171875 Z M3.826875,7.94070313 C3.75609375,8.0078125 3.51132812,8.17328125 3.21226562,8.36367188 L1.59304687,6.744375 C1.7590625,6.51671875 1.94398437,6.2878125 2.0578125,6.17429688 L6.09859375,2.13382812 L7.86617187,3.90140625 L3.826875,7.94070313 L3.826875,7.94070313 L3.826875,7.94070313 Z M9.19210938,2.57570313 L8.30804688,3.45953125 L6.54046875,1.69195312 L7.42453125,0.808125 C7.54234375,0.689765625 7.69921875,0.625 7.86617188,0.625 C8.033125,0.625 8.19023437,0.6903125 8.30835938,0.808125 L9.1921875,1.69195312 C9.3103125,1.80976563 9.375,1.96664063 9.375,2.13382812 C9.37492188,2.30046875 9.30992188,2.45789063 9.19210938,2.57570313 L9.19210938,2.57570313 L9.19210938,2.57570313 Z" id="Shape"></path>
                                </g>
                            </g>
                            <g id="1461161296_Cancel" transform="translate(19.000000, 1.000000)" fill="#8A9CA4">
                                <g id="Layer_1">
                                    <path d="M5.47304687,4 L7.68255208,1.79049479 C8.08945312,1.38359375 8.08945312,0.7234375 7.68255208,0.31744792 C7.27669271,-0.089453125 6.61640625,-0.089453125 6.20950521,0.31744792 L4,2.52708333 L1.79049479,0.31757812 C1.38359375,-0.089322917 0.7234375,-0.089322917 0.31744792,0.31757812 C-0.089453125,0.7234375 -0.089453125,1.38372396 0.31744792,1.790625 L2.52708333,4 L0.31757812,6.20950521 C-0.089322917,6.61640625 -0.089322917,7.2765625 0.31757812,7.68255208 C0.7234375,8.08945312 1.38372396,8.08945312 1.790625,7.68255208 L4,5.47304687 L6.20950521,7.68255208 C6.61640625,8.08945312 7.2765625,8.08945312 7.68255208,7.68255208 C8.08945312,7.27669271 8.08945312,6.61640625 7.68255208,6.20950521 L5.47304687,4 L5.47304687,4 L5.47304687,4 Z" id="Shape"></path>
                                </g>
                            </g>
                            <g id="1461161079_Pen" transform="translate(0.000000, 20.000000)" fill="#00A8FF">
                                <g id="Layer_1">
                                    <path d="M9.63398438,1.25 L8.75023437,0.36609375 C8.50609375,0.122109375 8.1859375,0 7.86617188,0 C7.54640625,0 7.22648437,0.122109375 6.98234375,0.36609375 L1.6159375,5.73242188 C1.37210937,5.9765625 0.6253125,6.92078125 0.625,7.240625 L0,10 L2.75882812,9.375 C2.75882812,9.375 4.02351563,8.62789062 4.26765625,8.38375 L9.6340625,3.01757812 C10.1220313,2.52929688 10.1220313,1.73773437 9.63398438,1.25 L9.63398438,1.25 L9.63398438,1.25 Z M0.828515625,9.17171875 L1.234375,7.37851562 C1.24015625,7.35289062 1.24445312,7.32664062 1.246875,7.30101562 C1.248125,7.29734375 1.25148437,7.291875 1.25296875,7.28820312 L2.66625,8.70179687 C2.61898438,8.73046875 2.57132812,8.75914062 2.52460937,8.78726562 L0.828515625,9.17171875 L0.828515625,9.17171875 L0.828515625,9.17171875 Z M3.826875,7.94070313 C3.75609375,8.0078125 3.51132812,8.17328125 3.21226562,8.36367188 L1.59304687,6.744375 C1.7590625,6.51671875 1.94398437,6.2878125 2.0578125,6.17429688 L6.09859375,2.13382812 L7.86617187,3.90140625 L3.826875,7.94070313 L3.826875,7.94070313 L3.826875,7.94070313 Z M9.19210938,2.57570313 L8.30804688,3.45953125 L6.54046875,1.69195312 L7.42453125,0.808125 C7.54234375,0.689765625 7.69921875,0.625 7.86617188,0.625 C8.033125,0.625 8.19023437,0.6903125 8.30835938,0.808125 L9.1921875,1.69195312 C9.3103125,1.80976563 9.375,1.96664063 9.375,2.13382812 C9.37492188,2.30046875 9.30992188,2.45789063 9.19210938,2.57570313 L9.19210938,2.57570313 L9.19210938,2.57570313 Z" id="Shape"></path>
                                </g>
                            </g>
                            <g id="1461161296_Cancel" transform="translate(19.000000, 21.000000)" fill="#00A8FF">
                                <g id="Layer_1">
                                    <path d="M5.47304687,4 L7.68255208,1.79049479 C8.08945312,1.38359375 8.08945312,0.7234375 7.68255208,0.317447917 C7.27669271,-0.089453125 6.61640625,-0.089453125 6.20950521,0.317447917 L4,2.52708333 L1.79049479,0.317578125 C1.38359375,-0.0893229167 0.7234375,-0.0893229167 0.317447917,0.317578125 C-0.089453125,0.7234375 -0.089453125,1.38372396 0.317447917,1.790625 L2.52708333,4 L0.317578125,6.20950521 C-0.0893229167,6.61640625 -0.0893229167,7.2765625 0.317578125,7.68255208 C0.7234375,8.08945312 1.38372396,8.08945312 1.790625,7.68255208 L4,5.47304687 L6.20950521,7.68255208 C6.61640625,8.08945312 7.2765625,8.08945312 7.68255208,7.68255208 C8.08945312,7.27669271 8.08945312,6.61640625 7.68255208,6.20950521 L5.47304687,4 L5.47304687,4 L5.47304687,4 Z" id="Shape"></path>
                                </g>
                            </g>
                        </g>
                    </g>
                </g>
            </g>
            <g id="Group-2" transform="translate(49.000000, 0.000000)">
                <rect id="Rectangle-542-Copy-2" fill="#59A334" x="0" y="0" width="18" height="18" rx="9"></rect>
                <polyline id="Path-63" stroke="#FFFFFF" stroke-width="2" points="5 9.15406928 7.87770501 11.379356 13 6"></polyline>
            </g>
            <rect id="Rectangle-542-Copy-2" fill="#E15454" x="49" y="28" width="18" height="18" rx="9"></rect>
            <rect id="Rectangle-1" fill="#FFFFFF" transform="translate(58.498846, 37.028846) rotate(-45.000000) translate(-58.498846, -37.028846) " x="53.4038462" y="36.0192308" width="10.1899996" height="2.01923077"></rect>
            <rect id="Rectangle-1" fill="#FFFFFF" transform="translate(58.498846, 37.028846) rotate(-315.000000) translate(-58.498846, -37.028846) " x="53.4038462" y="36.0192308" width="10.1899996" height="2.01923077"></rect>
        </g>
    </g>
</svg>