<?xml version="1.0" encoding="UTF-8" standalone="no"?>
<svg width="41px" height="12px" viewBox="0 0 41 12" version="1.1" xmlns="http://www.w3.org/2000/svg" xmlns:xlink="http://www.w3.org/1999/xlink">
    <!-- Generator: Sketch 3.8.2 (29753) - http://www.bohemiancoding.com/sketch -->
    <title>Group</title>
    <desc>Created with Sketch.</desc>
    <defs>
        <path d="M11.5607473,1.4999956 L10.5002504,0.439311211 C10.2072826,0.14653082 9.82309618,0 9.43937857,0 C9.05566093,0 8.6717558,0.14653082 8.37878792,0.439311211 L1.93911931,6.87888608 C1.64652641,7.17185396 0.750372799,8.30491314 0.7499978,8.68872451 L0,11.9999648 L3.31058403,11.249967 C3.31058403,11.249967 4.82820459,10.3534384 5.12117248,10.0604705 L11.5608411,3.62108312 C12.1464019,3.03514735 12.1464019,2.08527513 11.5607473,1.4999956 L11.5607473,1.4999956 L11.5607473,1.4999956 Z M0.994215833,11.0060302 L1.48124565,8.85419277 C1.48818313,8.82344286 1.49333936,8.79194295 1.49624561,8.76119304 C1.49774561,8.75678681 1.50177684,8.75022433 1.50355809,8.74581809 L3.19949061,10.4421256 C3.14277204,10.4765318 3.08558469,10.5109379 3.02952236,10.5446878 L0.994215833,11.0060302 L0.994215833,11.0060302 L0.994215833,11.0060302 Z M4.59223653,9.5288158 C4.50729928,9.60934681 4.21358138,9.80790873 3.85470744,10.0363768 L1.91165064,8.09322626 C2.11086881,7.82003956 2.3327744,7.54535287 2.46936776,7.40913452 L7.31829103,2.56058623 L9.43937855,4.68167377 L4.59223653,9.5288158 L4.59223653,9.5288158 L4.59223653,9.5288158 Z M11.0304989,3.09083469 L9.96962701,4.15142532 L7.84853948,2.03033779 L8.90941136,0.969747155 C9.05078595,0.827716322 9.2390354,0.7499978 9.43937857,0.7499978 C9.63972172,0.7499978 9.82825241,0.82837257 9.97000201,0.969747155 L11.0305926,2.03033779 C11.1723422,2.17171239 11.249967,2.35996183 11.249967,2.56058623 C11.2498733,2.7605544 11.1718735,2.9494601 11.0304989,3.09083469 L11.0304989,3.09083469 L11.0304989,3.09083469 Z" id="path-1"></path>
        <mask id="mask-2" maskContentUnits="userSpaceOnUse" maskUnits="objectBoundingBox" x="0" y="0" width="12" height="11.9999648" fill="white">
            <use xlink:href="#path-1"></use>
        </mask>
    </defs>
    <g id="Page-1" stroke="none" stroke-width="1" fill="none" fill-rule="evenodd">
        <g id="Group" fill="#FFFFFF">
            <path d="M37.8469752,6 L40.6173563,3.22961886 C41.1275479,2.71942728 41.1275479,1.89169245 40.6173563,1.38264369 C40.1084708,0.872452102 39.2805727,0.872452102 38.7703811,1.38264369 L36,4.15318808 L33.2296189,1.38280694 C32.7194273,0.872615363 31.8916924,0.872615363 31.3826437,1.38280694 C30.8724521,1.89169245 30.8724521,2.71959054 31.3826437,3.22978213 L34.1531881,6 L31.3828069,8.77038114 C30.8726154,9.28057273 30.8726154,10.1083076 31.3828069,10.6173563 C31.8916924,11.1275479 32.7195905,11.1275479 33.2297821,10.6173563 L36,7.84697517 L38.7703811,10.6173563 C39.2805727,11.1275479 40.1083076,11.1275479 40.6173563,10.6173563 C41.1275479,10.1084708 41.1275479,9.28057273 40.6173563,8.77038114 L37.8469752,6 L37.8469752,6 L37.8469752,6 Z" id="Shape-Copy-3"></path>
            <use id="Shape-Copy-4" stroke="#FFFFFF" mask="url(#mask-2)" stroke-width="6" xlink:href="#path-1"></use>
        </g>
    </g>
</svg>