<?xml version="1.0" encoding="UTF-8" standalone="no"?>
<svg width="19px" height="30px" viewBox="0 0 19 30" version="1.1" xmlns="http://www.w3.org/2000/svg" xmlns:xlink="http://www.w3.org/1999/xlink">
    <!-- Generator: Sketch 3.8.3 (29802) - http://www.bohemiancoding.com/sketch -->
    <title>Group 2</title>
    <desc>Created with Sketch.</desc>
    <defs></defs>
    <g id="Page-1" stroke="none" stroke-width="1" fill="none" fill-rule="evenodd">
        <g id="Group-2" transform="translate(0.000000, -1.000000)">
            <g id="Group" fill="#000000">
                <path d="M5.56847366,7.76319685 C6.30997934,7.76332086 6.90423746,7.62951454 7.35720708,7.34761015 L7.22406104,7.38535569 L9.45273672,7.3933926 C8.81713032,8.56754601 7.55695987,9.12316361 5.56868683,9.12316361 C2.62974152,9.12305323 1.25198637,7.91808515 1.25198637,5.18790285 C1.25208853,2.45753859 2.62983755,1.25253257 5.56855269,1.25275714 C7.73887246,1.25264347 8.90925992,1.6226512 9.45273672,3.02835313 L9.45273633,2.98147874 L7.22465285,2.99056492 L7.3578353,3.02835315 C6.90500749,2.74633466 6.3105624,2.61248896 5.5686426,2.61260887 C3.73195699,2.6124804 2.78140916,3.44378117 2.78152663,5.18769345 C2.78140916,6.93184652 3.73181634,7.76332102 5.56847366,7.76319685 Z" id="Path"></path>
                <path d="M14.5684737,7.76319685 C15.3099793,7.76332086 15.9042375,7.62951454 16.3572071,7.34761015 L16.224061,7.38535569 L18.4527367,7.3933926 C17.8171303,8.56754601 16.5569599,9.12316361 14.5686868,9.12316361 C11.6297415,9.12305323 10.2519864,7.91808515 10.2519864,5.18790285 C10.2520885,2.45753859 11.6298376,1.25253257 14.5685527,1.25275714 C16.7388725,1.25264347 17.9092599,1.6226512 18.4527367,3.02835313 L18.4527363,2.98147874 L16.2246528,2.99056492 L16.3578353,3.02835315 C15.9050075,2.74633466 15.3105624,2.61248896 14.5686426,2.61260887 C12.731957,2.6124804 11.7814092,3.44378117 11.7815266,5.18769345 C11.7814092,6.93184652 12.7318163,7.76332102 14.5684737,7.76319685 Z" id="Path" transform="translate(14.352541, 5.187960) scale(-1, 1) translate(-14.352541, -5.187960) "></path>
                <path d="M13.0692646,4.28002088 L6.93284065,4.2800829 C6.77574521,4.32292166 6.63281892,4.37981043 6.50776992,4.44955788 C6.103951,4.67479233 5.96068726,4.98814897 5.9608023,5.18804248 C5.9608023,5.50014577 6.26532595,5.91423305 6.93284065,6.09612612 L13.0690422,6.09606409 C13.2261376,6.05322534 13.3690677,5.99621038 13.4941129,5.92646506 C13.8978168,5.70129478 14.0413068,5.387936 14.041418,5.18804248 C14.0411956,4.8759392 13.7365607,4.46191394 13.0692646,4.28002088 L13.0692646,4.28002088 Z" id="Shape"></path>
            </g>
            <g id="unlinked" transform="translate(0.000000, 20.000000)" fill="#231F20">
                <g id="Layer_1">
                    <g id="Group" transform="translate(0.000000, 2.256787)">
                        <path d="M7.80024624,0.937647724 C7.79390517,0.942028547 7.15970187,1.38409336 6.5407326,2.04305629 C5.57598189,3.07010314 5.40763431,3.79872305 5.43630444,4.22910567 C5.45463166,4.50447165 5.55593407,4.756606 5.74599206,4.99997871 C5.98223545,5.3024451 6.35446378,5.58615551 6.85237281,5.84322065 C7.13582621,5.98957047 7.24466829,6.33360727 7.09547924,6.61166622 C6.99164428,6.805181 6.79019943,6.91572565 6.58175621,6.91572565 C6.49070004,6.91572565 6.39830993,6.89463701 6.31212556,6.85014606 C5.66456349,6.51581914 5.16429589,6.12615351 4.82524217,5.69199694 C4.49595136,5.27037596 4.31211844,4.80312616 4.27882784,4.30325725 C4.21564917,3.35436352 4.68968254,2.33448529 5.68772385,1.27197465 C6.38916565,0.525224581 7.10114367,0.0289589433 7.13110908,0.00819270695 L7.80024624,0.937647724 L7.80024624,0.937647724 Z" id="Shape"></path>
                        <path d="M6.59646825,3.93185454 L5.7214591,3.93185454 C5.70566443,4.02965498 5.70048331,4.12316942 5.70637973,4.21180995 C5.72111111,4.43314579 5.80435694,4.63815311 5.96081502,4.83851411 C6.02190578,4.91672411 6.09411274,4.99383418 6.17652727,5.06974947 L6.59646825,5.06974947 C7.17211335,5.06974947 7.6404243,5.52914792 7.6404243,6.09383784 L7.6404243,6.54267301 C7.6404243,7.10734396 7.17211335,7.56676138 6.59646825,7.56676138 L2.21873525,7.56676138 C1.64309015,7.56676138 1.1747792,7.10736292 1.1747792,6.54267301 L1.1747792,6.09383784 C1.1747792,5.52914792 1.64309015,5.06974947 2.21873525,5.06974947 L4.16867114,5.06974947 C4.07976089,4.82912663 4.02593915,4.57900253 4.00873321,4.3205909 C4.00016891,4.19197298 4.00055556,4.06238788 4.00983516,3.9318735 L2.21873525,3.9318735 C1.00349308,3.9318735 0.0148280423,4.90172312 0.0148280423,6.09383784 L0.0148280423,6.54267301 C0.0148280423,7.73476876 1.00349308,8.70463734 2.21873525,8.70463734 L6.59646825,8.70463734 C7.81171042,8.70463734 8.80037546,7.73478773 8.80037546,6.54267301 L8.80037546,6.09383784 C8.80037546,4.90170415 7.81171042,3.93185454 6.59646825,3.93185454 L6.59646825,3.93185454 Z" id="Shape"></path>
                    </g>
                    <g id="Group" transform="translate(9.453602, 2.256787)">
                        <path d="M1.07724664,0.937647724 C1.08358771,0.942028547 1.71779101,1.38409336 2.33676028,2.04305629 C3.30149166,3.07010314 3.46983923,3.79872305 3.44118844,4.22910567 C3.42286121,4.50447165 3.32155881,4.756606 3.13150081,4.99997871 C2.89525743,5.3024451 2.5230291,5.58615551 2.02512007,5.84322065 C1.74166667,5.98957047 1.63282458,6.33360727 1.78201363,6.61166622 C1.8858486,6.805181 2.08729345,6.91572565 2.29573667,6.91572565 C2.38679284,6.91572565 2.47918295,6.89463701 2.56536732,6.85014606 C3.21292939,6.51581914 3.71319699,6.12615351 4.05225071,5.69199694 C4.38154151,5.27037596 4.56537444,4.80312616 4.59866504,4.30325725 C4.66184371,3.35436352 4.18781034,2.33448529 3.18976903,1.27197465 C2.48832723,0.525224581 1.77634921,0.0289589433 1.7463838,0.00819270695 L1.07724664,0.937647724 L1.07724664,0.937647724 Z" id="Shape"></path>
                        <path d="M6.59432234,3.93185454 L4.86767705,3.93185454 C4.87693732,4.06236891 4.87732397,4.19195402 4.868779,4.32057193 C4.85157306,4.57898356 4.79775132,4.82910767 4.70884107,5.0697305 L6.59434168,5.0697305 C7.16998677,5.0697305 7.63829772,5.52912896 7.63829772,6.09381887 L7.63829772,6.54265405 C7.63829772,7.10732499 7.16998677,7.56674241 6.59434168,7.56674241 L2.21657,7.56674241 C1.64092491,7.56674241 1.17261396,7.10734396 1.17261396,6.54265405 L1.17261396,6.09381887 C1.17261396,5.52912896 1.64092491,5.0697305 2.21657,5.0697305 L2.70094628,5.0697305 C2.78334147,4.99381521 2.85556777,4.91670515 2.91663919,4.83851411 C3.07311661,4.63813415 3.1563431,4.43314579 3.17109381,4.21180995 C3.17699023,4.12316942 3.17180912,4.02965498 3.15601445,3.9318735 L2.21657,3.9318735 C1.00132784,3.9318735 0.0126628002,4.90172312 0.0126628002,6.09383784 L0.0126628002,6.54267301 C0.0126628002,7.73476876 1.00132784,8.70463734 2.21657,8.70463734 L6.59432234,8.70463734 C7.80956451,8.70463734 8.79822955,7.73478773 8.79822955,6.54267301 L8.79822955,6.09383784 C8.79822955,4.90170415 7.80956451,3.93185454 6.59432234,3.93185454 L6.59432234,3.93185454 Z" id="Shape"></path>
                    </g>
                    <path d="M9.55026455,2.27575193 C9.55026455,2.48436252 9.40237078,2.65504392 9.22161172,2.65504392 C9.04085267,2.65504392 8.89295889,2.48436252 8.89295889,2.27575193 L8.89295889,0.379291988 C8.89295889,0.170681395 9.04085267,0 9.22161172,0 C9.40237078,0 9.55026455,0.170681395 9.55026455,0.379291988 L9.55026455,2.27575193 L9.55026455,2.27575193 Z" id="Shape"></path>
                    <path d="M10.4568437,2.51110261 C10.3136284,2.66532273 10.0871286,2.69378859 9.95350224,2.57436851 C9.81987586,2.45494843 9.82772487,2.23107133 9.97094017,2.07687018 L11.2728887,0.674950093 C11.416104,0.520729971 11.6426038,0.492264107 11.7762302,0.61168419 C11.9098565,0.731104272 11.9020075,0.954981368 11.7587922,1.10918253 L10.4568437,2.51110261 L10.4568437,2.51110261 Z" id="Shape"></path>
                    <path d="M8.00571225,2.54903181 C8.14892755,2.70325193 8.37542735,2.73171779 8.50905372,2.61229771 C8.6426801,2.49287763 8.63483109,2.26900053 8.49161579,2.11479937 L7.18966728,0.712879292 C7.04645197,0.55865917 6.81995218,0.530193306 6.6863258,0.649613388 C6.55269943,0.769033471 6.56054843,0.992910567 6.70376374,1.14711172 L8.00571225,2.54903181 L8.00571225,2.54903181 Z" id="Shape"></path>
                </g>
            </g>
        </g>
    </g>
</svg>