<?xml version="1.0" encoding="UTF-8"?>
<svg width="51px" height="78px" viewBox="0 0 51 78" version="1.1" xmlns="http://www.w3.org/2000/svg" xmlns:xlink="http://www.w3.org/1999/xlink">
    <!-- Generator: Sketch 41.2 (35397) - http://www.bohemiancoding.com/sketch -->
    <title>Group 2</title>
    <desc>Created with Sketch.</desc>
    <defs>
        <path d="M7.75735931,0 L4,0 L4,8 L10,8 L10,2.24264069 L7.75735931,-2.77555756e-16 Z" id="path-1"></path>
        <mask id="mask-2" maskContentUnits="userSpaceOnUse" maskUnits="objectBoundingBox" x="0" y="0" width="6" height="8" fill="white">
            <use xlink:href="#path-1"></use>
        </mask>
        <path d="M7.75735931,0 L4,0 L4,8 L10,8 L10,2.24264069 L7.75735931,-2.77555756e-16 Z" id="path-3"></path>
        <mask id="mask-4" maskContentUnits="userSpaceOnUse" maskUnits="objectBoundingBox" x="0" y="0" width="6" height="8" fill="white">
            <use xlink:href="#path-3"></use>
        </mask>
    </defs>
    <g id="Screens" stroke="none" stroke-width="1" fill="none" fill-rule="evenodd">
        <g id="Artboard">
            <g id="Group-2">
                <g id="Group">
                    <g id="ic_edit_element_mainbody" fill="#546E7A">
                        <path d="M8.75023437,0.36609375 C8.50609375,0.122109375 8.1859375,0 7.86617188,0 C7.54640625,0 7.22648437,0.122109375 6.98234375,0.36609375 L1.6159375,5.73242188 C1.37210937,5.9765625 0.6253125,6.92078125 0.625,7.240625 L0,10 L2.75882812,9.375 C2.75882812,9.375 4.02351563,8.62789062 4.26765625,8.38375 L9.6340625,3.01757812 C10.1220313,2.52929688 10.1220313,1.73773437 9.63398438,1.25 L8.75023437,0.36609375 Z M1.234375,7.37851562 C1.24015625,7.35289062 1.24445312,7.32664062 1.246875,7.30101562 C1.248125,7.29734375 1.25148437,7.291875 1.25296875,7.28820312 L2.66625,8.70179687 C2.61898437,8.73046875 2.57132812,8.75914062 2.52460937,8.78726562 L0.828515625,9.17171875 L1.234375,7.37851562 Z M3.21226562,8.36367188 L1.59304687,6.744375 C1.7590625,6.51671875 1.94398437,6.2878125 2.0578125,6.17429688 L6.09859375,2.13382812 L7.86617187,3.90140625 L3.826875,7.94070313 C3.75609375,8.0078125 3.51132812,8.17328125 3.21226562,8.36367188 Z M8.30804687,3.45953125 L6.54046875,1.69195312 L7.42453125,0.808125 C7.54234375,0.689765625 7.69921875,0.625 7.86617187,0.625 C8.033125,0.625 8.19023437,0.6903125 8.30835937,0.808125 L9.1921875,1.69195312 C9.3103125,1.80976563 9.375,1.96664063 9.375,2.13382812 C9.37492187,2.30046875 9.30992187,2.45789063 9.19210937,2.57570313 L8.30804687,3.45953125 Z"></path>
                    </g>
                    <g id="activity-list_item-4_edit" transform="translate(40.000000, 0.000000)" fill="#00A8FF">
                        <path d="M8.75023437,0.36609375 C8.50609375,0.122109375 8.1859375,0 7.86617188,0 C7.54640625,0 7.22648437,0.122109375 6.98234375,0.36609375 L1.6159375,5.73242188 C1.37210937,5.9765625 0.6253125,6.92078125 0.625,7.240625 L0,10 L2.75882812,9.375 C2.75882812,9.375 4.02351563,8.62789062 4.26765625,8.38375 L9.6340625,3.01757812 C10.1220313,2.52929688 10.1220313,1.73773437 9.63398438,1.25 L8.75023437,0.36609375 Z M1.234375,7.37851562 C1.24015625,7.35289062 1.24445312,7.32664062 1.246875,7.30101562 C1.248125,7.29734375 1.25148437,7.291875 1.25296875,7.28820312 L2.66625,8.70179687 C2.61898437,8.73046875 2.57132812,8.75914062 2.52460937,8.78726562 L0.828515625,9.17171875 L1.234375,7.37851562 Z M3.21226562,8.36367188 L1.59304687,6.744375 C1.7590625,6.51671875 1.94398437,6.2878125 2.0578125,6.17429688 L6.09859375,2.13382813 L7.86617187,3.90140625 L3.826875,7.94070313 C3.75609375,8.0078125 3.51132812,8.17328125 3.21226562,8.36367188 Z M8.30804687,3.45953125 L6.54046875,1.69195312 L7.42453125,0.808125 C7.54234375,0.689765625 7.69921875,0.625 7.86617187,0.625 C8.033125,0.625 8.19023437,0.6903125 8.30835937,0.808125 L9.1921875,1.69195312 C9.3103125,1.80976563 9.375,1.96664063 9.375,2.13382812 C9.37492187,2.30046875 9.30992187,2.45789063 9.19210937,2.57570313 L8.30804687,3.45953125 Z" id="ic_edit_element_mainbody"></path>
                    </g>
                    <g id="more-options_pop-up_duplicate-activity_icon" transform="translate(1.000000, 34.000000)">
                        <use id="more-options_pop-up_duplicate-activity_shape-2" stroke="#546E7A" mask="url(#mask-2)" stroke-width="2" stroke-dasharray="1" xlink:href="#path-1"></use>
                        <path d="M3.75735931,2 L0,2 L0,10 L6,10 L6,4.24264069 L3.75735931,2 Z" id="more-options_pop-up_duplicate-activity_shape-1" fill="#484848"></path>
                    </g>
                    <g id="more-options_pop-up_duplicate-activity_icon" transform="translate(41.000000, 34.000000)">
                        <use id="more-options_pop-up_duplicate-activity_shape-2" stroke="#546E7A" mask="url(#mask-4)" stroke-width="2" stroke-dasharray="1" xlink:href="#path-3"></use>
                        <path d="M3.75735931,2 L0,2 L0,10 L6,10 L6,4.24264069 L3.75735931,2 Z" id="more-options_pop-up_duplicate-activity_shape-1" fill="#00A8FF"></path>
                    </g>
                    <g id="more-options_pop-up_delete-activity_icon" transform="translate(39.000000, 65.000000)" fill="#00A8FF">
                        <g id="Page-1">
                            <path d="M2.94965484,3.01119591 L2.94965484,3.80148552 L3.30886138e-06,3.80148552 L3.30886138e-06,4.99739693 L8.41923607,4.99739693 L8.41923607,3.80148552 L5.46955144,3.80148552 L5.46955144,3.01119591 L2.94965484,3.01119591 Z M3.2430516,3.28889608 L5.21731693,3.28889608 L5.21731693,3.80838501 L3.2430516,3.80838501 L3.2430516,3.28889608 Z" id="Fill-1" transform="translate(4.209620, 4.004296) rotate(-32.000000) translate(-4.209620, -4.004296) "></path>
                            <path d="M2.77011933,5.50439523 L3.60474656,13 L8.95696247,13 L9.7915897,5.50439523 L2.77011933,5.50439523 Z M8.00015552,6.33761499 L8.6989209,6.33761499 L8.12407238,12.4232027 L7.59142839,12.4232027 L8.00015552,6.33761499 Z M5.89494199,6.34282794 L6.59369083,6.34282794 L6.51930762,12.4271721 L5.98668018,12.4271721 L5.89494199,6.34282794 Z M3.78971192,6.39100511 L4.48846076,6.39100511 L4.91457595,12.4639012 L4.38193196,12.4639012 L3.78971192,6.39100511 Z" id="Fill-2"></path>
                        </g>
                    </g>
                </g>
                <g id="more-options_pop-up_delete-activity_icon" transform="translate(0.000000, 68.000000)" fill="#484848">
                    <g id="Page-1">
                        <path d="M2.94965484,0.0111959114 L2.94965484,0.80148552 L3.3088614e-06,0.80148552 L3.3088614e-06,1.99739693 L8.41923607,1.99739693 L8.41923607,0.80148552 L5.46955144,0.80148552 L5.46955144,0.0111959114 L2.94965484,0.0111959114 Z M3.2430516,0.288896082 L5.21731693,0.288896082 L5.21731693,0.808385009 L3.2430516,0.808385009 L3.2430516,0.288896082 Z" id="Fill-1"></path>
                        <path d="M0.770119326,2.50439523 L1.60474656,10 L6.95696247,10 L7.7915897,2.50439523 L0.770119326,2.50439523 Z M6.00015552,3.33761499 L6.6989209,3.33761499 L6.12407238,9.42320273 L5.59142839,9.42320273 L6.00015552,3.33761499 Z M3.89494199,3.34282794 L4.59369083,3.34282794 L4.51930762,9.42717206 L3.98668018,9.42717206 L3.89494199,3.34282794 Z M1.78971192,3.39100511 L2.48846076,3.39100511 L2.91457595,9.46390119 L2.38193196,9.46390119 L1.78971192,3.39100511 Z" id="Fill-2"></path>
                    </g>
                </g>
            </g>
        </g>
    </g>
</svg>