<?xml version="1.0" encoding="UTF-8"?>
<svg width="52px" height="45px" viewBox="0 0 52 45" version="1.1" xmlns="http://www.w3.org/2000/svg" xmlns:xlink="http://www.w3.org/1999/xlink">
    <!-- Generator: Sketch 42 (36781) - http://www.bohemiancoding.com/sketch -->
    <title>Group 5</title>
    <desc>Created with Sketch.</desc>
    <defs></defs>
    <g id="Home" stroke="none" stroke-width="1" fill="none" fill-rule="evenodd">
        <g id="Homepage_category-options---2" transform="translate(-771.000000, -2410.000000)" fill="#00A8FF">
            <g id="block_core-copy-2" transform="translate(652.000000, 2368.000000)">
                <g id="ic_logo-aidastream_lite" transform="translate(119.000000, 42.000000)">
                    <g id="Group-3">
                        <g id="Group-5">
                            <path d="M29.4126587,35.5074618 C29.6817626,32.0074278 26.9823802,28.356362 23.6787697,27.6770414 C23.6787697,27.6770414 25.5390859,26.9763408 27.6591902,27.4270159 C29.7645514,27.8746253 32.3057279,29.2515 33.549827,33.0806253 C33.549827,33.0806253 35.0674044,38.2939671 30.5014682,41.5751985 C26.3502858,44.5583195 22.157223,42.0803323 22.157223,42.0803323 C25.8305476,42.2771093 29.1223311,39.2838227 29.4126587,35.5074618 M9.40694864,39.8159034 C10.1304995,39.2298482 10.8852378,38.8470244 11.564073,38.7278609 C15.6711068,38.0067484 16.9883549,40.0146975 18.2531917,41.39488 C20.7967174,44.1700902 23.10419,44.7876911 25.6723417,44.7887399 C30.8145587,44.7909183 35.0959187,40.2657718 34.8134487,35.1564257 C34.5488812,30.3691518 30.9305601,26.6982389 26.0184019,26.2453854 C25.8939757,26.2339289 25.7894772,26.2382856 25.6658612,26.23288 C24.1413983,26.1665616 23.1523079,26.4898439 21.8385431,26.912604 C21.4606474,27.0341879 21.2197338,27.1744894 21.0412763,27.2200732 C20.8255558,27.2751773 20.7073672,27.2178949 20.631869,27.1600478 C20.5630134,27.1072834 20.3475359,26.7819034 20.594444,26.5374448 C21.2303457,25.9079034 21.4529518,25.8494108 22.2178159,25.2619034 C22.4962356,25.048103 22.7501912,24.8707696 22.8202619,24.609207 C22.8658686,24.4391348 22.8569579,24.2090372 22.6376731,24.003466 C22.3709994,23.7534406 21.9875142,23.8726847 21.4757956,24.1314236 C21.2244322,24.2584936 20.9428533,24.4026677 20.6342992,24.6084809 C18.8839089,25.7759119 17.2507352,27.5436783 16.3901212,29.6313386 C16.3407882,29.7511476 16.8973845,27.7665955 16.9699664,27.537466 C17.2993392,26.4984766 18.7192226,23.6278227 21.000611,21.9033811 C23.0815081,20.1193174 26.4534072,18.6670881 30.0590103,18.9048503 C37.7368954,19.4111136 42.715479,25.5248376 42.5845724,32.5521752 C42.5499016,34.4118355 41.5487412,39.8658439 36.8774965,42.898018 L43.9006054,39.728689 C45.1181343,39.1793429 46.1141913,37.6406253 46.1141913,36.3094151 L46.1141913,18.6588588 C46.1141913,17.3276486 45.1181343,15.788931 43.9006054,15.2395849 L28.7706816,8.41200955 C27.5532336,7.86266348 25.5610387,7.86266348 24.3435097,8.41200955 L9.21358592,15.2395849 C7.99613797,15.788931 7,17.3276486 7,18.6588588 L7,36.3094151 C7,37.6406253 7.99613797,39.1793429 9.21358592,39.728689" id="Fill-1"></path>
                            <g id="Group-2">
                                <polygon id="Star" points="39.5 8.25 36.2671811 9.94959347 36.8845946 6.34979673 34.2691892 3.80040653 37.8835906 3.27520327 39.5 0 41.1164094 3.27520327 44.7308108 3.80040653 42.1154054 6.34979673 42.7328189 9.94959347"></polygon>
                                <polygon id="Star-Copy" points="29 4.5 27.2366442 5.42705098 27.5734152 3.46352549 26.1468305 2.07294902 28.1183221 1.78647451 29 0 29.8816779 1.78647451 31.8531695 2.07294902 30.4265848 3.46352549 30.7633558 5.42705098"></polygon>
                                <polygon id="Star-Copy-3" points="3 14.5 1.23664424 15.427051 1.57341523 13.4635255 0.146830451 12.072949 2.11832212 11.7864745 3 10 3.88167788 11.7864745 5.85316955 12.072949 4.42658477 13.4635255 4.76335576 15.427051"></polygon>
                                <polygon id="Star-Copy-2" points="49 14.5 47.2366442 15.427051 47.5734152 13.4635255 46.1468305 12.072949 48.1183221 11.7864745 49 10 49.8816779 11.7864745 51.8531695 12.072949 50.4265848 13.4635255 50.7633558 15.427051"></polygon>
                            </g>
                        </g>
                    </g>
                </g>
            </g>
        </g>
    </g>
</svg>