<?xml version="1.0" encoding="UTF-8" standalone="no"?>
<svg width="13px" height="67px" viewBox="0 0 13 67" version="1.1" xmlns="http://www.w3.org/2000/svg" xmlns:xlink="http://www.w3.org/1999/xlink">
    <!-- Generator: Sketch 3.8.2 (29753) - http://www.bohemiancoding.com/sketch -->
    <title>Group 3</title>
    <desc>Created with Sketch.</desc>
    <defs></defs>
    <g id="Page-1" stroke="none" stroke-width="1" fill="none" fill-rule="evenodd">
        <g id="Group-3" fill="#FFFFFF">
            <polygon id="Path" points="2.85489464 8.05882062 3.34934748 8.55555556 3.88487794 8.10446242 12.1293086 1.16386592 11.1495312 0 3.48529075 6.54636044 3.93432323 6.98623831 1.07866789 4.11384764 6.07908785e-14 5.18642996"></polygon>
            <polygon id="Shape" points="10 30.0777778 9.2 29.2777778 6 32.4777778 2.8 29.2777778 2 30.0777778 5.2 33.2777778 2 36.4777778 2.8 37.2777778 6 34.0777778 9.2 37.2777778 10 36.4777778 6.8 33.2777778"></polygon>
            <path d="M6.72514015,63.9053259 L5.31771987,63.9053259 L5.02297561,58 L7.01922796,58 L6.72514015,63.9053259 L6.72514015,63.9053259 L6.72514015,63.9053259 Z M5,65.9725682 C5,65.6342172 5.08665087,65.3783908 5.25995262,65.205089 C5.43259793,65.0317873 5.6846732,64.9451364 6.015522,64.9451364 C6.33455476,64.9451364 6.58203491,65.0338504 6.757306,65.2112784 C6.93192064,65.3887063 7.01988441,65.6424696 7.01988441,65.9725682 C7.01988441,66.2909758 6.9312642,66.5419882 6.75402377,66.7249179 C6.57678335,66.9085352 6.33061609,67 6.015522,67 C5.69255055,67 5.44244462,66.9105983 5.26520419,66.7317949 C5.08796377,66.5516161 5,66.2985405 5,65.9725682 L5,65.9725682 L5,65.9725682 Z" id="Shape"></path>
        </g>
    </g>
</svg>