<?xml version="1.0" encoding="UTF-8"?>
<svg width="50px" height="45px" viewBox="0 0 50 45" version="1.1" xmlns="http://www.w3.org/2000/svg" xmlns:xlink="http://www.w3.org/1999/xlink">
    <!-- Generator: Sketch 41.2 (35397) - http://www.bohemiancoding.com/sketch -->
    <title>camera-alt</title>
    <desc>Created with Sketch.</desc>
    <defs></defs>
    <g id="Settings" stroke="none" stroke-width="1" fill="none" fill-rule="evenodd">
        <g id="Settings---organisation-settings" transform="translate(-745.000000, -730.000000)" fill="#1AAB3C">
            <g id="Group" transform="translate(681.000000, 669.000000)">
                <g id="camera-alt" transform="translate(64.000000, 61.000000)">
                    <ellipse id="Oval" cx="25.5" cy="25.5" rx="8" ry="8"></ellipse>
                    <path d="M17.5,0 L13,5 L5,5 C2.25,5 0,7.25 0,10 L0,40 C0,42.75 2.25,45 5,45 L45,45 C47.75,45 50,42.75 50,40 L50,10 C50,7.25 47.75,5 45,5 L37,5 L32.5,0 L17.5,0 L17.5,0 Z M25,37.5 C18,37.5 12.5,32 12.5,25 C12.5,18 18,12.5 25,12.5 C32,12.5 37.5,18 37.5,25 C37.5,32 32,37.5 25,37.5 L25,37.5 Z" id="Shape"></path>
                </g>
            </g>
        </g>
    </g>
</svg>