<?xml version="1.0" encoding="UTF-8"?>
<svg width="40px" height="37px" viewBox="0 0 40 37" version="1.1" xmlns="http://www.w3.org/2000/svg" xmlns:xlink="http://www.w3.org/1999/xlink">
    <!-- Generator: Sketch 42 (36781) - http://www.bohemiancoding.com/sketch -->
    <title>Fill 1</title>
    <desc>Created with Sketch.</desc>
    <defs></defs>
    <g id="Home" stroke="none" stroke-width="1" fill="none" fill-rule="evenodd">
        <g id="Homepage_category-options---2" transform="translate(-493.000000, -2418.000000)" fill="#00A8FF">
            <g id="block_core" transform="translate(367.000000, 2354.000000)">
                <g id="ic_logo-aidastream" transform="translate(126.000000, 64.000000)">
                    <g id="Group-3">
                        <path d="M22.4126587,27.5074618 C22.6817626,24.0074278 19.9823802,20.356362 16.6787697,19.6770414 C16.6787697,19.6770414 18.5390859,18.9763408 20.6591902,19.4270159 C22.7645514,19.8746253 25.3057279,21.2515 26.549827,25.0806253 C26.549827,25.0806253 28.0674044,30.2939671 23.5014682,33.5751985 C19.3502858,36.5583195 15.157223,34.0803323 15.157223,34.0803323 C18.8305476,34.2771093 22.1223311,31.2838227 22.4126587,27.5074618 M2.40694864,31.8159034 C3.13049945,31.2298482 3.8852378,30.8470244 4.56407298,30.7278609 C8.67110681,30.0067484 9.98835487,32.0146975 11.2531917,33.39488 C13.7967174,36.1700902 16.10419,36.7876911 18.6723417,36.7887399 C23.8145587,36.7909183 28.0959187,32.2657718 27.8134487,27.1564257 C27.5488812,22.3691518 23.9305601,18.6982389 19.0184019,18.2453854 C18.8939757,18.2339289 18.7894772,18.2382856 18.6658612,18.23288 C17.1413983,18.1665616 16.1523079,18.4898439 14.8385431,18.912604 C14.4606474,19.0341879 14.2197338,19.1744894 14.0412763,19.2200732 C13.8255558,19.2751773 13.7073672,19.2178949 13.631869,19.1600478 C13.5630134,19.1072834 13.3475359,18.7819034 13.594444,18.5374448 C14.2303457,17.9079034 14.4529518,17.8494108 15.2178159,17.2619034 C15.4962356,17.048103 15.7501912,16.8707696 15.8202619,16.609207 C15.8658686,16.4391348 15.8569579,16.2090372 15.6376731,16.003466 C15.3709994,15.7534406 14.9875142,15.8726847 14.4757956,16.1314236 C14.2244322,16.2584936 13.9428533,16.4026677 13.6342992,16.6084809 C11.8839089,17.7759119 10.2507352,19.5436783 9.39012125,21.6313386 C9.34078824,21.7511476 9.89738448,19.7665955 9.96996638,19.537466 C10.2993392,18.4984766 11.7192226,15.6278227 14.000611,13.9033811 C16.0815081,12.1193174 19.4534072,10.6670881 23.0590103,10.9048503 C30.7368954,11.4111136 35.715479,17.5248376 35.5845724,24.5521752 C35.5499016,26.4118355 34.5487412,31.8658439 29.8774965,34.898018 L36.9006054,31.728689 C38.1181343,31.1793429 39.1141913,29.6406253 39.1141913,28.3094151 L39.1141913,10.6588588 C39.1141913,9.32764862 38.1181343,7.788931 36.9006054,7.23958493 L21.7706816,0.412009554 C20.5532336,-0.137336518 18.5610387,-0.137336518 17.3435097,0.412009554 L2.21358592,7.23958493 C0.996137968,7.788931 0,9.32764862 0,10.6588588 L0,28.3094151 C0,29.6406253 0.996137968,31.1793429 2.21358592,31.728689" id="Fill-1"></path>
                    </g>
                </g>
            </g>
        </g>
    </g>
</svg>