<?xml version="1.0" encoding="UTF-8"?>
<svg width="8px" height="12px" viewBox="0 0 8 12" version="1.1" xmlns="http://www.w3.org/2000/svg" xmlns:xlink="http://www.w3.org/1999/xlink">
    <!-- Generator: Sketch 41.2 (35397) - http://www.bohemiancoding.com/sketch -->
    <title>&gt;</title>
    <desc>Created with Sketch.</desc>
    <defs></defs>
    <g id="Register" stroke="none" stroke-width="1" fill="none" fill-rule="evenodd">
        <g id="Final-Registration---Admin-Info-(Add-User)" transform="translate(-182.000000, -1413.000000)" fill="#1AAB3C">
            <g id="btn_back" transform="translate(162.000000, 1395.000000)">
                <path d="M28,23.9915612 C28,24.4303819 27.8144946,24.8298154 27.4434783,25.1898734 L23.0086957,29.4767932 C22.6492736,29.8255995 22.2376835,30 21.773913,30 C21.3217369,30 20.9130453,29.8227866 20.5478261,29.4683544 C20.1826069,29.1139223 20,28.7229276 20,28.2953586 C20,27.8565379 20.1855054,27.4571045 20.5565217,27.0970464 L23.7565217,23.9915612 L20.5565217,20.9029536 C20.1855054,20.5428955 20,20.1434621 20,19.7046414 C20,19.2658206 20.1826069,18.872013 20.5478261,18.5232068 C20.9130453,18.1744005 21.3217369,18 21.773913,18 C22.2376835,18 22.6492736,18.1744005 23.0086957,18.5232068 L27.4434783,22.8101266 C27.8144946,23.1701846 28,23.5639922 28,23.9915612 L28,23.9915612 Z" id="&gt;" transform="translate(24.000000, 24.000000) scale(-1, 1) translate(-24.000000, -24.000000) "></path>
            </g>
        </g>
    </g>
</svg>