<?xml version="1.0" encoding="UTF-8" standalone="no"?>
<svg width="7px" height="11px" viewBox="0 0 7 11" version="1.1" xmlns="http://www.w3.org/2000/svg" xmlns:xlink="http://www.w3.org/1999/xlink">
    <!-- Generator: Sketch 3.8.3 (29802) - http://www.bohemiancoding.com/sketch -->
    <title>&lt;</title>
    <desc>Created with Sketch.</desc>
    <defs></defs>
    <g id="Register" stroke="none" stroke-width="1" fill="none" fill-rule="evenodd">
        <g id="Registration---admin" transform="translate(-170.000000, -941.000000)" fill="#00A8FF">
            <path d="M174.578,950.936 L171.008,947.38 C170.709332,947.081332 170.56,946.750002 170.56,946.386 C170.56,946.031332 170.709332,945.704668 171.008,945.406 L174.578,941.85 C174.876668,941.560665 175.207998,941.416 175.572,941.416 C175.936002,941.416 176.264999,941.562999 176.559,941.857 C176.853001,942.151001 177,942.475332 177,942.83 C177,943.194002 176.850668,943.525332 176.552,943.824 L173.976,946.386 L176.552,948.962 C176.850668,949.260668 177,949.591998 177,949.956 C177,950.310668 176.853001,950.634999 176.559,950.929 C176.264999,951.223001 175.936002,951.37 175.572,951.37 C175.207998,951.37 174.876668,951.225335 174.578,950.936 Z" id="&lt;"></path>
        </g>
    </g>
</svg>