<?xml version="1.0" encoding="UTF-8" standalone="no"?>
<svg width="12px" height="16px" viewBox="0 0 12 16" version="1.1" xmlns="http://www.w3.org/2000/svg" xmlns:xlink="http://www.w3.org/1999/xlink">
    <!-- Generator: Sketch 3.6.1 (26313) - http://www.bohemiancoding.com/sketch -->
    <title>place</title>
    <desc>Created with Sketch.</desc>
    <defs></defs>
    <g id="Who's-using" stroke="none" stroke-width="1" fill="none" fill-rule="evenodd">
        <g id="Who's-using-detail" transform="translate(-248.000000, -249.000000)" fill="#484848">
            <g id="place" transform="translate(248.000000, 249.000000)">
                <path d="M5.6,0 C2.48,0 0,2.48 0,5.6 C0,9.76 5.6,16 5.6,16 C5.6,16 11.2,9.76 11.2,5.6 C11.2,2.48 8.72,0 5.6,0 L5.6,0 Z M5.6,7.6 C4.48,7.6 3.6,6.72 3.6,5.6 C3.6,4.48 4.48,3.6 5.6,3.6 C6.72,3.6 7.6,4.48 7.6,5.6 C7.6,6.72 6.72,7.6 5.6,7.6 L5.6,7.6 Z" id="Shape"></path>
            </g>
        </g>
    </g>
</svg>