<?xml version="1.0" encoding="UTF-8" standalone="no"?>
<svg width="184px" height="85px" viewBox="0 0 184 85" version="1.1" xmlns="http://www.w3.org/2000/svg" xmlns:xlink="http://www.w3.org/1999/xlink">
    <!-- Generator: Sketch 3.6.1 (26313) - http://www.bohemiancoding.com/sketch -->
    <title>Group 4</title>
    <desc>Created with Sketch.</desc>
    <defs></defs>
    <g id="UI-elements" stroke="none" stroke-width="1" fill="none" fill-rule="evenodd">
        <g id="Empty-states" transform="translate(-200.000000, -134.000000)">
            <g id="Group-3" transform="translate(37.000000, 45.000000)">
                <g id="Group-4" transform="translate(163.000000, 89.000000)">
                    <g id="Group" transform="translate(27.000000, 0.000000)">
                        <path d="M16,12.5059015 C16,10.2935032 17.783296,8.5 19.9919565,8.5 L127.008043,8.5 C129.21274,8.5 130.765107,10.2734385 130.474685,12.466126 L121.525315,80.033874 C121.235191,82.2243049 119.19962,84 116.996165,84 L20.0038349,84 C17.792578,84 16,82.2081649 16,79.9940985 L16,12.5059015 Z" id="Rectangle-79-Copy" fill="#CCCCCC"></path>
                        <path d="M0.208027867,12.0045364 C0.0931372484,9.79289203 1.78329598,8 3.99195653,8 L111.008043,8 C113.21274,8 115.092987,9.7900002 115.208028,12.0045364 L118.791972,80.9954636 C118.906863,83.207108 117.216704,85 115.008043,85 L7.99195653,85 C5.78725982,85 3.90701298,83.2099998 3.79197213,80.9954636 L0.208027867,12.0045364 Z" id="Rectangle-79" fill="#EFEFEF"></path>
                        <path d="M37.5,55.5 C37.5,55.5 44.2354565,60.2556047 52.9252577,60.2556047 C61.6150589,60.2556047 67.5166626,55.5 67.5166626,55.5" id="Line" stroke="#BBBBBB" stroke-linecap="square"></path>
                        <circle id="Oval-23" fill="#BBBBBB" cx="37.5" cy="38.5" r="3.5"></circle>
                        <circle id="Oval-23" fill="#BBBBBB" cx="67.5" cy="38.5" r="3.5"></circle>
                        <path d="M54.378536,3.97462766 C54.1694763,1.77950142 55.7929112,0 58.006722,0 L92.993278,0 C95.2061295,0 97.1705189,1.79044819 97.378536,3.97462766 L98.621464,17.0253723 C98.8305237,19.2204986 97.2070888,21 94.993278,21 L60.006722,21 C57.7938705,21 55.8294811,19.2095518 55.621464,17.0253723 L54.378536,3.97462766 Z" id="Rectangle-80" fill="#EFEFEF"></path>
                    </g>
                    <g id="Group-2" transform="translate(0.000000, 36.000000)" fill="#D8D8D8">
                        <circle id="Oval-17" cx="9.5" cy="1.5" r="1.5"></circle>
                        <circle id="Oval-17-Copy" cx="3" cy="10" r="3"></circle>
                        <circle id="Oval-17-Copy" cx="12" cy="17" r="2"></circle>
                    </g>
                    <g id="Group-2" transform="translate(177.000000, 25.500000) scale(-1, 1) rotate(24.000000) translate(-177.000000, -25.500000) translate(170.000000, 16.000000)" fill="#D8D8D8">
                        <circle id="Oval-17" cx="9.5" cy="1.5" r="1.5"></circle>
                        <circle id="Oval-17-Copy" cx="3" cy="10" r="3"></circle>
                        <circle id="Oval-17-Copy" cx="12" cy="17" r="2"></circle>
                    </g>
                </g>
            </g>
        </g>
    </g>
</svg>