<?xml version="1.0" encoding="UTF-8" standalone="no"?>
<svg width="203px" height="115px" viewBox="0 0 203 115" version="1.1" xmlns="http://www.w3.org/2000/svg" xmlns:xlink="http://www.w3.org/1999/xlink">
    <!-- Generator: Sketch 3.6.1 (26313) - http://www.bohemiancoding.com/sketch -->
    <title>Group 14@1x</title>
    <desc>Created with Sketch.</desc>
    <defs>
        <rect id="path-1" x="0" y="0" width="61" height="107"></rect>
        <rect id="path-3" x="0" y="0" width="61" height="107"></rect>
    </defs>
    <g id="UI-elements" stroke="none" stroke-width="1" fill="none" fill-rule="evenodd">
        <g id="Empty-states" transform="translate(-193.000000, -494.000000)">
            <g id="Group-14" transform="translate(191.000000, 488.000000)">
                <g id="Group-11" transform="translate(64.000000, 7.000000)">
                    <rect id="Rectangle-121" fill="#EAEAEA" x="0" y="0" width="79" height="102" rx="4"></rect>
                    <circle id="Oval-38" fill="#D8D8D8" cx="39.5" cy="43.5" r="28.5"></circle>
                    <circle id="Oval-39" fill="#EAEAEA" cx="39" cy="38" r="9"></circle>
                    <circle id="Oval-39-Copy" fill="#EAEAEA" cx="39.5" cy="61.5" r="19.5"></circle>
                    <rect id="Rectangle-125" fill="#D8D8D8" x="24" y="77" width="32" height="4" rx="4"></rect>
                    <rect id="Rectangle-125-Copy" fill="#D8D8D8" x="30" y="84" width="21" height="4" rx="2"></rect>
                </g>
                <g id="Group-2" transform="translate(40.000000, 114.500000) rotate(-46.000000) translate(-40.000000, -114.500000) translate(33.000000, 105.000000)" fill="#D8D8D8">
                    <circle id="Oval-17" cx="9.5" cy="1.5" r="1.5"></circle>
                    <circle id="Oval-17-Copy" cx="3" cy="10" r="3"></circle>
                    <circle id="Oval-17-Copy" cx="12" cy="17" r="2"></circle>
                </g>
                <g id="Group-2" transform="translate(160.000000, 12.500000) scale(-1, -1) rotate(-46.000000) translate(-160.000000, -12.500000) translate(153.000000, 3.000000)" fill="#D8D8D8">
                    <circle id="Oval-17" cx="9.5" cy="1.5" r="1.5"></circle>
                    <circle id="Oval-17-Copy" cx="3" cy="10" r="3"></circle>
                    <circle id="Oval-17-Copy" cx="12" cy="17" r="2"></circle>
                </g>
                <g id="Group-13" transform="translate(0.000000, 9.000000)">
                    <mask id="mask-2" fill="white">
                        <use xlink:href="#path-1"></use>
                    </mask>
                    <use id="Mask" xlink:href="#path-1"></use>
                    <g id="Group-11-Copy" mask="url(#mask-2)">
                        <g transform="translate(41.262821, 53.635275) rotate(-11.000000) translate(-41.262821, -53.635275) translate(8.262821, 17.635275)">
                            <rect id="Rectangle-121" fill="#EAEAEA" x="0" y="0" width="66" height="72" rx="4"></rect>
                            <ellipse id="Oval-38" fill="#D8D8D8" cx="33" cy="36.4186047" rx="23.8101266" ry="23.8604651"></ellipse>
                            <ellipse id="Oval-39" fill="#EAEAEA" cx="32.5822785" cy="31.8139535" rx="7.51898734" ry="7.53488372"></ellipse>
                            <ellipse id="Oval-39-Copy" fill="#EAEAEA" cx="33" cy="51.4883721" rx="16.2911392" ry="16.3255814"></ellipse>
                        </g>
                    </g>
                </g>
                <g id="Group-13" transform="translate(176.500000, 62.500000) scale(-1, 1) translate(-176.500000, -62.500000) translate(146.000000, 9.000000)">
                    <mask id="mask-4" fill="white">
                        <use xlink:href="#path-3"></use>
                    </mask>
                    <use id="Mask" xlink:href="#path-3"></use>
                    <g id="Group-11-Copy" mask="url(#mask-4)">
                        <g transform="translate(41.262821, 53.635275) rotate(-11.000000) translate(-41.262821, -53.635275) translate(8.262821, 17.635275)">
                            <rect id="Rectangle-121" fill="#EAEAEA" x="0" y="0" width="66" height="72" rx="4"></rect>
                            <ellipse id="Oval-38" fill="#D8D8D8" cx="33" cy="36.4186047" rx="23.8101266" ry="23.8604651"></ellipse>
                            <ellipse id="Oval-39" fill="#EAEAEA" cx="32.5822785" cy="31.8139535" rx="7.51898734" ry="7.53488372"></ellipse>
                            <ellipse id="Oval-39-Copy" fill="#EAEAEA" cx="33" cy="51.4883721" rx="16.2911392" ry="16.3255814"></ellipse>
                        </g>
                    </g>
                </g>
            </g>
        </g>
    </g>
</svg>