<?xml version="1.0" encoding="UTF-8" standalone="no"?>
<svg width="205px" height="101px" viewBox="0 0 205 101" version="1.1" xmlns="http://www.w3.org/2000/svg" xmlns:xlink="http://www.w3.org/1999/xlink">
    <!-- Generator: Sketch 3.6.1 (26313) - http://www.bohemiancoding.com/sketch -->
    <title>Group 12</title>
    <desc>Created with Sketch.</desc>
    <defs></defs>
    <g id="UI-elements" stroke="none" stroke-width="1" fill="none" fill-rule="evenodd">
        <g id="Empty-states" transform="translate(-730.000000, -119.000000)">
            <g id="Group-3-Copy" transform="translate(575.000000, 45.000000)">
                <g id="Group-12" transform="translate(155.000000, 74.000000)">
                    <g id="Group-10" transform="translate(147.000000, 20.000000)">
                        <rect id="Rectangle-104-Copy" fill="#EAEAEA" x="0" y="0" width="58" height="48" rx="4"></rect>
                        <circle id="Oval-36" fill="#D8D8D8" cx="12" cy="15" r="6"></circle>
                        <rect id="Rectangle-114" fill="#D8D8D8" x="21" y="11" width="32" height="3"></rect>
                        <rect id="Rectangle-114" fill="#D8D8D8" x="21" y="16" width="14" height="3"></rect>
                        <rect id="Rectangle-116" fill="#D8D8D8" x="7" y="26" width="46" height="15"></rect>
                    </g>
                    <g id="Group-9" transform="translate(0.000000, 20.000000)">
                        <rect id="Rectangle-104" fill="#EAEAEA" x="0" y="0" width="58" height="48" rx="4"></rect>
                        <g id="Group-8" transform="translate(8.000000, 6.000000)" fill="#D8D8D8">
                            <rect id="Rectangle-105" x="0" y="0" width="20" height="6"></rect>
                            <rect id="Rectangle-105-Copy-2" x="0" y="9" width="20" height="6"></rect>
                            <rect id="Rectangle-105-Copy-4" x="0" y="18" width="20" height="6"></rect>
                            <rect id="Rectangle-105-Copy-6" x="0" y="27" width="20" height="6"></rect>
                            <rect id="Rectangle-105-Copy" x="22" y="0" width="20" height="6"></rect>
                            <rect id="Rectangle-105-Copy-3" x="22" y="9" width="20" height="6"></rect>
                            <rect id="Rectangle-105-Copy-5" x="22" y="18" width="20" height="6"></rect>
                            <rect id="Rectangle-105-Copy-7" x="22" y="27" width="20" height="6"></rect>
                        </g>
                    </g>
                    <g id="Group-2" transform="translate(39.696337, 86.634633) rotate(-46.000000) translate(-39.696337, -86.634633) translate(32.696337, 77.134633)" fill="#D8D8D8">
                        <circle id="Oval-17" cx="9.5" cy="1.5" r="1.5"></circle>
                        <circle id="Oval-17-Copy" cx="3" cy="10" r="3"></circle>
                        <circle id="Oval-17-Copy" cx="12" cy="17" r="2"></circle>
                    </g>
                    <g id="Group-2" transform="translate(159.696337, 86.634633) scale(-1, 1) rotate(-46.000000) translate(-159.696337, -86.634633) translate(152.696337, 77.134633)" fill="#D8D8D8">
                        <circle id="Oval-17" cx="9.5" cy="1.5" r="1.5"></circle>
                        <circle id="Oval-17-Copy" cx="3" cy="10" r="3"></circle>
                        <circle id="Oval-17-Copy" cx="12" cy="17" r="2"></circle>
                    </g>
                    <g id="Group-7" transform="translate(64.000000, 0.000000)">
                        <rect id="Rectangle-97" fill="#EAEAEA" x="0" y="0" width="76" height="101" rx="4"></rect>
                        <rect id="Rectangle-98" fill="#D8D8D8" x="8" y="29" width="59" height="40"></rect>
                        <rect id="Rectangle-99" fill="#D8D8D8" x="8" y="13" width="60" height="4"></rect>
                        <rect id="Rectangle-99-Copy" fill="#D8D8D8" x="8" y="75" width="60" height="4"></rect>
                        <rect id="Rectangle-99-Copy" fill="#D8D8D8" x="8" y="88" width="40" height="4"></rect>
                        <rect id="Rectangle-99" fill="#D8D8D8" x="8" y="20" width="26" height="3"></rect>
                        <rect id="Rectangle-99-Copy-2" fill="#D8D8D8" x="8" y="82" width="26" height="3"></rect>
                    </g>
                </g>
            </g>
        </g>
    </g>
</svg>