<?xml version="1.0" encoding="UTF-8" standalone="no"?>
<svg width="338px" height="94px" viewBox="0 0 338 94" version="1.1" xmlns="http://www.w3.org/2000/svg" xmlns:xlink="http://www.w3.org/1999/xlink">
    <!-- Generator: Sketch 40.1 (33804) - http://www.bohemiancoding.com/sketch -->
    <title>Group 2</title>
    <desc>Created with Sketch.</desc>
    <defs></defs>
    <g id="Profile" stroke="none" stroke-width="1" fill="none" fill-rule="evenodd">
        <g id="Artboard" transform="translate(-1.000000, -1.000000)" fill="#484848">
            <g id="Group-2" transform="translate(1.000000, 1.000000)">
                <path d="M30.9711884,23.2727273 L1.03410909,23.2727273 L1.03410909,23.2727273 L11.6967782,12.6046953 L16,15.8975971 L20.3062225,12.6023985 L30.9711884,23.2727273 L30.9711884,23.2727273 Z M32,22.2445018 L32,3.65411491 L32,3.65411491 L21.4715011,11.7107084 L32,22.2445018 L32,22.2445018 Z M0,22.2498022 L0,3.65411491 L10.5315011,11.7130051 L0,22.2498022 L0,22.2498022 L0,22.2498022 Z M32,1.82383127 L32,0 L0,0 L0,1.82383127 L16,14.0907782 L32,1.82383127 L32,1.82383127 Z" id="common-email-envelope-mail-glyph"></path>
                <path d="M112.598648,14.8903497 C111.093985,16.1198021 109.1184,17.3145198 106.512196,18.3367747 L105.910985,16.8371174 C108.244764,15.9218942 110.018584,14.8645005 111.374577,13.7828731 C109.724104,12.1252933 108.841075,10.477003 108.37342,9.16354065 L110.116607,9.16354065 C110.56139,10.2011436 111.320664,11.442309 112.592521,12.704073 C114.852783,10.4547889 115.483402,8.26972385 115.658619,7.19213542 L105.395544,7.19213542 L105.395544,5.48931951 L111.602891,5.48931951 L111.602891,3.56274648 L113.324839,3.56274648 L113.324839,5.48931951 L119.532187,5.48931951 L119.532187,7.19213542 L117.307867,7.19213542 C117.151437,8.4466293 116.498355,11.1054616 113.820267,13.7905471 C114.110254,14.0203626 114.423521,14.2489664 114.753126,14.4755508 C115.081913,14.0413651 115.601847,13.7562161 116.192439,13.7562161 L124.016768,13.7562161 C124.164212,13.0243607 124.244673,12.2682717 124.244673,11.4931996 C124.244673,5.14600985 119.041252,0 112.622337,0 C106.20383,0 101,5.14600985 101,11.4931996 C101,17.8403894 106.20383,22.9859953 112.622337,22.9859953 C113.224774,22.9859953 113.81169,22.9270268 114.389621,22.8401897 L114.389621,16.1799823 C113.729595,15.7583173 113.132468,15.3265549 112.598648,14.8903497 Z M135.369132,14.8762134 L117.153888,14.8762134 C116.252887,14.8762134 115.522611,15.5983753 115.522611,16.4893649 L115.522611,34.5022169 C115.522611,35.3928025 116.252887,36.1153684 117.153888,36.1153684 L135.369132,36.1153684 C136.269724,36.1153684 137,35.3928025 137,34.5022169 L137,16.488961 C137,15.5983753 136.269724,14.8762134 135.369132,14.8762134 Z M130.467949,31.7230242 L129.05355,27.8638197 L123.571169,27.8638197 L122.118377,31.7230242 L120.358036,31.7230242 L125.40462,18.9078805 L127.310363,18.9078805 L132.374101,31.7230242 L130.467949,31.7230242 L130.467949,31.7230242 Z M126.311747,20.4507545 L124.115609,26.4283815 L128.508293,26.4283815 L126.348506,20.4507545 L126.311747,20.4507545 Z" id="Combined-Shape"></path>
                <polygon id="Shape" points="333.253589 19.5772358 333.253589 12.9756098 323.389952 12.9756098 323.389952 8.42276423 328.062201 8.42276423 328.062201 0 316.863636 0 316.863636 8.42276423 321.535885 8.42276423 321.535885 12.9756098 311.672249 12.9756098 311.672249 19.5772358 307 19.5772358 307 28 318.198565 28 318.198565 19.5772358 313.526316 19.5772358 313.526316 14.8726287 331.473684 14.8726287 331.473684 19.5772358 326.801435 19.5772358 326.801435 28 338 28 338 19.5772358"></polygon>
                <path d="M221.632552,0 C213.013517,0 206,7.01241379 206,15.6325517 C206,24.2526897 213.013517,31.2651034 221.632552,31.2651034 C230.25269,31.2651034 237.266207,24.2537931 237.266207,15.6325517 C237.266207,7.01241379 230.25269,0 221.632552,0 L221.632552,0 Z M235.914483,15.6325517 C235.914483,15.9062069 235.890207,16.1732414 235.873655,16.4435862 C235.773241,16.1897931 235.620966,15.8587586 235.584552,15.7164138 C235.531586,15.5001379 235.208276,14.7464828 235.208276,14.7464828 C235.208276,14.7464828 234.884966,14.3161379 234.669793,14.208 C234.455724,14.0998621 234.293517,13.8306207 233.916138,13.6165517 C233.538759,13.4002759 233.378759,13.2932414 233.056552,13.2932414 C232.732138,13.2932414 232.411034,12.8617931 232.032552,12.6466207 C231.655172,12.4325517 231.602207,12.5395862 231.602207,12.5395862 C231.602207,12.5395862 232.032552,13.1851034 232.032552,13.3462069 C232.032552,13.5073103 232.515862,13.7765517 233.002483,13.6684138 C233.002483,13.6684138 233.32469,14.2609655 233.485793,14.422069 C233.646897,14.5831724 233.431724,14.7453793 233.109517,14.9605517 C232.786207,15.1746207 232.840276,15.1216552 232.676966,15.2827586 C232.515862,15.4438621 231.978483,15.7153103 231.816276,15.8212414 C231.655172,15.9282759 231.009655,16.2515862 230.687448,15.9282759 C230.529655,15.7726897 230.578207,15.4449655 230.472276,15.2286897 C230.364138,15.0135172 229.234207,13.3451034 228.695724,12.5925517 C228.601931,12.4601379 228.372414,12.0518621 228.212414,11.9470345 C228.05131,11.8377931 228.589793,11.8377931 228.589793,11.8377931 C228.589793,11.8377931 228.589793,11.4604138 228.535724,11.1922759 C228.480552,10.9230345 228.589793,10.5467586 228.589793,10.5467586 C228.589793,10.5467586 228.05131,10.8689655 227.888,10.9771034 C227.728,11.0852414 227.565793,10.7630345 227.351724,10.4926897 C227.136552,10.2245517 226.920276,9.90013793 226.86731,9.63089655 C226.813241,9.36275862 227.136552,9.25462069 227.136552,9.25462069 L227.619862,8.98648276 C227.619862,8.98648276 228.212414,8.87944828 228.589793,8.93241379 C228.966069,8.98648276 229.557517,9.04055172 229.557517,9.04055172 C229.557517,9.04055172 229.718621,8.66317241 229.503448,8.50206897 C229.289379,8.34096552 228.802759,8.07172414 228.587586,8.1257931 C228.373517,8.17875862 228.694621,7.85655172 228.962759,7.64137931 L228.366897,7.53324138 C228.366897,7.53324138 227.825103,7.80248276 227.662897,7.85655172 C227.501793,7.90951724 227.221517,8.01765517 227.005241,8.28689655 C226.791172,8.55613793 227.09131,8.93241379 226.876138,9.04055172 C226.662069,9.14868966 226.516414,9.20165517 226.354207,9.25462069 C226.193103,9.30868966 225.681103,9.25462069 225.681103,9.25462069 C225.124966,9.25462069 225.481379,9.7622069 225.625931,9.94206897 L225.195586,9.41682759 L224.87669,8.66427586 C224.87669,8.66427586 224.417655,8.34206897 224.202483,8.23503448 C223.98731,8.12689655 223.324138,7.75062069 223.324138,7.75062069 L223.370483,8.23503448 L223.993931,8.8662069 L224.049103,8.88055172 L224.373517,9.31089655 L223.657379,9.36496552 L223.657379,8.93903448 C222.982069,8.77572414 223.158621,8.608 223.082483,8.55613793 C222.922483,8.44910345 222.548414,8.17875862 222.548414,8.17875862 C222.548414,8.17875862 221.915034,8.28689655 221.752828,8.34096552 C221.590621,8.39503448 221.545379,8.55613793 221.224276,8.66317241 C220.899862,8.77131034 220.754207,8.93241379 220.647172,9.09351724 C220.540138,9.25462069 220.189241,9.73903448 219.976276,9.9542069 C219.76,10.1704828 219.360552,10.1153103 219.199448,10.1153103 C219.037241,10.1153103 218.260414,9.90013793 218.260414,9.90013793 L218.260414,8.98758621 C218.260414,8.98758621 218.365241,8.47558621 218.312276,8.31448276 L218.783448,8.23503448 L219.570207,8.07282759 L219.800828,7.91062069 L220.131862,7.48027586 C220.131862,7.48027586 219.76,7.21103448 220.028138,6.83475862 C220.157241,6.6537931 220.621793,6.61958621 220.836966,6.45848276 C221.051034,6.29737931 221.376552,6.18924138 221.376552,6.18924138 C221.376552,6.18924138 221.753931,5.86703448 222.130207,5.48965517 C222.130207,5.48965517 222.399448,5.32744828 222.721655,5.21931034 C222.721655,5.21931034 223.637517,6.02703448 223.799724,6.02703448 C223.961931,6.02703448 224.553379,5.65075862 224.553379,5.65075862 C224.553379,5.65075862 224.714483,5.16744828 224.661517,5.00524138 C224.607448,4.84413793 224.338207,4.30565517 224.338207,4.30565517 C224.338207,4.30565517 224.177103,4.57489655 224.016,4.79006897 C223.854897,5.00524138 223.746759,5.27448276 223.746759,5.27448276 C223.746759,5.27448276 222.993103,5.22262069 222.940138,5.06151724 C222.884966,4.89931034 222.779034,4.63337931 222.723862,4.47337931 C222.672,4.31117241 222.240552,4.31668966 221.919448,4.42482759 C221.595034,4.53296552 221.97131,3.84441379 221.97131,3.84441379 C221.97131,3.84441379 222.295724,3.43834483 222.509793,3.43834483 C222.723862,3.43834483 223.210483,3.16248276 223.423448,3.10951724 C223.639724,3.05544828 224.287448,2.80937931 224.554483,2.80937931 C224.823724,2.80937931 225.147034,2.92524138 225.309241,2.92524138 L226.115862,2.92524138 L227.24469,2.83475862 C227.24469,2.83475862 228.214621,3.19337931 227.890207,3.40965517 C227.890207,3.40965517 228.26869,3.64248276 228.429793,3.80358621 C228.580966,3.95586207 228.971586,3.66344828 229.195586,3.53875862 C233.222069,6.06565517 235.914483,10.5357241 235.914483,15.6325517 L235.914483,15.6325517 Z M210.236138,7.21103448 C210.236138,7.4262069 209.942621,7.47806897 210.236138,8.01875862 C210.61131,8.71834483 210.289103,9.04165517 210.289103,9.04165517 C210.289103,9.04165517 209.373241,9.68717241 209.212138,9.79531034 C209.051034,9.90344828 208.62069,10.4948966 208.888828,10.3326897 C209.158069,10.1715862 209.480276,10.0104828 209.212138,10.4408276 C208.942897,10.8722759 208.458483,11.5707586 208.351448,11.8411034 C208.244414,12.1114483 207.705931,12.7558621 207.705931,13.0791724 C207.705931,13.4024828 207.490759,14.0491034 207.544828,14.3183448 C207.581241,14.505931 207.462069,15.0587586 207.368276,15.286069 C207.441103,12.2604138 208.459586,9.472 210.141241,7.19117241 C210.196414,7.19668966 210.236138,7.21103448 210.236138,7.21103448 L210.236138,7.21103448 Z M211.965241,5.14758621 C213.281655,3.93268966 214.824276,2.96386207 216.525793,2.30841379 C216.358069,2.52358621 216.155034,2.74427586 216.155034,2.74427586 C216.155034,2.74427586 215.778759,2.74317241 215.078069,3.49793103 C214.379586,4.25158621 214.54069,4.03641379 214.379586,4.25048276 C214.218483,4.46455172 214.271448,4.51972414 213.894069,4.79006897 C213.518897,5.0582069 213.35669,5.38151724 213.35669,5.38151724 L212.764138,5.59668966 L212.280828,5.38151724 C212.280828,5.38151724 211.848276,5.54372414 211.902345,5.32744828 C211.917793,5.27006897 211.940966,5.21048276 211.965241,5.14758621 L211.965241,5.14758621 Z M218.416,6.40331034 L218.201931,6.08110345 L218.416,5.59668966 L218.934621,5.80413793 L218.934621,4.84303448 L219.430069,4.57489655 L219.841655,5.16634483 L220.475034,5.86703448 L220.054621,6.18924138 L218.933517,6.40441379 L218.933517,5.83393103 L218.416,6.40331034 L218.416,6.40331034 Z M225.414069,11.4626207 C225.539862,11.3633103 225.951448,11.6237241 225.951448,11.6237241 C225.951448,11.6237241 227.296552,11.8929655 227.511724,12.054069 C227.728,12.2162759 228.104276,12.3244138 228.212414,12.4866207 C228.320552,12.6477241 228.695724,13.1321379 228.74869,13.2932414 C228.803862,13.4543448 229.073103,14.048 229.127172,14.262069 C229.181241,14.4772414 229.342345,15.0157241 229.503448,15.2849655 C229.664552,15.5553103 230.580414,16.7382069 230.902621,17.2766897 L231.873655,17.1155862 C231.873655,17.1155862 231.764414,17.5988966 231.657379,17.7611034 C231.550345,17.9222069 231.227034,18.3525517 231.065931,18.5677241 C230.903724,18.7828966 230.689655,19.1062069 230.366345,19.3743448 C230.044138,19.6424828 230.041931,19.9117241 229.881931,20.128 C229.720828,20.3431724 229.504552,20.8275862 229.504552,20.8275862 C229.504552,20.8275862 229.61269,21.9045517 229.665655,22.1197241 C229.718621,22.3348966 229.289379,22.9263448 229.289379,22.9263448 L228.803862,23.4118621 L228.155034,24.2714483 L228.208,25.078069 C228.208,25.078069 227.718069,25.4565517 227.447724,25.6706207 C227.18069,25.8846897 227.222621,26.0468966 227.007448,26.2631724 C226.793379,26.4772414 225.951448,26.8546207 225.736276,26.9086897 C225.521103,26.9627586 224.333793,27.1238621 224.333793,27.1238621 L224.333793,26.6405517 L224.309517,26.102069 C224.309517,26.102069 224.146207,25.4565517 223.984,25.2413793 C223.821793,25.0262069 223.892414,24.7017931 223.623172,24.4336552 C223.353931,24.1644138 223.254621,23.9503448 223.200552,23.7870345 C223.146483,23.625931 223.259034,23.1426207 223.259034,23.1426207 C223.259034,23.1426207 223.476414,22.550069 223.583448,22.3348966 C223.691586,22.1197241 223.584552,21.7975172 223.476414,21.5812414 C223.368276,21.3649655 223.316414,20.8264828 223.316414,20.6664828 C223.316414,20.5053793 222.883862,20.2350345 222.722759,20.073931 C222.561655,19.9128276 222.615724,19.6965517 222.615724,19.4835862 C222.615724,19.2662069 222.454621,18.7828966 222.507586,18.4055172 C222.561655,18.0292414 222.024276,18.2973793 221.700966,18.4055172 C221.377655,18.5136552 221.163586,18.2973793 221.163586,17.974069 C221.163586,17.6507586 220.572138,17.9211034 220.194759,18.1351724 C219.816276,18.3503448 219.387034,18.3503448 218.954483,18.5125517 C218.525241,18.6736552 218.311172,18.3514483 218.311172,18.3514483 C218.311172,18.3514483 217.93269,18.0292414 217.665655,17.8670345 C217.39531,17.705931 217.126069,17.3837241 216.909793,17.1144828 C216.695724,16.8441379 216.156138,16.0364138 216.104276,15.7153103 C216.050207,15.3908966 216.104276,15.1746207 216.104276,14.7983448 C216.104276,14.422069 216.104276,14.2068966 216.157241,13.9376552 C216.21131,13.6684138 216.372414,13.3451034 216.534621,13.0758621 C216.695724,12.8066207 217.288276,12.4844138 217.448276,12.3762759 C217.609379,12.2692414 217.986759,11.9470345 217.986759,11.7307586 C217.986759,11.5155862 218.203034,11.4085517 218.308966,11.1922759 C218.418207,10.9771034 218.794483,10.4397241 219.278897,10.6548966 C219.278897,10.6548966 219.708138,10.601931 219.869241,10.5478621 C220.030345,10.4937931 220.46069,10.3337931 220.673655,10.2256552 C220.888828,10.1175172 221.425103,10.0667586 221.425103,10.0667586 C221.425103,10.0667586 221.848828,10.2355862 222.009931,10.2355862 C222.171034,10.2355862 222.696276,10.1417931 222.696276,10.1417931 C222.696276,10.1417931 222.939034,10.921931 222.939034,11.0841379 C222.939034,11.2463448 223.100138,11.4063448 223.370483,11.5144828 C223.636414,11.6237241 224.875586,11.894069 225.414069,11.4626207 L225.414069,11.4626207 Z M231.60331,22.0126897 C231.60331,22.1737931 231.549241,22.6052414 231.495172,22.8204138 C231.438897,23.0355862 231.332966,23.4129655 231.28,23.625931 C231.225931,23.8422069 230.95669,24.2725517 230.79669,24.3806897 C230.635586,24.4888276 230.365241,24.8121379 230.205241,24.8651034 C230.044138,24.9191724 229.934897,24.4877241 229.988966,24.2725517 C230.044138,24.0573793 230.312276,23.465931 230.312276,23.465931 C230.312276,23.465931 230.366345,23.1437241 230.41931,22.9274483 C230.474483,22.7133793 231.12,22.4441379 231.12,22.4441379 L231.551448,21.6364138 C231.549241,21.6353103 231.60331,21.8526897 231.60331,22.0126897 L231.60331,22.0126897 Z M207.719172,18.806069 C207.78869,18.8237241 207.888,18.8744828 208.028138,18.9991724 C208.231172,19.1757241 208.351448,19.2662069 208.62069,19.3754483 C208.888828,19.4846897 208.996966,19.6435862 209.320276,19.8057931 C209.643586,19.968 209.536552,19.8609655 209.965793,20.3442759 C210.397241,20.8275862 210.343172,20.8275862 210.450207,21.097931 C210.557241,21.3682759 210.719448,21.6353103 210.827586,21.7986207 C210.935724,21.9597241 211.257931,22.0667586 211.419034,22.1748966 C211.580138,22.2830345 211.849379,22.390069 212.010483,22.390069 C212.17269,22.390069 212.657103,22.8744828 212.926345,22.9274483 C213.195586,22.9826207 213.195586,23.5211034 213.195586,23.5211034 L212.926345,24.2736552 L212.710069,25.0802759 L212.926345,25.7257931 C212.926345,25.7257931 212.601931,25.9961379 212.388966,25.9961379 C212.190345,25.9961379 212.123034,26.121931 211.905655,26.0623448 C209.853241,24.1456552 208.36469,21.6386207 207.719172,18.806069 L207.719172,18.806069 Z" id="Shape"></path>
                <path d="M117.661155,78.7649617 L120.510281,81.6307504 L123.788628,78.4420214 L123.788628,78.4542726 L126.127173,76.1794793 L126.127173,76.1677182 L126.888174,75.4272588 L135,67.5375191 L133.611489,66.0918836 L132.222978,64.6462481 L124.111153,72.5114855 L117.661155,78.7649617 L117.661155,78.7649617 Z M119.654277,82.5339051 L116.814894,79.6779173 L115.292891,84.0520674 L119.604583,82.5819296 L119.654277,82.5339051 L119.654277,82.5339051 Z M119.574376,68.8728943 L119.574376,71.6416539 L107.552796,71.6416539 L107.552796,68.8728943 L119.574376,68.8728943 L119.574376,68.8728943 Z M121.912921,66.5084227 L105.214252,66.5084227 L105.214252,74.0061256 L119.260134,74.0061256 L121.912921,71.4377948 L121.912921,66.5084227 L121.912921,66.5084227 Z M122.996934,64.3644717 C123.54503,64.4134763 123.788628,64.8300153 123.788628,65.2343032 L123.788628,69.6113936 C123.969865,69.4364472 124.152564,69.2610107 124.336725,69.0870444 L126.127173,67.3405207 L126.127173,64.9525268 C126.127173,64.9157734 126.090633,64.7442573 126.078453,64.6462481 C125.981014,64.1071975 125.761775,63.5436447 125.298938,63.0413476 C124.823921,62.5022971 124.251465,62.2327718 123.764268,62.0980092 C123.52067,62.0367534 123.301431,62.0245023 123.057833,62 L104.05716,62 C103.94754,62.0122511 103.825741,62.0122511 103.740482,62.0245023 C103.582143,62.0490046 103.423804,62.085758 103.277645,62.1225115 C103.168026,62.1592649 103.046226,62.2082695 102.960967,62.2327718 C102.851348,62.2695253 102.741728,62.3430322 102.632109,62.3920368 C101.791695,62.8085758 101.207059,63.7764165 101.07308,64.4624809 C101.04872,64.6217458 101.02436,64.7932619 101,64.9525268 L101,91.0474732 C101,91.0719755 101.03654,91.3782542 101.07308,91.5375191 C101.109619,91.6967841 101.170519,91.8437979 101.219239,92.0030628 C101.255778,92.0765697 101.304498,92.1745789 101.328858,92.2480858 C101.718615,93.1301685 102.790448,93.8162328 103.521243,93.9264931 C103.691762,93.9509954 103.862281,93.9877489 104.0328,94 L123.082193,94 C123.118733,94 123.398871,93.9632466 123.54503,93.9387443 C123.691189,93.914242 123.910427,93.8529862 124.068766,93.7917305 C124.470704,93.6324655 124.897001,93.3996937 125.298938,92.9586524 C125.700876,92.517611 125.920114,92.0153139 126.029733,91.5865237 C126.066273,91.4027565 126.102813,91.2189893 126.127173,91.0352221 L126.127173,79.4015314 L123.788628,81.6866156 L123.788628,90.7534456 C123.800808,91.2434916 123.374511,91.6355283 123.021293,91.6355283 L104.093699,91.6355283 C103.557783,91.5620214 103.338544,91.1454824 103.338544,90.7656968 L103.338544,65.2465544 C103.350724,65.1852986 103.350724,65.0995406 103.350724,65.050536 C103.399444,64.6584992 103.825741,64.3399694 104.118059,64.3644717 L122.996934,64.3644717 L122.996934,64.3644717 Z M121.894407,87.1883614 L105.232278,87.1883614 L105.232278,89.5405819 L121.894407,89.5405819 L121.894407,87.1883614 L121.894407,87.1883614 Z M113.563343,82.2388974 L105.232278,82.2388974 L105.232278,84.5911179 L113.563343,84.5911179 L113.563343,82.2388974 L113.563343,82.2388974 Z M113.563343,76.848392 L105.232278,76.848392 L105.232278,79.2006126 L113.563343,79.2006126 L113.563343,76.848392 L113.563343,76.848392 Z" id="Shape"></path>
                <path d="M335.641018,65.03296 C334.481978,65.54816 333.234618,65.89568 331.925818,66.0512 C333.262138,65.2512 334.286778,63.984 334.769978,62.47232 C333.520058,63.21408 332.136378,63.75232 330.662458,64.04288 C329.482938,62.78592 327.801658,62 325.941178,62 C322.369338,62 319.473338,64.896 319.473338,68.46848 C319.473338,68.97472 319.530298,69.46816 319.641018,69.9424 C314.265018,69.67232 309.498298,67.0976 306.307898,63.184 C305.751098,64.13888 305.432378,65.24992 305.432378,66.43648 C305.432378,68.68032 306.574138,70.66048 308.309818,71.82016 C307.249978,71.78624 306.252218,71.49504 305.379898,71.01056 C305.379258,71.03744 305.379258,71.06496 305.379258,71.09248 C305.379258,74.22592 307.609018,76.83968 310.568378,77.43488 C310.025658,77.58208 309.454138,77.66144 308.864058,77.66144 C308.446778,77.66144 308.041658,77.62112 307.646778,77.54496 C308.470458,80.11456 310.858938,81.98528 313.689018,82.03712 C311.475258,83.77216 308.686778,84.8064 305.655738,84.8064 C305.134138,84.8064 304.618938,84.77568 304.112698,84.71552 C306.976058,86.55168 310.375738,87.62176 314.028218,87.62176 C325.926458,87.62176 332.432058,77.76576 332.432058,69.21792 C332.432058,68.9376 332.426298,68.65792 332.414138,68.38016 C333.677498,67.47008 334.774458,66.33024 335.641018,65.03296 L335.641018,65.03296 Z" id="Shape"></path>
                <g id="g1941" transform="translate(219.556349, 76.556349) rotate(-45.000000) translate(-219.556349, -76.556349) translate(213.556349, 60.556349)">
                    <path d="M7.10656,-7.99360578e-14 C5.60879603,0.168336134 0.162411085,2.66870588 0.00356413574,15.5616134 C-0.16375634,29.1431261 5.60879603,32.0002689 7.12268967,31.969479 L7.12268967,22.9989916 C5.87650844,22.9989916 5.62580246,21.6360336 5.34108361,18.8237983 C5.15268099,16.9630252 5.09773971,14.659563 5.34108361,12.3700168 C5.51188413,10.7634958 5.80958034,9.19536134 7.1146583,9.19536134 L7.10656,-7.99360578e-14 L7.10656,-7.99360578e-14 Z" id="path1943"></path>
                    <path d="M10.3355733,31.9852773 C10.9128282,31.9852773 11.3268455,31.5128739 11.3268455,30.9834622 L11.3309281,30.9792941 C11.3309281,30.9792941 11.3268455,23.9876975 11.3268455,23.9834622 C11.3268455,23.4288403 10.8793642,22.9915966 10.3355733,22.9915966 L7.80569098,22.9915966 L7.80569098,31.9852773 C7.80569098,31.9852773 10.329349,31.9891765 10.3314238,31.9870924 L10.3355733,31.9852773 L10.3355733,31.9852773 Z" id="path1945"></path>
                    <path d="M10.3355733,9.19536134 C10.9128282,9.19536134 11.3268455,8.72295798 11.3268455,8.19354622 L11.3309281,8.18937815 C11.3309281,8.18937815 11.3268455,0.99610084 11.3268455,0.991865546 C11.3268455,0.437243697 10.8793642,-7.99360578e-14 10.3355733,-7.99360578e-14 L7.80569098,-7.99360578e-14 L7.80569098,9.19536134 C7.80569098,9.19536134 10.329349,9.1992605 10.3314238,9.19717647 L10.3355733,9.19536134 L10.3355733,9.19536134 Z" id="path1947"></path>
                </g>
                <g id="Group" transform="translate(0.000000, 62.000000)">
                    <path d="M30.5333333,0 L1.46666667,0 C0.666666667,0 0,0.666666667 0,1.46666667 L0,30.5333333 C0,31.3333333 0.666666667,32 1.46666667,32 L30.5333333,32 C31.3333333,32 32,31.3333333 32,30.5333333 L32,1.46666667 C32,0.666666667 31.3333333,0 30.5333333,0 L30.5333333,0 Z M29.3333333,29.3333333 L2.66666667,29.3333333 L2.66666667,9.33333333 L29.3333333,9.33333333 L29.3333333,29.3333333 L29.3333333,29.3333333 Z M29.3333333,8 L2.66666667,8 L2.66666667,2.66666667 L29.3333333,2.66666667 L29.3333333,8 L29.3333333,8 Z" id="Shape"></path>
                    <circle id="Oval" cx="5.33333333" cy="5.33333333" r="1.33333333"></circle>
                    <circle id="Oval" cx="9.33333333" cy="5.33333333" r="1.33333333"></circle>
                    <circle id="Oval" cx="13.3333333" cy="5.33333333" r="1.33333333"></circle>
                </g>
            </g>
        </g>
    </g>
</svg>