<?xml version="1.0" encoding="UTF-8" standalone="no"?>
<svg width="14px" height="53px" viewBox="0 0 14 53" version="1.1" xmlns="http://www.w3.org/2000/svg" xmlns:xlink="http://www.w3.org/1999/xlink">
    <!-- Generator: Sketch 3.8.3 (29802) - http://www.bohemiancoding.com/sketch -->
    <title>Group</title>
    <desc>Created with Sketch.</desc>
    <defs></defs>
    <g id="Page-1" stroke="none" stroke-width="1" fill="none" fill-rule="evenodd">
        <g id="Group-2" transform="translate(0.000000, -2.000000)">
            <g id="Group" transform="translate(0.000000, 2.000000)">
                <path d="M13.1358025,3.15 L11.5802469,3.15 L11.5802469,0.875 C11.5802469,0.392525 11.1925679,0 10.7160494,0 L3.28395062,0 C2.8074321,0 2.41975309,0.392525 2.41975309,0.875 L2.41975309,3.15 L0.864197531,3.15 C0.387679012,3.15 0,3.542525 0,4.025 L0,9.1 C0,9.582475 0.387679012,9.975 0.864197531,9.975 L2.41975309,9.975 L2.41975309,13.125 C2.41975309,13.607475 2.8074321,14 3.28395062,14 L10.7160494,14 C11.1925679,14 11.5802469,13.607475 11.5802469,13.125 L11.5802469,9.975 L13.1358025,9.975 C13.612321,9.975 14,9.582475 14,9.1 L14,4.025 C14,3.542525 13.612321,3.15 13.1358025,3.15 L13.1358025,3.15 Z M3.45679012,1.05 L10.5432099,1.05 L10.5432099,3.15 L3.45679012,3.15 L3.45679012,1.05 L3.45679012,1.05 Z M10.5432099,12.95 L3.45679012,12.95 L3.45679012,8.4 L10.5432099,8.4 L10.5432099,12.95 L10.5432099,12.95 Z M12.962963,8.925 L11.5802469,8.925 L11.5802469,7.35 L2.41975309,7.35 L2.41975309,8.925 L1.03703704,8.925 L1.03703704,4.2 L12.962963,4.2 L12.962963,8.925 L12.962963,8.925 Z M10.2262222,5.65845 C10.4013086,5.65845 10.5432099,5.514775 10.5432099,5.3375 C10.5432099,5.1604 10.4013086,5.016725 10.2262222,5.016725 C10.0513086,5.016725 9.90940741,5.1604 9.90940741,5.3375 C9.90940741,5.514775 10.0513086,5.65845 10.2262222,5.65845 L10.2262222,5.65845 Z M11.5802469,5.90625 C11.842963,5.90625 12.0555556,5.691 12.0555556,5.42465 C12.0555556,5.158825 11.842963,4.943575 11.5802469,4.943575 C11.3178765,4.943575 11.1049383,5.158825 11.1049383,5.42465 C11.1049383,5.691 11.3178765,5.90625 11.5802469,5.90625 L11.5802469,5.90625 Z M5.01234568,12.075 L7.25925926,12.075 C7.54565432,12.075 7.77777778,11.839975 7.77777778,11.55 C7.77777778,11.260025 7.54565432,11.025 7.25925926,11.025 L5.01234568,11.025 C4.72595062,11.025 4.49382716,11.260025 4.49382716,11.55 C4.49382716,11.839975 4.72595062,12.075 5.01234568,12.075 L5.01234568,12.075 Z M5.01234568,10.325 L8.98765432,10.325 C9.27404938,10.325 9.50617284,10.089975 9.50617284,9.8 C9.50617284,9.510025 9.27404938,9.275 8.98765432,9.275 L5.01234568,9.275 C4.72595062,9.275 4.49382716,9.510025 4.49382716,9.8 C4.49382716,10.089975 4.72595062,10.325 5.01234568,10.325 L5.01234568,10.325 Z" id="Shape" fill="#777777"></path>
                <path d="M13.1358025,42.15 L11.5802469,42.15 L11.5802469,39.875 C11.5802469,39.392525 11.1925679,39 10.7160494,39 L3.28395062,39 C2.8074321,39 2.41975309,39.392525 2.41975309,39.875 L2.41975309,42.15 L0.864197531,42.15 C0.387679012,42.15 0,42.542525 0,43.025 L0,48.1 C0,48.582475 0.387679012,48.975 0.864197531,48.975 L2.41975309,48.975 L2.41975309,52.125 C2.41975309,52.607475 2.8074321,53 3.28395062,53 L10.7160494,53 C11.1925679,53 11.5802469,52.607475 11.5802469,52.125 L11.5802469,48.975 L13.1358025,48.975 C13.612321,48.975 14,48.582475 14,48.1 L14,43.025 C14,42.542525 13.612321,42.15 13.1358025,42.15 L13.1358025,42.15 Z M3.45679012,40.05 L10.5432099,40.05 L10.5432099,42.15 L3.45679012,42.15 L3.45679012,40.05 L3.45679012,40.05 Z M10.5432099,51.95 L3.45679012,51.95 L3.45679012,47.4 L10.5432099,47.4 L10.5432099,51.95 L10.5432099,51.95 Z M12.962963,47.925 L11.5802469,47.925 L11.5802469,46.35 L2.41975309,46.35 L2.41975309,47.925 L1.03703704,47.925 L1.03703704,43.2 L12.962963,43.2 L12.962963,47.925 L12.962963,47.925 Z M10.2262222,44.65845 C10.4013086,44.65845 10.5432099,44.514775 10.5432099,44.3375 C10.5432099,44.1604 10.4013086,44.016725 10.2262222,44.016725 C10.0513086,44.016725 9.90940741,44.1604 9.90940741,44.3375 C9.90940741,44.514775 10.0513086,44.65845 10.2262222,44.65845 L10.2262222,44.65845 Z M11.5802469,44.90625 C11.842963,44.90625 12.0555556,44.691 12.0555556,44.42465 C12.0555556,44.158825 11.842963,43.943575 11.5802469,43.943575 C11.3178765,43.943575 11.1049383,44.158825 11.1049383,44.42465 C11.1049383,44.691 11.3178765,44.90625 11.5802469,44.90625 L11.5802469,44.90625 Z M5.01234568,51.075 L7.25925926,51.075 C7.54565432,51.075 7.77777778,50.839975 7.77777778,50.55 C7.77777778,50.260025 7.54565432,50.025 7.25925926,50.025 L5.01234568,50.025 C4.72595062,50.025 4.49382716,50.260025 4.49382716,50.55 C4.49382716,50.839975 4.72595062,51.075 5.01234568,51.075 L5.01234568,51.075 Z M5.01234568,49.325 L8.98765432,49.325 C9.27404938,49.325 9.50617284,49.089975 9.50617284,48.8 C9.50617284,48.510025 9.27404938,48.275 8.98765432,48.275 L5.01234568,48.275 C4.72595062,48.275 4.49382716,48.510025 4.49382716,48.8 C4.49382716,49.089975 4.72595062,49.325 5.01234568,49.325 L5.01234568,49.325 Z" id="Shape" fill="#000000"></path>
            </g>
        </g>
    </g>
</svg>