<?xml version="1.0" encoding="UTF-8" standalone="no"?>
<svg width="13px" height="13px" viewBox="0 0 13 13" version="1.1" xmlns="http://www.w3.org/2000/svg" xmlns:xlink="http://www.w3.org/1999/xlink">
    <!-- Generator: Sketch 3.8.3 (29802) - http://www.bohemiancoding.com/sketch -->
    <title>Combined Shape</title>
    <desc>Created with Sketch.</desc>
    <defs></defs>
    <g id="Published-Files" stroke="none" stroke-width="1" fill="none" fill-rule="evenodd">
        <g id="final_design---Change-Log" transform="translate(-1355.000000, -874.000000)" fill="#00A8FF">
            <g id="Group-4-Copy-2" transform="translate(1340.000000, 861.000000)">
                <path d="M23.5974988,23.2284511 C22.9273006,23.6085518 22.1421434,23.8214286 21.3333333,23.8214286 C18.8190476,23.8214286 16.7619048,21.7642857 16.7619048,19.25 L16.7619048,18.85 L15.7904762,17.8785714 C15.6761905,18.3357143 15.6190476,18.7928571 15.6190476,19.25 C15.6190476,22.3928571 18.1904762,24.9642857 21.3333333,24.9642857 C22.4742334,24.9642857 23.5279692,24.6156287 24.4116693,24.0426217 L25.6190476,25.25 L25.9047619,21.5357143 L22.1904762,21.8214286 L23.5974988,23.2284511 Z M19.0695882,15.2719692 C19.7408949,14.8940082 20.5263423,14.6785714 21.3333333,14.6785714 C23.847619,14.6785714 25.9047619,16.7357143 25.9047619,19.25 L25.9047619,19.65 L26.8761905,20.6214286 C26.9904762,20.1642857 27.047619,19.7071429 27.047619,19.25 C27.047619,16.1071429 24.4761905,13.5357143 21.3333333,13.5357143 C20.1888356,13.5357143 19.1261077,13.8627937 18.2392729,14.4416539 L17.047619,13.25 L16.7619048,16.9642857 L20.4761905,16.6785714 L19.0695882,15.2719692 Z" id="Combined-Shape"></path>
            </g>
        </g>
    </g>
</svg>