<?xml version="1.0" encoding="UTF-8" standalone="no"?>
<svg width="38px" height="278px" viewBox="0 0 38 278" version="1.1" xmlns="http://www.w3.org/2000/svg" xmlns:xlink="http://www.w3.org/1999/xlink">
    <!-- Generator: Sketch 3.6.1 (26313) - http://www.bohemiancoding.com/sketch -->
    <title>ic-status-sprite</title>
    <desc>Created with Sketch.</desc>
    <defs></defs>
    <g id="Status-messages" stroke="none" stroke-width="1" fill="none" fill-rule="evenodd">
        <g id="ic-status-sprite" fill="#FFFFFF">
            <path d="M19,34 C28.3888407,34 36,26.3888407 36,17 C36,7.61115925 28.3888407,0 19,0 C9.61115925,0 2,7.61115925 2,17 C2,26.3888407 9.61115925,34 19,34 L19,34 Z M19,32 C10.7157288,32 4,25.2842712 4,17 C4,8.71572875 10.7157288,2 19,2 C27.2842712,2 34,8.71572875 34,17 C34,25.2842712 27.2842712,32 19,32 L19,32 Z" id="Oval-23"></path>
            <path d="M10.4588166,18.7975034 L14.2123973,22.572894 L14.8613793,23.2256469 L15.5655564,22.6328582 L26.4044236,13.5085092 L25.1164097,11.97847 L14.2775425,21.1028189 L15.6307016,21.1627831 L11.8771209,17.3873924 L10.4588166,18.7975034 L10.4588166,18.7975034 Z" id="Path-12"></path>
            <path d="M19,112 C28.3888407,112 36,104.388841 36,95 C36,85.6111593 28.3888407,78 19,78 C9.61115925,78 2,85.6111593 2,95 C2,104.388841 9.61115925,112 19,112 L19,112 Z M19,110 C10.7157288,110 4,103.284271 4,95 C4,86.7157288 10.7157288,80 19,80 C27.2842712,80 34,86.7157288 34,95 C34,103.284271 27.2842712,110 19,110 L19,110 Z" id="Oval-23-Copy"></path>
            <path d="M20.0810547,97.7373047 L17.9365234,97.7373047 L17.4882812,89.1503906 L20.5292969,89.1503906 L20.0810547,97.7373047 Z M17.453125,100.743164 C17.453125,100.250974 17.5849596,99.8789075 17.8486328,99.6269531 C18.112306,99.3749987 18.4960912,99.2490234 19,99.2490234 C19.4863306,99.2490234 19.8627916,99.3779284 20.1293945,99.6357422 C20.3959974,99.893556 20.5292969,100.262693 20.5292969,100.743164 C20.5292969,101.206057 20.3945326,101.570799 20.125,101.837402 C19.8554674,102.104005 19.4804712,102.237305 19,102.237305 C18.50781,102.237305 18.1269545,102.106935 17.8574219,101.846191 C17.5878893,101.585448 17.453125,101.217776 17.453125,100.743164 L17.453125,100.743164 Z" id="!"></path>
            <path d="M19,278 C28.3888407,278 36,270.388841 36,261 C36,251.611159 28.3888407,244 19,244 C9.61115925,244 2,251.611159 2,261 C2,270.388841 9.61115925,278 19,278 L19,278 Z M19,276 C10.7157288,276 4,269.284271 4,261 C4,252.715729 10.7157288,246 19,246 C27.2842712,246 34,252.715729 34,261 C34,269.284271 27.2842712,276 19,276 L19,276 Z" id="Oval-23-Copy"></path>
            <path d="M17.5454102,255.633789 C17.5454102,254.760738 18.0317334,254.324219 19.0043945,254.324219 C19.9770556,254.324219 20.4633789,254.760738 20.4633789,255.633789 C20.4633789,256.049807 20.3417981,256.373534 20.0986328,256.60498 C19.8554675,256.836427 19.4907251,256.952148 19.0043945,256.952148 C18.0317334,256.952148 17.5454102,256.5127 17.5454102,255.633789 L17.5454102,255.633789 Z M20.340332,268 L17.659668,268 L17.659668,258.173828 L20.340332,258.173828 L20.340332,268 Z" id="i"></path>
            <path d="M18.9476625,160.236125 C19.0416693,160.058556 19.0720008,160.035296 19.0002177,160.03533 C18.9282046,160.035364 18.9582332,160.058372 19.0523375,160.236125 L35.1800867,190.699651 C35.3458882,191.012832 35.3535792,191 35.0002927,191 L2.99970728,191 C2.64838508,191 2.65504693,191.011065 2.81991332,190.699651 L18.9476625,160.236125 L18.9476625,160.236125 Z M17.1800867,159.300349 L1.05233748,189.763875 C0.182303232,191.407273 1.14121583,193 2.99970728,193 L35.0002927,193 C36.8629009,193 37.8176282,191.407144 36.9476625,189.763875 L20.8199133,159.300349 C19.9267275,157.61322 18.07281,157.614094 17.1800867,159.300349 L17.1800867,159.300349 Z" id="Triangle-3"></path>
            <path d="M20.0810547,180.737305 L17.9365234,180.737305 L17.4882812,172.150391 L20.5292969,172.150391 L20.0810547,180.737305 Z M17.453125,183.743164 C17.453125,183.250974 17.5849596,182.878908 17.8486328,182.626953 C18.112306,182.374999 18.4960912,182.249023 19,182.249023 C19.4863306,182.249023 19.8627916,182.377928 20.1293945,182.635742 C20.3959974,182.893556 20.5292969,183.262693 20.5292969,183.743164 C20.5292969,184.206057 20.3945326,184.570799 20.125,184.837402 C19.8554674,185.104005 19.4804712,185.237305 19,185.237305 C18.50781,185.237305 18.1269545,185.106935 17.8574219,184.846191 C17.5878893,184.585448 17.453125,184.217776 17.453125,183.743164 L17.453125,183.743164 Z" id="!"></path>
        </g>
    </g>
</svg>