<?xml version="1.0" encoding="UTF-8"?>
<svg width="33px" height="36px" viewBox="0 0 33 36" version="1.1" xmlns="http://www.w3.org/2000/svg" xmlns:xlink="http://www.w3.org/1999/xlink">
    <!-- Generator: Sketch 41.2 (35397) - http://www.bohemiancoding.com/sketch -->
    <title>Group</title>
    <desc>Created with Sketch.</desc>
    <defs></defs>
    <g id="Activity-Viewer" stroke="none" stroke-width="1" fill="none" fill-rule="evenodd">
        <g id="Artboard" transform="translate(-46.000000, -23.000000)">
            <g id="Group" transform="translate(46.000000, 23.000000)">
                <path d="M7.57845061,0.00291293447 L5.6895962,0 C3.56753305,0 2.19616262,1.35232983 2.19616262,3.44541889 L2.19616262,5.0339877 L0.297003983,5.0339877 C0.132894129,5.0339877 0,5.16186553 0,5.31960093 L0,7.6212561 C0,7.7789915 0.133045662,7.90672368 0.297003983,7.90672368 L2.19616262,7.90672368 L2.19616262,13.7145324 C2.19616262,13.8722678 2.32905675,14 2.4931666,14 L4.9710284,14 C5.13513826,14 5.26803238,13.8721222 5.26803238,13.7145324 L5.26803238,7.90672368 L7.48859176,7.90672368 C7.65270161,7.90672368 7.78559574,7.7789915 7.78559574,7.6212561 L7.78650494,5.31960093 C7.78650494,5.24386463 7.75513768,5.17133256 7.6995252,5.11773457 C7.64391272,5.06413658 7.56814639,5.0339877 7.48934942,5.0339877 L5.26803238,5.0339877 L5.26803238,3.6873381 C5.26803238,3.04008406 5.42850546,2.71150505 6.30572793,2.71150505 L7.57814755,2.71106811 C7.74210587,2.71106811 7.875,2.58319029 7.875,2.42560053 L7.875,0.288380512 C7.875,0.130936404 7.7422574,0.00320422792 7.57845061,0.00291293447 Z" id="ic_facebook" fill="#A3BFCC"></path>
                <path d="M32.5,1.65642029 C31.8559017,1.93750792 31.1647936,2.12813833 30.4386568,2.21324472 C31.1800918,1.77596913 31.7476417,1.08238872 32.0166332,0.258473323 C31.32115,0.663418618 30.553465,0.95746089 29.7354816,1.11685934 C29.0804601,0.428657927 28.1487551,0 27.1153384,0 C25.1327453,0 23.5252304,1.58319839 23.5252304,3.53473112 C23.5252304,3.81150992 23.5569421,4.08183956 23.6181922,4.34034105 C20.6350092,4.19277075 17.9897312,2.78513595 16.219283,0.646183308 C15.9098013,1.16746694 15.733743,1.77487081 15.733743,2.42325077 C15.733743,3.64997113 16.3680047,4.73235986 17.3303347,5.36561668 C16.7419963,5.34624104 16.188658,5.18684259 15.7042332,4.92189194 L15.7042332,4.96605038 C15.7042332,6.67848543 16.9421314,8.10766436 18.5835312,8.43293859 C18.2827995,8.51263782 17.965683,8.55679626 17.6376146,8.55679626 C17.4057964,8.55679626 17.181613,8.53418196 16.9618047,8.49109368 C17.4188928,9.89658814 18.7442912,10.9186533 20.3146329,10.9466747 C19.0865712,11.8944478 17.5381046,12.4577214 15.8562432,12.4577214 C15.5664633,12.4577214 15.2810299,12.4404861 15,12.4092541 C16.5889282,13.4141121 18.4752998,14 20.5027296,14 C27.1066456,14 30.7164554,8.61281102 30.7164554,3.94077474 L30.704417,3.48305335 C31.4097368,2.98759452 32.0199216,2.36509568 32.5,1.65642029 Z" id="ic_twitter" fill="#A3BFCC"></path>
                <path d="M7.57845061,22.0029129 L5.6895962,22 C3.56753305,22 2.19616262,23.3523298 2.19616262,25.4454189 L2.19616262,27.0339877 L0.297003983,27.0339877 C0.132894129,27.0339877 0,27.1618655 0,27.3196009 L0,29.6212561 C0,29.7789915 0.133045662,29.9067237 0.297003983,29.9067237 L2.19616262,29.9067237 L2.19616262,35.7145324 C2.19616262,35.8722678 2.32905675,36 2.4931666,36 L4.9710284,36 C5.13513826,36 5.26803238,35.8721222 5.26803238,35.7145324 L5.26803238,29.9067237 L7.48859176,29.9067237 C7.65270161,29.9067237 7.78559574,29.7789915 7.78559574,29.6212561 L7.78650494,27.3196009 C7.78650494,27.2438646 7.75513768,27.1713326 7.6995252,27.1177346 C7.64391272,27.0641366 7.56814639,27.0339877 7.48934942,27.0339877 L5.26803238,27.0339877 L5.26803238,25.6873381 C5.26803238,25.0400841 5.42850546,24.7115051 6.30572793,24.7115051 L7.57814755,24.7110681 C7.74210587,24.7110681 7.875,24.5831903 7.875,24.4256005 L7.875,22.2883805 C7.875,22.1309364 7.7422574,22.0032042 7.57845061,22.0029129 Z" id="ic_facebook" fill="#3853A1"></path>
                <path d="M32.5,23.6564203 C31.8559017,23.9375079 31.1647936,24.1281383 30.4386568,24.2132447 C31.1800918,23.7759691 31.7476417,23.0823887 32.0166332,22.2584733 C31.32115,22.6634186 30.553465,22.9574609 29.7354816,23.1168593 C29.0804601,22.4286579 28.1487551,22 27.1153384,22 C25.1327453,22 23.5252304,23.5831984 23.5252304,25.5347311 C23.5252304,25.8115099 23.5569421,26.0818396 23.6181922,26.340341 C20.6350092,26.1927707 17.9897312,24.785136 16.219283,22.6461833 C15.9098013,23.1674669 15.733743,23.7748708 15.733743,24.4232508 C15.733743,25.6499711 16.3680047,26.7323599 17.3303347,27.3656167 C16.7419963,27.346241 16.188658,27.1868426 15.7042332,26.9218919 L15.7042332,26.9660504 C15.7042332,28.6784854 16.9421314,30.1076644 18.5835312,30.4329386 C18.2827995,30.5126378 17.965683,30.5567963 17.6376146,30.5567963 C17.4057964,30.5567963 17.181613,30.534182 16.9618047,30.4910937 C17.4188928,31.8965881 18.7442912,32.9186533 20.3146329,32.9466747 C19.0865712,33.8944478 17.5381046,34.4577214 15.8562432,34.4577214 C15.5664633,34.4577214 15.2810299,34.4404861 15,34.4092541 C16.5889282,35.4141121 18.4752998,36 20.5027296,36 C27.1066456,36 30.7164554,30.612811 30.7164554,25.9407747 L30.704417,25.4830534 C31.4097368,24.9875945 32.0199216,24.3650957 32.5,23.6564203 Z" id="ic_twitter" fill="#50ABF1"></path>
            </g>
        </g>
    </g>
</svg>