<?xml version="1.0" encoding="UTF-8" standalone="no"?>
<svg width="9px" height="14px" viewBox="0 0 9 14" version="1.1" xmlns="http://www.w3.org/2000/svg" xmlns:xlink="http://www.w3.org/1999/xlink">
    <!-- Generator: Sketch 3.8.3 (29802) - http://www.bohemiancoding.com/sketch -->
    <title>&gt;</title>
    <desc>Created with Sketch.</desc>
    <defs></defs>
    <g id="Register" stroke="none" stroke-width="1" fill="none" fill-rule="evenodd">
        <g id="Registration---admin" transform="translate(-821.000000, -944.000000)" fill="#FFFFFF">
            <g id="btn_login-copy-+-Register-Copy" transform="translate(580.000000, 923.000000)">
                <path d="M250,27.782 C250,28.2500023 249.808002,28.6759981 249.424,29.06 L244.834,33.632 C244.461998,34.0040019 244.036002,34.19 243.556,34.19 C243.087998,34.19 242.665002,34.0010019 242.287,33.623 C241.908998,33.2449981 241.72,32.8280023 241.72,32.372 C241.72,31.9039977 241.911998,31.4780019 242.296,31.094 L245.608,27.782 L242.296,24.488 C241.911998,24.1039981 241.72,23.6780023 241.72,23.21 C241.72,22.7419977 241.908998,22.3220019 242.287,21.95 C242.665002,21.5779981 243.087998,21.392 243.556,21.392 C244.036002,21.392 244.461998,21.5779981 244.834,21.95 L249.424,26.522 C249.808002,26.9060019 250,27.3259977 250,27.782 L250,27.782 Z" id="&gt;"></path>
            </g>
        </g>
    </g>
</svg>