<?xml version="1.0" encoding="UTF-8" standalone="no"?>
<svg width="16px" height="14px" viewBox="0 0 16 14" version="1.1" xmlns="http://www.w3.org/2000/svg" xmlns:xlink="http://www.w3.org/1999/xlink">
    <!-- Generator: Sketch 3.6.1 (26313) - http://www.bohemiancoding.com/sketch -->
    <title>email 2 copy 2</title>
    <desc>Created with Sketch.</desc>
    <defs></defs>
    <g id="Who's-using" stroke="none" stroke-width="1" fill="none" fill-rule="evenodd">
        <g id="Who's-using-detail" transform="translate(-211.000000, -250.000000)" fill="#00A8FF">
            <g id="email-2-copy-2" transform="translate(211.000000, 250.000000)">
                <g id="post-twitter">
                    <path d="M14.4,4.06153846 C14.2769231,9.72307692 10.7076923,13.6615385 5.29230769,13.9076923 C3.07692308,14.0307692 1.47692308,13.2923077 0,12.4307692 C1.6,12.6769231 3.69230769,12.0615385 4.8,11.0769231 C3.2,10.9538462 2.21538462,10.0923077 1.72307692,8.73846154 C2.21538462,8.86153846 2.70769231,8.73846154 3.07692308,8.73846154 C1.6,8.24615385 0.615384615,7.38461538 0.492307692,5.41538462 C0.861538462,5.66153846 1.35384615,5.78461538 1.84615385,5.78461538 C0.738461538,5.16923077 -1.09314267e-15,2.83076923 0.861538462,1.35384615 C2.46153846,3.07692308 4.43076923,4.55384615 7.63076923,4.8 C6.76923077,1.35384615 11.4461538,-0.492307692 13.2923077,1.84615385 C14.1538462,1.72307692 14.7692308,1.35384615 15.3846154,1.10769231 C15.1384615,1.96923077 14.6461538,2.46153846 14.0307692,2.95384615 C14.6461538,2.83076923 15.2615385,2.70769231 15.7538462,2.46153846 C15.6307692,3.07692308 15.0153846,3.56923077 14.4,4.06153846 L14.4,4.06153846 Z" id="Path"></path>
                </g>
            </g>
        </g>
    </g>
</svg>