<?xml version="1.0" encoding="UTF-8" standalone="no"?>
<svg width="28px" height="82px" viewBox="0 0 28 82" version="1.1" xmlns="http://www.w3.org/2000/svg" xmlns:xlink="http://www.w3.org/1999/xlink">
    <!-- Generator: Sketch 3.8.3 (29802) - http://www.bohemiancoding.com/sketch -->
    <title>Group 2</title>
    <desc>Created with Sketch.</desc>
    <defs></defs>
    <g id="Published-Files" stroke="none" stroke-width="1" fill="none" fill-rule="evenodd">
        <g id="Artboard-2" transform="translate(-20.000000, -17.000000)">
            <g id="Group-2" transform="translate(20.000000, 17.000000)">
                <g id="noun_163770_cc" fill="#484848">
                    <g id="icon-menu">
                        <g id="Group">
                            <g id="Shape">
                                <g>
                                    <path d="M9.04185827,2.99465243 L26.1998992,2.99465243 C27.012138,2.99465243 27.6705882,2.32427665 27.6705882,1.49732619 C27.6705882,0.670375775 27.012138,0 26.1998992,0 L9.04185827,0 C8.22961945,0 7.57116925,0.670375775 7.57116925,1.49732619 C7.57116925,2.32427665 8.22961945,2.99465243 9.04185827,2.99465243 L9.04185827,2.99465243 Z M1.69029686,12.4777183 L26.1998992,12.4777183 C27.012138,12.4777183 27.6705882,11.8073426 27.6705882,10.9803922 C27.6705882,10.1534417 27.012138,9.48306597 26.1998992,9.48306597 L1.69029686,9.48306597 C0.878058039,9.48306597 0.219607843,10.1534417 0.219607843,10.9803922 C0.219607843,11.8073426 0.878058039,12.4777183 1.69029686,12.4777183 L1.69029686,12.4777183 Z M9.04185827,21.9607843 L26.1998992,21.9607843 C27.012138,21.9607843 27.6705882,21.2904085 27.6705882,20.4634581 C27.6705882,19.6365077 27.012138,18.9661319 26.1998992,18.9661319 L9.04185827,18.9661319 C8.22961945,18.9661319 7.57116925,19.6365077 7.57116925,20.4634581 C7.57116925,21.2904085 8.22961945,21.9607843 9.04185827,21.9607843 L9.04185827,21.9607843 Z"></path>
                                </g>
                            </g>
                        </g>
                    </g>
                </g>
                <g id="noun_163770_cc" transform="translate(0.000000, 60.000000)" fill="#00A8FF">
                    <g id="icon-menu">
                        <g id="Group">
                            <g id="Shape">
                                <g>
                                    <path d="M9.04185827,2.99465243 L26.1998992,2.99465243 C27.012138,2.99465243 27.6705882,2.32427665 27.6705882,1.49732619 C27.6705882,0.670375775 27.012138,0 26.1998992,0 L9.04185827,0 C8.22961945,0 7.57116925,0.670375775 7.57116925,1.49732619 C7.57116925,2.32427665 8.22961945,2.99465243 9.04185827,2.99465243 L9.04185827,2.99465243 Z M1.69029686,12.4777183 L26.1998992,12.4777183 C27.012138,12.4777183 27.6705882,11.8073426 27.6705882,10.9803922 C27.6705882,10.1534417 27.012138,9.48306597 26.1998992,9.48306597 L1.69029686,9.48306597 C0.878058039,9.48306597 0.219607843,10.1534417 0.219607843,10.9803922 C0.219607843,11.8073426 0.878058039,12.4777183 1.69029686,12.4777183 L1.69029686,12.4777183 Z M9.04185827,21.9607843 L26.1998992,21.9607843 C27.012138,21.9607843 27.6705882,21.2904085 27.6705882,20.4634581 C27.6705882,19.6365077 27.012138,18.9661319 26.1998992,18.9661319 L9.04185827,18.9661319 C8.22961945,18.9661319 7.57116925,19.6365077 7.57116925,20.4634581 C7.57116925,21.2904085 8.22961945,21.9607843 9.04185827,21.9607843 L9.04185827,21.9607843 Z"></path>
                                </g>
                            </g>
                        </g>
                    </g>
                </g>
            </g>
        </g>
    </g>
</svg>