<?xml version="1.0" encoding="UTF-8"?>
<svg width="81px" height="66px" viewBox="0 0 81 66" version="1.1" xmlns="http://www.w3.org/2000/svg" xmlns:xlink="http://www.w3.org/1999/xlink">
    <!-- Generator: Sketch 42 (36781) - http://www.bohemiancoding.com/sketch -->
    <title>Group</title>
    <desc>Created with Sketch.</desc>
    <defs></defs>
    <g id="Register" stroke="none" stroke-width="1" fill="none" fill-rule="evenodd">
        <g id="Registration---Error-Popup" transform="translate(-472.000000, -282.000000)">
            <g id="Popup" transform="translate(122.000000, 232.000000)">
                <g id="Group" transform="translate(350.000000, 50.000000)">
                    <path d="M35.0680948,3.6150143 C37.9832112,-1.07347342 42.7136475,-1.06688131 45.6246652,3.6150143 L79.0985311,57.4522497 C82.0136475,62.1407374 79.9040116,65.9415077 74.3822384,65.9415077 L6.31052161,65.9415077 C0.790668684,65.9415077 -1.31678875,62.1341453 1.59422896,57.4522497 L35.0680948,3.6150143 Z" id="Triangle" fill="#FEB752"></path>
                    <path d="M42.4324789,44.9466096 L38.2635765,44.9466096 L37.0176976,20.5 L43.6543986,20.5 L42.4324789,44.9466096 Z M36.7301871,52.6071876 C36.7301871,51.4224737 37.0416537,50.5219445 37.6645963,49.9055731 C38.2875388,49.2892017 39.1740207,48.9810206 40.3240685,48.9810206 C41.4581434,48.9810206 42.3286526,49.3012087 42.9356223,49.9415946 C43.542592,50.5819805 43.8460722,51.4705027 43.8460722,52.6071876 C43.8460722,53.7438726 43.5385988,54.6444018 42.9236427,55.3088022 C42.3086866,55.9732025 41.4421705,56.3053977 40.3240685,56.3053977 C39.1899936,56.3053977 38.3075049,55.9852096 37.6765759,55.3448237 C37.0456469,54.7044378 36.7301871,53.7919016 36.7301871,52.6071876 L36.7301871,52.6071876 Z" id="IATI-Organisational-Copy" fill="#FFFFFF"></path>
                </g>
            </g>
        </g>
    </g>
</svg>