<?xml version="1.0" encoding="UTF-8"?>
<svg width="16px" height="16px" viewBox="0 0 16 16" version="1.1" xmlns="http://www.w3.org/2000/svg" xmlns:xlink="http://www.w3.org/1999/xlink">
    <!-- Generator: Sketch 41.2 (35397) - http://www.bohemiancoding.com/sketch -->
    <title>basics_start-date_icon-1</title>
    <desc>Created with Sketch.</desc>
    <defs></defs>
    <g id="Page-1" stroke="none" stroke-width="1" fill="none" fill-rule="evenodd" opacity="0.300000012">
        <g id="AidStream-tz_add-an-activity" transform="translate(-339.000000, -372.000000)">
            <g id="add-activity_basics" transform="translate(36.000000, 148.000000)">
                <g id="basics_start-date_icon-1" transform="translate(303.000000, 224.000000)">
                    <path d="M14.4,1.6 L12.8,1.6 L12.8,0 L11.2,0 L11.2,1.6 L4.8,1.6 L4.8,0 L3.2,0 L3.2,1.6 L1.6,1.6 C0.7164,1.6 0,2.3164 0,3.2 L0,14.4 C0,15.2836 0.7164,16 1.6,16 L14.4,16 C15.2836,16 16,15.2836 16,14.4 L16,3.2 C16,2.3164 15.2836,1.6 14.4,1.6 Z M14.4,14.4 L1.6,14.4 L1.6,6.4 L14.4,6.4 L14.4,14.4 Z M14.4,4.8 L1.6,4.8 L1.6,3.2 L14.4,3.2 L14.4,4.8 Z" id="ic_calendar_outline" fill="#1AAB3C"></path>
                    <rect id="ic_calendar_box-1" fill="#00A8FF" x="8" y="8" width="1.6" height="1.6"></rect>
                    <rect id="ic_calendar_box-2" fill="#00A8FF" x="11.2" y="8" width="1.6" height="1.6"></rect>
                    <rect id="ic_calendar_box-3" fill="#00A8FF" x="8" y="11.2" width="1.6" height="1.6"></rect>
                    <rect id="ic_calendar_box-4" fill="#00A8FF" x="4.8" y="11.2" width="1.6" height="1.6"></rect>
                </g>
            </g>
        </g>
    </g>
</svg>