<?xml version="1.0" encoding="UTF-8"?>
<svg width="141px" height="38px" viewBox="0 0 141 38" version="1.1" xmlns="http://www.w3.org/2000/svg" xmlns:xlink="http://www.w3.org/1999/xlink">
    <!-- Generator: Sketch 41.2 (35397) - http://www.bohemiancoding.com/sketch -->
    <title>ic_logo-aidastream</title>
    <desc>Created with Sketch.</desc>
    <defs></defs>
    <g id="Symbols" stroke="none" stroke-width="1" fill="none" fill-rule="evenodd">
        <g id="header" transform="translate(-32.000000, -30.000000)">
            <g id="Logo_AidStream-Tanzania">
                <g transform="translate(32.000000, 30.000000)">
                    <path d="M22.4126587,27.5074618 C22.6817626,24.0074278 19.9823802,20.356362 16.6787697,19.6770414 C16.6787697,19.6770414 18.5390859,18.9763408 20.6591902,19.4270159 C22.7645514,19.8746253 25.3057279,21.2515 26.549827,25.0806253 C26.549827,25.0806253 28.0674044,30.2939671 23.5014682,33.5751985 C19.3502858,36.5583195 15.157223,34.0803323 15.157223,34.0803323 C18.8305476,34.2771093 22.1223311,31.2838227 22.4126587,27.5074618 M2.40694864,31.8159034 C3.13049945,31.2298482 3.8852378,30.8470244 4.56407298,30.7278609 C8.67110681,30.0067484 9.98835487,32.0146975 11.2531917,33.39488 C13.7967174,36.1700902 16.10419,36.7876911 18.6723417,36.7887399 C23.8145587,36.7909183 28.0959187,32.2657718 27.8134487,27.1564257 C27.5488812,22.3691518 23.9305601,18.6982389 19.0184019,18.2453854 C18.8939757,18.2339289 18.7894772,18.2382856 18.6658612,18.23288 C17.1413983,18.1665616 16.1523079,18.4898439 14.8385431,18.912604 C14.4606474,19.0341879 14.2197338,19.1744894 14.0412763,19.2200732 C13.8255558,19.2751773 13.7073672,19.2178949 13.631869,19.1600478 C13.5630134,19.1072834 13.3475359,18.7819034 13.594444,18.5374448 C14.2303457,17.9079034 14.4529518,17.8494108 15.2178159,17.2619034 C15.4962356,17.048103 15.7501912,16.8707696 15.8202619,16.609207 C15.8658686,16.4391348 15.8569579,16.2090372 15.6376731,16.003466 C15.3709994,15.7534406 14.9875142,15.8726847 14.4757956,16.1314236 C14.2244322,16.2584936 13.9428533,16.4026677 13.6342992,16.6084809 C11.8839089,17.7759119 10.2507352,19.5436783 9.39012125,21.6313386 C9.34078824,21.7511476 9.89738448,19.7665955 9.96996638,19.537466 C10.2993392,18.4984766 11.7192226,15.6278227 14.000611,13.9033811 C16.0815081,12.1193174 19.4534072,10.6670881 23.0590103,10.9048503 C30.7368954,11.4111136 35.715479,17.5248376 35.5845724,24.5521752 C35.5499016,26.4118355 34.5487412,31.8658439 29.8774965,34.898018 L36.9006054,31.728689 C38.1181343,31.1793429 39.1141913,29.6406253 39.1141913,28.3094151 L39.1141913,10.6588588 C39.1141913,9.32764862 38.1181343,7.788931 36.9006054,7.23958493 L21.7706816,0.412009554 C20.5532336,-0.137336518 18.5610387,-0.137336518 17.3435097,0.412009554 L2.21358592,7.23958493 C0.996137968,7.788931 0,9.32764862 0,10.6588588 L0,28.3094151 C0,29.6406253 0.996137968,31.1793429 2.21358592,31.728689" id="Fill-1" fill="#1AAB3C"></path>
                    <path d="M47.0206339,26.1581935 L50.1783114,17.0185806 L48.9426985,16.9009032 L48.9426985,15.3122581 L53.4340533,15.3122581 L57.4350856,26.6289032 L57.4546985,26.6289032 L58.5726339,26.6877419 L58.5726339,28.3548387 L53.5125049,28.3548387 L53.5125049,26.7661935 L54.2577952,26.7073548 C54.4800759,26.6812042 54.63044,26.6289036 54.708892,26.5504516 C54.787344,26.4719996 54.7938816,26.3281731 54.7285049,26.1189677 L54.3166339,24.9029677 L49.7272146,24.9029677 L49.1388275,26.6289032 L50.3156017,26.6877419 L50.3156017,28.3548387 L45.785021,28.3548387 L45.785021,26.7661935 L46.4322468,26.7073548 C46.7068289,26.6812042 46.9029559,26.4981522 47.0206339,26.1581935 Z M52.0219243,17.5089032 L50.1979243,23.0985806 L53.8459243,23.0985806 L52.080763,17.5089032 L52.0219243,17.5089032 Z M62.8678597,18.4895484 L62.8678597,26.7269677 L63.9857952,26.7858065 L63.9857952,28.3548387 L59.3179243,28.3548387 L59.3179243,26.8642581 L59.9651501,26.8054194 C60.3443348,26.7661934 60.5339243,26.5569911 60.5339243,26.1778065 L60.5339243,20.7254194 C60.5339243,20.5031387 60.4979676,20.3527746 60.4260533,20.2743226 C60.354139,20.1958706 60.2266564,20.1566452 60.0436017,20.1566452 L59.3571501,20.1174194 L59.3571501,18.4895484 L62.8678597,18.4895484 Z M59.984763,15.7633548 C59.984763,15.3449441 60.1220519,14.9951842 60.3966339,14.7140645 C60.671216,14.4329448 61.0307823,14.2923871 61.4753436,14.2923871 C61.919905,14.2923871 62.2827401,14.4329448 62.5638597,14.7140645 C62.8449794,14.9951842 62.9855372,15.3449441 62.9855372,15.7633548 C62.9855372,16.1817655 62.8449794,16.5249879 62.5638597,16.7930323 C62.2827401,17.0610766 61.919905,17.1950968 61.4753436,17.1950968 C61.0307823,17.1950968 60.671216,17.0610766 60.3966339,16.7930323 C60.1220519,16.5249879 59.984763,16.1817655 59.984763,15.7633548 Z M70.0461823,18.1953548 C70.6084217,18.1953548 71.1445024,18.2738057 71.6544404,18.4307097 L71.6544404,16.4498065 C71.6544404,16.1621491 71.4844636,16.0052474 71.1445049,15.9790968 L70.3011501,15.9202581 L70.3011501,14.3708387 L73.9491501,14.3708387 L73.9491501,26.2954839 C73.9622254,26.5962166 74.1256646,26.7465806 74.4394727,26.7465806 L75.1259243,26.7858065 L75.1259243,28.3548387 L71.9486339,28.3548387 L71.9486339,27.1976774 L71.8897952,27.1780645 C71.3014052,28.1325639 70.4122958,28.6098065 69.2224404,28.6098065 C67.7318523,28.6098065 66.6858412,28.1129512 66.0843759,27.1192258 C65.5352118,26.2170277 65.2606339,25.1121786 65.2606339,23.8046452 C65.2606339,22.1048517 65.6823071,20.7450374 66.5256662,19.7251613 C67.3690253,18.7052852 68.5425189,18.1953548 70.0461823,18.1953548 Z M71.6544404,25.2952258 L71.6544404,20.2154839 C71.1837284,20.0062785 70.6868731,19.9016774 70.1638597,19.9016774 C69.3008877,19.9016774 68.6700123,20.2481686 68.2712146,20.9411613 C67.8724169,21.634154 67.673021,22.5167258 67.673021,23.5889032 C67.673021,25.7855594 68.3790785,26.883871 69.7912146,26.883871 C70.3273033,26.883871 70.771858,26.7302381 71.124892,26.4229677 C71.477926,26.1156974 71.6544404,25.7397872 71.6544404,25.2952258 Z" id="Aid" fill="#000000"></path>
                    <path d="M81.2832314,26.5896774 C82.8522715,26.5896774 83.6367798,25.9620708 83.6367798,24.7068387 C83.6367798,24.053072 83.2902886,23.5692919 82.5972959,23.2554839 C82.2311866,23.0724292 81.7572128,22.9024524 81.1753604,22.7455484 C80.5935081,22.5886444 80.109728,22.4284739 79.7240056,22.2650323 C79.3382833,22.1015906 78.9492979,21.8760444 78.5570379,21.5883871 C77.7855932,21.0130724 77.3998766,20.1272318 77.3998766,18.9308387 C77.3998766,17.7344456 77.8150122,16.7930357 78.6452959,16.1065806 C79.4755797,15.4201256 80.5608161,15.0769032 81.9010379,15.0769032 C83.2412596,15.0769032 84.4866665,15.3449436 85.6372959,15.8810323 L85.6372959,18.8229677 L83.6367798,18.9602581 L83.6367798,17.8227097 C83.6367798,17.6265797 83.6106295,17.4827531 83.5583282,17.3912258 C83.4144995,17.1427945 82.9536009,17.0185806 82.1756185,17.0185806 C81.3976361,17.0185806 80.8223301,17.1558696 80.449683,17.4304516 C80.077036,17.7050336 79.8907153,18.1299756 79.8907153,18.7052903 C79.8907153,19.123701 80.0476169,19.4898049 80.361425,19.8036129 C80.5706303,20.0128183 80.8811648,20.1860638 81.2930379,20.3233548 C81.7049109,20.4606458 82.142928,20.6012036 82.6071024,20.7450323 C83.0712767,20.8888609 83.4831436,21.0457626 83.8427153,21.2157419 C84.202287,21.3857213 84.5781972,21.6210738 84.9704572,21.9218065 C85.7680526,22.5101965 86.1668443,23.4189186 86.1668443,24.648 C86.1668443,25.8770814 85.7255584,26.8446416 84.8429734,27.5507097 C83.9603883,28.2567777 82.796701,28.6098065 81.3518766,28.6098065 C79.9070521,28.6098065 78.6093447,28.3417661 77.4587153,27.8056774 L77.4587153,24.7068387 L79.4592314,24.5695484 L79.4592314,25.7659355 C79.4592314,25.9620655 79.4853817,26.105892 79.537683,26.1974194 C79.5899844,26.2889467 79.7501548,26.3772039 80.0181992,26.4621935 C80.2862435,26.5471832 80.7079167,26.5896774 81.2832314,26.5896774 Z M89.4225863,16.4105806 L90.697425,16.4105806 L90.697425,18.4895484 L93.3059411,18.4895484 L93.1098121,20.1370323 L90.697425,20.1370323 L90.697425,25.2952258 C90.697425,25.8705405 90.8020261,26.272601 91.0112314,26.5014194 C91.2204368,26.7302377 91.5440464,26.8446452 91.9820701,26.8446452 C92.4200938,26.8446452 92.8613797,26.7073562 93.3059411,26.4327742 L93.8943282,27.9429677 C93.2405615,28.4006044 92.4102902,28.6294194 91.4034895,28.6294194 C90.8150994,28.6294194 90.3182442,28.5542373 89.9129088,28.403871 C89.5075735,28.2535046 89.2068453,28.0867966 89.0107153,27.9037419 C88.8145853,27.7206873 88.6642212,27.4526469 88.5596185,27.0996129 C88.4550158,26.7465789 88.3961777,26.4687322 88.3831024,26.2660645 C88.3700271,26.0633968 88.3634895,25.7659374 88.3634895,25.3736774 L88.3634895,20.1370323 L86.9709734,20.1370323 L87.1671024,18.7052903 C87.7816431,18.652989 88.2458105,18.4339804 88.5596185,18.0482581 C88.8734265,17.6625357 89.1610796,17.1166487 89.4225863,16.4105806 Z M95.8556185,26.1581935 L95.8556185,20.7254194 C95.8556185,20.516214 95.8196619,20.3691187 95.7477475,20.284129 C95.6758332,20.1991394 95.5483506,20.1501076 95.3652959,20.1370323 L94.541554,20.0781935 L94.541554,18.4895484 L97.8561346,18.4895484 L97.8561346,19.9605161 C98.0914907,19.4505781 98.4575945,19.0289049 98.9544572,18.6954839 C99.4513199,18.3620628 100.023357,18.1953548 100.670586,18.1953548 C101.317815,18.1953548 101.935616,18.3391814 102.524006,18.6268387 L102.524006,21.5491613 L100.700006,21.6864516 L100.700006,20.7842581 C100.700006,20.5227514 100.63463,20.3593122 100.503877,20.2939355 C100.360048,20.2285588 100.183534,20.195871 99.9743282,20.195871 C99.4513148,20.195871 99.0231041,20.3821917 98.689683,20.7548387 C98.356262,21.1274857 98.189554,21.6014595 98.189554,22.1767742 L98.189554,26.7269677 L99.8958766,26.8054194 L99.8958766,28.3548387 L94.6396185,28.3548387 L94.6396185,26.8642581 L95.2868443,26.8054194 C95.4829743,26.7792687 95.6268009,26.7236993 95.7183282,26.6387097 C95.8098555,26.55372 95.8556185,26.3935496 95.8556185,26.1581935 Z M108.623619,18.1953548 C109.604269,18.1953548 110.382239,18.4339761 110.957554,18.9112258 C111.532869,19.3884755 111.820522,20.0585763 111.820522,20.9215484 C111.820522,21.4968631 111.696308,22.0035247 111.447877,22.4415484 C111.199445,22.8795721 110.892179,23.2227945 110.52607,23.4712258 C110.159961,23.7196572 109.715406,23.9223218 109.192393,24.0792258 C108.316345,24.3407325 107.329172,24.4714839 106.230844,24.4714839 C106.27007,25.1644766 106.48581,25.7234387 106.87807,26.1483871 C107.27033,26.5733355 107.871787,26.7858065 108.682457,26.7858065 C109.493128,26.7858065 110.303787,26.4981534 111.114457,25.9228387 L111.859748,27.5114839 C111.598241,27.7468399 111.156955,27.9887299 110.535877,28.2371613 C109.914798,28.4855926 109.205472,28.6098065 108.407877,28.6098065 C106.812686,28.6098065 105.642461,28.1685205 104.897167,27.2859355 C104.151873,26.4033504 103.779231,25.1906314 103.779231,23.6477419 C103.779231,22.1048525 104.204173,20.8104138 105.05407,19.7643871 C105.903967,18.7183604 107.093804,18.1953548 108.623619,18.1953548 Z M109.055102,22.108129 C109.460438,21.813934 109.663102,21.4641741 109.663102,21.0588387 C109.663102,20.2612433 109.270848,19.8624516 108.486328,19.8624516 C107.754109,19.8624516 107.191879,20.1533734 106.799619,20.7352258 C106.407358,21.3170782 106.191619,22.0133293 106.152393,22.824 C106.727707,22.8109247 107.253982,22.7618929 107.731231,22.6769032 C108.208481,22.5919136 108.649767,22.4023241 109.055102,22.108129 Z M121.999619,18.8818065 L121.999619,26.1778065 C121.999619,26.3870118 122.035575,26.5308383 122.107489,26.6092903 C122.179404,26.6877423 122.306886,26.7335053 122.489941,26.7465806 L123.117554,26.7858065 L123.117554,28.3548387 L119.999102,28.3548387 L119.999102,27.2172903 L119.940264,27.1976774 C119.286497,28.1391015 118.39085,28.6098065 117.253296,28.6098065 C115.919612,28.6098065 114.932439,28.1848645 114.291748,27.3349677 C113.651056,26.485071 113.330715,25.3213837 113.330715,23.843871 C113.330715,22.0656255 113.762195,20.6796609 114.625167,19.6859355 C115.488139,18.6922101 116.782578,18.1953548 118.508522,18.1953548 C119.619925,18.1953548 120.783612,18.4241698 121.999619,18.8818065 Z M119.724522,25.2363871 L119.724522,20.1566452 C119.358412,19.9866658 118.85502,19.9016774 118.214328,19.9016774 C117.338281,19.9016774 116.704137,20.2547061 116.311877,20.9607742 C115.919617,21.6668422 115.723489,22.6017146 115.723489,23.7654194 C115.723489,25.8836235 116.403397,26.9427097 117.763231,26.9427097 C118.338546,26.9427097 118.809251,26.7694641 119.17536,26.4229677 C119.54147,26.0764714 119.724522,25.6809485 119.724522,25.2363871 Z M124.196264,20.0781935 L124.196264,18.4895484 L127.510844,18.4895484 L127.510844,19.7643871 C128.243063,18.7183604 129.24658,18.1953548 130.521425,18.1953548 C131.79627,18.1953548 132.65596,18.7183604 133.100522,19.7643871 C133.83274,18.7183604 134.826451,18.1953548 136.081683,18.1953548 C137.023107,18.1953548 137.748777,18.4797391 138.258715,19.0485161 C138.768653,19.6172932 139.023619,20.4704459 139.023619,21.608 L139.023619,26.7269677 L140.141554,26.7858065 L140.141554,28.3548387 L135.473683,28.3548387 L135.473683,26.8642581 L136.120909,26.8054194 C136.317039,26.7792687 136.457597,26.7236993 136.542586,26.6387097 C136.627576,26.55372 136.676608,26.4000871 136.689683,26.1778065 L136.689683,22.1179355 C136.689683,21.3987921 136.607963,20.8659802 136.444522,20.5194839 C136.28108,20.1729875 135.898632,19.9997419 135.297167,19.9997419 C134.695702,19.9997419 134.234803,20.1827939 133.914457,20.5489032 C133.594112,20.9150126 133.433941,21.4053303 133.433941,22.019871 L133.433941,26.7269677 L134.512651,26.7858065 L134.512651,28.3548387 L129.884006,28.3548387 L129.884006,26.8642581 L130.531231,26.8054194 C130.727361,26.7792687 130.871188,26.7236993 130.962715,26.6387097 C131.054243,26.55372 131.100006,26.3935496 131.100006,26.1581935 L131.100006,22.1179355 C131.100006,21.3987921 131.018286,20.8659802 130.854844,20.5194839 C130.691403,20.1729875 130.305686,19.9997419 129.697683,19.9997419 C129.08968,19.9997419 128.628781,20.1893314 128.314973,20.5685161 C128.001165,20.9477008 127.844264,21.4184058 127.844264,21.9806452 L127.844264,26.7269677 L128.90336,26.7858065 L128.90336,28.3548387 L124.274715,28.3548387 L124.274715,26.8642581 L124.921941,26.8054194 C125.118071,26.7792687 125.261898,26.7236993 125.353425,26.6387097 C125.444952,26.55372 125.490715,26.3935496 125.490715,26.1581935 L125.510328,26.1581935 L125.510328,20.7450323 C125.510328,20.5227516 125.474372,20.3691187 125.402457,20.284129 C125.330543,20.1991394 125.20306,20.1501076 125.020006,20.1370323 L124.196264,20.0781935 Z" id="Stream" fill="#1AAB3C"></path>
                    <path d="M99.85,35.88 L99.85,31.34 L99.07,31.34 C98.9166659,31.34 98.84,31.4433323 98.84,31.65 L98.84,32.12 L97.82,32.05 L97.82,30.35 L103.05,30.35 L103.05,32.05 L102.03,32.12 L102.03,31.65 C102.03,31.5366661 102.013334,31.4566669 101.98,31.41 C101.946667,31.3633331 101.866667,31.34 101.74,31.34 L101.06,31.34 L101.06,36.12 L101.85,36.15 L101.85,37 L99.03,37 L99.03,36.19 L99.56,36.16 C99.7533343,36.1399999 99.85,36.0466675 99.85,35.88 Z M108.02,32.17 L108.02,35.89 C108.02,35.9966672 108.038333,36.0699998 108.075,36.11 C108.111667,36.1500002 108.176666,36.1733333 108.27,36.18 L108.59,36.2 L108.59,37 L107,37 L107,36.42 L106.97,36.41 C106.636665,36.8900024 106.180003,37.13 105.6,37.13 C104.919997,37.13 104.416668,36.9133355 104.09,36.48 C103.763332,36.0466645 103.6,35.4533371 103.6,34.7 C103.6,33.7933288 103.819998,33.0866692 104.26,32.58 C104.700002,32.0733308 105.359996,31.82 106.24,31.82 C106.806669,31.82 107.399997,31.9366655 108.02,32.17 Z M106.86,35.41 L106.86,32.82 C106.673332,32.7333329 106.416668,32.69 106.09,32.69 C105.643331,32.69 105.320001,32.8699982 105.12,33.23 C104.919999,33.5900018 104.82,34.0666637 104.82,34.66 C104.82,35.7400054 105.166663,36.28 105.86,36.28 C106.153335,36.28 106.393332,36.1916675 106.58,36.015 C106.766668,35.8383324 106.86,35.6366678 106.86,35.41 Z M109.14,32.77 L109.14,31.97 L110.83,31.97 L110.83,32.62 C111.003334,32.3733321 111.233332,32.1783341 111.52,32.035 C111.806668,31.891666 112.116665,31.82 112.45,31.82 C112.956669,31.82 113.348332,31.9649986 113.625,32.255 C113.901668,32.5450015 114.04,32.9799971 114.04,33.56 L114.04,36.17 L114.61,36.2 L114.61,37 L112.23,37 L112.23,36.24 L112.56,36.21 C112.66,36.1966666 112.733333,36.1683335 112.78,36.125 C112.826667,36.0816665 112.85,36.0000006 112.85,35.88 L112.85,33.82 C112.85,33.4533315 112.793334,33.1816676 112.68,33.005 C112.566666,32.8283324 112.351668,32.74 112.035,32.74 C111.718332,32.74 111.466668,32.839999 111.28,33.04 C111.093332,33.240001 111,33.4766653 111,33.75 L111,36.17 L111.57,36.2 L111.57,37 L109.19,37 L109.19,36.24 L109.52,36.21 C109.620001,36.1966666 109.693333,36.1683335 109.74,36.125 C109.786667,36.0816665 109.81,36.0000006 109.81,35.88 L109.81,33.11 C109.81,32.909999 109.726668,32.8066667 109.56,32.8 L109.14,32.77 Z M119.35,37 L115.27,37 L115.27,36.24 L117.84,32.86 L116.58,32.86 C116.439999,32.86 116.351667,32.8866664 116.315,32.94 C116.278333,32.9933336 116.26,33.0799994 116.26,33.2 L116.26,33.55 L115.32,33.48 L115.32,31.97 L119.3,31.97 L119.3,32.65 L116.7,36.1 L118.12,36.1 C118.313334,36.1 118.41,35.9866678 118.41,35.76 L118.41,35.34 L119.35,35.41 L119.35,37 Z M124.52,32.17 L124.52,35.89 C124.52,35.9966672 124.538333,36.0699998 124.575,36.11 C124.611667,36.1500002 124.676666,36.1733333 124.77,36.18 L125.09,36.2 L125.09,37 L123.5,37 L123.5,36.42 L123.47,36.41 C123.136665,36.8900024 122.680003,37.13 122.1,37.13 C121.419997,37.13 120.916668,36.9133355 120.59,36.48 C120.263332,36.0466645 120.1,35.4533371 120.1,34.7 C120.1,33.7933288 120.319998,33.0866692 120.76,32.58 C121.200002,32.0733308 121.859996,31.82 122.74,31.82 C123.306669,31.82 123.899997,31.9366655 124.52,32.17 Z M123.36,35.41 L123.36,32.82 C123.173332,32.7333329 122.916668,32.69 122.59,32.69 C122.143331,32.69 121.820001,32.8699982 121.62,33.23 C121.419999,33.5900018 121.32,34.0666637 121.32,34.66 C121.32,35.7400054 121.666663,36.28 122.36,36.28 C122.653335,36.28 122.893332,36.1916675 123.08,36.015 C123.266668,35.8383324 123.36,35.6366678 123.36,35.41 Z M125.64,32.77 L125.64,31.97 L127.33,31.97 L127.33,32.62 C127.503334,32.3733321 127.733332,32.1783341 128.02,32.035 C128.306668,31.891666 128.616665,31.82 128.95,31.82 C129.456669,31.82 129.848332,31.9649986 130.125,32.255 C130.401668,32.5450015 130.54,32.9799971 130.54,33.56 L130.54,36.17 L131.11,36.2 L131.11,37 L128.73,37 L128.73,36.24 L129.06,36.21 C129.160001,36.1966666 129.233333,36.1683335 129.28,36.125 C129.326667,36.0816665 129.35,36.0000006 129.35,35.88 L129.35,33.82 C129.35,33.4533315 129.293334,33.1816676 129.18,33.005 C129.066666,32.8283324 128.851668,32.74 128.535,32.74 C128.218332,32.74 127.966668,32.839999 127.78,33.04 C127.593332,33.240001 127.5,33.4766653 127.5,33.75 L127.5,36.17 L128.07,36.2 L128.07,37 L125.69,37 L125.69,36.24 L126.02,36.21 C126.120001,36.1966666 126.193333,36.1683335 126.24,36.125 C126.286667,36.0816665 126.31,36.0000006 126.31,35.88 L126.31,33.11 C126.31,32.909999 126.226668,32.8066667 126.06,32.8 L125.64,32.77 Z M133.51,31.97 L133.51,36.17 L134.08,36.2 L134.08,37 L131.7,37 L131.7,36.24 L132.03,36.21 C132.223334,36.1899999 132.32,36.0833343 132.32,35.89 L132.32,33.11 C132.32,32.9966661 132.301667,32.9200002 132.265,32.88 C132.228333,32.8399998 132.163334,32.82 132.07,32.82 L131.72,32.8 L131.72,31.97 L133.51,31.97 Z M132.04,30.58 C132.04,30.3666656 132.109999,30.1883341 132.25,30.045 C132.390001,29.901666 132.573332,29.83 132.8,29.83 C133.026668,29.83 133.211666,29.901666 133.355,30.045 C133.498334,30.1883341 133.57,30.3666656 133.57,30.58 C133.57,30.7933344 133.498334,30.9683327 133.355,31.105 C133.211666,31.2416674 133.026668,31.31 132.8,31.31 C132.573332,31.31 132.390001,31.2416674 132.25,31.105 C132.109999,30.9683327 132.04,30.7933344 132.04,30.58 Z M139.15,32.17 L139.15,35.89 C139.15,35.9966672 139.168333,36.0699998 139.205,36.11 C139.241667,36.1500002 139.306666,36.1733333 139.4,36.18 L139.72,36.2 L139.72,37 L138.13,37 L138.13,36.42 L138.1,36.41 C137.766665,36.8900024 137.310003,37.13 136.73,37.13 C136.049997,37.13 135.546668,36.9133355 135.22,36.48 C134.893332,36.0466645 134.73,35.4533371 134.73,34.7 C134.73,33.7933288 134.949998,33.0866692 135.39,32.58 C135.830002,32.0733308 136.489996,31.82 137.37,31.82 C137.936669,31.82 138.529997,31.9366655 139.15,32.17 Z M137.99,35.41 L137.99,32.82 C137.803332,32.7333329 137.546668,32.69 137.22,32.69 C136.773331,32.69 136.450001,32.8699982 136.25,33.23 C136.049999,33.5900018 135.95,34.0666637 135.95,34.66 C135.95,35.7400054 136.296663,36.28 136.99,36.28 C137.283335,36.28 137.523332,36.1916675 137.71,36.015 C137.896668,35.8383324 137.99,35.6366678 137.99,35.41 Z" id="Tanzania" fill="#000000" opacity="0.699999988"></path>
                </g>
            </g>
        </g>
    </g>
</svg>