<?xml version="1.0" encoding="UTF-8"?>
<svg width="16px" height="16px" viewBox="0 0 16 16" version="1.1" xmlns="http://www.w3.org/2000/svg" xmlns:xlink="http://www.w3.org/1999/xlink">
    <!-- Generator: Sketch 41.2 (35397) - http://www.bohemiancoding.com/sketch -->
    <title>ic_location</title>
    <desc>Created with Sketch.</desc>
    <defs></defs>
    <g id="Page-1" stroke="none" stroke-width="1" fill="none" fill-rule="evenodd">
        <g id="AidStream-tz_add-an-activity_another-country" transform="translate(-470.000000, -672.000000)">
            <g id="add-activity_location" transform="translate(36.000000, 566.000000)">
                <g id="location_tz" transform="translate(0.000000, 36.000000)">
                    <g id="ic_location" transform="translate(434.000000, 70.000000)">
                        <polygon id="Shape" points="0 0 16 0 16 16 0 16"></polygon>
                        <path d="M8,5.33333333 C6.52666667,5.33333333 5.33333333,6.52666667 5.33333333,8 C5.33333333,9.47333333 6.52666667,10.6666667 8,10.6666667 C9.47333333,10.6666667 10.6666667,9.47333333 10.6666667,8 C10.6666667,6.52666667 9.47333333,5.33333333 8,5.33333333 Z M13.96,7.33333333 C13.6533333,4.55333333 11.4466667,2.34666667 8.66666667,2.04 L8.66666667,0.666666667 L7.33333333,0.666666667 L7.33333333,2.04 C4.55333333,2.34666667 2.34666667,4.55333333 2.04,7.33333333 L0.666666667,7.33333333 L0.666666667,8.66666667 L2.04,8.66666667 C2.34666667,11.4466667 4.55333333,13.6533333 7.33333333,13.96 L7.33333333,15.3333333 L8.66666667,15.3333333 L8.66666667,13.96 C11.4466667,13.6533333 13.6533333,11.4466667 13.96,8.66666667 L15.3333333,8.66666667 L15.3333333,7.33333333 L13.96,7.33333333 Z M8,12.6666667 C5.42333333,12.6666667 3.33333333,10.5766667 3.33333333,8 C3.33333333,5.42333333 5.42333333,3.33333333 8,3.33333333 C10.5766667,3.33333333 12.6666667,5.42333333 12.6666667,8 C12.6666667,10.5766667 10.5766667,12.6666667 8,12.6666667 L8,12.6666667 Z" id="Shape" fill="#1AAB3C"></path>
                    </g>
                </g>
            </g>
        </g>
    </g>
</svg>