<?xml version="1.0" encoding="UTF-8"?>
<svg width="32px" height="31px" viewBox="0 0 32 31" version="1.1" xmlns="http://www.w3.org/2000/svg" xmlns:xlink="http://www.w3.org/1999/xlink">
    <!-- Generator: Sketch 41.2 (35397) - http://www.bohemiancoding.com/sketch -->
    <title>Fill 1</title>
    <desc>Created with Sketch.</desc>
    <defs></defs>
    <g id="Page-1" stroke="none" stroke-width="1" fill="none" fill-rule="evenodd">
        <g id="AidStream-tz_add-an-activity" transform="translate(-16.000000, -14.000000)" fill="#1AAB3C">
            <g id="header">
                <path d="M34.337704,36.506196 C34.5578808,33.6425203 32.3492862,30.6552726 29.6463212,30.0994626 C29.6463212,30.0994626 31.1684043,29.5261597 32.9030421,29.8948954 C34.6256173,30.2611227 36.7047701,31.3876612 37.7226735,34.5205945 C37.7226735,34.5205945 38.9643327,38.7860732 35.2285517,41.470728 C31.832116,43.9114732 28.4014144,41.8840209 28.4014144,41.8840209 C31.4068739,42.045021 34.1001623,39.5959584 34.337704,36.506196 M17.9693296,40.0312989 C18.5613281,39.5517972 19.1788438,39.2385765 19.7342566,39.1410787 C23.0945706,38.5510752 24.1723234,40.1939492 25.207194,41.3231941 C27.288269,43.5938298 29.1762087,44.0991416 31.2774322,44.0999997 C35.4847177,44.101782 38.9876627,40.3993745 38.75655,36.2189835 C38.5400848,32.3021072 35.5796283,29.2986209 31.5605735,28.9281029 C31.4587699,28.9187294 31.3732708,28.9222939 31.27213,28.9178712 C30.0248371,28.8636104 29.215578,29.1281153 28.1406752,29.4740113 C27.8314866,29.5734894 27.6343747,29.688282 27.4883634,29.725578 C27.3118641,29.7706633 27.2151639,29.7237957 27.1533925,29.6764661 C27.0970558,29.6332951 26.9207553,29.367074 27.1227718,29.1670616 C27.6430571,28.6519802 27.8251901,28.6041224 28.4509906,28.1234326 C28.6787894,27.9485042 28.8865722,27.8034128 28.943903,27.5894061 C28.9812177,27.4502556 28.9739271,27.2619931 28.7945115,27.0937978 C28.576323,26.8892307 28.2625612,26.9867945 27.8438806,27.1984908 C27.6382188,27.3024576 27.4078352,27.4204187 27.1553808,27.588812 C25.7232375,28.5439867 24.3869991,29.9903469 23.6828575,31.6984395 C23.642494,31.7964654 24.0978928,30.1727344 24.1572782,29.9852641 C24.4267661,29.1351784 25.5884936,26.7864521 27.4550916,25.3755396 C29.1576507,23.9158452 31.9164884,22.7276528 34.8665392,22.9221863 C41.1484705,23.3364034 45.2218736,28.3385614 45.1147678,34.0882245 C45.0864006,35.6097709 44.2672661,40.0721595 40.4453232,42.5530392 L46.1915264,39.9599413 C47.1876905,39.5104745 48.0026495,38.2515187 48.0026495,37.1623423 L48.0026495,22.7209197 C48.0026495,21.6317433 47.1876905,20.3727875 46.1915264,19.9233207 L33.8124478,14.3371001 C32.81635,13.8876333 31.1863657,13.8876333 30.1902017,14.3371001 L17.8111231,19.9233207 C16.8150253,20.3727875 16,21.6317433 16,22.7209197 L16,37.1623423 C16,38.2515187 16.8150253,39.5104745 17.8111231,39.9599413" id="Fill-1"></path>
            </g>
        </g>
    </g>
</svg>