<?xml version="1.0" encoding="UTF-8" standalone="no"?>
<svg width="107px" height="30px" viewBox="0 0 107 30" version="1.1" xmlns="http://www.w3.org/2000/svg" xmlns:xlink="http://www.w3.org/1999/xlink">
    <!-- Generator: Sketch 3.6.1 (26313) - http://www.bohemiancoding.com/sketch -->
    <title>Group 3 + AidS + tream</title>
    <desc>Created with Sketch.</desc>
    <defs>
        <path id="path-1" d="M0,0.000855626327 L106.954274,0.000855626327 L106.954274,30.0127389 L0,30.0127389"></path>
    </defs>
    <g id="Add-activity" stroke="none" stroke-width="1" fill="none" fill-rule="evenodd">
        <g id="Activity-Detail---1" transform="translate(-16.000000, -16.000000)">
            <g id="Group-3-+-AidS-+-tream" transform="translate(16.000000, 16.000000)">
                <g id="Group-3">
                    <mask id="mask-2" fill="white">
                        <use xlink:href="#path-1"></use>
                    </mask>
                    <g id="Clip-2"></g>
                    <path d="M18.1510969,22.4402978 C18.3690331,19.5850069 16.1829135,16.6065058 13.5074543,16.0523232 C13.5074543,16.0523232 15.0140484,15.480699 16.7310343,15.8483551 C18.4360803,16.2135101 20.4940754,17.33675 21.5016205,20.4605101 C21.5016205,20.4605101 22.7306444,24.7134995 19.0328792,27.3902935 C15.6710061,29.8238923 12.2752158,27.8023763 12.2752158,27.8023763 C15.2500914,27.962905 17.9159724,25.5210133 18.1510969,22.4402978 M1.94928939,25.9550791 C2.53526364,25.4769814 3.1464954,25.1646778 3.69625628,25.0674655 C7.02237523,24.4791895 8.08916064,26.1172532 9.11350031,27.2431916 C11.1733979,29.5071789 13.0421257,30.0110111 15.1219669,30.0118668 C19.2864384,30.0136438 22.753737,26.322077 22.5249761,22.1539262 C22.3107137,18.2485186 19.3803832,15.2538264 15.4022269,14.8843933 C15.3014592,14.8750472 15.2168302,14.8786014 15.1167186,14.8741916 C13.8821183,14.8200897 13.0810944,15.0838201 12.01713,15.4287033 C11.7110877,15.5278901 11.5159816,15.6423466 11.3714562,15.6795334 C11.1967529,15.7244867 11.1010368,15.6777564 11.0398939,15.6305653 C10.9841306,15.5875207 10.8096242,15.3220791 11.0095849,15.1226523 C11.5245757,14.6090791 11.7048553,14.5613615 12.3242876,14.0820791 C12.5497682,13.907663 12.7554365,13.7629963 12.8121839,13.5496162 C12.8491189,13.4108731 12.8419025,13.2231619 12.6643127,13.0554591 C12.4483446,12.851491 12.1377756,12.9487691 11.7233556,13.1598455 C11.5197866,13.263508 11.2917474,13.3811237 11.041862,13.5490239 C9.62429246,14.5014018 8.30165175,15.9435271 7.60467566,17.6466184 C7.56472287,17.7443572 8.01548743,16.1253806 8.07426855,15.9384591 C8.3410141,15.0908625 9.49091968,12.7490133 11.338523,11.342232 C13.0237566,9.88681157 15.7545199,8.7020982 18.6745506,8.8960621 C24.8925561,9.30906635 28.9245077,14.296578 28.8184917,20.0294061 C28.7904132,21.5464973 27.9796143,25.9958201 24.1965641,28.4694358 L29.8842931,25.8839305 C30.87032,25.4357797 31.6769859,24.1805101 31.6769859,23.0945228 L31.6769859,8.69538482 C31.6769859,7.60939756 30.87032,6.35412792 29.8842931,5.90597718 L17.6311858,0.336113057 C16.6452244,-0.112037686 15.0318271,-0.112037686 14.0458001,0.336113057 L1.79269283,5.90597718 C0.806731453,6.35412792 0,7.60939756 0,8.69538482 L0,23.0945228 C0,24.1805101 0.806731453,25.4357797 1.79269283,25.8839305" id="Fill-1" fill="#00A8FF" mask="url(#mask-2)"></path>
                </g>
                <path d="M37.9938289,20.3631054 L40.3468649,13.5524545 L39.4261117,13.4647637 L39.4261117,12.2809381 L42.7729766,12.2809381 L45.7544633,20.7138685 L45.7690784,20.7138685 L46.6021408,20.7577139 L46.6021408,22 L42.8314371,22 L42.8314371,20.8161744 L43.3868121,20.772329 C43.5524511,20.7528421 43.6644993,20.7138688 43.7229601,20.655408 C43.7814209,20.5969472 43.7862926,20.4897706 43.7375752,20.3338751 L43.4306575,19.427737 L40.0107169,19.427737 L39.572263,20.7138685 L40.4491708,20.7577139 L40.4491708,22 L37.0730757,22 L37.0730757,20.8161744 L37.555375,20.772329 C37.7599878,20.7528421 37.9061377,20.6164356 37.9938289,20.3631054 L37.9938289,20.3631054 Z M41.7206872,13.9178327 L40.3614801,18.083145 L43.0798944,18.083145 L41.7645326,13.9178327 L41.7206872,13.9178327 Z M49.8028545,14.6485893 L49.8028545,20.7869442 L50.6359169,20.8307895 L50.6359169,22 L47.1575158,22 L47.1575158,20.8892501 L47.6398151,20.8454047 C47.9223757,20.8161743 48.0636539,20.6602811 48.0636539,20.3777205 L48.0636539,16.3147142 C48.0636539,16.1490752 48.0368598,16.037027 47.9832707,15.9785662 C47.9296816,15.9201054 47.8346842,15.8908754 47.6982756,15.8908754 L47.1867461,15.8616451 L47.1867461,14.6485893 L49.8028545,14.6485893 Z M47.6544302,12.6170861 C47.6544302,12.3052951 47.7567351,12.0446612 47.961348,11.8351766 C48.1659608,11.625692 48.4339022,11.5209513 48.7651802,11.5209513 C49.0964581,11.5209513 49.3668353,11.625692 49.5763199,11.8351766 C49.7858045,12.0446612 49.8905452,12.3052951 49.8905452,12.6170861 C49.8905452,12.9288771 49.7858045,13.1846394 49.5763199,13.3843805 C49.3668353,13.5841216 49.0964581,13.6839907 48.7651802,13.6839907 C48.4339022,13.6839907 48.1659608,13.5841216 47.961348,13.3843805 C47.7567351,13.1846394 47.6544302,12.9288771 47.6544302,12.6170861 L47.6544302,12.6170861 Z M55.1519923,14.4293623 C55.5709614,14.4293623 55.9704377,14.4878223 56.350433,14.6047439 L56.350433,13.1286157 C56.350433,12.9142594 56.2237698,12.7973395 55.9704396,12.7778526 L55.341989,12.7340072 L55.341989,11.5794118 L58.0604033,11.5794118 L58.0604033,20.4654113 C58.0701467,20.6895111 58.1919383,20.8015593 58.4257815,20.8015593 L58.9373111,20.8307895 L58.9373111,22 L56.5696599,22 L56.5696599,21.1377073 L56.5258146,21.1230922 C56.0873584,21.8343654 55.4248125,22.1899967 54.5381568,22.1899967 C53.4274013,22.1899967 52.6479355,21.8197504 52.1997359,21.0792468 C51.7905102,20.4069474 51.5859004,19.5836366 51.5859004,18.6092897 C51.5859004,17.3426387 51.9001226,16.3293331 52.5285763,15.5693425 C53.1570301,14.8093519 54.0314933,14.4293623 55.1519923,14.4293623 L55.1519923,14.4293623 Z M56.350433,19.7200396 L56.350433,15.9347208 C55.9996681,15.7788253 55.6294218,15.7008787 55.2396831,15.7008787 C54.5966141,15.7008787 54.1264988,15.9590767 53.829323,16.4754806 C53.5321471,16.9918845 53.3835615,17.6495588 53.3835615,18.4485233 C53.3835615,20.0854261 53.9097009,20.9038652 54.9619956,20.9038652 C55.3614778,20.9038652 55.6927508,20.7893812 55.9558245,20.5604096 C56.2188981,20.3314381 56.350433,20.0513176 56.350433,19.7200396 L56.350433,19.7200396 Z M62.8249359,20.6846382 C63.9941522,20.6846382 64.5787515,20.2169587 64.5787515,19.2815857 C64.5787515,18.7944122 64.3205535,18.4339093 63.8041496,18.200066 C63.5313325,18.0636575 63.178137,17.9369943 62.7445527,17.8200726 C62.3109683,17.703151 61.9504653,17.5837953 61.663033,17.4620019 C61.3756006,17.3402086 61.0857368,17.1721362 60.7934327,16.9577799 C60.218568,16.5290673 59.93114,15.8689571 59.93114,14.9774297 C59.93114,14.0859023 60.2404905,13.384383 60.8592008,12.8728509 C61.4779111,12.3613188 62.2866069,12.1055565 63.2853125,12.1055565 C64.2840181,12.1055565 65.2120696,12.3052947 66.0694949,12.7047769 L66.0694949,14.8970465 L64.5787515,14.9993524 L64.5787515,14.1516748 C64.5787515,14.0055228 64.5592649,13.8983462 64.520291,13.830142 C64.4131129,13.645016 64.0696607,13.5524545 63.4899243,13.5524545 C62.9101879,13.5524545 62.4814817,13.6547594 62.2037928,13.8593722 C61.9261039,14.0639851 61.7872616,14.3806431 61.7872616,14.8093557 C61.7872616,15.1211467 61.9041815,15.3939598 62.1380247,15.627803 C62.2939202,15.7836985 62.5253242,15.9127976 62.8322434,16.015104 C63.1391627,16.1174104 63.465564,16.2221511 63.8114572,16.3293293 C64.1573503,16.4365075 64.464265,16.5534273 64.7322104,16.6800924 C65.0001558,16.8067575 65.2802764,16.9821374 65.5725804,17.2062371 C66.1669321,17.6446933 66.4641034,18.3218542 66.4641034,19.2377403 C66.4641034,20.1536264 66.1352663,20.8746323 65.4775821,21.4007796 C64.8198979,21.926927 63.9527422,22.1899967 62.8760888,22.1899967 C61.7994355,22.1899967 60.8324107,21.9902586 59.9749854,21.5907763 L59.9749854,19.2815857 L61.4657287,19.1792798 L61.4657287,20.0708028 C61.4657287,20.2169548 61.4852154,20.3241313 61.5241892,20.3923356 C61.5631631,20.4605399 61.6825188,20.5263073 61.8822599,20.5896399 C62.0820011,20.6529724 62.3962232,20.6846382 62.8249359,20.6846382 L62.8249359,20.6846382 Z" id="AidS" fill="#030404"></path>
                <path d="M69.1045788,13.0993854 L70.0545623,13.0993854 L70.0545623,14.6485893 L71.9983747,14.6485893 L71.8522234,15.8762603 L70.0545623,15.8762603 L70.0545623,19.7200396 C70.0545623,20.1487523 70.1325089,20.4483594 70.2884044,20.6188702 C70.4442999,20.7893809 70.6854471,20.8746349 71.0118534,20.8746349 C71.3382596,20.8746349 71.6670967,20.77233 71.9983747,20.5677172 L72.4368286,21.6930823 C71.9496551,22.0341037 71.3309541,22.2046118 70.580707,22.2046118 C70.1422509,22.2046118 69.7720046,22.1485877 69.4699571,22.0365378 C69.1679095,21.9244879 68.9438131,21.8002606 68.7976611,21.663852 C68.651509,21.5274434 68.5394608,21.3277053 68.4615131,21.0646316 C68.3835653,20.801558 68.3397204,20.5945124 68.3299769,20.4434886 C68.3202334,20.2924648 68.3153618,20.0708042 68.3153618,19.7785001 L68.3153618,15.8762603 L67.2776875,15.8762603 L67.4238388,14.8093557 C67.8817818,14.7703818 68.2276698,14.6071812 68.4615131,14.3197488 C68.6953563,14.0323165 68.9097094,13.6255328 69.1045788,13.0993854 L69.1045788,13.0993854 Z M73.8983417,20.3631054 L73.8983417,16.3147142 C73.8983417,16.1588187 73.8715475,16.0492063 73.8179585,15.9858737 C73.7643694,15.9225412 73.669372,15.8860037 73.5329634,15.8762603 L72.9191279,15.8324149 L72.9191279,14.6485893 L75.389085,14.6485893 L75.389085,15.7447241 C75.5644674,15.3647288 75.8372805,15.0505066 76.2075323,14.8020482 C76.5777841,14.5535897 77.0040545,14.4293623 77.4863562,14.4293623 C77.968658,14.4293623 78.42903,14.5365389 78.8674861,14.7508952 L78.8674861,16.9285497 L77.5082789,17.0308556 L77.5082789,16.3585596 C77.5082789,16.1636902 77.4595623,16.0418986 77.3621276,15.9931813 C77.2549495,15.944464 77.1234146,15.9201056 76.9675191,15.9201056 C76.5777803,15.9201056 76.2586865,16.058948 76.010228,16.3366369 C75.7617696,16.6143257 75.6375422,16.9675212 75.6375422,17.3962338 L75.6375422,20.7869442 L76.9090586,20.8454047 L76.9090586,22 L72.9922036,22 L72.9922036,20.8892501 L73.4745029,20.8454047 C73.6206549,20.8259177 73.7278315,20.7845086 73.7960358,20.7211761 C73.86424,20.6578435 73.8983417,20.5384878 73.8983417,20.3631054 L73.8983417,20.3631054 Z M83.4127917,14.4293623 C84.1435519,14.4293623 84.7232796,14.607178 85.1519923,14.9628146 C85.5807049,15.3184512 85.795058,15.8177965 85.795058,16.4608655 C85.795058,16.8895781 85.7024965,17.2671319 85.5173705,17.5935381 C85.3322446,17.9199443 85.1032765,18.1757066 84.8304594,18.3608325 C84.5576423,18.5459584 84.2263693,18.6969799 83.8366305,18.8139015 C83.1838181,19.0087709 82.4481972,19.1062041 81.6297458,19.1062041 C81.6589762,19.622608 81.819741,20.0391351 82.1120451,20.3557978 C82.4043492,20.6724605 82.852542,20.8307895 83.4566371,20.8307895 C84.0607322,20.8307895 84.6648182,20.6164364 85.2689133,20.1877238 L85.8242883,21.3715494 C85.6294189,21.5469318 85.3005818,21.7271833 84.837767,21.9123092 C84.3749522,22.0974351 83.8463769,22.1899967 83.2520253,22.1899967 C82.0633221,22.1899967 81.1912946,21.8611595 80.6359169,21.2034754 C80.0805392,20.5457912 79.8028545,19.642098 79.8028545,18.4923686 C79.8028545,17.3426393 80.1195125,16.3780503 80.7528379,15.5985728 C81.3861634,14.8190952 82.2728058,14.4293623 83.4127917,14.4293623 L83.4127917,14.4293623 Z M83.7343246,17.3450809 C84.0363721,17.1258528 84.1873937,16.8652189 84.1873937,16.5631714 C84.1873937,15.9688198 83.895094,15.6716484 83.3104858,15.6716484 C82.7648515,15.6716484 82.3458887,15.8884374 82.0535846,16.3220217 C81.7612805,16.7556061 81.6005157,17.2744381 81.5712853,17.8785332 C81.9999979,17.8687897 82.3921667,17.8322522 82.7478033,17.7689197 C83.1034399,17.7055871 83.4322771,17.5643089 83.7343246,17.3450809 L83.7343246,17.3450809 Z M93.3803108,14.9408919 L93.3803108,20.3777205 C93.3803108,20.533616 93.407105,20.6407926 93.4606941,20.6992534 C93.5142831,20.7577142 93.6092805,20.7918158 93.7456891,20.8015593 L94.2133733,20.8307895 L94.2133733,22 L91.8895675,22 L91.8895675,21.1523224 L91.8457221,21.1377073 C91.3585487,21.8392371 90.691131,22.1899967 89.8434492,22.1899967 C88.8496154,22.1899967 88.1139945,21.8733387 87.6365645,21.2400132 C87.1591345,20.6066877 86.9204231,19.739532 86.9204231,18.6385199 C86.9204231,17.3134081 87.2419527,16.2806159 87.8850217,15.5401123 C88.5280907,14.7996086 89.4926796,14.4293623 90.7788176,14.4293623 C91.6070125,14.4293623 92.4741682,14.5998705 93.3803108,14.9408919 L93.3803108,14.9408919 Z M91.6849557,19.6761942 L91.6849557,15.8908754 C91.4121385,15.7642103 91.0370206,15.7008787 90.5595906,15.7008787 C89.9067782,15.7008787 89.434227,15.9639484 89.1419229,16.4900957 C88.8496189,17.0162431 88.703469,17.7128907 88.703469,18.5800594 C88.703469,20.1585014 89.2101218,20.9477106 90.2234426,20.9477106 C90.6521553,20.9477106 91.0029149,20.8186116 91.275732,20.5604096 C91.5485492,20.3022077 91.6849557,20.0074722 91.6849557,19.6761942 L91.6849557,19.6761942 Z M95.0172055,15.8324149 L95.0172055,14.6485893 L97.4871625,14.6485893 L97.4871625,15.5985728 C98.0327968,14.8190952 98.7805969,14.4293623 99.7305851,14.4293623 C100.680573,14.4293623 101.321197,14.8190952 101.652475,15.5985728 C102.198109,14.8190952 102.938602,14.4293623 103.873975,14.4293623 C104.575504,14.4293623 105.116259,14.6412796 105.496254,15.0651205 C105.876249,15.4889614 106.066244,16.1247132 106.066244,16.9723951 L106.066244,20.7869442 L106.899307,20.8307895 L106.899307,22 L103.420906,22 L103.420906,20.8892501 L103.903205,20.8454047 C104.049357,20.8259177 104.154098,20.7845086 104.21743,20.7211761 C104.280763,20.6578435 104.3173,20.5433595 104.327044,20.3777205 L104.327044,17.3523885 C104.327044,16.8164976 104.266148,16.4194572 104.144355,16.1612553 C104.022561,15.9030534 103.737569,15.7739543 103.289369,15.7739543 C102.84117,15.7739543 102.497718,15.9103609 102.259003,16.183178 C102.020288,16.4559951 101.900932,16.8213697 101.900932,17.2793128 L101.900932,20.7869442 L102.704764,20.8307895 L102.704764,22 L99.2555934,22 L99.2555934,20.8892501 L99.7378927,20.8454047 C99.8840447,20.8259177 99.9912213,20.7845086 100.059426,20.7211761 C100.12763,20.6578435 100.161731,20.5384878 100.161731,20.3631054 L100.161731,17.3523885 C100.161731,16.8164976 100.100836,16.4194572 99.9790423,16.1612553 C99.857249,15.9030534 99.5698209,15.7739543 99.1167496,15.7739543 C98.6636783,15.7739543 98.3202262,15.9152325 98.0863829,16.1977931 C97.8525396,16.4803537 97.7356198,16.8311134 97.7356198,17.2500825 L97.7356198,20.7869442 L98.5248368,20.8307895 L98.5248368,22 L95.075666,22 L95.075666,20.8892501 L95.5579653,20.8454047 C95.7041173,20.8259177 95.8112939,20.7845086 95.8794982,20.7211761 C95.9477025,20.6578435 95.9818041,20.5384878 95.9818041,20.3631054 L95.9964192,20.3631054 L95.9964192,16.3293293 C95.9964192,16.1636903 95.9696251,16.0492063 95.916036,15.9858737 C95.8624469,15.9225412 95.7674495,15.8860037 95.631041,15.8762603 L95.0172055,15.8324149 Z" id="tream" fill="#00A8FF"></path>
            </g>
        </g>
    </g>
</svg>