<?xml version="1.0" encoding="UTF-8" standalone="no"?>
<svg width="115px" height="31px" viewBox="0 0 115 31" version="1.1" xmlns="http://www.w3.org/2000/svg" xmlns:xlink="http://www.w3.org/1999/xlink">
    <!-- Generator: Sketch 39.1 (31720) - http://www.bohemiancoding.com/sketch -->
    <title>Logo</title>
    <desc>Created with Sketch.</desc>
    <defs>
        <polyline id="path-1" points="0 0.000855626327 106.954274 0.000855626327 106.954274 30.0127389 0 30.0127389"></polyline>
    </defs>
    <g id="Symbols" stroke="none" stroke-width="1" fill="none" fill-rule="evenodd">
        <g id="Logo">
            <g id="Group-3">
                <mask id="mask-2" fill="white">
                    <use xlink:href="#path-1"></use>
                </mask>
                <g id="Clip-2"></g>
                <path d="M18.1510969,22.4402978 C18.3690331,19.5850069 16.1829135,16.6065058 13.5074543,16.0523232 C13.5074543,16.0523232 15.0140484,15.480699 16.7310343,15.8483551 C18.4360803,16.2135101 20.4940754,17.33675 21.5016205,20.4605101 C21.5016205,20.4605101 22.7306444,24.7134995 19.0328792,27.3902935 C15.6710061,29.8238923 12.2752158,27.8023763 12.2752158,27.8023763 C15.2500914,27.962905 17.9159724,25.5210133 18.1510969,22.4402978 M1.94928939,25.9550791 C2.53526364,25.4769814 3.1464954,25.1646778 3.69625628,25.0674655 C7.02237523,24.4791895 8.08916064,26.1172532 9.11350031,27.2431916 C11.1733979,29.5071789 13.0421257,30.0110111 15.1219669,30.0118668 C19.2864384,30.0136438 22.753737,26.322077 22.5249761,22.1539262 C22.3107137,18.2485186 19.3803832,15.2538264 15.4022269,14.8843933 C15.3014592,14.8750472 15.2168302,14.8786014 15.1167186,14.8741916 C13.8821183,14.8200897 13.0810944,15.0838201 12.01713,15.4287033 C11.7110877,15.5278901 11.5159816,15.6423466 11.3714562,15.6795334 C11.1967529,15.7244867 11.1010368,15.6777564 11.0398939,15.6305653 C10.9841306,15.5875207 10.8096242,15.3220791 11.0095849,15.1226523 C11.5245757,14.6090791 11.7048553,14.5613615 12.3242876,14.0820791 C12.5497682,13.907663 12.7554365,13.7629963 12.8121839,13.5496162 C12.8491189,13.4108731 12.8419025,13.2231619 12.6643127,13.0554591 C12.4483446,12.851491 12.1377756,12.9487691 11.7233556,13.1598455 C11.5197866,13.263508 11.2917474,13.3811237 11.041862,13.5490239 C9.62429246,14.5014018 8.30165175,15.9435271 7.60467566,17.6466184 C7.56472287,17.7443572 8.01548743,16.1253806 8.07426855,15.9384591 C8.3410141,15.0908625 9.49091968,12.7490133 11.338523,11.342232 C13.0237566,9.88681157 15.7545199,8.7020982 18.6745506,8.8960621 C24.8925561,9.30906635 28.9245077,14.296578 28.8184917,20.0294061 C28.7904132,21.5464973 27.9796143,25.9958201 24.1965641,28.4694358 L29.8842931,25.8839305 C30.87032,25.4357797 31.6769859,24.1805101 31.6769859,23.0945228 L31.6769859,8.69538482 C31.6769859,7.60939756 30.87032,6.35412792 29.8842931,5.90597718 L17.6311858,0.336113057 C16.6452244,-0.112037686 15.0318271,-0.112037686 14.0458001,0.336113057 L1.79269283,5.90597718 C0.806731453,6.35412792 0,7.60939756 0,8.69538482 L0,23.0945228 C0,24.1805101 0.806731453,25.4357797 1.79269283,25.8839305" id="Fill-1" fill="#00A8FF" mask="url(#mask-2)"></path>
            </g>
            <path d="M38.088,21.208 L40.664,13.752 L39.656,13.656 L39.656,12.36 L43.32,12.36 L46.584,21.592 L46.6,21.592 L47.512,21.64 L47.512,23 L43.384,23 L43.384,21.704 L43.992,21.656 C44.1733342,21.6346666 44.2959997,21.5920003 44.36,21.528 C44.4240003,21.4639997 44.4293336,21.3466675 44.376,21.176 L44.04,20.184 L40.296,20.184 L39.816,21.592 L40.776,21.64 L40.776,23 L37.08,23 L37.08,21.704 L37.608,21.656 C37.8320011,21.6346666 37.9919995,21.4853347 38.088,21.208 L38.088,21.208 Z M42.168,14.152 L40.68,18.712 L43.656,18.712 L42.216,14.152 L42.168,14.152 Z M51.016,14.952 L51.016,21.672 L51.928,21.72 L51.928,23 L48.12,23 L48.12,21.784 L48.648,21.736 C48.9573349,21.7039998 49.112,21.5333349 49.112,21.224 L49.112,16.776 C49.112,16.5946658 49.082667,16.4720003 49.024,16.408 C48.965333,16.3439997 48.8613341,16.312 48.712,16.312 L48.152,16.28 L48.152,14.952 L51.016,14.952 Z M48.664,12.728 C48.664,12.386665 48.7759989,12.1013345 49,11.872 C49.2240011,11.6426655 49.5173315,11.528 49.88,11.528 C50.2426685,11.528 50.5386655,11.6426655 50.768,11.872 C50.9973345,12.1013345 51.112,12.386665 51.112,12.728 C51.112,13.069335 50.9973345,13.3493322 50.768,13.568 C50.5386655,13.7866678 50.2426685,13.896 49.88,13.896 C49.5173315,13.896 49.2240011,13.7866678 49,13.568 C48.7759989,13.3493322 48.664,13.069335 48.664,12.728 L48.664,12.728 Z M56.872,14.712 C57.330669,14.712 57.7679979,14.7759994 58.184,14.904 L58.184,13.288 C58.184,13.0533322 58.0453347,12.9253334 57.768,12.904 L57.08,12.856 L57.08,11.592 L60.056,11.592 L60.056,21.32 C60.0666667,21.5653346 60.1999987,21.688 60.456,21.688 L61.016,21.72 L61.016,23 L58.424,23 L58.424,22.056 L58.376,22.04 C57.8959976,22.8186706 57.1706715,23.208 56.2,23.208 C54.9839939,23.208 54.1306691,22.8026707 53.64,21.992 C53.1919978,21.2559963 52.968,20.354672 52.968,19.288 C52.968,17.9013264 53.3119966,16.7920042 54,15.96 C54.6880034,15.1279958 55.6453272,14.712 56.872,14.712 L56.872,14.712 Z M58.184,20.504 L58.184,16.36 C57.7999981,16.1893325 57.3946688,16.104 56.968,16.104 C56.2639965,16.104 55.749335,16.3866638 55.424,16.952 C55.098665,17.5173362 54.936,18.237329 54.936,19.112 C54.936,20.904009 55.5119942,21.8 56.664,21.8 C57.1013355,21.8 57.4639986,21.6746679 57.752,21.424 C58.0400014,21.1733321 58.184,20.8666685 58.184,20.504 L58.184,20.504 Z" id="Aid" fill="#030404"></path>
            <path d="M65.856,21.56 C67.1360064,21.56 67.776,21.0480051 67.776,20.024 C67.776,19.490664 67.4933362,19.0960013 66.928,18.84 C66.6293318,18.6906659 66.242669,18.5520006 65.768,18.424 C65.293331,18.2959994 64.8986682,18.165334 64.584,18.032 C64.2693318,17.898666 63.9520016,17.7146678 63.632,17.48 C63.0026635,17.0106643 62.688,16.2880049 62.688,15.312 C62.688,14.3359951 63.0266633,13.5680028 63.704,13.008 C64.3813367,12.4479972 65.2666612,12.168 66.36,12.168 C67.4533388,12.168 68.4693286,12.3866645 69.408,12.824 L69.408,15.224 L67.776,15.336 L67.776,14.408 C67.776,14.2479992 67.7546669,14.130667 67.712,14.056 C67.5946661,13.8533323 67.2186698,13.752 66.584,13.752 C65.9493302,13.752 65.4800015,13.8639989 65.176,14.088 C64.8719985,14.3120011 64.72,14.6586643 64.72,15.128 C64.72,15.469335 64.8479987,15.7679987 65.104,16.024 C65.2746675,16.1946675 65.5279983,16.3359994 65.864,16.448 C66.2000017,16.5600006 66.5573314,16.6746661 66.936,16.792 C67.3146686,16.9093339 67.6506652,17.0373326 67.944,17.176 C68.2373348,17.3146674 68.5439984,17.5066654 68.864,17.752 C69.5146699,18.2320024 69.84,18.9733283 69.84,19.976 C69.84,20.9786717 69.4800036,21.7679971 68.76,22.344 C68.0399964,22.9200029 67.0906726,23.208 65.912,23.208 C64.7333274,23.208 63.6746714,22.9893355 62.736,22.552 L62.736,20.024 L64.368,19.912 L64.368,20.888 C64.368,21.0480008 64.3893331,21.165333 64.432,21.24 C64.4746669,21.314667 64.6053322,21.3866663 64.824,21.456 C65.0426678,21.5253337 65.3866643,21.56 65.856,21.56 L65.856,21.56 Z M72.496,13.256 L73.536,13.256 L73.536,14.952 L75.664,14.952 L75.504,16.296 L73.536,16.296 L73.536,20.504 C73.536,20.9733357 73.6213325,21.3013324 73.792,21.488 C73.9626675,21.6746676 74.2266649,21.768 74.584,21.768 C74.9413351,21.768 75.3013315,21.6560011 75.664,21.432 L76.144,22.664 C75.610664,23.0373352 74.9333374,23.224 74.112,23.224 C73.6319976,23.224 73.2266683,23.1626673 72.896,23.04 C72.5653317,22.9173327 72.3200008,22.7813341 72.16,22.632 C71.9999992,22.4826659 71.8773338,22.2640014 71.792,21.976 C71.7066662,21.6879986 71.6586667,21.4613342 71.648,21.296 C71.6373333,21.1306658 71.632,20.8880016 71.632,20.568 L71.632,16.296 L70.496,16.296 L70.656,15.128 C71.1573358,15.0853331 71.5359987,14.9066682 71.792,14.592 C72.0480013,14.2773318 72.2826656,13.8320029 72.496,13.256 L72.496,13.256 Z M77.744,21.208 L77.744,16.776 C77.744,16.6053325 77.714667,16.4853337 77.656,16.416 C77.597333,16.3466663 77.4933341,16.3066667 77.344,16.296 L76.672,16.248 L76.672,14.952 L79.376,14.952 L79.376,16.152 C79.568001,15.7359979 79.8666646,15.3920014 80.272,15.12 C80.6773354,14.8479986 81.1439974,14.712 81.672,14.712 C82.2000026,14.712 82.7039976,14.8293322 83.184,15.064 L83.184,17.448 L81.696,17.56 L81.696,16.824 C81.696,16.6106656 81.6426672,16.4773336 81.536,16.424 C81.4186661,16.3706664 81.2746675,16.344 81.104,16.344 C80.6773312,16.344 80.3280014,16.4959985 80.056,16.8 C79.7839986,17.1040015 79.648,17.4906643 79.648,17.96 L79.648,21.672 L81.04,21.736 L81.04,23 L76.752,23 L76.752,21.784 L77.28,21.736 C77.4400008,21.7146666 77.557333,21.6693337 77.632,21.6 C77.706667,21.5306663 77.744,21.400001 77.744,21.208 L77.744,21.208 Z M88.16,14.712 C88.960004,14.712 89.5946643,14.9066647 90.064,15.296 C90.5333357,15.6853353 90.768,16.2319965 90.768,16.936 C90.768,17.4053357 90.6666677,17.8186649 90.464,18.176 C90.2613323,18.5333351 90.0106682,18.8133323 89.712,19.016 C89.4133318,19.2186677 89.0506688,19.3839994 88.624,19.512 C87.9093298,19.7253344 87.1040045,19.832 86.208,19.832 C86.2400002,20.3973362 86.4159984,20.8533316 86.736,21.2 C87.0560016,21.5466684 87.5466634,21.72 88.208,21.72 C88.8693366,21.72 89.5306634,21.4853357 90.192,21.016 L90.8,22.312 C90.5866656,22.504001 90.2266692,22.7013323 89.72,22.904 C89.2133308,23.1066677 88.6346699,23.208 87.984,23.208 C86.6826602,23.208 85.728003,22.8480036 85.12,22.128 C84.511997,21.4079964 84.208,20.418673 84.208,19.16 C84.208,17.901327 84.5546632,16.8453376 85.248,15.992 C85.9413368,15.1386624 86.9119938,14.712 88.16,14.712 L88.16,14.712 Z M88.512,17.904 C88.8426683,17.6639988 89.008,17.3786683 89.008,17.048 C89.008,16.3973301 88.6880032,16.072 88.048,16.072 C87.4506637,16.072 86.9920016,16.309331 86.672,16.784 C86.3519984,17.258669 86.1760002,17.8266634 86.144,18.488 C86.6133357,18.4773333 87.0426647,18.4373337 87.432,18.368 C87.8213353,18.2986663 88.1813317,18.1440012 88.512,17.904 L88.512,17.904 Z M99.072,15.272 L99.072,21.224 C99.072,21.3946675 99.101333,21.5119997 99.16,21.576 C99.218667,21.6400003 99.3226659,21.6773333 99.472,21.688 L99.984,21.72 L99.984,23 L97.44,23 L97.44,22.072 L97.392,22.056 C96.858664,22.8240038 96.1280046,23.208 95.2,23.208 C94.1119946,23.208 93.3066693,22.8613368 92.784,22.168 C92.2613307,21.4746632 92,20.5253394 92,19.32 C92,17.8693261 92.3519965,16.7386707 93.056,15.928 C93.7600035,15.1173293 94.815993,14.712 96.224,14.712 C97.1306712,14.712 98.079995,14.8986648 99.072,15.272 L99.072,15.272 Z M97.216,20.456 L97.216,16.312 C96.9173318,16.1733326 96.5066693,16.104 95.984,16.104 C95.2693298,16.104 94.7520016,16.3919971 94.432,16.968 C94.1119984,17.5440029 93.952,18.3066619 93.952,19.256 C93.952,20.9840086 94.5066611,21.848 95.616,21.848 C96.0853357,21.848 96.4693318,21.7066681 96.768,21.424 C97.0666682,21.1413319 97.216,20.8186685 97.216,20.456 L97.216,20.456 Z M100.864,16.248 L100.864,14.952 L103.568,14.952 L103.568,15.992 C104.165336,15.1386624 104.983995,14.712 106.024,14.712 C107.064005,14.712 107.765332,15.1386624 108.128,15.992 C108.725336,15.1386624 109.535995,14.712 110.56,14.712 C111.328004,14.712 111.919998,14.9439977 112.336,15.408 C112.752002,15.8720023 112.96,16.5679954 112.96,17.496 L112.96,21.672 L113.872,21.72 L113.872,23 L110.064,23 L110.064,21.784 L110.592,21.736 C110.752001,21.7146666 110.866666,21.6693337 110.936,21.6 C111.005334,21.5306663 111.045333,21.4053342 111.056,21.224 L111.056,17.912 C111.056,17.3253304 110.989334,16.8906681 110.856,16.608 C110.722666,16.3253319 110.410669,16.184 109.92,16.184 C109.429331,16.184 109.053335,16.3333318 108.792,16.632 C108.530665,16.9306682 108.4,17.3306642 108.4,17.832 L108.4,21.672 L109.28,21.72 L109.28,23 L105.504,23 L105.504,21.784 L106.032,21.736 C106.192001,21.7146666 106.309333,21.6693337 106.384,21.6 C106.458667,21.5306663 106.496,21.400001 106.496,21.208 L106.496,17.912 C106.496,17.3253304 106.429334,16.8906681 106.296,16.608 C106.162666,16.3253319 105.848002,16.184 105.352,16.184 C104.855998,16.184 104.480001,16.3386651 104.224,16.648 C103.967999,16.9573349 103.84,17.341331 103.84,17.8 L103.84,21.672 L104.704,21.72 L104.704,23 L100.928,23 L100.928,21.784 L101.456,21.736 C101.616001,21.7146666 101.733333,21.6693337 101.808,21.6 C101.882667,21.5306663 101.92,21.400001 101.92,21.208 L101.936,21.208 L101.936,16.792 C101.936,16.6106658 101.906667,16.4853337 101.848,16.416 C101.789333,16.3466663 101.685334,16.3066667 101.536,16.296 L100.864,16.248 Z" id="Stream" fill="#00A8FF"></path>
        </g>
    </g>
</svg>