<?xml version="1.0" encoding="UTF-8" standalone="no"?>
<svg width="83px" height="78px" viewBox="0 0 83 78" version="1.1" xmlns="http://www.w3.org/2000/svg" xmlns:xlink="http://www.w3.org/1999/xlink">
    <!-- Generator: Sketch 3.8.3 (29802) - http://www.bohemiancoding.com/sketch -->
    <title>Fill 1</title>
    <desc>Created with Sketch.</desc>
    <defs></defs>
    <g id="Register" stroke="none" stroke-width="1" fill="none" fill-rule="evenodd">
        <g id="Registration" transform="translate(-580.000000, -112.000000)" fill="#00A8FF">
            <path d="M627.174191,170.321703 C627.740601,162.900883 622.058938,155.159842 615.105494,153.719537 C615.105494,153.719537 619.02109,152.233902 623.483488,153.18943 C627.914855,154.138457 633.263526,157.057726 635.882107,165.176291 C635.882107,165.176291 639.076306,176.229691 629.465918,183.186603 C620.728505,189.511458 611.902941,184.257595 611.902941,184.257595 C619.634559,184.674804 626.563109,178.328396 627.174191,170.321703 M585.066148,179.456521 C586.589079,178.213959 588.177653,177.40229 589.606466,177.149638 C598.250956,175.620726 601.023501,179.878007 603.685731,182.804289 C609.039347,188.688329 613.896118,189.997775 619.301567,189.999998 C630.124911,190.004617 639.136323,180.410338 638.54178,169.577432 C637.984918,159.427387 630.369071,151.644266 620.029955,150.68412 C619.768063,150.65983 619.548114,150.669067 619.287927,150.657606 C616.079235,150.516997 613.997397,151.202424 611.232183,152.098766 C610.436788,152.35655 609.929713,152.654019 609.554095,152.750667 C609.100046,152.867499 608.851283,152.746048 608.692374,152.6234 C608.547447,152.511528 608.093909,151.821653 608.613602,151.303348 C609.952048,149.968586 610.42059,149.844569 612.030477,148.598928 C612.616495,148.145625 613.151021,147.769641 613.298506,147.215072 C613.394499,146.854482 613.375744,146.366626 612.914193,145.930771 C612.352898,145.400664 611.545738,145.653487 610.468672,146.202069 C609.939602,146.471484 609.346934,146.777164 608.697489,147.213532 C605.013266,149.688736 601.57576,153.436779 599.764338,157.863065 C599.660502,158.117086 600.832027,153.909411 600.984797,153.423607 C601.678061,151.220728 604.666634,145.134327 609.468503,141.478142 C613.848377,137.695545 620.945555,134.616509 628.534632,135.120615 C644.695054,136.194002 655.173983,149.156405 654.89845,164.055863 C654.825475,167.998741 652.718231,179.562406 642.88619,185.991264 L657.668438,179.271608 C660.231094,178.106877 662.327596,174.844466 662.327596,172.022016 L662.327596,134.599061 C662.327596,131.77661 660.231094,128.5142 657.668438,127.349469 L625.822956,112.873548 C623.26047,111.708817 619.067296,111.708817 616.50464,112.873548 L584.659158,127.349469 C582.096672,128.5142 580,131.77661 580,134.599061 L580,172.022016 C580,174.844466 582.096672,178.106877 584.659158,179.271608" id="Fill-1"></path>
        </g>
    </g>
</svg>