<?xml version="1.0" encoding="UTF-8" standalone="no"?>
<svg width="114px" height="30px" viewBox="0 0 114 30" version="1.1" xmlns="http://www.w3.org/2000/svg" xmlns:xlink="http://www.w3.org/1999/xlink">
    <!-- Generator: Sketch 39.1 (31720) - http://www.bohemiancoding.com/sketch -->
    <title>Group 3 + AidS + tream</title>
    <desc>Created with Sketch.</desc>
    <defs>
        <polyline id="path-1" points="0 0.000855626327 106.954274 0.000855626327 106.954274 30.0127389 0 30.0127389"></polyline>
    </defs>
    <g id="Transaction" stroke="none" stroke-width="1" fill="none" fill-rule="evenodd">
        <g id="Desktop-Copy" transform="translate(-16.000000, -16.000000)">
            <g id="Logo" transform="translate(16.000000, 16.000000)">
                <g id="Group-3" stroke-width="1" fill-rule="evenodd">
                    <mask id="mask-2" fill="white">
                        <use xlink:href="#path-1"></use>
                    </mask>
                    <g id="Clip-2"></g>
                    <path d="M18.1510969,22.4402978 C18.3690331,19.5850069 16.1829135,16.6065058 13.5074543,16.0523232 C13.5074543,16.0523232 15.0140484,15.480699 16.7310343,15.8483551 C18.4360803,16.2135101 20.4940754,17.33675 21.5016205,20.4605101 C21.5016205,20.4605101 22.7306444,24.7134995 19.0328792,27.3902935 C15.6710061,29.8238923 12.2752158,27.8023763 12.2752158,27.8023763 C15.2500914,27.962905 17.9159724,25.5210133 18.1510969,22.4402978 M1.94928939,25.9550791 C2.53526364,25.4769814 3.1464954,25.1646778 3.69625628,25.0674655 C7.02237523,24.4791895 8.08916064,26.1172532 9.11350031,27.2431916 C11.1733979,29.5071789 13.0421257,30.0110111 15.1219669,30.0118668 C19.2864384,30.0136438 22.753737,26.322077 22.5249761,22.1539262 C22.3107137,18.2485186 19.3803832,15.2538264 15.4022269,14.8843933 C15.3014592,14.8750472 15.2168302,14.8786014 15.1167186,14.8741916 C13.8821183,14.8200897 13.0810944,15.0838201 12.01713,15.4287033 C11.7110877,15.5278901 11.5159816,15.6423466 11.3714562,15.6795334 C11.1967529,15.7244867 11.1010368,15.6777564 11.0398939,15.6305653 C10.9841306,15.5875207 10.8096242,15.3220791 11.0095849,15.1226523 C11.5245757,14.6090791 11.7048553,14.5613615 12.3242876,14.0820791 C12.5497682,13.907663 12.7554365,13.7629963 12.8121839,13.5496162 C12.8491189,13.4108731 12.8419025,13.2231619 12.6643127,13.0554591 C12.4483446,12.851491 12.1377756,12.9487691 11.7233556,13.1598455 C11.5197866,13.263508 11.2917474,13.3811237 11.041862,13.5490239 C9.62429246,14.5014018 8.30165175,15.9435271 7.60467566,17.6466184 C7.56472287,17.7443572 8.01548743,16.1253806 8.07426855,15.9384591 C8.3410141,15.0908625 9.49091968,12.7490133 11.338523,11.342232 C13.0237566,9.88681157 15.7545199,8.7020982 18.6745506,8.8960621 C24.8925561,9.30906635 28.9245077,14.296578 28.8184917,20.0294061 C28.7904132,21.5464973 27.9796143,25.9958201 24.1965641,28.4694358 L29.8842931,25.8839305 C30.87032,25.4357797 31.6769859,24.1805101 31.6769859,23.0945228 L31.6769859,8.69538482 C31.6769859,7.60939756 30.87032,6.35412792 29.8842931,5.90597718 L17.6311858,0.336113057 C16.6452244,-0.112037686 15.0318271,-0.112037686 14.0458001,0.336113057 L1.79269283,5.90597718 C0.806731453,6.35412792 0,7.60939756 0,8.69538482 L0,23.0945228 C0,24.1805101 0.806731453,25.4357797 1.79269283,25.8839305" id="Fill-1" fill="#00A8FF" mask="url(#mask-2)"></path>
                </g>
                <text id="Aid" font-family="BreeSerif-Regular, Bree Serif" font-size="16" font-weight="normal" fill="#030404">
                    <tspan x="37" y="23">Aid</tspan>
                </text>
                <text id="Stream" font-family="BreeSerif-Regular, Bree Serif" font-size="16" font-weight="normal" fill="#00A8FF">
                    <tspan x="62" y="23">Stream</tspan>
                </text>
            </g>
        </g>
    </g>
</svg>