<?xml version="1.0" encoding="UTF-8" standalone="no"?>
<svg width="131px" height="123px" viewBox="0 0 131 123" version="1.1" xmlns="http://www.w3.org/2000/svg" xmlns:xlink="http://www.w3.org/1999/xlink">
    <!-- Generator: Sketch 40.1 (33804) - http://www.bohemiancoding.com/sketch -->
    <title>Fill 1</title>
    <desc>Created with Sketch.</desc>
    <defs></defs>
    <g id="Onboarding" stroke="none" stroke-width="1" fill="none" fill-rule="evenodd">
        <g id="Welcome" transform="translate(-447.000000, -145.000000)" fill="#00A8FF">
            <g id="Overlay">
                <path d="M521.555934,236.96884 C522.451111,225.266776 513.471588,213.059751 502.482095,210.788501 C502.482095,210.788501 508.670455,208.445768 515.723003,209.952562 C522.726508,211.449105 531.179758,216.052568 535.318266,228.85492 C535.318266,228.85492 540.366502,246.285281 525.17787,257.255797 C511.36892,267.229607 497.420654,258.944669 497.420654,258.944669 C509.640005,259.602576 520.590156,249.594779 521.555934,236.96884 M455.006739,251.373745 C457.413638,249.41432 459.924283,248.134381 462.182435,247.735968 C475.844524,245.32499 480.226363,252.038396 484.433855,256.652918 C492.894919,265.931595 500.570749,267.996491 509.113732,267.999997 C526.219368,268.00728 540.461355,252.877841 539.521716,235.795181 C538.64163,219.789341 526.605248,207.515958 510.264904,206.001881 C509.851,205.963578 509.503384,205.978144 509.092174,205.960071 C504.021033,205.738341 500.730814,206.819208 496.360562,208.23267 C495.103489,208.639175 494.302087,209.108261 493.708446,209.260667 C492.99085,209.444902 492.597694,209.253384 492.346549,209.059977 C492.1175,208.883564 491.400712,207.795684 492.222054,206.978357 C494.337388,204.873539 495.077889,204.677975 497.622217,202.713694 C498.548383,201.99887 499.393169,201.405972 499.62626,200.531459 C499.777971,199.962838 499.748329,199.193526 499.018876,198.506216 C498.131784,197.670278 496.856116,198.06896 495.153879,198.934031 C494.317716,199.358879 493.381041,199.840913 492.354633,200.529032 C486.531942,204.432237 481.099173,210.342613 478.236332,217.322526 C478.072226,217.723097 479.923749,211.087917 480.165193,210.321842 C481.260855,206.84807 485.984111,197.250285 493.573173,191.484763 C500.495298,185.519899 511.711954,180.664494 523.706029,181.459432 C549.246591,183.15208 565.807899,203.592792 565.372437,227.088092 C565.257104,233.305707 561.926734,251.540717 546.387792,261.678531 L569.750234,251.082151 C573.800356,249.245459 577.11375,244.100889 577.11375,239.650102 L577.11375,180.63698 C577.11375,176.186193 573.800356,171.041623 569.750234,169.204931 L519.420391,146.377519 C515.370538,144.540827 508.743481,144.540827 504.693359,146.377519 L454.363516,169.204931 C450.313663,171.041623 447,176.186193 447,180.63698 L447,239.650102 C447,244.100889 450.313663,249.245459 454.363516,251.082151" id="Fill-1"></path>
            </g>
        </g>
    </g>
</svg>