<?xml version="1.0" encoding="UTF-8" standalone="no"?>
<svg width="158px" height="42px" viewBox="0 0 158 42" version="1.1" xmlns="http://www.w3.org/2000/svg" xmlns:xlink="http://www.w3.org/1999/xlink">
    <!-- Generator: Sketch 3.6.1 (26313) - http://www.bohemiancoding.com/sketch -->
    <title>Group 3 + AidS + tream Copy 2</title>
    <desc>Created with Sketch.</desc>
    <defs>
        <path id="path-1" d="M0,0.00118178284 L148.805947,0.00118178284 L148.805947,41.4533058 L0,41.4533058"></path>
    </defs>
    <g id="Homepage" stroke="none" stroke-width="1" fill="none" fill-rule="evenodd">
        <g transform="translate(-42.000000, -70.000000)" id="Group-3-+-AidS-+-tream-Copy-2">
            <g transform="translate(42.000000, 70.000000)">
                <g id="Group-3">
                    <mask id="mask-2" fill="white">
                        <use xlink:href="#path-1"></use>
                    </mask>
                    <g id="Clip-2"></g>
                    <path d="M25.2537,30.9943231 C25.5569156,27.0506229 22.515358,22.9367459 18.7929799,22.1713143 C18.7929799,22.1713143 20.8891109,21.3817924 23.2779608,21.8895954 C25.6501987,22.393944 28.5134962,23.9453521 29.9152981,28.2598595 C29.9152981,28.2598595 31.6252444,34.1340474 26.4805276,37.8312096 C21.803139,41.1924727 17.0785611,38.4003744 17.0785611,38.4003744 C21.2175184,38.622095 24.9265703,35.2493777 25.2537,30.9943231 M2.71205481,35.8489052 C3.52732333,35.1885613 4.37773273,34.7572106 5.14261744,34.6229419 C9.77026119,33.8104207 11.2544844,36.0728985 12.6796526,37.6280339 C15.5455971,40.7550312 18.1455662,41.4509195 21.0392583,41.4521013 C26.8333056,41.4545558 31.6573732,36.3557992 31.3390972,30.5987895 C31.0409929,25.2046781 26.9640114,21.0684381 21.4291852,20.5581807 C21.2889868,20.545272 21.171242,20.5501809 21.0319563,20.5440902 C19.3142516,20.4693652 18.1997835,20.833627 16.7194852,21.3099764 C16.2936872,21.4469723 16.0222353,21.6050585 15.8211564,21.6564206 C15.578091,21.7185096 15.4449207,21.6539661 15.3598524,21.5887862 C15.2822687,21.5293335 15.0394771,21.1627081 15.3176834,20.8872617 C16.0341923,20.1779193 16.2850161,20.1120122 17.1468349,19.450032 C17.4605471,19.2091301 17.7466943,19.0093179 17.8256472,18.7145994 C17.8770351,18.5229688 17.8669948,18.2637038 17.6199133,18.0320744 C17.3194359,17.7503556 16.88734,17.8847152 16.3107556,18.1762519 C16.0275292,18.3194294 15.7102572,18.4818791 15.3625907,18.7137813 C13.3903199,20.0291965 11.5501242,22.021046 10.5804183,24.3733393 C10.5248318,24.5083353 11.1519825,22.2722203 11.2337649,22.0140462 C11.6048892,20.843354 13.2047578,17.6088143 15.7753363,15.6657815 C18.1200092,13.6555689 21.9193321,12.0192542 25.9819834,12.2871553 C34.6331215,12.8575928 40.2427933,19.7462959 40.0952928,27.6644227 C40.0562271,29.7598146 38.9281591,35.9051763 33.6647848,39.3217105 L41.5781469,35.7506354 C42.9500105,35.131654 44.0723282,33.3978876 44.0723282,31.8979325 L44.0723282,12.0099818 C44.0723282,10.5100266 42.9500105,8.77626028 41.5781469,8.15727879 L24.5303454,0.464236117 C23.1585731,-0.154745372 20.9138464,-0.154745372 19.5419828,0.464236117 L2.49418132,8.15727879 C1.12240898,8.77626028 0,10.5100266 0,12.0099818 L0,31.8979325 C0,33.3978876 1.12240898,35.131654 2.49418132,35.7506354" id="Fill-1" fill="#00A8FF" mask="url(#mask-2)"></path>
                </g>
                <path d="M52.980996,29.8120491 L56.5389424,19.5138937 L55.1467025,19.3812994 L55.1467025,17.5912767 L60.207384,17.5912767 L64.7155894,30.3424262 L64.7376884,30.3424262 L65.997334,30.4087233 L65.997334,32.2871422 L60.2957802,32.2871422 L60.2957802,30.4971195 L61.1355439,30.4308224 C61.386001,30.4013568 61.5554254,30.3424266 61.643822,30.25403 C61.7322186,30.1656334 61.7395849,30.0035753 61.665921,29.767851 L61.2018411,28.3977101 L56.0306643,28.3977101 L55.3676929,30.3424262 L56.6936357,30.4087233 L56.6936357,32.2871422 L51.5887561,32.2871422 L51.5887561,30.4971195 L52.3180246,30.4308224 C52.6274128,30.4013568 52.8484011,30.1951011 52.980996,29.8120491 L52.980996,29.8120491 Z M58.6162527,20.0663698 L56.5610414,26.3645979 L60.671464,26.3645979 L58.6825498,20.0663698 L58.6162527,20.0663698 Z M70.8370251,21.1713221 L70.8370251,30.4529214 L72.0966707,30.5192185 L72.0966707,32.2871422 L66.8370978,32.2871422 L66.8370978,30.6076147 L67.5663663,30.5413176 C67.9936166,30.4971193 68.2072386,30.2613985 68.2072386,29.8341481 L68.2072386,23.6906134 C68.2072386,23.4401563 68.1667241,23.2707319 68.0856939,23.1823353 C68.0046636,23.0939387 67.8610213,23.049741 67.6547625,23.049741 L66.8812959,23.0055429 L66.8812959,21.1713221 L70.8370251,21.1713221 Z M67.5884653,18.0995547 C67.5884653,17.6281061 67.7431571,17.2340104 68.0525453,16.9172558 C68.3619335,16.6005012 68.7670786,16.4421263 69.2679928,16.4421263 C69.768907,16.4421263 70.1777353,16.6005012 70.4944899,16.9172558 C70.8112444,17.2340104 70.9696193,17.6281061 70.9696193,18.0995547 C70.9696193,18.5710034 70.8112444,18.9577329 70.4944899,19.2597547 C70.1777353,19.5617765 69.768907,19.7127851 69.2679928,19.7127851 C68.7670786,19.7127851 68.3619335,19.5617765 68.0525453,19.2597547 C67.7431571,18.9577329 67.5884653,18.5710034 67.5884653,18.0995547 L67.5884653,18.0995547 Z M78.9252759,20.8398364 C79.558785,20.8398364 80.1628196,20.9282317 80.7373976,21.105025 L80.7373976,18.8730214 C80.7373976,18.5489004 80.5458745,18.3721098 80.1628224,18.3426443 L79.2125635,18.2763471 L79.2125635,16.5305225 L83.322986,16.5305225 L83.322986,29.9667424 C83.3377188,30.3055961 83.5218756,30.4750204 83.8754621,30.4750204 L84.6489287,30.5192185 L84.6489287,32.2871422 L81.0688833,32.2871422 L81.0688833,30.9832985 L81.0025862,30.9611995 C80.3396115,32.0366917 79.3377981,32.5744298 77.9971159,32.5744298 C76.3175801,32.5744298 75.1389761,32.0145929 74.4612686,30.8949023 C73.8424922,29.8783411 73.5331087,28.6334407 73.5331087,27.1601636 C73.5331087,25.2449033 74.0082334,23.7127181 74.9584971,22.563562 C75.9087609,21.4144059 77.2310072,20.8398364 78.9252759,20.8398364 L78.9252759,20.8398364 Z M80.7373976,28.839691 L80.7373976,23.1160382 C80.2070179,22.8803138 79.647181,22.7624534 79.0578701,22.7624534 C78.0855073,22.7624534 77.3746617,23.152866 76.9253122,23.9337029 C76.4759627,24.7145397 76.2512913,25.7089868 76.2512913,26.9170741 C76.2512913,29.3921796 77.046849,30.6297138 78.6379883,30.6297138 C79.2420319,30.6297138 79.7429386,30.4566063 80.1407234,30.1103862 C80.5385082,29.7641661 80.7373976,29.3406053 80.7373976,28.839691 L80.7373976,28.839691 Z" id="Aid" fill="#030404"></path>
                <path d="M91.5867396,30.2982281 C93.3546721,30.2982281 94.2386251,29.5910657 94.2386251,28.1767197 C94.2386251,27.4400811 93.8482126,26.8949768 93.0673757,26.5413903 C92.6548581,26.3351315 92.1208032,26.1436083 91.4651949,25.9668151 C90.8095866,25.7900218 90.2644822,25.6095481 89.8298655,25.4253885 C89.3952487,25.2412288 88.9569554,24.9870923 88.5149722,24.6629714 C87.6457388,24.0147295 87.2111285,23.0165992 87.2111285,21.6685507 C87.2111285,20.3205021 87.678887,19.2597585 88.614418,18.4862881 C89.5499489,17.7128176 90.7727506,17.3260881 92.2828596,17.3260881 C93.7929686,17.3260881 95.196244,17.6281054 96.4927278,18.232149 L96.4927278,21.5470059 L94.2386251,21.7016992 L94.2386251,20.4199546 C94.2386251,20.198963 94.20916,20.036905 94.1502289,19.9337756 C93.9881685,19.6538529 93.4688461,19.5138937 92.5922462,19.5138937 C91.7156463,19.5138937 91.0674141,19.6685855 90.6475302,19.9779736 C90.2276462,20.2873618 90.0177074,20.7661697 90.0177074,21.4144116 C90.0177074,21.8858603 90.194498,22.2983717 90.5480845,22.6519582 C90.7838088,22.8876825 91.1337069,23.0828888 91.5977891,23.2375829 C92.0618714,23.392277 92.5554119,23.5506519 93.0784252,23.7127124 C93.6014386,23.8747729 94.0655139,24.0515635 94.4706651,24.2430895 C94.8758163,24.4346155 95.2993771,24.6998014 95.7413603,25.0386552 C96.6400593,25.7016298 97.0894021,26.7255421 97.0894021,28.1104225 C97.0894021,29.495303 96.5921785,30.5855117 95.5977165,31.3810813 C94.6032544,32.176651 93.2920575,32.5744298 91.6640863,32.5744298 C90.0361151,32.5744298 88.5739095,32.2724125 87.2774257,31.6683689 L87.2774257,28.1767197 L89.5315284,28.0220264 L89.5315284,29.3700682 C89.5315284,29.5910597 89.5609935,29.7531178 89.6199245,29.8562472 C89.6788556,29.9593766 89.8593294,30.0588213 90.1613512,30.1545843 C90.463373,30.2503473 90.9384977,30.2982281 91.5867396,30.2982281 L91.5867396,30.2982281 Z M100.757844,18.8288233 L102.194282,18.8288233 L102.194282,21.1713221 L105.133455,21.1713221 L104.912464,23.027642 L102.194282,23.027642 L102.194282,28.839691 C102.194282,29.487933 102.312142,29.9409589 102.547866,30.1987824 C102.783591,30.4566059 103.148221,30.5855157 103.641769,30.5855157 C104.135317,30.5855157 104.632541,30.4308239 105.133455,30.1214357 L105.796426,31.8230622 C105.059788,32.3387092 104.124271,32.5965289 102.989847,32.5965289 C102.326873,32.5965289 101.767036,32.5118167 101.31032,32.3423898 C100.853604,32.172963 100.514755,31.9851229 100.293764,31.7788642 C100.072772,31.5726054 99.9033478,31.2705881 99.7854856,30.8728033 C99.6676235,30.4750185 99.601327,30.1619518 99.5865942,29.9335938 C99.5718615,29.7052359 99.5644952,29.3700704 99.5644952,28.9280872 L99.5644952,23.027642 L97.9954629,23.027642 L98.2164534,21.4144116 C98.9088936,21.3554805 99.4318991,21.1087103 99.7854856,20.6740936 C100.139072,20.2394769 100.463188,19.6243929 100.757844,18.8288233 L100.757844,18.8288233 Z M108.006331,29.8120491 L108.006331,23.6906134 C108.006331,23.454889 107.965816,23.2891478 107.884786,23.1933848 C107.803756,23.0976218 107.660113,23.0423748 107.453855,23.027642 L106.525695,22.9613448 L106.525695,21.1713221 L110.260433,21.1713221 L110.260433,22.8287506 C110.525623,22.2541725 110.938135,21.7790478 111.49798,21.4033621 C112.057825,21.0276764 112.702374,20.8398364 113.431646,20.8398364 C114.160919,20.8398364 114.857032,21.0018945 115.520006,21.3260154 L115.520006,24.6187733 L113.464795,24.7734666 L113.464795,23.7569105 C113.464795,23.4622551 113.391132,23.2780982 113.243805,23.2044343 C113.081744,23.1307705 112.882855,23.0939391 112.64713,23.0939391 C112.05782,23.0939391 111.575329,23.303878 111.199643,23.7237619 C110.823957,24.1436459 110.636117,24.6777008 110.636117,25.3259428 L110.636117,30.4529214 L112.558734,30.5413176 L112.558734,32.2871422 L106.63619,32.2871422 L106.63619,30.6076147 L107.365458,30.5413176 C107.58645,30.511852 107.748508,30.4492387 107.851637,30.3534757 C107.954767,30.2577127 108.006331,30.0772389 108.006331,29.8120491 L108.006331,29.8120491 Z M122.39281,20.8398364 C123.497767,20.8398364 124.374354,21.1087055 125.022596,21.6464516 C125.670838,22.1841978 125.994954,22.9392409 125.994954,23.9116038 C125.994954,24.5598457 125.854995,25.130732 125.575072,25.6242799 C125.29515,26.1178277 124.948935,26.5045571 124.536417,26.7844798 C124.123899,27.0644024 123.622993,27.292757 123.033682,27.4695502 C122.046586,27.7642056 120.934279,27.9115311 119.696726,27.9115311 C119.740924,28.692368 119.984011,29.3221845 120.425995,29.8009995 C120.867978,30.2798146 121.545675,30.5192185 122.459107,30.5192185 C123.372539,30.5192185 124.285957,30.1951024 125.199388,29.5468605 L126.039152,31.3368832 C125.744497,31.6020731 125.247273,31.8746253 124.547467,32.1545479 C123.84766,32.4344706 123.048419,32.5744298 122.14972,32.5744298 C120.352322,32.5744298 119.033759,32.0772062 118.193991,31.0827442 C117.354223,30.0882822 116.934345,28.7218382 116.934345,26.9833712 C116.934345,25.2449042 117.413153,23.7863818 118.370783,22.6077601 C119.328413,21.4291384 120.669075,20.8398364 122.39281,20.8398364 L122.39281,20.8398364 Z M122.878989,25.2485961 C123.335705,24.9171087 123.564059,24.523013 123.564059,24.0662971 C123.564059,23.1675981 123.122083,22.7182553 122.238116,22.7182553 C121.413081,22.7182553 120.779581,23.0460546 120.337598,23.7016629 C119.895615,24.3572712 119.652528,25.1417795 119.60833,26.0552113 C120.256572,26.0404785 120.849557,25.9852314 121.387303,25.8894684 C121.925049,25.7937054 122.422273,25.5800834 122.878989,25.2485961 L122.878989,25.2485961 Z M137.464359,21.613303 L137.464359,29.8341481 C137.464359,30.0698724 137.504873,30.2319305 137.585904,30.3203271 C137.666934,30.4087237 137.810576,30.4602877 138.016835,30.4750204 L138.724005,30.5192185 L138.724005,32.2871422 L135.210256,32.2871422 L135.210256,31.0053975 L135.143959,30.9832985 C134.407321,32.044058 133.398141,32.5744298 132.11639,32.5744298 C130.613647,32.5744298 129.50134,32.0956219 128.779434,31.1379918 C128.057528,30.1803617 127.696581,28.8691648 127.696581,27.2043617 C127.696581,25.2007048 128.182755,23.6390545 129.155118,22.5193639 C130.127481,21.3996733 131.586003,20.8398364 133.530729,20.8398364 C134.783014,20.8398364 136.094211,21.0976561 137.464359,21.613303 L137.464359,21.613303 Z M134.90087,28.7733939 L134.90087,23.049741 C134.488352,22.858215 133.921149,22.7624534 133.199243,22.7624534 C132.212147,22.7624534 131.497619,23.1602323 131.055636,23.9558019 C130.613652,24.7513715 130.392664,25.8047489 130.392664,27.1159655 C130.392664,29.5026744 131.158757,30.6960109 132.690965,30.6960109 C133.339207,30.6960109 133.869579,30.5008046 134.282096,30.1103862 C134.694614,29.7199678 134.90087,29.2743081 134.90087,28.7733939 L134.90087,28.7733939 Z M139.939452,22.9613448 L139.939452,21.1713221 L143.674191,21.1713221 L143.674191,22.6077601 C144.499226,21.4291384 145.629949,20.8398364 147.066394,20.8398364 C148.502839,20.8398364 149.471505,21.4291384 149.972419,22.6077601 C150.797454,21.4291384 151.917128,20.8398364 153.331474,20.8398364 C154.392233,20.8398364 155.20989,21.1602694 155.784468,21.8011449 C156.359046,22.4420205 156.646331,23.4033194 156.646331,24.6850704 L156.646331,30.4529214 L157.905976,30.5192185 L157.905976,32.2871422 L152.646403,32.2871422 L152.646403,30.6076147 L153.375672,30.5413176 C153.596663,30.511852 153.755038,30.4492387 153.850801,30.3534757 C153.946564,30.2577127 154.001811,30.0846052 154.016544,29.8341481 L154.016544,25.2596456 C154.016544,24.4493432 153.924466,23.8489918 153.740306,23.4585734 C153.556147,23.0681549 153.125219,22.8729487 152.447512,22.8729487 C151.769805,22.8729487 151.250482,23.0792044 150.889529,23.4917219 C150.528576,23.9042395 150.348103,24.4567102 150.348103,25.1491504 L150.348103,30.4529214 L151.56355,30.5192185 L151.56355,32.2871422 L146.348175,32.2871422 L146.348175,30.6076147 L147.077444,30.5413176 C147.298435,30.511852 147.460493,30.4492387 147.563623,30.3534757 C147.666752,30.2577127 147.718316,30.0772389 147.718316,29.8120491 L147.718316,25.2596456 C147.718316,24.4493432 147.626238,23.8489918 147.442078,23.4585734 C147.257918,23.0681549 146.823308,22.8729487 146.138234,22.8729487 C145.453161,22.8729487 144.933838,23.0865706 144.580252,23.513821 C144.226665,23.9410713 144.049875,24.4714431 144.049875,25.1049523 L144.049875,30.4529214 L145.243223,30.5192185 L145.243223,32.2871422 L140.027848,32.2871422 L140.027848,30.6076147 L140.757117,30.5413176 C140.978108,30.511852 141.140166,30.4492387 141.243296,30.3534757 C141.346425,30.2577127 141.397989,30.0772389 141.397989,29.8120491 L141.420088,29.8120491 L141.420088,23.7127124 C141.420088,23.4622553 141.379574,23.2891478 141.298543,23.1933848 C141.217513,23.0976218 141.073871,23.0423748 140.867612,23.027642 L139.939452,22.9613448 Z" id="Stream" fill="#00A8FF"></path>
            </g>
        </g>
    </g>
</svg>