<?xml version="1.0" encoding="UTF-8" standalone="no"?>
<svg width="134px" height="127px" viewBox="0 0 134 127" version="1.1" xmlns="http://www.w3.org/2000/svg" xmlns:xlink="http://www.w3.org/1999/xlink">
    <!-- Generator: Sketch 3.6.1 (26313) - http://www.bohemiancoding.com/sketch -->
    <title>Fill 1</title>
    <desc>Created with Sketch.</desc>
    <defs></defs>
    <g id="Login" stroke="none" stroke-width="1" fill="none" fill-rule="evenodd">
        <g transform="translate(-445.000000, -159.000000)" id="Fill-1" fill="#00A8FF">
            <path d="M521.782778,253.926958 C522.704692,241.848505 513.456968,229.248848 502.139239,226.904545 C502.139239,226.904545 508.512434,224.48646 515.775629,226.041719 C522.988315,227.586398 531.694047,232.337928 535.956165,245.552059 C535.956165,245.552059 541.155182,263.543057 525.512894,274.866432 C511.291497,285.161042 496.926623,276.609625 496.926623,276.609625 C509.510943,277.288693 520.788155,266.959002 521.782778,253.926958 M453.245885,268.795187 C455.724673,266.772738 458.310306,265.451631 460.635905,265.040404 C474.706055,262.551878 479.218771,269.481216 483.551933,274.244161 C492.265713,283.821281 500.170806,285.952593 508.968951,285.956212 C526.5855,285.96373 541.252868,270.347662 540.285164,252.715549 C539.378791,236.194891 526.982906,223.526743 510.154507,221.963967 C509.72824,221.924432 509.370242,221.939466 508.94675,221.920812 C503.724143,221.69195 500.335652,222.807582 495.834869,224.266508 C494.540248,224.686088 493.714911,225.170262 493.103539,225.327569 C492.364509,225.517731 491.959611,225.320052 491.700964,225.120424 C491.465074,224.938337 490.726877,223.815466 491.572751,222.971851 C493.751265,220.799333 494.513884,220.597478 497.134207,218.570017 C498.088035,217.832202 498.958053,217.220233 499.198106,216.317593 C499.354349,215.730682 499.323822,214.936625 498.572581,214.227209 C497.658993,213.364383 496.345224,213.775889 494.592144,214.668785 C493.731007,215.107297 492.766355,215.604835 491.70929,216.315087 C485.712686,220.343836 480.117651,226.444315 477.169302,233.648733 C477.000294,234.062188 478.907119,227.213592 479.155774,226.422877 C480.284162,222.837373 485.148493,212.930882 492.964225,206.979915 C500.093101,200.823195 511.644777,195.81162 523.997092,196.632126 C550.300502,198.379217 567.356465,219.477391 566.907997,243.728402 C566.789219,250.146003 563.359377,268.96753 547.356316,279.43142 L571.41655,268.494214 C575.587642,266.598447 579,261.288405 579,256.694461 L579,195.783221 C579,191.189277 575.587642,185.879235 571.41655,183.983467 L519.58345,160.421826 C515.412636,158.526058 508.587642,158.526058 504.41655,160.421826 L452.58345,183.983467 C448.412636,185.879235 445,191.189277 445,195.783221 L445,256.694461 C445,261.288405 448.412636,266.598447 452.58345,268.494214"></path>
        </g>
    </g>
</svg>