<?xml version="1.0" encoding="UTF-8"?>
<svg width="91px" height="78px" viewBox="0 0 91 78" version="1.1" xmlns="http://www.w3.org/2000/svg" xmlns:xlink="http://www.w3.org/1999/xlink">
    <!-- Generator: Sketch 41.2 (35397) - http://www.bohemiancoding.com/sketch -->
    <title>Screens</title>
    <desc>Created with Sketch.</desc>
    <defs>
        <polygon id="path-1" points="3.75735931 0 0 0 0 8 6 8 6 2.24264069 3.75735931 -2.77555756e-16"></polygon>
        <polygon id="path-3" points="3.75735931 0 0 0 0 8 6 8 6 2.24264069 3.75735931 -2.77555756e-16"></polygon>
        <polygon id="path-5" points="3.75735931 0 0 0 0 8 6 8 6 2.24264069 3.75735931 -2.77555756e-16"></polygon>
    </defs>
    <g id="Page-1" stroke="none" stroke-width="1" fill="none" fill-rule="evenodd">
        <g id="ic-activity-action-sprite">
            <g id="Screens">
                <g id="Artboard">
                    <g id="Group-2">
                        <g id="Group">
                            <g id="ic_edit_element_mainbody" fill="#546E7A">
                                <path d="M8.75023437,0.36609375 C8.50609375,0.122109375 8.1859375,0 7.86617188,0 C7.54640625,0 7.22648437,0.122109375 6.98234375,0.36609375 L1.6159375,5.73242188 C1.37210937,5.9765625 0.6253125,6.92078125 0.625,7.240625 L0,10 L2.75882812,9.375 C2.75882812,9.375 4.02351563,8.62789062 4.26765625,8.38375 L9.6340625,3.01757812 C10.1220313,2.52929688 10.1220313,1.73773437 9.63398438,1.25 L8.75023437,0.36609375 Z M1.234375,7.37851562 C1.24015625,7.35289062 1.24445312,7.32664062 1.246875,7.30101562 C1.248125,7.29734375 1.25148437,7.291875 1.25296875,7.28820312 L2.66625,8.70179687 C2.61898437,8.73046875 2.57132812,8.75914062 2.52460937,8.78726562 L0.828515625,9.17171875 L1.234375,7.37851562 Z M3.21226562,8.36367188 L1.59304687,6.744375 C1.7590625,6.51671875 1.94398437,6.2878125 2.0578125,6.17429688 L6.09859375,2.13382812 L7.86617187,3.90140625 L3.826875,7.94070313 C3.75609375,8.0078125 3.51132812,8.17328125 3.21226562,8.36367188 Z M8.30804687,3.45953125 L6.54046875,1.69195312 L7.42453125,0.808125 C7.54234375,0.689765625 7.69921875,0.625 7.86617187,0.625 C8.033125,0.625 8.19023437,0.6903125 8.30835937,0.808125 L9.1921875,1.69195312 C9.3103125,1.80976563 9.375,1.96664063 9.375,2.13382812 C9.37492187,2.30046875 9.30992187,2.45789063 9.19210937,2.57570313 L8.30804687,3.45953125 Z" id="Shape"></path>
                            </g>
                            <g id="activity-list_item-4_edit" transform="translate(40.000000, 0.000000)" fill="#00A8FF">
                                <path d="M8.75023437,0.36609375 C8.50609375,0.122109375 8.1859375,0 7.86617188,0 C7.54640625,0 7.22648437,0.122109375 6.98234375,0.36609375 L1.6159375,5.73242188 C1.37210937,5.9765625 0.6253125,6.92078125 0.625,7.240625 L0,10 L2.75882812,9.375 C2.75882812,9.375 4.02351563,8.62789062 4.26765625,8.38375 L9.6340625,3.01757812 C10.1220313,2.52929688 10.1220313,1.73773437 9.63398438,1.25 L8.75023437,0.36609375 Z M1.234375,7.37851562 C1.24015625,7.35289062 1.24445312,7.32664062 1.246875,7.30101562 C1.248125,7.29734375 1.25148437,7.291875 1.25296875,7.28820312 L2.66625,8.70179687 C2.61898437,8.73046875 2.57132812,8.75914062 2.52460937,8.78726562 L0.828515625,9.17171875 L1.234375,7.37851562 Z M3.21226562,8.36367188 L1.59304687,6.744375 C1.7590625,6.51671875 1.94398437,6.2878125 2.0578125,6.17429688 L6.09859375,2.13382813 L7.86617187,3.90140625 L3.826875,7.94070313 C3.75609375,8.0078125 3.51132812,8.17328125 3.21226562,8.36367188 Z M8.30804687,3.45953125 L6.54046875,1.69195312 L7.42453125,0.808125 C7.54234375,0.689765625 7.69921875,0.625 7.86617187,0.625 C8.033125,0.625 8.19023437,0.6903125 8.30835937,0.808125 L9.1921875,1.69195312 C9.3103125,1.80976563 9.375,1.96664063 9.375,2.13382812 C9.37492187,2.30046875 9.30992187,2.45789063 9.19210937,2.57570313 L8.30804687,3.45953125 Z" id="ic_edit_element_mainbody"></path>
                            </g>
                            <g id="more-options_pop-up_duplicate-activity_icon" transform="translate(1.000000, 34.000000)">
                                <g id="more-options_pop-up_duplicate-activity_shape-2-Clipped" transform="translate(4.000000, 0.000000)">
                                    <mask id="mask-2" fill="white">
                                        <use xlink:href="#path-1"></use>
                                    </mask>
                                    <g id="path-1"></g>
                                    <g id="more-options_pop-up_duplicate-activity_shape-2" mask="url(#mask-2)" stroke-width="2" stroke="#546E7A" stroke-dasharray="1">
                                        <polygon id="path-1" points="3.75735931 0 0 0 0 8 6 8 6 2.24264069 3.75735931 -2.77555756e-16"></polygon>
                                    </g>
                                </g>
                                <polygon id="more-options_pop-up_duplicate-activity_shape-1" fill="#484848" points="3.75735931 2 0 2 0 10 6 10 6 4.24264069"></polygon>
                            </g>
                            <g id="more-options_pop-up_duplicate-activity_icon" transform="translate(41.000000, 34.000000)">
                                <g id="more-options_pop-up_duplicate-activity_shape-2-Clipped" transform="translate(4.000000, 0.000000)">
                                    <mask id="mask-4" fill="white">
                                        <use xlink:href="#path-3"></use>
                                    </mask>
                                    <g id="path-3"></g>
                                    <g id="more-options_pop-up_duplicate-activity_shape-2" mask="url(#mask-4)" stroke-width="2" stroke="#546E7A" stroke-dasharray="1">
                                        <polygon id="path-3" points="3.75735931 0 0 0 0 8 6 8 6 2.24264069 3.75735931 -2.77555756e-16"></polygon>
                                    </g>
                                </g>
                                <polygon id="more-options_pop-up_duplicate-activity_shape-1" fill="#00A8FF" points="3.75735931 2 0 2 0 10 6 10 6 4.24264069"></polygon>
                            </g>
                            <g id="more-options_pop-up_delete-activity_icon" transform="translate(39.000000, 65.000000)" fill="#00A8FF">
                                <g id="Page-1">
                                    <path d="M2.94965511,3.01119601 L2.94965511,3.80148562 L3.57861907e-06,3.80148562 L3.57861907e-06,4.99739703 L8.41923634,4.99739703 L8.41923634,3.80148562 L5.46955171,3.80148562 L5.46955171,3.01119601 L2.94965511,3.01119601 Z M3.24305187,3.28889618 L5.2173172,3.28889618 L5.2173172,3.80838511 L3.24305187,3.80838511 L3.24305187,3.28889618 Z" id="Fill-1" transform="translate(4.209620, 4.004297) rotate(-32.000000) translate(-4.209620, -4.004297) "></path>
                                    <path d="M2.77011933,5.50439523 L3.60474656,13 L8.95696247,13 L9.7915897,5.50439523 L2.77011933,5.50439523 Z M8.00015552,6.33761499 L8.6989209,6.33761499 L8.12407238,12.4232027 L7.59142839,12.4232027 L8.00015552,6.33761499 Z M5.89494199,6.34282794 L6.59369083,6.34282794 L6.51930762,12.4271721 L5.98668018,12.4271721 L5.89494199,6.34282794 Z M3.78971192,6.39100511 L4.48846076,6.39100511 L4.91457595,12.4639012 L4.38193196,12.4639012 L3.78971192,6.39100511 Z" id="Fill-2"></path>
                                </g>
                            </g>
                            <path d="M88.7502344,0.36609375 C88.5060938,0.122109375 88.1859375,0 87.8661719,0 C87.5464063,0 87.2264844,0.122109375 86.9823437,0.36609375 L81.6159375,5.73242188 C81.3721094,5.9765625 80.6253125,6.92078125 80.625,7.240625 L80,10 L82.7588281,9.375 C82.7588281,9.375 84.0235156,8.62789062 84.2676563,8.38375 L89.6340625,3.01757812 C90.1220313,2.52929688 90.1220313,1.73773437 89.6339844,1.25 L88.7502344,0.36609375 Z M81.234375,7.37851562 C81.2401562,7.35289062 81.2444531,7.32664062 81.246875,7.30101562 C81.248125,7.29734375 81.2514844,7.291875 81.2529687,7.28820312 L82.66625,8.70179687 C82.6189844,8.73046875 82.5713281,8.75914062 82.5246094,8.78726562 L80.8285156,9.17171875 L81.234375,7.37851562 Z M83.2122656,8.36367188 L81.5930469,6.744375 C81.7590625,6.51671875 81.9439844,6.2878125 82.0578125,6.17429688 L86.0985937,2.13382813 L87.8661719,3.90140625 L83.826875,7.94070313 C83.7560938,8.0078125 83.5113281,8.17328125 83.2122656,8.36367188 Z M88.3080469,3.45953125 L86.5404688,1.69195312 L87.4245313,0.808125 C87.5423438,0.689765625 87.6992188,0.625 87.8661719,0.625 C88.033125,0.625 88.1902344,0.6903125 88.3083594,0.808125 L89.1921875,1.69195312 C89.3103125,1.80976563 89.375,1.96664063 89.375,2.13382812 C89.3749219,2.30046875 89.3099219,2.45789063 89.1921094,2.57570313 L88.3080469,3.45953125 Z" id="ic_edit_element_mainbody" fill="#1AAB3C"></path>
                            <g id="more-options_pop-up_duplicate-activity_icon" transform="translate(81.000000, 34.000000)">
                                <g id="more-options_pop-up_duplicate-activity_shape-2-Clipped" transform="translate(4.000000, 0.000000)">
                                    <mask id="mask-6" fill="white">
                                        <use xlink:href="#path-5"></use>
                                    </mask>
                                    <g id="path-3"></g>
                                    <g id="more-options_pop-up_duplicate-activity_shape-2" mask="url(#mask-6)" stroke-width="2" stroke="#546E7A" stroke-dasharray="1">
                                        <polygon id="path-3" points="3.75735931 0 0 0 0 8 6 8 6 2.24264069 3.75735931 -2.77555756e-16"></polygon>
                                    </g>
                                </g>
                                <polygon id="more-options_pop-up_duplicate-activity_shape-1" fill="#1AAB3C" points="3.75735931 2 0 2 0 10 6 10 6 4.24264069"></polygon>
                            </g>
                            <g id="more-options_pop-up_delete-activity_icon" transform="translate(79.000000, 65.000000)" fill="#1AAB3C">
                                <g id="Page-1">
                                    <path d="M2.94965511,3.01119601 L2.94965511,3.80148562 L3.57861907e-06,3.80148562 L3.57861907e-06,4.99739703 L8.41923634,4.99739703 L8.41923634,3.80148562 L5.46955171,3.80148562 L5.46955171,3.01119601 L2.94965511,3.01119601 Z M3.24305187,3.28889618 L5.2173172,3.28889618 L5.2173172,3.80838511 L3.24305187,3.80838511 L3.24305187,3.28889618 Z" id="Fill-1" transform="translate(4.209620, 4.004297) rotate(-32.000000) translate(-4.209620, -4.004297) "></path>
                                    <path d="M2.77011933,5.50439523 L3.60474656,13 L8.95696247,13 L9.7915897,5.50439523 L2.77011933,5.50439523 Z M8.00015552,6.33761499 L8.6989209,6.33761499 L8.12407238,12.4232027 L7.59142839,12.4232027 L8.00015552,6.33761499 Z M5.89494199,6.34282794 L6.59369083,6.34282794 L6.51930762,12.4271721 L5.98668018,12.4271721 L5.89494199,6.34282794 Z M3.78971192,6.39100511 L4.48846076,6.39100511 L4.91457595,12.4639012 L4.38193196,12.4639012 L3.78971192,6.39100511 Z" id="Fill-2"></path>
                                </g>
                            </g>
                        </g>
                        <g id="more-options_pop-up_delete-activity_icon" transform="translate(0.000000, 68.000000)" fill="#484848">
                            <g id="Page-1">
                                <path d="M2.94965484,0.0111959114 L2.94965484,0.80148552 L3.3088614e-06,0.80148552 L3.3088614e-06,1.99739693 L8.41923607,1.99739693 L8.41923607,0.80148552 L5.46955144,0.80148552 L5.46955144,0.0111959114 L2.94965484,0.0111959114 Z M3.2430516,0.288896082 L5.21731693,0.288896082 L5.21731693,0.808385009 L3.2430516,0.808385009 L3.2430516,0.288896082 Z" id="Fill-1"></path>
                                <path d="M0.770119326,2.50439523 L1.60474656,10 L6.95696247,10 L7.7915897,2.50439523 L0.770119326,2.50439523 Z M6.00015552,3.33761499 L6.6989209,3.33761499 L6.12407238,9.42320273 L5.59142839,9.42320273 L6.00015552,3.33761499 Z M3.89494199,3.34282794 L4.59369083,3.34282794 L4.51930762,9.42717206 L3.98668018,9.42717206 L3.89494199,3.34282794 Z M1.78971192,3.39100511 L2.48846076,3.39100511 L2.91457595,9.46390119 L2.38193196,9.46390119 L1.78971192,3.39100511 Z" id="Fill-2"></path>
                            </g>
                        </g>
                    </g>
                </g>
            </g>
        </g>
    </g>
</svg>