<?xml version="1.0" encoding="UTF-8" standalone="no"?>
<svg width="94px" height="81px" viewBox="0 0 94 81" version="1.1" xmlns="http://www.w3.org/2000/svg" xmlns:xlink="http://www.w3.org/1999/xlink">
    <!-- Generator: Sketch 3.6.1 (26313) - http://www.bohemiancoding.com/sketch -->
    <title>Group 8</title>
    <desc>Created with Sketch.</desc>
    <defs></defs>
    <g id="Homepage" stroke="none" stroke-width="1" fill="none" fill-rule="evenodd">
        <g id="Group-8">
            <g id="Layer_1" transform="translate(62.000000, 49.000000)" fill="#0D2636">
                <path d="M18.5083125,22.135875 C21.626125,21.7676875 24.9421875,20.6340625 24.9421875,15.248875 C24.9421875,13.71825 24.4031875,12.470875 23.5253125,11.5070625 C23.6669375,11.1389375 24.12,9.7499375 23.3544375,7.822875 C23.3544375,7.822875 22.22075,7.45425 19.557,9.2396875 C18.4233125,8.92825 17.176375,8.7295 16.014375,8.7295 C14.8235625,8.7295 13.5761875,8.92825 12.4708125,9.2396875 C9.7781875,7.45425 8.6445625,7.822875 8.6445625,7.822875 C7.8795,9.7499375 8.333125,11.1389375 8.4746875,11.5070625 C7.595875,12.4708125 7.057375,13.71825 7.057375,15.248875 C7.057375,20.6340625 10.3734375,21.7676875 13.49125,22.135875 C13.09475,22.476625 12.7261875,23.1279375 12.5845625,24.0350625 C11.7906875,24.3749375 9.7215625,25.027125 8.4746875,22.8730625 C8.4746875,22.8730625 7.7375,21.5411875 6.3489375,21.45625 C6.3489375,21.45625 4.9599375,21.4279375 6.235625,22.30575 C6.235625,22.30575 7.170625,22.7315 7.7945625,24.3465625 C7.7945625,24.3465625 8.6445625,27.039625 12.55575,26.1890625 L12.55575,28.598 C12.55575,28.967125 12.272625,29.391875 11.5641875,29.278625 C6.0086875,27.4360625 2.0125,22.164125 2.0125,15.985625 C2.0125,8.2476875 8.276,1.98425 16.014375,1.98425 C23.7235625,1.98425 30.0158125,8.24775 29.9875,15.985625 C29.9875,22.164125 25.990875,27.40775 20.43575,29.278625 C19.726875,29.42025 19.4436875,28.9955 19.4436875,28.598 L19.4436875,24.715625 C19.44375,23.4110625 19.018,22.5615625 18.5083125,22.135875 L18.5083125,22.135875 L18.5083125,22.135875 Z M32,16.014375 C32,7.170625 24.8289375,0 16.014375,0 C7.170625,0 0,7.170625 0,16.014375 C0,24.8289375 7.170625,32 16.014375,32 C24.8289375,32 32,24.8289375 32,16.014375 L32,16.014375 L32,16.014375 Z" id="Shape"></path>
            </g>
            <g id="Layer_1-Copy" transform="translate(62.000000, 0.000000)" fill="#BEBEBE">
                <path d="M18.5083125,22.135875 C21.626125,21.7676875 24.9421875,20.6340625 24.9421875,15.248875 C24.9421875,13.71825 24.4031875,12.470875 23.5253125,11.5070625 C23.6669375,11.1389375 24.12,9.7499375 23.3544375,7.822875 C23.3544375,7.822875 22.22075,7.45425 19.557,9.2396875 C18.4233125,8.92825 17.176375,8.7295 16.014375,8.7295 C14.8235625,8.7295 13.5761875,8.92825 12.4708125,9.2396875 C9.7781875,7.45425 8.6445625,7.822875 8.6445625,7.822875 C7.8795,9.7499375 8.333125,11.1389375 8.4746875,11.5070625 C7.595875,12.4708125 7.057375,13.71825 7.057375,15.248875 C7.057375,20.6340625 10.3734375,21.7676875 13.49125,22.135875 C13.09475,22.476625 12.7261875,23.1279375 12.5845625,24.0350625 C11.7906875,24.3749375 9.7215625,25.027125 8.4746875,22.8730625 C8.4746875,22.8730625 7.7375,21.5411875 6.3489375,21.45625 C6.3489375,21.45625 4.9599375,21.4279375 6.235625,22.30575 C6.235625,22.30575 7.170625,22.7315 7.7945625,24.3465625 C7.7945625,24.3465625 8.6445625,27.039625 12.55575,26.1890625 L12.55575,28.598 C12.55575,28.967125 12.272625,29.391875 11.5641875,29.278625 C6.0086875,27.4360625 2.0125,22.164125 2.0125,15.985625 C2.0125,8.2476875 8.276,1.98425 16.014375,1.98425 C23.7235625,1.98425 30.0158125,8.24775 29.9875,15.985625 C29.9875,22.164125 25.990875,27.40775 20.43575,29.278625 C19.726875,29.42025 19.4436875,28.9955 19.4436875,28.598 L19.4436875,24.715625 C19.44375,23.4110625 19.018,22.5615625 18.5083125,22.135875 L18.5083125,22.135875 L18.5083125,22.135875 Z M32,16.014375 C32,7.170625 24.8289375,0 16.014375,0 C7.170625,0 0,7.170625 0,16.014375 C0,24.8289375 7.170625,32 16.014375,32 C24.8289375,32 32,24.8289375 32,16.014375 L32,16.014375 L32,16.014375 Z" id="Shape"></path>
            </g>
            <g id="1454413831_twitter" transform="translate(0.000000, 49.000000)" fill="#1EBEF0">
                <g id="Layer_1">
                    <g id="Group">
                        <path d="M16.014375,30 L16.014375,30 C23.6960555,30 30,23.6960555 30,16.014375 C30,8.30761525 23.7000949,2 16.014375,2 C8.3035695,2 2,8.3035695 2,16.014375 C2,23.7000949 8.30761525,30 16.014375,30 L16.014375,30 Z M16.014375,32 L16.014375,32 C7.199,32 0,24.800625 0,16.014375 C0,7.199 7.199,0 16.014375,0 C24.800625,0 32,7.199 32,16.014375 C32,24.800625 24.800625,32 16.014375,32 L16.014375,32 Z" id="Shape"></path>
                        <path d="M17.2896875,8.5879375 C16.722375,8.984875 16.297625,9.5516875 15.985625,10.1751875 L15.8440625,10.5438125 C15.759125,10.798625 15.702,11.054 15.6736875,11.308875 C15.645375,11.4504375 15.645375,11.5641875 15.6170625,11.6775 L15.6170625,11.9040625 L15.645375,12.2726875 L15.702,12.7545625 L15.6736875,12.7545625 L15.50375,12.7545625 L15.3904375,12.7545625 C14.0014375,12.72625 12.64125,12.41425 11.4504375,11.87575 L10.7420625,11.5359375 C10.6005,11.4788125 10.4871875,11.393875 10.345125,11.3089375 C9.55175,10.855375 8.843375,10.2601875 8.219375,9.6084375 C7.8229375,9.1831875 7.4543125,8.729625 7.142375,8.24775 C6.8025,8.9000625 6.603875,9.6650625 6.603875,10.4589375 C6.603875,10.742125 6.6321875,11.02575 6.6888125,11.3089375 C6.6888125,11.4505 6.717125,11.56425 6.7459375,11.6775625 C7.0008125,12.5275625 7.4543125,13.293125 8.0778125,13.8599375 L8.3898125,14.143625 L7.992875,14.0581875 C7.4826875,13.9165625 6.9725,13.7466875 6.490625,13.5479375 C6.54725,14.568375 6.9441875,15.50375 7.567625,16.241 C8.16275,16.9489375 8.956625,17.4879375 9.86325,17.74275 L8.8145625,17.799375 L7.9361875,17.7710625 C8.588,19.35875 10.09025,20.52075 11.87575,20.662375 C10.231875,21.881 8.1910625,22.561625 6.0086875,22.561625 C7.62425,23.5536875 9.4668125,24.1766875 11.47875,24.2899375 L12.7828125,24.2899375 C18.9896875,23.9500625 23.8934375,18.8198125 23.8934375,12.5275 L23.8934375,11.932375 C24.12,11.7341875 24.3465625,11.5359375 24.5740625,11.3089375 C25.1120625,10.8270625 25.5944375,10.2601875 25.9909375,9.6650625 C25.338625,10.0903125 24.5740625,10.316875 23.723625,10.316875 L23.6953125,10.316875 L23.667,10.316875 L23.6953125,10.316875 C24.4598125,9.8066875 25.0555,9.041625 25.367,8.1628125 C24.7723125,8.4748125 24.09175,8.7013125 23.411125,8.9000625 L23.3261875,8.928375 L22.8165,9.041625 C22.0793125,8.24775 21.0305625,7.7375625 19.8685625,7.7375625 L19.8403125,7.7375625 L19.7836875,7.7375625 C19.4721875,7.7375625 19.15975,7.765875 18.8481875,7.823 C18.395125,7.93625 17.9410625,8.1345 17.5729375,8.3615 L17.2896875,8.5879375 L17.2896875,8.5879375 Z" id="Shape"></path>
                    </g>
                </g>
            </g>
            <g id="1454413831_twitter-copy-2" fill="#BEBEBE">
                <g id="Layer_1">
                    <g id="Group">
                        <path d="M16.014375,30 L16.014375,30 C23.6960555,30 30,23.6960555 30,16.014375 C30,8.30761525 23.7000949,2 16.014375,2 C8.3035695,2 2,8.3035695 2,16.014375 C2,23.7000949 8.30761525,30 16.014375,30 L16.014375,30 Z M16.014375,32 L16.014375,32 C7.199,32 0,24.800625 0,16.014375 C0,7.199 7.199,0 16.014375,0 C24.800625,0 32,7.199 32,16.014375 C32,24.800625 24.800625,32 16.014375,32 L16.014375,32 Z" id="Shape"></path>
                        <path d="M17.2896875,8.5879375 C16.722375,8.984875 16.297625,9.5516875 15.985625,10.1751875 L15.8440625,10.5438125 C15.759125,10.798625 15.702,11.054 15.6736875,11.308875 C15.645375,11.4504375 15.645375,11.5641875 15.6170625,11.6775 L15.6170625,11.9040625 L15.645375,12.2726875 L15.702,12.7545625 L15.6736875,12.7545625 L15.50375,12.7545625 L15.3904375,12.7545625 C14.0014375,12.72625 12.64125,12.41425 11.4504375,11.87575 L10.7420625,11.5359375 C10.6005,11.4788125 10.4871875,11.393875 10.345125,11.3089375 C9.55175,10.855375 8.843375,10.2601875 8.219375,9.6084375 C7.8229375,9.1831875 7.4543125,8.729625 7.142375,8.24775 C6.8025,8.9000625 6.603875,9.6650625 6.603875,10.4589375 C6.603875,10.742125 6.6321875,11.02575 6.6888125,11.3089375 C6.6888125,11.4505 6.717125,11.56425 6.7459375,11.6775625 C7.0008125,12.5275625 7.4543125,13.293125 8.0778125,13.8599375 L8.3898125,14.143625 L7.992875,14.0581875 C7.4826875,13.9165625 6.9725,13.7466875 6.490625,13.5479375 C6.54725,14.568375 6.9441875,15.50375 7.567625,16.241 C8.16275,16.9489375 8.956625,17.4879375 9.86325,17.74275 L8.8145625,17.799375 L7.9361875,17.7710625 C8.588,19.35875 10.09025,20.52075 11.87575,20.662375 C10.231875,21.881 8.1910625,22.561625 6.0086875,22.561625 C7.62425,23.5536875 9.4668125,24.1766875 11.47875,24.2899375 L12.7828125,24.2899375 C18.9896875,23.9500625 23.8934375,18.8198125 23.8934375,12.5275 L23.8934375,11.932375 C24.12,11.7341875 24.3465625,11.5359375 24.5740625,11.3089375 C25.1120625,10.8270625 25.5944375,10.2601875 25.9909375,9.6650625 C25.338625,10.0903125 24.5740625,10.316875 23.723625,10.316875 L23.6953125,10.316875 L23.667,10.316875 L23.6953125,10.316875 C24.4598125,9.8066875 25.0555,9.041625 25.367,8.1628125 C24.7723125,8.4748125 24.09175,8.7013125 23.411125,8.9000625 L23.3261875,8.928375 L22.8165,9.041625 C22.0793125,8.24775 21.0305625,7.7375625 19.8685625,7.7375625 L19.8403125,7.7375625 L19.7836875,7.7375625 C19.4721875,7.7375625 19.15975,7.765875 18.8481875,7.823 C18.395125,7.93625 17.9410625,8.1345 17.5729375,8.3615 L17.2896875,8.5879375 L17.2896875,8.5879375 Z" id="Shape"></path>
                    </g>
                </g>
            </g>
        </g>
    </g>
</svg>